<svg height="128" viewBox="0 0 33.867 33.867" width="128" xmlns="http://www.w3.org/2000/svg"><circle cx="24.944" cy="16.247" fill="#bb0f0f" r="4.958" transform="matrix(.858 .514 -.514 .858 0 0)"/><path d="m17.035 27.197 1.441.063" stroke-linecap="round" stroke-linejoin="round"/><path d="m17.084 26.092a1.106 1.106 0 0 0 -1.154 1.057 1.106 1.106 0 0 0 1.057 1.154l1.441.063a1.106 1.106 0 0 0 1.154-1.057 1.106 1.106 0 0 0 -1.057-1.154z" stroke-linecap="round" stroke-linejoin="round"/><path d="m18.525 26.155 2.21.097a1.228 1.228 0 0 0 -.097 2.21l-2.21-.097-.062-1.11z"/><circle cx="34.61" cy="11.384" fill="#c4c4c4" r="3.913" transform="matrix(.858 .514 -.514 .858 0 0)"/><circle cx="16.255" cy="9.154" fill="#c4c4c4" r="3.913" transform="matrix(.858 .514 -.514 .858 0 0)"/><g stroke-linecap="round" stroke-linejoin="round"><g><path d="m11.366 22.317-.859-2.316"/><path d="m10.17 19.096a.966.966 0 0 0 -.568 1.242l.859 2.316a.966.966 0 0 0 1.242.568.966.966 0 0 0 .568-1.242l-.859-2.315a.966.966 0 0 0 -1.242-.57z" fill="#d67070"/></g><path d="m12.913 22.436-.17-18.431"/><path d="m12.734 2.951a1.055 1.055 0 0 0 -1.047 1.065l.17 18.43a1.055 1.055 0 0 0 1.065 1.047 1.055 1.055 0 0 0 1.047-1.066l-.17-18.43a1.055 1.055 0 0 0 -1.065-1.045z"/></g><g fill-rule="evenodd"><path d="m12.725 2.017 2.68 4.539-5.276.049z"/><path d="m12.719 1.315-3.195 5.647 6.494-.059zm.012 1.404 2.061 3.49-4.055.037z"/></g><path d="m26.82 27.511 3.08.095" stroke-linecap="round" stroke-linejoin="round"/><path d="m26.854 26.4a1.111 1.111 0 0 0 -1.145 1.076 1.111 1.111 0 0 0 1.076 1.145l3.08.096a1.111 1.111 0 0 0 1.145-1.076 1.111 1.111 0 0 0 -1.076-1.145z" stroke-linecap="round" stroke-linejoin="round"/><g fill-rule="evenodd"><path d="m33.104 27.704-4.889 2.629.171-5.554z"/><path d="m28.035 24.127-.211 6.836 6.02-3.236zm.701 1.307 3.627 2.248-3.76 2.023z"/></g><path d="m9.185 28.121-5.337 1.817" stroke-linecap="round" stroke-linejoin="round"/><path d="m8.826 27.068-5.336 1.816a1.111 1.111 0 0 0 -.695 1.41 1.111 1.111 0 0 0 1.41.695l5.338-1.818a1.111 1.111 0 0 0 .693-1.41 1.111 1.111 0 0 0 -1.41-.693z" stroke-linecap="round" stroke-linejoin="round"/><g fill-rule="evenodd"><path d="m.813 30.971 3.654-4.179 1.791 5.26z"/><path d="m4.611 26.064-4.5 5.145 6.705 1.332zm-.287 1.453 1.377 4.047-4.188-.832z"/></g></svg>
