<svg height="128" viewBox="0 0 33.867 33.867" width="128" xmlns="http://www.w3.org/2000/svg"><path d="m17.62 2.159c-.393-.01-.711.221-.994.678-.527.849-.19 1.668 1.42 3.459 1.127 1.252 1.523 1.872 2.068 3.237.371.928.737 1.816.812 1.972.076.157.05.292-.057.302-.107.009-.334-.263-.504-.605s-1.111-1.692-2.091-3.001c-1.584-2.118-1.969-2.504-3.482-3.491-.935-.61-1.894-1.202-2.131-1.315-1.09-.52-2.302.162-2.24 1.263.049.894.65 1.564 2.557 2.856 1.266.858 1.944 1.497 2.788 2.632 1.419 1.906 2.277 3.29 2.14 3.452-.058.07-.137.092-.174.05-1.01-1.153-1.949-1.974-4.184-3.655-2.477-1.863-2.927-2.118-5.277-2.986-3.136-1.159-4.212-1.206-4.929-.216-.93 1.286.261 2.435 3.815 3.683 2.223.78 2.367.869 5.167 3.172 1.584 1.303 2.89 2.476 2.901 2.608s-.351-.027-.805-.353c-.453-.326-2.022-1.13-3.486-1.785-2.571-1.152-2.747-1.199-5.195-1.394-2.744-.219-3.625-.068-4.305.737-.458.542-.367 1.503.187 1.971.617.52 1.249.665 3.54.809 1.814.115 2.227.224 4.284 1.139 2.666 1.187 4.099 2.068 5.565 3.424 1.579 1.459 1.723 2.498.698 5.032-.348.86-.473.985-1.027 1.032-.411.035-1.035-.181-1.791-.618-1.911-1.105-3.042-1.205-3.871-.344-.749.779.053 1.717 3.087 3.612l1.947 1.216 2.109-.402c4.783-.912 4.836-.916 5.834-.439.499.238 1.378.759 1.951 1.157.574.398 1.228.708 1.453.689s.869-.314 1.43-.656c1.809-1.1 4.857-4.89 5.591-6.95.455-1.279.362-1.621-.797-2.918-.574-.643-2.005-2.462-3.179-4.043s-2.649-3.356-3.279-3.945c-.945-.884-1.191-1.249-1.41-2.102-.146-.567-.705-2.046-1.243-3.287-.756-1.743-1.238-2.549-2.119-3.55-1.256-1.425-2.119-2.111-2.774-2.127z" fill="#fff"/></svg>
