<?xml version="1.0" encoding="UTF-8" standalone="no"?>
<!-- Created with Inkscape (http://www.inkscape.org/) -->

<svg
   width="128"
   height="128"
   viewBox="0 0 33.866666 33.866666"
   version="1.1"
   id="svg1"
   xml:space="preserve"
   inkscape:version="1.3.2 (091e20ef0f, 2023-11-25)"
   sodipodi:docname="manipulator_dark.svg"
   xmlns:inkscape="http://www.inkscape.org/namespaces/inkscape"
   xmlns:sodipodi="http://sodipodi.sourceforge.net/DTD/sodipodi-0.dtd"
   xmlns="http://www.w3.org/2000/svg"
   xmlns:svg="http://www.w3.org/2000/svg"><sodipodi:namedview
     id="namedview1"
     pagecolor="#505050"
     bordercolor="#eeeeee"
     borderopacity="1"
     inkscape:showpageshadow="0"
     inkscape:pageopacity="0"
     inkscape:pagecheckerboard="0"
     inkscape:deskcolor="#505050"
     inkscape:document-units="px"
     inkscape:zoom="2"
     inkscape:cx="-5.75"
     inkscape:cy="88.000001"
     inkscape:window-width="1920"
     inkscape:window-height="978"
     inkscape:window-x="0"
     inkscape:window-y="0"
     inkscape:window-maximized="1"
     inkscape:current-layer="layer5" /><defs
     id="defs1"><inkscape:path-effect
       effect="spiro"
       id="path-effect63"
       is_visible="true"
       lpeversion="1" /><inkscape:path-effect
       effect="skeletal"
       id="path-effect62"
       is_visible="true"
       lpeversion="1"
       pattern="M 0,4.9921383 C 0,2.2364779 2.2364779,0 4.9921383,0 c 2.7556603,0 4.9921382,2.2364779 4.9921382,4.9921383 0,2.7556603 -2.2364779,4.9921382 -4.9921382,4.9921382 C 2.2364779,9.9842765 0,7.7477986 0,4.9921383 Z"
       copytype="single_stretched"
       prop_scale="1"
       scale_y_rel="false"
       spacing="0"
       normal_offset="0"
       tang_offset="0"
       prop_units="false"
       vertical_pattern="false"
       hide_knot="false"
       fuse_tolerance="0" /><inkscape:path-effect
       effect="spiro"
       id="path-effect61"
       is_visible="true"
       lpeversion="1" /><inkscape:path-effect
       effect="spiro"
       id="path-effect60"
       is_visible="true"
       lpeversion="1" /><inkscape:path-effect
       effect="spiro"
       id="path-effect59"
       is_visible="true"
       lpeversion="1" /><linearGradient
       id="linearGradient10"><stop
         style="stop-color:#c2c2c2;stop-opacity:1;"
         offset="0"
         id="stop9" /><stop
         style="stop-color:#000000;stop-opacity:1;"
         offset="1"
         id="stop10" /></linearGradient><linearGradient
       id="linearGradient1"><stop
         style="stop-color:#ece69f;stop-opacity:1;"
         offset="0"
         id="stop7" /><stop
         style="stop-color:#ffca00;stop-opacity:1;"
         offset="1"
         id="stop8" /></linearGradient><linearGradient
       id="linearGradient1-1"><stop
         style="stop-color:#c2c2c2;stop-opacity:1;"
         offset="0"
         id="stop4" /><stop
         style="stop-color:#7b7b7b;stop-opacity:1;"
         offset="1"
         id="stop5" /></linearGradient><inkscape:path-effect
       effect="fill_between_many"
       method="originald"
       linkedpaths="#path1,0,1|"
       id="path-effect2" /></defs><g
     inkscape:groupmode="layer"
     id="layer5"
     inkscape:label="Layer 4"
     style="display:inline"><path
       id="path2"
       style="fill:#ffffff;fill-opacity:1"
       d="M 17.620113 2.1585245 C 17.22711 2.1486818 16.908911 2.3799649 16.625858 2.8365193 C 16.099182 3.6860304 16.435915 4.5054728 18.046443 6.2957396 C 19.172848 7.5478539 19.568696 8.1681026 20.114017 9.5327513 C 20.485046 10.461233 20.850659 11.348736 20.926371 11.505241 C 21.002087 11.661742 20.976211 11.797474 20.86901 11.806514 C 20.761826 11.815589 20.535208 11.543522 20.365165 11.2019 C 20.195128 10.860276 19.254239 9.5096689 18.274336 8.2005329 C 16.689544 6.083276 16.30507 5.6974114 14.792378 4.7103067 C 13.857057 4.0999646 12.898003 3.5081976 12.661242 3.3951415 C 11.571151 2.8746119 10.359158 3.557333 10.420552 4.6575968 C 10.470432 5.551642 11.071079 6.2224703 12.977502 7.5137531 C 14.243897 8.3715207 14.921614 9.0107682 15.766479 10.145634 C 17.185419 12.051622 18.043396 13.435897 17.9064 13.598136 C 17.847563 13.66781 17.768953 13.690237 17.731734 13.647745 C 16.72176 12.494668 15.782679 11.674315 13.54801 9.9931883 C 11.071451 8.1300835 10.621143 7.8751939 8.2708128 7.0068073 C 5.1351615 5.8482651 4.0587585 5.8014992 3.3424316 6.7913166 C 2.4122736 8.0766058 3.6029287 9.2261668 7.156669 10.473779 C 9.3795595 11.254168 9.5238124 11.343036 12.323795 13.645678 C 13.908011 14.9485 15.21378 16.122392 15.22491 16.254305 C 15.236024 16.386223 14.873867 16.227071 14.420308 15.900838 C 13.966746 15.574598 12.398092 14.771414 10.934216 14.115934 C 8.3625448 12.964428 8.186571 12.91709 5.7386677 12.721704 C 2.9954664 12.502745 2.1138454 12.654077 1.434021 13.459127 C 0.97611694 14.001414 1.0672739 14.961914 1.6210896 15.429549 C 2.2376138 15.950139 2.869963 16.094843 5.1609252 16.239319 C 6.9751724 16.353732 7.3883019 16.463274 9.4449013 17.378267 C 12.111274 18.564549 13.544115 19.446265 15.010453 20.801831 C 16.589035 22.261162 16.732978 23.299908 15.708085 25.833565 C 15.36018 26.693628 15.23517 26.819331 14.681274 26.86606 C 14.270334 26.900726 13.646311 26.685135 12.890169 26.24801 C 10.978995 25.143152 9.8479108 25.042804 9.0190876 25.904361 C 8.2701202 26.682909 9.0717657 27.621193 12.105721 29.516027 L 14.053405 30.73249 L 16.161804 30.330448 C 20.944785 29.417793 20.998246 29.413679 21.996073 29.890681 C 22.495464 30.12941 23.37375 30.65036 23.947375 31.048233 C 24.520996 31.446115 25.174657 31.756094 25.399999 31.73708 C 25.625341 31.718108 26.269057 31.422751 26.830403 31.081306 C 28.63937 29.980984 31.687492 26.191257 32.420759 24.130826 C 32.876014 22.85159 32.782907 22.509594 31.624426 21.213175 C 31.049921 20.570265 29.619209 18.751051 28.445292 17.170011 C 27.271377 15.588972 25.796097 13.813663 25.166422 13.225032 C 24.220666 12.340922 23.975067 11.97554 23.756172 11.123352 C 23.610429 10.555975 23.050999 9.0765602 22.512837 7.836214 C 21.756531 6.0930895 21.275284 5.2870806 20.393587 4.2860432 C 19.13802 2.8605352 18.275118 2.1749291 17.620113 2.1585245 z " /></g></svg>
