<svg xmlns="http://www.w3.org/2000/svg" xmlns:svg="http://www.w3.org/2000/svg" id="svg1" width="128" height="128" version="1.1" viewBox="0 0 33.867 33.867" xml:space="preserve"><defs id="defs1"><linearGradient id="linearGradient10"><stop style="stop-color:#c2c2c2;stop-opacity:1" id="stop9" offset="0"/><stop style="stop-color:#000;stop-opacity:1" id="stop10" offset="1"/></linearGradient><linearGradient id="linearGradient1"><stop style="stop-color:#ece69f;stop-opacity:1" id="stop7" offset="0"/><stop style="stop-color:#ffca00;stop-opacity:1" id="stop8" offset="1"/></linearGradient><linearGradient id="linearGradient1-1"><stop style="stop-color:#c2c2c2;stop-opacity:1" id="stop4" offset="0"/><stop style="stop-color:#7b7b7b;stop-opacity:1" id="stop5" offset="1"/></linearGradient></defs><g id="layer5" style="display:inline"><path id="path2" d="m 23.523963,31.887779 c -2.062332,-1.387213 -2.59068,-1.546103 -4.097116,-1.232114 -4.064592,0.847188 -5.512961,1.081173 -5.751534,0.929165 -0.141793,-0.0904 -1.013548,-0.624006 -1.93719,-1.185875 -2.2327759,-1.358249 -3.0116007,-1.982738 -3.5561802,-2.851435 -0.8596845,-1.371339 -0.18408,-2.689755 1.5389451,-3.003224 1.1958451,-0.217557 2.2467401,0.01562 3.5075111,0.778249 0.534843,0.323546 1.109861,0.576649 1.2778,0.562477 0.344159,-0.02903 0.966444,-1.970743 0.896664,-2.79785 C 15.293948,21.796185 12.893671,19.926783 9.2331266,18.282003 7.3119413,17.418765 6.8578567,17.297458 5.1583971,17.193445 2.6902759,17.042386 1.6907984,16.751755 0.8467571,15.939683 0.24425668,15.360005 0.16517432,15.175805 0.18688357,14.402723 c 0.041453,-1.476205 1.17394933,-2.544242 2.84595313,-2.683968 0.5220191,-0.04368 1.7610707,-0.0153 2.7534378,0.06295 0.9923665,0.07825 1.9374845,0.12755 2.1002626,0.109572 C 8.0493101,11.873247 7.1639454,11.469988 5.9190519,10.995036 3.4825393,10.06546 2.8255174,9.6045906 2.3278818,8.4760078 1.9166889,7.5434683 2.073757,6.6927997 2.8011993,5.912561 3.2816644,5.3972258 3.5201,5.3042628 4.5936965,5.2136872 5.608079,5.1281077 6.1100094,5.2149043 7.3692856,5.6936562 8.2147866,6.0151 9.2058979,6.374951 9.5717577,6.4933282 L 10.236954,6.70856 9.8921661,6.1603391 C 9.1162932,4.9266871 9.4394598,3.3001025 10.593965,2.6279408 c 0.98906,-0.5758348 2.01961,-0.429471 3.480318,0.4942943 l 1.201925,0.760106 0.189276,-0.7336475 c 0.248184,-0.9619822 0.622684,-1.4294626 1.416081,-1.7676595 1.317741,-0.5617062 1.979428,-0.1603438 4.801981,2.9127425 0.691459,0.752834 2.571548,4.8363353 2.94606,6.3987594 0.149843,0.625202 0.440651,1.091065 1.008841,1.616225 0.917287,0.847819 2.32235,2.577589 4.657955,5.734399 0.900945,1.217722 2.018349,2.585144 2.48312,3.038721 0.906358,0.884525 1.063608,1.421711 0.766779,2.619433 -0.586779,2.367682 -4.023642,6.87528 -6.271936,8.225923 -1.729656,1.039074 -2.153611,1.034612 -3.750402,-0.03946 z" style="fill:#fff;fill-opacity:1"/><path style="fill:#000;fill-opacity:1;stroke:none;stroke-width:.264583;stroke-dasharray:none;stroke-opacity:1" id="path1" d="m 23.106456,30.940437 c -1.931686,-1.299335 -2.426564,-1.44816 -3.837569,-1.154062 -3.807106,0.79352 -5.163723,1.012683 -5.387183,0.870304 -0.132811,-0.08467 -0.949341,-0.584476 -1.814472,-1.110751 C 9.9758994,28.273722 9.246412,27.688793 8.7363308,26.875127 7.9311061,25.59066 8.563912,24.355764 10.177786,24.062153 c 1.12009,-0.203775 2.104412,0.01463 3.285315,0.728948 0.500962,0.30305 1.039553,0.540119 1.196854,0.526845 0.322357,-0.02719 0.905221,-1.8459 0.839861,-2.620611 -0.102015,-1.209204 -2.350238,-2.960183 -5.7788923,-4.500768 -1.799481,-0.808553 -2.2248,-0.922176 -3.8166013,-1.0196 C 3.5925531,17.035478 2.656391,16.763258 1.8658185,16.002629 1.3014856,15.459673 1.227413,15.287142 1.247747,14.563034 c 0.038827,-1.38269 1.0995813,-2.383068 2.6656661,-2.513943 0.48895,-0.04091 1.6495095,-0.01433 2.5790115,0.05896 0.9295016,0.07329 1.8147477,0.11947 1.9672141,0.102631 C 8.6121002,12.193796 7.7828221,11.816083 6.6167908,11.371219 4.3346277,10.50053 3.7192272,10.068856 3.2531161,9.0117672 2.8679717,8.1383028 3.0150897,7.3415228 3.6964496,6.6107111 4.146478,6.1280216 4.369809,6.0409477 5.3753947,5.9561099 6.3255176,5.8759518 6.7956514,5.9572499 7.9751543,6.4056736 8.767094,6.7067544 9.6954199,7.0438093 10.038103,7.1546875 L 10.66116,7.3562847 10.338214,6.8427928 C 9.6114915,5.6872909 9.914186,4.163748 10.995555,3.5341668 11.921959,2.9948103 12.887226,3.1319022 14.2554,3.9971483 l 1.125785,0.7119544 0.177285,-0.687172 c 0.232462,-0.9010421 0.583238,-1.3389083 1.326375,-1.6556809 1.234264,-0.5261229 1.854034,-0.1501862 4.497782,2.7282245 0.647656,0.7051431 2.408644,4.5299605 2.759431,5.9934077 0.140351,0.585596 0.412737,1.021947 0.944933,1.513839 0.859178,0.794111 2.175232,2.414303 4.36288,5.371133 0.843872,1.140581 1.89049,2.421379 2.325818,2.846223 0.848942,0.828491 0.99623,1.331647 0.718205,2.453495 -0.549608,2.217693 -3.76875,6.439741 -5.874618,7.704823 -1.620085,0.97325 -2.017183,0.969071 -3.51282,-0.03696 z m 3.096797,-0.7552 c 1.694373,-1.03062 4.549713,-4.580659 5.23653,-6.510566 0.426415,-1.1982 0.339073,-1.518104 -0.746021,-2.732398 C 30.155651,20.34009 28.815748,18.635761 27.716195,17.154876 26.616645,15.673992 25.234458,14.01126 24.644671,13.459918 23.758826,12.631814 23.529164,12.289427 23.324136,11.491223 23.187625,10.959788 22.663523,9.5744318 22.159453,8.4126586 21.451057,6.7799568 21.000366,6.0249079 20.174522,5.0872838 18.292875,2.9509551 17.352407,2.5891115 16.645416,3.7294655 c -0.493313,0.7956966 -0.178215,1.5631348 1.33029,3.2399925 1.05505,1.1727958 1.426242,1.7538246 1.937019,3.032026 0.347525,0.869665 0.689884,1.701148 0.7608,1.847738 0.07092,0.146587 0.04678,0.273457 -0.05363,0.281925 -0.100394,0.0085 -0.312866,-0.246405 -0.472137,-0.566386 C 19.988493,11.244778 19.107229,9.9797164 18.189401,8.753511 16.705001,6.7703773 16.344629,6.4092051 14.927763,5.4846311 14.051692,4.9129527 13.153462,4.3585748 12.9317,4.2526806 c -1.021037,-0.4875553 -2.155869,0.1520013 -2.098364,1.182566 0.04672,0.8374096 0.60929,1.4658257 2.394946,2.6753088 1.186172,0.8034301 1.820692,1.4023011 2.612037,2.4652756 1.329053,1.785248 2.132634,3.081711 2.004317,3.233673 -0.05511,0.06526 -0.128712,0.08607 -0.163573,0.04627 C 16.735069,12.775741 15.855408,12.007354 13.7623,10.432723 11.442625,8.6876415 11.021227,8.4491785 8.8197842,7.6358021 5.8827689,6.5506508 4.8741682,6.5064716 4.2032189,7.4335864 3.3319842,8.6374556 4.447622,9.714527 7.7762413,10.883106 c 2.0820757,0.730953 2.217178,0.813879 4.8397887,2.970655 1.483859,1.220291 2.706454,2.319805 2.716879,2.443361 0.01041,0.123562 -0.328637,-0.02537 -0.753464,-0.330937 -0.42483,-0.305573 -1.894267,-1.05791 -3.26541,-1.671867 -2.4087621,-1.078561 -2.5731756,-1.122678 -4.8660101,-1.305687 -2.569426,-0.205088 -3.3953275,-0.06366 -4.0320867,0.690392 -0.4288969,0.507935 -0.3434398,1.407829 0.175293,1.84584 0.5774688,0.487612 1.1696341,0.62307 3.3154693,0.758393 1.699319,0.107166 2.0861373,0.210037 4.0124561,1.067067 2.4974644,1.111134 3.8398344,1.936768 5.2132834,3.206462 1.478583,1.366886 1.613465,2.339601 0.653496,4.712757 -0.325866,0.80558 -0.443027,0.923391 -0.961835,0.96716 -0.384908,0.03247 -0.969558,-0.169138 -1.6778,-0.578572 -1.790106,-1.034868 -2.84963,-1.128947 -3.6259493,-0.321967 -0.7015221,0.729228 0.049619,1.608038 2.8913803,3.382839 L 14.236,29.858336 16.210732,29.48153 c 4.479991,-0.85484 4.53019,-0.858617 5.464807,-0.411832 0.467756,0.223606 1.290057,0.711473 1.827344,1.084142 0.537283,0.372677 1.149567,0.663025 1.360635,0.645216 0.211067,-0.01777 0.813943,-0.294043 1.339729,-0.613858 z" transform="matrix(1.067633,0,0,1.067633,-1.1452523,-1.1452523)"/></g></svg>