<svg height="128" viewBox="0 0 33.867 33.867" width="128" xmlns="http://www.w3.org/2000/svg"><g><path d="m23.524 31.888c-2.062-1.387-2.591-1.546-4.097-1.232-4.065.847-5.513 1.081-5.752.929-.142-.09-1.014-.624-1.937-1.186-2.233-1.358-3.012-1.983-3.556-2.851-.86-1.371-.184-2.69 1.539-3.003 1.196-.218 2.247.016 3.508.778.535.324 1.11.577 1.278.562.344-.029.966-1.971.897-2.798-.11-1.291-2.51-3.16-6.171-4.805-1.921-.863-2.375-.985-4.075-1.089-2.468-.151-3.467-.441-4.311-1.253-.603-.58-.682-.764-.66-1.537.041-1.476 1.174-2.544 2.846-2.684.522-.044 1.761-.015 2.753.063s1.937.128 2.1.11c.163-.019-.722-.422-1.967-.897-2.436-.93-3.093-1.39-3.591-2.519-.411-.933-.254-1.783.473-2.563.481-.516.719-.609 1.793-.699 1.014-.086 1.516.001 2.775.48.846.321 1.837.681 2.203.799l.665.216-.345-.549c-.776-1.233-.453-2.86.702-3.532.989-.576 2.02-.429 3.48.494l1.202.76.189-.734c.248-.962.623-1.429 1.416-1.768 1.318-.562 1.979-.16 4.802 2.913.691.753 2.572 4.836 2.946 6.399.15.625.441 1.091 1.009 1.616.917.848 2.322 2.578 4.658 5.734.901 1.218 2.018 2.585 2.483 3.039.906.885 1.064 1.422.767 2.619-.587 2.368-4.024 6.875-6.272 8.226-1.73 1.039-2.154 1.035-3.75-.039z" fill="#fff"/><path d="m23.106 30.94c-1.932-1.299-2.427-1.448-3.838-1.154-3.807.794-5.164 1.013-5.387.87-.133-.085-.949-.584-1.814-1.111-2.091-1.271-2.821-1.856-3.331-2.67-.805-1.284-.172-2.519 1.442-2.813 1.12-.204 2.104.015 3.285.729.501.303 1.04.54 1.197.527.322-.027.905-1.846.84-2.621-.102-1.209-2.35-2.96-5.779-4.501-1.799-.809-2.225-.922-3.817-1.02-2.311-.141-3.248-.413-4.038-1.173-.565-.543-.639-.716-.618-1.44.039-1.383 1.1-2.383 2.666-2.514.489-.041 1.65-.014 2.579.059.93.073 1.815.119 1.967.103.152-.017-.677-.395-1.843-.84-2.282-.87-2.898-1.302-3.364-2.359-.385-.874-.238-1.67.443-2.401.45-.483.674-.57 1.679-.655.951-.08 1.421.001 2.6.45.792.301 1.72.638 2.063.749l.623.201-.323-.513c-.727-1.156-.424-2.679.658-3.309.926-.539 1.891-.402 3.259.463l1.126.712.177-.687c.232-.901.583-1.339 1.326-1.656 1.234-.526 1.854-.15 4.498 2.728.648.705 2.409 4.53 2.759 5.993.14.586.413 1.022.945 1.514.859.794 2.175 2.414 4.363 5.371.844 1.141 1.89 2.421 2.326 2.846.849.828.996 1.332.718 2.453-.55 2.218-3.769 6.44-5.875 7.705-1.62.973-2.017.969-3.513-.037zm3.097-.755c1.694-1.031 4.55-4.581 5.237-6.511.426-1.198.339-1.518-.746-2.732-.538-.602-1.878-2.306-2.978-3.787-1.099-1.481-2.482-3.144-3.071-3.695-.886-.828-1.116-1.171-1.321-1.969-.136-.531-.66-1.917-1.165-3.078-.708-1.633-1.159-2.388-1.984-3.326-1.882-2.136-2.823-2.498-3.53-1.358-.493.796-.178 1.563 1.33 3.24 1.055 1.173 1.426 1.754 1.937 3.032.348.87.69 1.701.761 1.848s.047.273-.054.282c-.1.009-.313-.246-.472-.566s-1.04-1.585-1.958-2.811c-1.484-1.984-1.844-2.345-3.261-3.269-.876-.572-1.775-1.126-1.996-1.232-1.021-.488-2.156.152-2.098 1.183.047.837.609 1.466 2.395 2.675 1.186.803 1.821 1.402 2.612 2.465 1.329 1.785 2.133 3.082 2.004 3.234-.055.065-.129.086-.164.046-.946-1.08-1.826-1.849-3.919-3.423-2.319-1.745-2.741-1.984-4.942-2.797-2.937-1.085-3.946-1.13-4.617-.202-.871 1.203.245 2.281 3.573 3.449 2.082.731 2.217.814 4.84 2.971 1.484 1.22 2.706 2.32 2.717 2.443.01.124-.329-.025-.753-.331-.425-.306-1.894-1.058-3.265-1.672-2.409-1.079-2.573-1.123-4.866-1.306-2.569-.205-3.395-.064-4.032.69-.429.508-.343 1.408.175 1.846.577.488 1.17.623 3.315.758 1.699.107 2.086.21 4.012 1.067 2.497 1.111 3.84 1.937 5.213 3.206 1.479 1.367 1.613 2.34.653 4.713-.326.806-.443.923-.962.967-.385.032-.97-.169-1.678-.579-1.79-1.035-2.85-1.129-3.626-.322-.702.729.05 1.608 2.891 3.383l1.826 1.141 1.975-.376c4.48-.855 4.53-.859 5.465-.412.468.224 1.29.711 1.827 1.084s1.15.663 1.361.645.814-.294 1.34-.614z" transform="matrix(1.068 0 0 1.068 -1.145 -1.145)"/></g></svg>
