<svg xmlns="http://www.w3.org/2000/svg" xmlns:svg="http://www.w3.org/2000/svg" id="svg1" width="128" height="128" version="1.1" viewBox="0 0 33.867 33.867" xml:space="preserve"><defs id="defs1"><rect id="rect76" width="105.359" height="82.731" x="-248.902" y="72.125"/><rect id="rect75" width="59.25" height="42" x="36" y="-52.75"/><linearGradient id="linearGradient10"><stop style="stop-color:#c2c2c2;stop-opacity:1" id="stop9" offset="0"/><stop style="stop-color:#000;stop-opacity:1" id="stop10" offset="1"/></linearGradient><linearGradient id="linearGradient1"><stop style="stop-color:#ece69f;stop-opacity:1" id="stop7" offset="0"/><stop style="stop-color:#ffca00;stop-opacity:1" id="stop8" offset="1"/></linearGradient><linearGradient id="linearGradient1-1"><stop style="stop-color:#c2c2c2;stop-opacity:1" id="stop4" offset="0"/><stop style="stop-color:#7b7b7b;stop-opacity:1" id="stop5" offset="1"/></linearGradient><rect id="rect76-6" width="105.359" height="82.731" x="-248.902" y="72.125"/><rect id="rect76-6-4" width="105.359" height="82.731" x="-248.902" y="72.125"/><rect id="rect76-6-4-2" width="105.359" height="82.731" x="-248.902" y="72.125"/></defs><g id="layer3"><circle style="fill:#bb0f0f;fill-opacity:1;stroke:none;stroke-width:6.26693;stroke-linecap:round;stroke-linejoin:round;stroke-dasharray:none;stroke-opacity:1;paint-order:stroke fill markers" id="path25-0" cx="16.933" cy="16.933" r="16.74"/><g id="text76-8-0-6" style="font-size:37.3333px;-inkscape-font-specification:'sans-serif, Normal';white-space:pre;fill:#fff;stroke-width:4;stroke-linecap:round;stroke-linejoin:round;paint-order:stroke fill markers" aria-label="AaI" transform="matrix(0.48784506,0,0,0.48784506,124.55875,-28.685914)"><path style="font-weight:500;font-size:39.0865px;font-family:'Fira Sans';-inkscape-font-specification:'Fira Sans, Medium'" id="path85" d="m -231.43068,107.46571 h 5.47211 l -8.36451,-27.008771 h -6.3711 l -8.4036,27.008771 h 5.35485 l 1.68072,-6.25384 h 8.95081 z m -9.61528,-10.162491 3.43961,-12.898544 3.4787,12.898544 z m 33.10627,4.690381 v -8.677204 c 0,-4.57312 -2.42336,-7.113742 -7.97364,-7.113742 -2.30611,0 -4.9249,0.508124 -7.46552,1.485287 l 1.13351,3.400525 c 2.11067,-0.703557 4.10408,-1.094422 5.51119,-1.094422 2.65788,0 3.86956,0.89899 3.86956,3.595958 v 1.172595 h -2.61879 c -6.01932,0 -9.38076,2.423363 -9.38076,6.918313 0,3.7523 2.54062,6.3711 6.6447,6.3711 2.50154,0 4.72947,-0.89899 6.21476,-3.08784 0.78173,2.0325 2.26701,2.81423 4.57312,3.00966 l 1.05533,-3.32235 c -1.01625,-0.39086 -1.56346,-0.97716 -1.56346,-2.65788 z m -8.91172,2.42336 c -1.91524,0 -2.93149,-1.13351 -2.93149,-3.12692 0,-2.423361 1.60255,-3.595956 4.84673,-3.595956 h 2.07158 v 4.182256 c -0.93807,1.64163 -2.26701,2.54062 -3.98682,2.54062 z"/><path style="font-stretch:semi-condensed;font-size:39.0865px;font-family:'DejaVu Serif';-inkscape-font-specification:'DejaVu Serif, Semi-Condensed'" id="path86" d="m -196.2072,105.44268 h 3.26357 v 2.02303 h -10.00065 v -2.02303 h 3.26357 V 81.013616 h -3.26357 v -2.042117 h 10.00065 v 2.042117 h -3.26357 z"/></g></g></svg>