<?xml version="1.0" encoding="UTF-8" standalone="no"?>
<!-- Created with Inkscape (http://www.inkscape.org/) -->

<svg
   width="128"
   height="128"
   viewBox="0 0 33.866666 33.866666"
   version="1.1"
   id="svg1"
   xml:space="preserve"
   inkscape:version="1.3.2 (091e20ef0f, 2023-11-25)"
   sodipodi:docname="label_light.svg"
   inkscape:export-filename="label_flat_export.svg"
   inkscape:export-xdpi="96"
   inkscape:export-ydpi="96"
   xmlns:inkscape="http://www.inkscape.org/namespaces/inkscape"
   xmlns:sodipodi="http://sodipodi.sourceforge.net/DTD/sodipodi-0.dtd"
   xmlns="http://www.w3.org/2000/svg"
   xmlns:svg="http://www.w3.org/2000/svg"><sodipodi:namedview
     id="namedview1"
     pagecolor="#505050"
     bordercolor="#eeeeee"
     borderopacity="1"
     inkscape:showpageshadow="0"
     inkscape:pageopacity="0"
     inkscape:pagecheckerboard="0"
     inkscape:deskcolor="#505050"
     inkscape:document-units="px"
     inkscape:zoom="4"
     inkscape:cx="64.75"
     inkscape:cy="92"
     inkscape:window-width="1920"
     inkscape:window-height="978"
     inkscape:window-x="0"
     inkscape:window-y="0"
     inkscape:window-maximized="1"
     inkscape:current-layer="layer3" /><defs
     id="defs1"><rect
       x="-248.90159"
       y="72.124891"
       width="105.35891"
       height="82.731493"
       id="rect76" /><rect
       x="36"
       y="-52.75"
       width="59.25"
       height="42"
       id="rect75" /><inkscape:path-effect
       effect="spiro"
       id="path-effect63"
       is_visible="true"
       lpeversion="1" /><inkscape:path-effect
       effect="skeletal"
       id="path-effect62"
       is_visible="true"
       lpeversion="1"
       pattern="M 0,4.9921383 C 0,2.2364779 2.2364779,0 4.9921383,0 c 2.7556603,0 4.9921382,2.2364779 4.9921382,4.9921383 0,2.7556603 -2.2364779,4.9921382 -4.9921382,4.9921382 C 2.2364779,9.9842765 0,7.7477986 0,4.9921383 Z"
       copytype="single_stretched"
       prop_scale="1"
       scale_y_rel="false"
       spacing="0"
       normal_offset="0"
       tang_offset="0"
       prop_units="false"
       vertical_pattern="false"
       hide_knot="false"
       fuse_tolerance="0" /><inkscape:path-effect
       effect="spiro"
       id="path-effect61"
       is_visible="true"
       lpeversion="1" /><inkscape:path-effect
       effect="spiro"
       id="path-effect60"
       is_visible="true"
       lpeversion="1" /><inkscape:path-effect
       effect="spiro"
       id="path-effect59"
       is_visible="true"
       lpeversion="1" /><linearGradient
       id="linearGradient10"><stop
         style="stop-color:#c2c2c2;stop-opacity:1;"
         offset="0"
         id="stop9" /><stop
         style="stop-color:#000000;stop-opacity:1;"
         offset="1"
         id="stop10" /></linearGradient><linearGradient
       id="linearGradient1"><stop
         style="stop-color:#ece69f;stop-opacity:1;"
         offset="0"
         id="stop7" /><stop
         style="stop-color:#ffca00;stop-opacity:1;"
         offset="1"
         id="stop8" /></linearGradient><linearGradient
       id="linearGradient1-1"><stop
         style="stop-color:#c2c2c2;stop-opacity:1;"
         offset="0"
         id="stop4" /><stop
         style="stop-color:#7b7b7b;stop-opacity:1;"
         offset="1"
         id="stop5" /></linearGradient><rect
       x="-248.9016"
       y="72.124893"
       width="105.35891"
       height="82.731491"
       id="rect76-6" /><rect
       x="-248.9016"
       y="72.124893"
       width="105.35891"
       height="82.731491"
       id="rect76-6-4" /><rect
       x="-248.9016"
       y="72.124893"
       width="105.35891"
       height="82.731491"
       id="rect76-6-4-2" /></defs><g
     inkscape:groupmode="layer"
     id="layer3"
     inkscape:label="Layer 3"><circle
       style="fill:#bb0f0f;fill-opacity:1;stroke:none;stroke-width:6.26693;stroke-linecap:round;stroke-linejoin:round;stroke-dasharray:none;stroke-opacity:1;paint-order:stroke fill markers"
       id="path25-0"
       cx="16.933332"
       cy="16.933332"
       r="16.740461" /><g
       id="text76-8-0-6"
       style="font-size:37.3333px;-inkscape-font-specification:'sans-serif, Normal';white-space:pre;fill:#ffffff;stroke-width:4;stroke-linecap:round;stroke-linejoin:round;paint-order:stroke fill markers"
       transform="matrix(0.48784506,0,0,0.48784506,124.55875,-28.685914)"
       aria-label="AaI"><path
         style="font-weight:500;font-size:39.0865px;font-family:'Fira Sans';-inkscape-font-specification:'Fira Sans, Medium'"
         d="m -231.43068,107.46571 h 5.47211 l -8.36451,-27.008771 h -6.3711 l -8.4036,27.008771 h 5.35485 l 1.68072,-6.25384 h 8.95081 z m -9.61528,-10.162491 3.43961,-12.898544 3.4787,12.898544 z m 33.10627,4.690381 v -8.677204 c 0,-4.57312 -2.42336,-7.113742 -7.97364,-7.113742 -2.30611,0 -4.9249,0.508124 -7.46552,1.485287 l 1.13351,3.400525 c 2.11067,-0.703557 4.10408,-1.094422 5.51119,-1.094422 2.65788,0 3.86956,0.89899 3.86956,3.595958 v 1.172595 h -2.61879 c -6.01932,0 -9.38076,2.423363 -9.38076,6.918313 0,3.7523 2.54062,6.3711 6.6447,6.3711 2.50154,0 4.72947,-0.89899 6.21476,-3.08784 0.78173,2.0325 2.26701,2.81423 4.57312,3.00966 l 1.05533,-3.32235 c -1.01625,-0.39086 -1.56346,-0.97716 -1.56346,-2.65788 z m -8.91172,2.42336 c -1.91524,0 -2.93149,-1.13351 -2.93149,-3.12692 0,-2.423361 1.60255,-3.595956 4.84673,-3.595956 h 2.07158 v 4.182256 c -0.93807,1.64163 -2.26701,2.54062 -3.98682,2.54062 z"
         id="path85" /><path
         style="font-stretch:semi-condensed;font-size:39.0865px;font-family:'DejaVu Serif';-inkscape-font-specification:'DejaVu Serif, Semi-Condensed'"
         d="m -196.2072,105.44268 h 3.26357 v 2.02303 h -10.00065 v -2.02303 h 3.26357 V 81.013616 h -3.26357 v -2.042117 h 10.00065 v 2.042117 h -3.26357 z"
         id="path86" /></g></g></svg>
