<svg height="128" viewBox="0 0 33.867 33.867" width="128" xmlns="http://www.w3.org/2000/svg"><circle cx="16.933" cy="16.933" fill="#bb0f0f" r="16.74"/><g fill="#fff" stroke-linecap="round" stroke-linejoin="round" stroke-width="4" transform="matrix(.488 0 0 .488 124.559 -28.686)"><path d="m-231.431 107.466h5.472l-8.365-27.009h-6.371l-8.404 27.009h5.355l1.681-6.254h8.951zm-9.615-10.162 3.44-12.899 3.479 12.899zm33.106 4.69v-8.677c0-4.573-2.423-7.114-7.974-7.114-2.306 0-4.925.508-7.466 1.485l1.134 3.401c2.111-.704 4.104-1.094 5.511-1.094 2.658 0 3.87.899 3.87 3.596v1.173h-2.619c-6.019 0-9.381 2.423-9.381 6.918 0 3.752 2.541 6.371 6.645 6.371 2.502 0 4.729-.899 6.215-3.088.782 2.033 2.267 2.814 4.573 3.01l1.055-3.322c-1.016-.391-1.563-.977-1.563-2.658zm-8.912 2.423c-1.915 0-2.931-1.134-2.931-3.127 0-2.423 1.603-3.596 4.847-3.596h2.072v4.182c-.938 1.642-2.267 2.541-3.987 2.541z"/><path d="m-196.207 105.443h3.264v2.023h-10.001v-2.023h3.264v-24.429h-3.264v-2.042h10.001v2.042h-3.264z"/></g></svg>
