<?xml version="1.0" encoding="UTF-8"?>
<svg width="256px" height="256px" baseProfile="full" version="1.1" viewBox="0 0 256 256" xml:space="preserve" xmlns="http://www.w3.org/2000/svg">

 <!-- END OF HEADER -->
<rect width="256" height="256" fill="#fff"> </rect>
<path class="bond-0 atom-0 atom-1" d="m32 212 38.3-22.2" fill="none" stroke="#191919" stroke-width="2px"/>
<path class="bond-0 atom-0 atom-1" d="m70.3 189.8 38.3-22.1" fill="none" stroke="#f00" stroke-width="2px"/>
<path class="bond-1 atom-1 atom-2" d="m142.6 167.7 36.1 20.9" fill="none" stroke="#f00" stroke-width="2px"/>
<path class="bond-1 atom-1 atom-2" d="m178.7 188.6 36.1 20.8" fill="none" stroke="#000" stroke-width="2px"/>
<path class="bond-2 atom-1 atom-3" d="m125.6 139.6v-42" fill="none" stroke="#f00" stroke-width="2px"/>
<path class="bond-2 atom-1 atom-3" d="m125.6 97.6v-42" fill="none" stroke="#000" stroke-width="2px"/>
<path class="atom-0" d="m16 215 4.1-4.3-5.5-1.1 0.9-2.8 5 2.5-0.7-5.5 3-0.1-0.8 5.6 5.1-2.4 0.9 2.7-5.6 1 4 4.3-2.4 1.8-2.8-5.3-2.8 5.3-2.4-1.7" fill="#191919"/>
<path class="atom-1" d="m112.6 158q0-6.8 3.4-10.6 3.3-3.8 9.6-3.8t9.6 3.8q3.4 3.8 3.4 10.6 0 6.9-3.4 10.8t-9.6 3.9-9.6-3.9-3.4-10.8m13 11.5q4.3 0 6.6-2.9 2.4-2.9 2.4-8.6 0-5.6-2.4-8.4-2.3-2.8-6.6-2.8t-6.7 2.8q-2.3 2.8-2.3 8.4 0 5.7 2.3 8.6 2.4 2.9 6.7 2.9" fill="#f00"/>
<path class="atom-2" d="m218.8 204h3.9v12h14.4v-12h3.9v28.3h-3.9v-13.1h-14.4v13.1h-3.9v-28.3"/>
<path class="atom-3" d="m114.5 23.3h3.9v12.1h14.4v-12.1h3.9v28.3h-3.9v-13h-14.4v13h-3.9v-28.3"/>
</svg>
