<?xml version="1.0" encoding="UTF-8"?>
<svg width="256px" height="256px" baseProfile="full" version="1.1" viewBox="0 0 256 256" xml:space="preserve" xmlns="http://www.w3.org/2000/svg">

 <!-- END OF HEADER -->
<rect width="256" height="256" fill="#fff"> </rect>
<path class="bond-0 atom-0 atom-1" d="m43.9 120.8h58.6" fill="none" stroke="#191919" stroke-width="2px"/>
<path class="bond-0 atom-0 atom-1" d="m102.5 120.8h58.5" fill="none" stroke="#FF7F00" stroke-width="2px"/>
<path class="atom-0" d="m27.2 117.7 4.2-4.3-5.6-1.1 0.9-2.8 5.1 2.5-0.8-5.5 3-0.1-0.8 5.6 5.2-2.4 0.8 2.7-5.6 1.1 4 4.2-2.4 1.8-2.8-5.3-2.8 5.3-2.4-1.7" fill="#191919"/>
<path class="atom-1" d="m174.1 106.7q4.8 0 7.3 2.2 2.4 2.1 2.4 6.1 0 3.9-2.5 6.2-2.5 2.2-7.2 2.2h-4.5v11.6h-3.9v-28.3h8.4m0 13.5q2.7 0 4.2-1.4 1.5-1.3 1.5-3.8t-1.5-3.8q-1.4-1.3-4.2-1.3h-4.5v10.3h4.5" fill="#FF7F00"/>
<path class="atom-1" d="m187.8 106.7h3.8v12h14.5v-12h3.8v28.3h-3.8v-13.1h-14.5v13.1h-3.8v-28.3" fill="#FF7F00"/>
<path class="atom-1" d="m227.5 142.7h2.3v2.2h-2.3v4.3h-2.5v-4.3h-9.6v-1.7l8.2-12.7h3.9v12.2m-9.1 0h6.6v-10.5l-6.6 10.5" fill="#FF7F00"/>
</svg>
