<svg height="256" viewBox="0 0 256 256" width="256" xmlns="http://www.w3.org/2000/svg"><path d="m0 0h256v256h-256z" fill="#fff"/><ellipse cx="36.6" cy="195.2" fill="#ff7f7f" fill-rule="evenodd" rx="23.8" ry="23.8" stroke="#ff7f7f"/><g fill="none" stroke="#000" stroke-width="2"><path d="m105.3 140.9.1-64.7"/><path d="m105.4 76.2 68.7-39.6"/><path d="m117.3 83.1 56.8-32.7"/><path d="m120 164 54 31.3"/><path d="m125.9 153.7 48.1 27.8"/><path d="m174 195.3 68.7-39.6"/><path d="m242.7 155.7.1-79.4"/><path d="m230.8 148.8.1-65.6"/><path d="m242.8 76.3-68.7-39.7"/><path d="m90.7 164-39.5 22.8"/><path d="m105.4 79.5v-3.3l3.4-2" stroke-miterlimit="10"/><path d="m170.7 38.6 3.4-2 3.5 2" stroke-miterlimit="10"/><path d="m171.3 193.7 2.7 1.6 3.4-2" stroke-miterlimit="10"/><path d="m239.3 157.7 3.4-2v-4" stroke-miterlimit="10"/><path d="m242.8 80.3v-4l-3.4-1.9" stroke-miterlimit="10"/></g><text x="24.6" y="215.2"/><text font-family="sans-serif" font-size="40" x="93.3" y="175.6">N</text></svg>
