<?xml version="1.0" encoding="UTF-8"?>
<svg width="256px" height="256px" baseProfile="full" version="1.1" viewBox="0 0 256 256" xml:space="preserve" xmlns="http://www.w3.org/2000/svg">

 <!-- END OF HEADER -->
<rect width="256" height="256" fill="#fff"> </rect>
<path class="bond-0 atom-0 atom-1" d="m44.1 120.7h59.3" fill="none" stroke="#191919" stroke-width="2px"/>
<path class="bond-0 atom-0 atom-1" d="m103.4 120.7h59.4" fill="none" stroke="#cc0" stroke-width="2px"/>
<path class="atom-0" d="m27.3 117.5 4.2-4.2-5.6-1.1 0.9-2.9 5.1 2.6-0.8-5.6h3l-0.8 5.6 5.2-2.4 0.8 2.7-5.6 1 4 4.3-2.4 1.8-2.8-5.3-2.8 5.3-2.4-1.8" fill="#191919"/>
<path class="atom-1" d="m168.6 130.5q0.3 0.1 1.7 0.6 1.3 0.6 2.7 1 1.5 0.3 2.9 0.3 2.7 0 4.3-1.3 1.5-1.3 1.5-3.6 0-1.6-0.8-2.5-0.7-1-1.9-1.5t-3.2-1.1q-2.5-0.8-4.1-1.5-1.4-0.7-2.5-2.2-1.1-1.6-1.1-4.1 0-3.6 2.4-5.8 2.5-2.2 7.3-2.2 3.3 0 7 1.6l-0.9 3.1q-3.4-1.4-6-1.4-2.8 0-4.3 1.1t-1.5 3.1q0 1.5 0.8 2.4 0.8 1 1.9 1.5 1.2 0.5 3.1 1.1 2.6 0.8 4.1 1.6t2.6 2.4 1.1 4.4q0 3.9-2.6 6t-7 2.1q-2.5 0-4.4-0.5-1.9-0.6-4.2-1.5l1.1-3.1" fill="#cc0"/>
<path class="atom-1" d="m189.6 106.5h3.8v12.1h14.5v-12.1h3.8v28.4h-3.8v-13.1h-14.5v13.1h-3.8v-28.4" fill="#cc0"/>
<path class="atom-1" d="m226.1 139.2q1.8 0.5 2.7 1.7t0.9 3q0 1.6-0.8 2.8t-2.3 1.9q-1.4 0.7-3.3 0.7-2 0-3.5-0.7t-2.7-2.1l1.5-1.6q1.2 1.3 2.1 1.8 1 0.5 2.6 0.5 1.7 0 2.7-0.9t1-2.4q0-1.9-1.1-2.8-1-0.8-3.3-0.8h-1.4v-1.9h1.2q2.1-0.1 3.1-0.9 1.1-0.9 1.1-2.6 0-1.2-0.9-1.9-0.9-0.8-2.4-0.8-1.6 0-2.5 0.6-1 0.5-1.7 1.9l-1.8-0.9q0.6-1.6 2.2-2.6 1.6-1.1 3.8-1.1 2.7 0 4.4 1.3 1.6 1.3 1.6 3.5 0 1.5-0.9 2.6-0.8 1.1-2.3 1.7" fill="#cc0"/>
</svg>
