<?xml version="1.0" encoding="UTF-8"?>
<svg width="256px" height="256px" baseProfile="full" version="1.1" viewBox="0 0 256 256" xml:space="preserve" xmlns="http://www.w3.org/2000/svg">

 <!-- END OF HEADER -->
<rect width="256" height="256" fill="#fff"> </rect>
<path class="bond-0 atom-0 atom-1" d="m127.8 199-57.5-33.2" fill="none" stroke="#000" stroke-width="2px"/>
<path class="bond-1 atom-1 atom-2" d="m70.3 165.8-57.5 33.2" fill="none" stroke="#000" stroke-width="2px"/>
<path class="bond-2 atom-1 atom-3" d="m70.3 165.8v-27.2" fill="none" stroke="#000" stroke-width="2px"/>
<path class="bond-2 atom-1 atom-3" d="m70.3 138.6v-27.2" fill="none" stroke="#f00" stroke-width="2px"/>
<path class="bond-3 atom-3 atom-4" d="m81.1 93.1 22.3-12.8" fill="none" stroke="#f00" stroke-width="2px"/>
<path class="bond-3 atom-3 atom-4" d="m103.4 80.3 22.3-12.9" fill="none" stroke="#191919" stroke-width="2px"/>
<path class="bond-4 atom-4 atom-5" d="m129.9 67.4 22.3 12.9" fill="none" stroke="#191919" stroke-width="2px"/>
<path class="bond-4 atom-4 atom-5" d="m152.2 80.3 22.3 12.8" fill="none" stroke="#f00" stroke-width="2px"/>
<path class="bond-5 atom-5 atom-6" d="m185.3 111.4v27.2" fill="none" stroke="#f00" stroke-width="2px"/>
<path class="bond-5 atom-5 atom-6" d="m185.3 138.6v27.2" fill="none" stroke="#000" stroke-width="2px"/>
<path class="bond-6 atom-6 atom-7" d="m185.3 165.8 57.5 33.2" fill="none" stroke="#000" stroke-width="2px"/>
<path class="bond-7 atom-6 atom-0" d="m185.3 165.8-57.5 33.2" fill="none" stroke="#000" stroke-width="2px"/>
<path d="m124.9 197.3 2.9 1.7 2.9-1.7" fill="none" stroke="#000" stroke-miterlimit="10" stroke-width="2px"/>
<path class="atom-3" d="m61.7 99.4q0-4.5 2.2-7t6.4-2.5 6.4 2.5 2.2 7q0 4.6-2.2 7.2-2.3 2.6-6.4 2.6t-6.4-2.6q-2.2-2.6-2.2-7.2m8.6 7.7q2.9 0 4.4-2 1.6-1.9 1.6-5.7 0-3.7-1.6-5.5-1.5-1.9-4.4-1.9t-4.4 1.9q-1.6 1.8-1.6 5.5 0 3.8 1.6 5.7 1.5 2 4.4 2" fill="#f00"/>
<path class="atom-4" d="m124.3 64.1 2.7-2.8-3.6-0.8 0.5-1.9 3.4 1.7-0.5-3.6 2-0.1-0.6 3.7 3.5-1.6 0.5 1.8-3.7 0.7 2.7 2.9-1.6 1.1-1.9-3.5-1.8 3.5-1.6-1.1" fill="#191919"/>
<path class="atom-5" d="m176.7 99.4q0-4.5 2.2-7t6.4-2.5 6.4 2.5 2.2 7q0 4.6-2.2 7.2-2.3 2.6-6.4 2.6t-6.4-2.6q-2.2-2.6-2.2-7.2m8.6 7.7q2.9 0 4.4-2 1.6-1.9 1.6-5.7 0-3.7-1.6-5.5-1.5-1.9-4.4-1.9t-4.4 1.9q-1.6 1.8-1.6 5.5 0 3.8 1.6 5.7 1.5 2 4.4 2" fill="#f00"/>
</svg>
