<svg height="256" viewBox="0 0 256 256" width="256" xmlns="http://www.w3.org/2000/svg"><path d="m0 0h256v256h-256z" fill="#fff"/><ellipse cx="223.2" cy="178.6" fill="#ff7f7f" fill-rule="evenodd" rx="18.6" ry="18.6" stroke="#ff7f7f"/><g fill="none" stroke="#000" stroke-width="2"><path d="m75.7 201.8 40.4-23.3"/><path d="m116.1 178.5 40.3 23.4"/><path d="m116.1 178.5v-61.8"/><path d="m125.3 173.2.1-51.2"/><path d="m116.1 116.7 53.6-30.9"/><path d="m169.7 85.8 40.4 23.3"/><path d="m169.7 96.5 35.7 20.7"/><path d="m169.7 85.8v-41.3"/><path d="m182.8 201.9 27.2-15.7"/><path d="m223.2 137.4v28"/><path d="m116.1 119.8v-3.1l2.7-1.6" stroke-miterlimit="10"/></g><text font-family="sans-serif" font-size="37" x="13.9" y="228">H</text><text font-family="sans-serif" font-size="24" x="39.5" y="242.8">3</text><text font-family="sans-serif" font-size="37" x="51.3" y="228">C</text><text font-family="sans-serif" font-size="37" x="158.5" y="228">O</text><text x="212.1" y="197.2"/><text font-family="sans-serif" font-size="37" x="212.1" y="135.3">O</text><text font-family="sans-serif" font-size="37" x="158.6" y="42.5">C</text><text font-family="sans-serif" font-size="37" x="184.2" y="42.5">H</text><text font-family="sans-serif" font-size="24" x="209.8" y="57.3">3</text></svg>
