<svg height="256" viewBox="0 0 256 256" width="256" xmlns="http://www.w3.org/2000/svg"><path d="m0 0h256v256h-256z" fill="#fff"/><ellipse cx="127.7" cy="81.4" fill="#ff7f7f" fill-rule="evenodd" rx="14" ry="14" stroke="#ff7f7f"/><g fill="none" stroke="#000" stroke-width="2"><path d="m151.2 153.4 31.4 34.7"/><path d="m159.2 151.7 25.9 28.7"/><path d="m182.6 188.1 45.8-9.8"/><path d="m228.4 178.3 14.4-44.5"/><path d="m223 172.3 11.9-36.9"/><path d="m242.8 133.8-31.4-34.8"/><path d="m211.4 99-35.8 7.7"/><path d="m208.9 106.7-31.8 6.9"/><path d="m95 124.5 9.4 28.9"/><path d="m101.7 122.3 7.8 24.1"/><path d="m104.4 153.4-31.3 34.9"/><path d="m73.1 188.3-45.8-9.7"/><path d="m70.6 180.6-37.8-8"/><path d="m27.3 178.6-14.5-44.5"/><path d="m12.8 134.1 31.3-34.8"/><path d="m20.7 135.8 25.9-28.8"/><path d="m160.6 124.4-9.4 29"/><path d="m104.4 153.4h46.8"/><path d="m44.1 99.3 35.8 7.5"/><path d="m155.7 101.6-18-13"/><path d="m99.9 101.7 17.8-13.1"/><path d="m181.1 186.4 1.5 1.7 2.3-.5" stroke-miterlimit="10"/><path d="m226.1 178.8 2.3-.5.7-2.2" stroke-miterlimit="10"/><path d="m242.1 136 .7-2.2-1.6-1.8" stroke-miterlimit="10"/><path d="m213 100.7-1.6-1.7-1.8.4" stroke-miterlimit="10"/><path d="m74.7 186.5-1.6 1.8-2.2-.5" stroke-miterlimit="10"/><path d="m29.6 179.1-2.3-.5-.7-2.2" stroke-miterlimit="10"/><path d="m13.5 136.4-.7-2.3 1.6-1.7" stroke-miterlimit="10"/><path d="m42.5 101 1.6-1.7 1.8.4" stroke-miterlimit="10"/></g><text font-family="sans-serif" font-size="28" x="157.2" y="122.9">N</text><text x="119.3" y="95.4"/><text font-family="sans-serif" font-size="28" x="81.5" y="123">N</text></svg>
