<?xml version="1.0" encoding="UTF-8"?>
<svg width="256px" height="256px" baseProfile="full" version="1.1" viewBox="0 0 256 256" xml:space="preserve" xmlns="http://www.w3.org/2000/svg">

 <!-- END OF HEADER -->
<rect width="256" height="256" fill="#fff"> </rect>
<path class="bond-0 atom-0 atom-1" d="m27.3 174.9-14.5-44.6" fill="none" stroke="#000" stroke-width="2px"/>
<path class="bond-1 atom-1 atom-2" d="m12.8 130.3 31.3-34.8" fill="none" stroke="#000" stroke-width="2px"/>
<path class="bond-2 atom-2 atom-3" d="m44.1 95.5 19.6 4.2" fill="none" stroke="#000" stroke-width="2px"/>
<path class="bond-2 atom-2 atom-3" d="m63.7 99.7 19.6 4.2" fill="none" stroke="#00f" stroke-width="2px"/>
<path class="bond-3 atom-3 atom-4" d="m96.5 100.5 15-10.9" fill="none" stroke="#00f" stroke-width="2px"/>
<path class="bond-3 atom-3 atom-4" d="m111.5 89.6 15.1-11" fill="none" stroke="#191919" stroke-width="2px"/>
<path class="bond-4 atom-4 atom-5" d="m129 78.6 15.1 11" fill="none" stroke="#191919" stroke-width="2px"/>
<path class="bond-4 atom-4 atom-5" d="m144.1 89.6 15 10.9" fill="none" stroke="#00f" stroke-width="2px"/>
<path class="bond-5 atom-5 atom-6" d="m172.3 103.9 19.6-4.2" fill="none" stroke="#00f" stroke-width="2px"/>
<path class="bond-5 atom-5 atom-6" d="m191.9 99.7 19.6-4.2" fill="none" stroke="#000" stroke-width="2px"/>
<path class="bond-6 atom-6 atom-7" d="m211.5 95.5 31.3 34.8" fill="none" stroke="#000" stroke-width="2px"/>
<path class="bond-7 atom-7 atom-8" d="m242.8 130.3-14.5 44.6" fill="none" stroke="#000" stroke-width="2px"/>
<path class="bond-8 atom-8 atom-9" d="m228.3 174.9-45.8 9.7" fill="none" stroke="#000" stroke-width="2px"/>
<path class="bond-9 atom-9 atom-10" d="m182.5 184.6-31.3-34.8" fill="none" stroke="#000" stroke-width="2px"/>
<path class="bond-10 atom-10 atom-11" d="m151.2 149.8h-46.8" fill="none" stroke="#000" stroke-width="2px"/>
<path class="bond-11 atom-11 atom-12" d="m104.4 149.8-31.3 34.8" fill="none" stroke="#000" stroke-width="2px"/>
<path class="bond-12 atom-12 atom-0" d="m73.1 184.6-45.8-9.7" fill="none" stroke="#000" stroke-width="2px"/>
<path class="bond-13 atom-11 atom-3" d="m104.4 149.8-5.9-18.2" fill="none" stroke="#000" stroke-width="2px"/>
<path class="bond-13 atom-11 atom-3" d="m98.5 131.6-5.9-18.2" fill="none" stroke="#00f" stroke-width="2px"/>
<path class="bond-14 atom-10 atom-5" d="m151.2 149.8 5.9-18.2" fill="none" stroke="#000" stroke-width="2px"/>
<path class="bond-14 atom-10 atom-5" d="m157.1 131.6 5.9-18.2" fill="none" stroke="#00f" stroke-width="2px"/>
<path d="m26.5 172.6 0.8 2.3 2.3 0.4" fill="none" stroke="#000" stroke-miterlimit="10" stroke-width="2px"/>
<path d="m13.5 132.6-0.7-2.3 1.6-1.7" fill="none" stroke="#000" stroke-miterlimit="10" stroke-width="2px"/>
<path d="m42.6 97.3 1.5-1.8 1 0.2" fill="none" stroke="#000" stroke-miterlimit="10" stroke-width="2px"/>
<path d="m210.5 95.7 1-0.2 1.5 1.8" fill="none" stroke="#000" stroke-miterlimit="10" stroke-width="2px"/>
<path d="m241.2 128.6 1.6 1.7-0.7 2.3" fill="none" stroke="#000" stroke-miterlimit="10" stroke-width="2px"/>
<path d="m229.1 172.6-0.8 2.3-2.3 0.4" fill="none" stroke="#000" stroke-miterlimit="10" stroke-width="2px"/>
<path d="m184.8 184.1-2.3 0.5-1.5-1.7" fill="none" stroke="#000" stroke-miterlimit="10" stroke-width="2px"/>
<path d="m74.6 182.9-1.5 1.7-2.3-0.5" fill="none" stroke="#000" stroke-miterlimit="10" stroke-width="2px"/>
<path class="atom-3" d="m87 98.6 4.3 7.1q0.5 0.7 1.2 1.9 0.7 1.3 0.7 1.3v-10.3h1.8v13.3h-1.9l-4.6-7.7q-0.6-0.9-1.2-1.9-0.5-1-0.7-1.4v11h-1.7v-13.3h2.1" fill="#00f"/>
<path class="atom-4" d="m125.3 76.3 1.9-2-2.5-0.5 0.4-1.4 2.3 1.2-0.3-2.6h1.4l-0.4 2.6 2.4-1.1 0.4 1.3-2.6 0.4 1.9 2.1-1.2 0.8-1.2-2.5-1.4 2.5-1.1-0.8" fill="#191919"/>
<path class="atom-5" d="m162.7 98.6 4.4 7.1q0.4 0.7 1.1 1.9 0.7 1.3 0.7 1.3v-10.3h1.8v13.3h-1.8l-4.7-7.7q-0.5-0.9-1.1-1.9t-0.7-1.4v11h-1.8v-13.3h2.1" fill="#00f"/>
</svg>
