<?xml version="1.0" encoding="UTF-8"?>
<svg width="256px" height="256px" baseProfile="full" version="1.1" viewBox="0 0 256 256" xml:space="preserve" xmlns="http://www.w3.org/2000/svg">

 <!-- END OF HEADER -->
<rect width="256" height="256" fill="#fff"> </rect>
<path class="bond-0 atom-0 atom-1" d="m101.8 205-5.4-51.4" fill="none" stroke="#000" stroke-width="2px"/>
<path class="bond-1 atom-1 atom-2" d="m96.4 153.6-52.3 11.1" fill="none" stroke="#000" stroke-width="2px"/>
<path class="bond-2 atom-1 atom-3" d="m96.4 153.6h62.8" fill="none" stroke="#000" stroke-width="2px"/>
<path class="bond-3 atom-3 atom-4" d="m159.2 153.6 52.3 11.1" fill="none" stroke="#000" stroke-width="2px"/>
<path class="bond-4 atom-3 atom-5" d="m159.2 153.6-5.4 51.4" fill="none" stroke="#000" stroke-width="2px"/>
<path class="bond-5 atom-3 atom-6" d="m159.2 153.6 7.9-24.4" fill="none" stroke="#000" stroke-width="2px"/>
<path class="bond-5 atom-3 atom-6" d="m167.1 129.2 7.9-24.3" fill="none" stroke="#00f" stroke-width="2px"/>
<path class="bond-6 atom-6 atom-7" d="m184.9 83 9.3-16.2" fill="none" stroke="#00f" stroke-width="2px"/>
<path class="bond-6 atom-6 atom-7" d="m194.2 66.8 9.4-16.2" fill="none" stroke="#000" stroke-width="2px"/>
<path class="bond-7 atom-6 atom-8" d="m187.4 97.9 19.7 8.8" fill="none" stroke="#00f" stroke-width="2px"/>
<path class="bond-7 atom-6 atom-8" d="m207.1 106.7 19.7 8.7" fill="none" stroke="#000" stroke-width="2px"/>
<path class="bond-8 atom-6 atom-9" d="m169.7 87.5-20.1-14.6" fill="none" stroke="#00f" stroke-width="2px"/>
<path class="bond-8 atom-6 atom-9" d="m149.6 72.9-20.2-14.7" fill="none" stroke="#191919" stroke-width="2px"/>
<path class="bond-9 atom-9 atom-10" d="m126.2 58.2-20.2 14.7" fill="none" stroke="#191919" stroke-width="2px"/>
<path class="bond-9 atom-9 atom-10" d="m106 72.9-20.1 14.6" fill="none" stroke="#00f" stroke-width="2px"/>
<path class="bond-10 atom-10 atom-11" d="m68.2 97.9-19.7 8.8" fill="none" stroke="#00f" stroke-width="2px"/>
<path class="bond-10 atom-10 atom-11" d="m48.5 106.7-19.7 8.7" fill="none" stroke="#000" stroke-width="2px"/>
<path class="bond-11 atom-10 atom-12" d="m70.7 83-9.3-16.2" fill="none" stroke="#00f" stroke-width="2px"/>
<path class="bond-11 atom-10 atom-12" d="m61.4 66.8-9.4-16.2" fill="none" stroke="#000" stroke-width="2px"/>
<path class="bond-12 atom-10 atom-1" d="m80.6 104.9 7.9 24.3" fill="none" stroke="#00f" stroke-width="2px"/>
<path class="bond-12 atom-10 atom-1" d="m88.5 129.2 7.9 24.4" fill="none" stroke="#000" stroke-width="2px"/>
<path class="atom-0" d="m96 207.1h2.5v7.6h9v-7.6h2.4v17.8h-2.4v-8.2h-9v8.2h-2.5v-17.8"/>
<path class="atom-2" d="m28.1 157.8h2.4v7.5h9.1v-7.5h2.4v17.7h-2.4v-8.2h-9.1v8.2h-2.4v-17.7"/>
<path class="atom-4" d="m213.6 157.8h2.4v7.5h9.1v-7.5h2.4v17.7h-2.4v-8.2h-9.1v8.2h-2.4v-17.7"/>
<path class="atom-5" d="m145.7 207.1h2.4v7.6h9v-7.6h2.5v17.8h-2.5v-8.2h-9v8.2h-2.4v-17.8"/>
<path class="atom-6" d="m174.6 85.1 5.8 9.4q0.6 0.9 1.5 2.6 1 1.7 1 1.8v-13.8h2.4v17.7h-2.5l-6.2-10.3q-0.7-1.2-1.5-2.5-0.8-1.4-1-1.9v14.7h-2.3v-17.7h2.8" fill="#00f"/>
<path class="atom-7" d="m203 30.7h2.4v7.6h9.1v-7.6h2.4v17.8h-2.4v-8.2h-9.1v8.2h-2.4v-17.8"/>
<path class="atom-8" d="m228.9 110.6h2.4v7.5h9.1v-7.5h2.4v17.7h-2.4v-8.2h-9.1v8.2h-2.4v-17.7"/>
<path class="atom-9" d="m124.5 55.1 2.6-2.7-3.5-0.7 0.5-1.8 3.2 1.7-0.4-3.5 1.8-0.1-0.5 3.5 3.3-1.5 0.5 1.7-3.5 0.7 2.5 2.7-1.5 1.1-1.8-3.3-1.7 3.3-1.5-1.1" fill="#191919"/>
<path class="atom-10" d="m73.1 85.1 5.8 9.4q0.6 0.9 1.6 2.6 0.9 1.7 0.9 1.8v-13.8h2.4v17.7h-2.4l-6.3-10.3q-0.7-1.2-1.5-2.5-0.7-1.4-1-1.9v14.7h-2.3v-17.7h2.8" fill="#00f"/>
<path class="atom-11" d="m12.8 110.6h2.4v7.5h9.1v-7.5h2.4v17.7h-2.4v-8.2h-9.1v8.2h-2.4v-17.7"/>
<path class="atom-12" d="m38.7 30.7h2.4v7.6h9.1v-7.6h2.4v17.8h-2.4v-8.2h-9.1v8.2h-2.4v-17.8"/>
</svg>
