<svg height="256" viewBox="0 0 256 256" width="256" xmlns="http://www.w3.org/2000/svg"><path d="m0 0h256v256h-256z" fill="#fff"/><ellipse cx="136.8" cy="142.8" fill="#ff7f7f" fill-rule="evenodd" rx="12.8" ry="12.8" stroke="#ff7f7f"/><g fill="none" stroke="#000" stroke-width="2"><path d="m205.7 150 37.1 21.5"/><path d="m205.7 157.6 30.6 17.6"/><path d="m242.8 171.5v42.8"/><path d="m242.8 214.3-37.1 21.4"/><path d="m236.2 210.5-30.5 17.6"/><path d="m205.7 235.7-37.1-21.4"/><path d="m168.6 214.3v-28.6"/><path d="m175.2 210.5v-24.8"/><path d="m163.4 100.7 31.6-10.2"/><path d="m161.4 94.5 28-9.1"/><path d="m195 90.5 8.9-41.9"/><path d="m203.9 48.6-31.8-28.7"/><path d="m196.7 50.9-26.2-23.6"/><path d="m172.1 19.9-40.8 13.2"/><path d="m131.3 33.1-8.9 41.9"/><path d="m137 38.2-7.4 34.5"/><path d="m122.4 75-37 21.4"/><path d="m85.4 96.4-40.8-13.2"/><path d="m79.7 101.5-33.5-10.9"/><path d="m44.6 83.2-31.8 28.6"/><path d="m12.8 111.8 8.9 41.9"/><path d="m20 114.1 7.3 34.5"/><path d="m21.7 153.7 40.7 13.2"/><path d="m62.4 166.9 22.7-20.4"/><path d="m60.8 159.6 19.9-17.9"/><path d="m177.8 166.2 27.9-16.2"/><path d="m195 90.5 10.7 59.5"/><path d="m92.3 129.2-6.9-32.8"/><path d="m122.4 75 22.7 20.4"/><path d="m159.5 163.2-13.5-12.2"/><path d="m147.9 118-7 15.6"/><path d="m103.4 139.3 24.3 2.5"/><path d="m240.9 170.4 1.9 1.1v2.1" stroke-miterlimit="10"/><path d="m242.8 212.2v2.1l-1.9 1.1" stroke-miterlimit="10"/><path d="m207.5 234.6-1.8 1.1-1.9-1.1" stroke-miterlimit="10"/><path d="m170.5 215.3-1.9-1v-1.5" stroke-miterlimit="10"/><path d="m203.4 50.7.5-2.1-1.6-1.5" stroke-miterlimit="10"/><path d="m173.7 21.3-1.6-1.4-2.1.7" stroke-miterlimit="10"/><path d="m133.4 32.5-2.1.6-.4 2.1" stroke-miterlimit="10"/><path d="m46.7 83.8-2.1-.6-1.6 1.4" stroke-miterlimit="10"/><path d="m14.4 110.4-1.6 1.4.4 2.1" stroke-miterlimit="10"/><path d="m21.2 151.6.5 2.1 2 .7" stroke-miterlimit="10"/><path d="m60.4 166.3 2 .6 1.1-1" stroke-miterlimit="10"/></g><text font-family="sans-serif" font-size="25" x="160.9" y="184.3">N</text><text x="129.1" y="155.6"/><text font-family="sans-serif" font-size="25" x="146.5" y="116.5">N</text><text font-family="sans-serif" font-size="25" x="86.5" y="151.1">N</text></svg>
