<svg height="256" viewBox="0 0 256 256" width="256" xmlns="http://www.w3.org/2000/svg"><path d="m0 0h256v256h-256z" fill="#fff"/><ellipse cx="127.5" cy="128.4" fill="#ff7f7f" fill-rule="evenodd" rx="7.2" ry="7.2" stroke="#ff7f7f"/><g fill="none" stroke="#000" stroke-width="2"><path d="m139.9 201h-24.2"/><path d="m137.7 204.7h-19.8"/><path d="m115.7 201-7.6-23"/><path d="m108.1 178-17.7-5.9"/><path d="m107.5 173.9-15.9-5.3"/><path d="m83.5 165.2-5.9-17.7"/><path d="m77.6 147.5 9.2-12.6"/><path d="m88.2 122.6-10.6-14.5"/><path d="m77.6 108.1-23 7.6"/><path d="m76.1 112.6-17.7 5.8"/><path d="m54.6 115.7v24.2"/><path d="m54.6 139.9-20.9 12.1"/><path d="m33.7 152-20.9-12.1"/><path d="m33.7 147.6-17.1-9.9"/><path d="m12.8 139.9v-24.2"/><path d="m12.8 115.7 20.9-12.1"/><path d="m16.6 117.9 17.1-9.9"/><path d="m77.6 108.1 4.9-14.8"/><path d="m90.4 83.5 17.7-5.9"/><path d="m91.6 87 15.9-5.3"/><path d="m108.1 77.6 14.5 10.6"/><path d="m133 88.2 14.5-10.6"/><path d="m135.2 91.2 12.9-9.5"/><path d="m147.5 77.6 17.7 5.9"/><path d="m173.1 93.3 4.9 14.8"/><path d="m169.5 94.5 4.4 13"/><path d="m178 108.1-10.6 14.5"/><path d="m168.8 134.9 9.2 12.6"/><path d="m178 147.5-5.9 17.7"/><path d="m173.9 148.1-5.3 15.9"/><path d="m165.2 172.1-17.7 5.9"/><path d="m147.5 178-14.5-10.6"/><path d="m148.1 173.9-12.9-9.5"/><path d="m178 147.5 23-7.6"/><path d="m201 139.9v-24.2"/><path d="m204.7 137.7v-19.8"/><path d="m201 115.7 20.9-12.1"/><path d="m221.9 103.6 20.9 12.1"/><path d="m221.9 108 17.1 9.9"/><path d="m242.8 115.7v24.2"/><path d="m242.8 139.9-20.9 12.1"/><path d="m239 137.7-17.1 9.9"/><path d="m147.5 77.6-7.6-23"/><path d="m139.9 54.6h-24.2"/><path d="m137.7 50.9h-19.8"/><path d="m115.7 54.6-12.1-20.9"/><path d="m103.6 33.7 12.1-20.9"/><path d="m108 33.7 9.9-17.1"/><path d="m115.7 12.8h24.2"/><path d="m139.9 12.8 12.1 20.9"/><path d="m137.7 16.6 9.9 17.1"/><path d="m115.7 201-12.1 20.9"/><path d="m103.6 221.9 12.1 20.9"/><path d="m108 221.9 9.9 17.1"/><path d="m115.7 242.8h24.2"/><path d="m139.9 242.8 12.1-20.9"/><path d="m137.7 239 9.9-17.1"/><path d="m147.5 178-7.6 23"/><path d="m221.9 152-20.9-12.1"/><path d="m152 33.7-12.1 20.9"/><path d="m152 221.9-12.1-20.9"/><path d="m122.6 167.4-14.5 10.6"/><path d="m54.6 139.9 23 7.6"/><path d="m58.4 137.2 17.7 5.8"/><path d="m115.7 54.6-7.6 23"/><path d="m33.7 103.6 20.9 12.1"/><path d="m201 115.7-23-7.6"/><path d="m127.8 158.5-.2-22"/><path d="m97.1 127.9 25.2.4"/><path d="m127.7 100-.2 23.2"/><path d="m158.5 127.9-25.8.4"/><path d="m34.8 151.4-1.1.6-1-.6" stroke-miterlimit="10"/><path d="m13.8 140.5-1-.6v-1.2" stroke-miterlimit="10"/><path d="m12.8 116.9v-1.2l1-.6" stroke-miterlimit="10"/><path d="m32.7 104.2 1-.6 1.1.6" stroke-miterlimit="10"/><path d="m220.8 104.2 1.1-.6 1 .6" stroke-miterlimit="10"/><path d="m241.8 115.1 1 .6v1.2" stroke-miterlimit="10"/><path d="m242.8 138.7v1.2l-1 .6" stroke-miterlimit="10"/><path d="m222.9 151.4-1 .6-1.1-.6" stroke-miterlimit="10"/><path d="m104.2 34.8-.6-1.1.6-1" stroke-miterlimit="10"/><path d="m115.1 13.8.6-1h1.2" stroke-miterlimit="10"/><path d="m138.7 12.8h1.2l.6 1" stroke-miterlimit="10"/><path d="m151.4 32.7.6 1-.6 1.1" stroke-miterlimit="10"/><path d="m104.2 220.8-.6 1.1.6 1" stroke-miterlimit="10"/><path d="m115.1 241.8.6 1h1.2" stroke-miterlimit="10"/><path d="m138.7 242.8h1.2l.6-1" stroke-miterlimit="10"/><path d="m151.4 222.9.6-1-.6-1.1" stroke-miterlimit="10"/></g><text font-family="sans-serif" font-size="14" x="80.8" y="177.7">N</text><text font-family="sans-serif" font-size="14" x="87.6" y="135">N</text><text font-family="sans-serif" font-size="14" x="80.8" y="92.4">N</text><text font-family="sans-serif" font-size="14" x="123.5" y="99.2">N</text><text font-family="sans-serif" font-size="14" x="166.1" y="92.4">N</text><text font-family="sans-serif" font-size="14" x="159.3" y="135">N</text><text font-family="sans-serif" font-size="14" x="166.1" y="177.7">N</text><text font-family="sans-serif" font-size="14" x="123.5" y="170.9">N</text><text x="123.2" y="135.6"/></svg>
