<svg height="256" viewBox="0 0 256 256" width="256" xmlns="http://www.w3.org/2000/svg"><path d="m0 0h256v256h-256z" fill="#fff"/><ellipse cx="127.3" cy="128.7" fill="#ff7f7f" fill-rule="evenodd" rx="11.4" ry="11.4" stroke="#ff7f7f"/><g fill="none" stroke="#000" stroke-width="2"><path d="m145.4 242.8-37.8-.4"/><path d="m141.1 236.7-29.1-.3"/><path d="m107.6 242.4-11.6-36.1"/><path d="m96 206.3-35.8-12.4"/><path d="m95 199.5-30-10.4"/><path d="m60.2 193.9-11.6-36.1"/><path d="m48.6 157.8 14.8-19.8"/><path d="m65.7 119-16.4-23"/><path d="m49.3 96-36.1 11.6"/><path d="m47 103.1-27.8 8.9"/><path d="m13.2 107.6-.4 37.8"/><path d="m49.3 96 12.4-35.8"/><path d="m61.7 60.2 36.1-11.6"/><path d="m66.5 65 30.2-9.7"/><path d="m97.8 48.6 22.5 16.9"/><path d="m136.6 65.7 23-16.4"/><path d="m140.1 70.7 20.5-14.6"/><path d="m159.6 49.3 35.8 12.4"/><path d="m195.4 61.7 11.6 36.1"/><path d="m190.6 66.5 9.7 30.2"/><path d="m207 97.8-16.8 22.5"/><path d="m192.2 139.9 14.1 19.7"/><path d="m206.3 159.6-12.4 35.8"/><path d="m199.5 160.6-10.4 30"/><path d="m193.9 195.4-36.1 11.6"/><path d="m157.8 207-22.5-16.8"/><path d="m150.6 209.2-18.9-14.2"/><path d="m206.3 159.6 36.1-11.6"/><path d="m242.4 148 .4-37.8"/><path d="m236.4 143.6.3-29.1"/><path d="m159.6 49.3-11.6-36.1"/><path d="m148 13.2-37.8-.4"/><path d="m143.6 19.2-29.1-.3"/><path d="m157.8 207-12.4 35.8"/><path d="m119 189.9-23 16.4"/><path d="m12.8 145.4 35.8 12.4"/><path d="m18.9 141.1 27.5 9.5"/><path d="m110.2 12.8-12.4 35.8"/><path d="m242.8 110.2-35.8-12.4"/><path d="m127.2 175.9.1-34.5"/><path d="m79.7 127.4 39.5 1.1"/><path d="m128.2 84.3-.7 36.3"/><path d="m175.9 128.5-40.4.2"/><path d="m143.5 242.8h1.9l.6-1.8" stroke-miterlimit="10"/><path d="m109.5 242.4h-1.9l-.6-1.8" stroke-miterlimit="10"/><path d="m62 194.5-1.8-.6-.6-1.8" stroke-miterlimit="10"/><path d="m15 107-1.8.6v1.9" stroke-miterlimit="10"/><path d="m12.8 143.5v1.9l1.8.6" stroke-miterlimit="10"/><path d="m61.1 62 .6-1.8 1.8-.6" stroke-miterlimit="10"/><path d="m193.6 61.1 1.8.6.6 1.8" stroke-miterlimit="10"/><path d="m194.5 193.6-.6 1.8-1.8.6" stroke-miterlimit="10"/><path d="m240.6 148.6 1.8-.6v-1.9" stroke-miterlimit="10"/><path d="m242.8 112.1v-1.9l-1.8-.6" stroke-miterlimit="10"/><path d="m148.6 15-.6-1.8h-1.9" stroke-miterlimit="10"/><path d="m112.1 12.8h-1.9l-.6 1.8" stroke-miterlimit="10"/></g><text font-family="sans-serif" font-size="22" x="64.7" y="138.5">N</text><text font-family="sans-serif" font-size="22" x="121.6" y="82.9">N</text><text font-family="sans-serif" font-size="22" x="177.2" y="139.8">N</text><text font-family="sans-serif" font-size="22" x="120.3" y="195.4">N</text><text x="120.5" y="140.1"/></svg>
