<svg height="56" viewBox="0 0 121 56" width="121" xmlns="http://www.w3.org/2000/svg"><path d="m4619.75 4450.47 3.47 6-3.47 6h-281.07l-6.93-12z" transform="matrix(.05 0 0 .05 -207 -195)"/><path d="m4593.29 4502.31v12h-228.14v-12z" transform="matrix(.05 0 0 .05 -207 -195)"/><path d="m4331.75 4450.47 6.93 12-140.54 243.41h-13.85z" transform="matrix(.05 0 0 .05 -207 -195)"/><path d="m4184.29 4705.88h13.85l140.54 243.41-6.93 12z" transform="matrix(.05 0 0 .05 -207 -195)"/><path d="m4245.88 4708.88 10.39-6 114.07 197.57-10.39 6z" transform="matrix(.05 0 0 .05 -207 -195)"/><path d="m4331.75 4961.29 6.93-12h281.07l6.93 12z" transform="matrix(.05 0 0 .05 -207 -195)"/><path d="m4626.68 4961.29-6.93-12 140.54-243.41h6.93l3.46 6z" transform="matrix(.05 0 0 .05 -207 -195)"/><path d="m4598.48 4906.45-10.39-6 114.07-197.57 10.39 6z" transform="matrix(.05 0 0 .05 -207 -195)"/><path d="m4770.68 4699.88-3.46 6h-6.93l-140.54-243.41 3.47-6h6.92z" transform="matrix(.05 0 0 .05 -207 -195)"/><text font-family="Arial" font-size="200" font-weight="bold" transform="matrix(.05 0 0 .05 41.872 43.873)">O</text><path d="m4770.68 4711.88-3.46-6 3.46-6h182.44v12z" transform="matrix(.05 0 0 .05 -207 -195)"/><path d="m4630.14 4456.47h-6.92l-3.47-6 144-249.41 6.93 12z" transform="matrix(.05 0 0 .05 -207 -195)"/><text font-family="Arial" font-size="200" font-weight="bold" transform="matrix(.05 0 0 .05 42.15 18.932)">N</text><path d="m4770.68 4213.06-6.93-12h201.09v12z" transform="matrix(.05 0 0 .05 -207 -195)"/><path d="m4797.14 4264.9v-12h167.7v12z" transform="matrix(.05 0 0 .05 -207 -195)"/><path d="m5121.32 4104.58-10.4-6 84.83-146.92 6.93 12z" transform="matrix(.05 0 0 .05 -207 -195)"/><path d="m5202.68 3963.66-6.93-12h294.93l-6.93 12z" transform="matrix(.05 0 0 .05 -207 -195)"/><text font-family="Arial" font-size="200" font-weight="bold" transform="matrix(.05 0 0 .05 70.95 18.932)">N</text><g transform="matrix(.05 0 0 .05 -207 -195)"><path d="m5483.75 3963.66 6.93-12 84.14 145.73-10.39 6z"/><path d="m5718.84 4213.06v-12h203.84l-6.93 12z"/><path d="m5718.84 4264.9v-12h170.45v12z"/><path d="m5915.75 4213.06 6.93-12 144 249.41-3.46 6h-6.93z"/><path d="m6056.29 4456.47h6.93l3.46 6-140.54 243.41h-6.92l-3.47-6z"/><path d="m6087.95 4505.31 10.39 6-114.07 197.57-10.39-6z"/><path d="m5915.75 4711.88 3.47-6h6.92l140.54 243.41-6.93 12z"/><path d="m6059.75 4961.29 6.93-12h281.07l6.93 12z"/><path d="m6093.14 4909.45v-12h228.15v12z"/><path d="m6354.68 4961.29-6.93-12 140.54-243.41h13.85z"/><path d="m6502.14 4705.88h-13.85l-140.54-243.41 6.93-12z"/><path d="m6440.55 4702.88-10.39 6-114.07-197.57 10.39-6z"/><path d="m6354.68 4450.47-6.93 12h-281.07l-3.46-6 3.46-6z"/></g><text font-family="Arial" font-size="200" font-weight="bold" transform="matrix(.05 0 0 .05 70.672 43.873)">O</text><path d="m5915.75 4699.88 3.47 6-3.47 6h-183.63v-12z" transform="matrix(.05 0 0 .05 -207 -195)"/><path d="m5135.65 4636.52-8.33-8.63 206.72-199.69 9.18-.53v8.34z" transform="matrix(.05 0 0 .05 -207 -195)"/><path d="m5343.22 4420.11v7.56l-9.18.53-187.54-143.65 7.3-9.53z" transform="matrix(.05 0 0 .05 -207 -195)"/><path d="m5352.4 4428.2-9.18-.53v-7.56l187.68-143.76 7.3 9.53z" transform="matrix(.05 0 0 .05 -207 -195)"/><path d="m5343.22 4436.01v-8.34l9.18.53 206.12 199.11-8.34 8.63z" transform="matrix(.05 0 0 .05 -207 -195)"/><path d="m5191.66 4440a148.34 148.34 0 1 0 296.68 0 148.34 148.34 0 1 0 -296.68 0z" fill="#fa666a" transform="matrix(.05 0 0 .05 -207 -195)"/></svg>
