<?xml version="1.0" encoding="UTF-8"?>
<svg width="256px" height="256px" baseProfile="full" version="1.1" viewBox="0 0 256 256" xml:space="preserve" xmlns="http://www.w3.org/2000/svg">

 <!-- END OF HEADER -->
<rect width="256" height="256" fill="#fff"> </rect>
<path class="bond-0 atom-0 atom-1" d="m45.4 215.1-32.6-23.9" fill="none" stroke="#000" stroke-width="2px"/>
<path class="bond-1 atom-1 atom-2" d="m12.8 191.2 4.4-40.2" fill="none" stroke="#000" stroke-width="2px"/>
<path class="bond-2 atom-2 atom-3" d="m17.2 151 37-16.3" fill="none" stroke="#000" stroke-width="2px"/>
<path class="bond-3 atom-3 atom-4" d="m54.2 134.7 32.6 23.9" fill="none" stroke="#000" stroke-width="2px"/>
<path class="bond-4 atom-4 atom-5" d="m86.8 158.6 15.2-6.7" fill="none" stroke="#000" stroke-width="2px"/>
<path class="bond-4 atom-4 atom-5" d="m102 151.9 15.2-6.7" fill="none" stroke="#f00" stroke-width="2px"/>
<path class="bond-5 atom-5 atom-6" d="m124.6 135.2 1.7-16.2" fill="none" stroke="#f00" stroke-width="2px"/>
<path class="bond-5 atom-5 atom-6" d="m126.3 119 1.8-16.1" fill="none" stroke="#191919" stroke-width="2px"/>
<path class="bond-6 atom-6 atom-7" d="m128.7 102.9 7 10.6" fill="none" stroke="#191919" stroke-width="2px"/>
<path class="bond-6 atom-6 atom-7" d="m135.7 113.5 7.1 10.7" fill="none" stroke="#f00" stroke-width="2px"/>
<path class="bond-7 atom-7 atom-8" d="m153.2 138.6 7.9 10.2" fill="none" stroke="#f00" stroke-width="2px"/>
<path class="bond-7 atom-7 atom-8" d="m161.1 148.8 8 10.1" fill="none" stroke="#000" stroke-width="2px"/>
<path class="bond-8 atom-8 atom-9" d="m169.1 158.9 4 40.3" fill="none" stroke="#000" stroke-width="2px"/>
<path class="bond-9 atom-9 atom-10" d="m173.1 199.2 36.9 16.5" fill="none" stroke="#000" stroke-width="2px"/>
<path class="bond-10 atom-10 atom-11" d="m210 215.7 32.8-23.6" fill="none" stroke="#000" stroke-width="2px"/>
<path class="bond-11 atom-11 atom-12" d="m242.8 192.1-4.1-40.2" fill="none" stroke="#000" stroke-width="2px"/>
<path class="bond-12 atom-12 atom-13" d="m238.7 151.9-36.8-16.6" fill="none" stroke="#000" stroke-width="2px"/>
<path class="bond-13 atom-13 atom-14" d="m201.9 135.3-4.1-40.2" fill="none" stroke="#000" stroke-width="2px"/>
<path class="bond-14 atom-14 atom-15" d="m197.8 95.1-15.6-7" fill="none" stroke="#000" stroke-width="2px"/>
<path class="bond-14 atom-14 atom-15" d="m182.2 88.1-15.6-7" fill="none" stroke="#00f" stroke-width="2px"/>
<path class="bond-15 atom-15 atom-16" d="m158.7 71.5-5-15.8" fill="none" stroke="#00f" stroke-width="2px"/>
<path class="bond-15 atom-15 atom-16" d="m153.7 55.7-5.1-15.7" fill="none" stroke="#000" stroke-width="2px"/>
<path class="bond-16 atom-16 atom-17" d="m148.6 40-40.4-0.1" fill="none" stroke="#000" stroke-width="2px"/>
<path class="bond-17 atom-17 atom-18" d="m108.2 39.9-5.2 15.6" fill="none" stroke="#000" stroke-width="2px"/>
<path class="bond-17 atom-17 atom-18" d="m103 55.5-5.1 15.7" fill="none" stroke="#00f" stroke-width="2px"/>
<path class="bond-18 atom-18 atom-19" d="m89.9 80.7-15.7 6.9" fill="none" stroke="#00f" stroke-width="2px"/>
<path class="bond-18 atom-18 atom-19" d="m74.2 87.6-15.6 6.9" fill="none" stroke="#000" stroke-width="2px"/>
<path class="bond-19 atom-4 atom-20" d="m86.8 158.6-4.4 40.2" fill="none" stroke="#000" stroke-width="2px"/>
<path class="bond-20 atom-20 atom-0" d="m82.4 198.8-37 16.3" fill="none" stroke="#000" stroke-width="2px"/>
<path class="bond-21 atom-19 atom-3" d="m58.6 94.5-4.4 40.2" fill="none" stroke="#000" stroke-width="2px"/>
<path class="bond-22 atom-15 atom-6" d="m155.3 82.6-11.6 8.3" fill="none" stroke="#00f" stroke-width="2px"/>
<path class="bond-22 atom-15 atom-6" d="m143.7 90.9-11.5 8.3" fill="none" stroke="#191919" stroke-width="2px"/>
<path class="bond-23 atom-18 atom-6" d="m101.2 82.4 11.5 8.4" fill="none" stroke="#00f" stroke-width="2px"/>
<path class="bond-23 atom-18 atom-6" d="m112.7 90.8 11.4 8.4" fill="none" stroke="#191919" stroke-width="2px"/>
<path class="bond-24 atom-13 atom-8" d="m201.9 135.3-32.8 23.6" fill="none" stroke="#000" stroke-width="2px"/>
<path d="m43.8 213.9 1.6 1.2 1.9-0.8" fill="none" stroke="#000" stroke-miterlimit="10" stroke-width="2px"/>
<path d="m14.4 192.4-1.6-1.2 0.2-2" fill="none" stroke="#000" stroke-miterlimit="10" stroke-width="2px"/>
<path d="m17 153 0.2-2 1.8-0.8" fill="none" stroke="#000" stroke-miterlimit="10" stroke-width="2px"/>
<path d="m172.9 197.1 0.2 2.1 1.9 0.8" fill="none" stroke="#000" stroke-miterlimit="10" stroke-width="2px"/>
<path d="m208.2 214.9 1.8 0.8 1.6-1.1" fill="none" stroke="#000" stroke-miterlimit="10" stroke-width="2px"/>
<path d="m241.2 193.3 1.6-1.2-0.2-2" fill="none" stroke="#000" stroke-miterlimit="10" stroke-width="2px"/>
<path d="m238.9 153.9-0.2-2-1.8-0.8" fill="none" stroke="#000" stroke-miterlimit="10" stroke-width="2px"/>
<path d="m198 97.1-0.2-2-0.8-0.4" fill="none" stroke="#000" stroke-miterlimit="10" stroke-width="2px"/>
<path d="m148.9 40.8-0.3-0.8h-2" fill="none" stroke="#000" stroke-miterlimit="10" stroke-width="2px"/>
<path d="m110.2 39.9h-2l-0.3 0.7" fill="none" stroke="#000" stroke-miterlimit="10" stroke-width="2px"/>
<path d="m59.4 94.2-0.8 0.3-0.3 2" fill="none" stroke="#000" stroke-miterlimit="10" stroke-width="2px"/>
<path d="m82.6 196.8-0.2 2-1.9 0.8" fill="none" stroke="#000" stroke-miterlimit="10" stroke-width="2px"/>
<path class="atom-5" d="m118.5 142.3q0-2.7 1.4-4.2 1.3-1.6 3.9-1.6 2.5 0 3.9 1.6 1.3 1.5 1.3 4.2 0 2.8-1.3 4.4-1.4 1.6-3.9 1.6t-3.9-1.6-1.4-4.4m5.3 4.7q1.7 0 2.7-1.2 0.9-1.2 0.9-3.5 0-2.2-0.9-3.3-1-1.2-2.7-1.2-1.8 0-2.7 1.2-1 1.1-1 3.3 0 2.4 1 3.5 0.9 1.2 2.7 1.2" fill="#f00"/>
<path class="atom-6" d="m126 100.9 1.7-1.8-2.2-0.4 0.3-1.2 2 1.1-0.2-2.3h1.2l-0.4 2.3 2.1-1 0.4 1.1-2.3 0.4 1.6 1.7-1 0.8-1.1-2.2-1.1 2.2-1-0.7" fill="#191919"/>
<path class="atom-7" d="m142.3 131.4q0-2.8 1.3-4.3 1.4-1.6 3.9-1.6 2.6 0 3.9 1.6 1.4 1.5 1.4 4.3 0 2.7-1.4 4.3t-3.9 1.6-3.9-1.6q-1.3-1.5-1.3-4.3m5.2 4.6q1.8 0 2.7-1.2 1-1.1 1-3.4t-1-3.4q-0.9-1.2-2.7-1.2-1.7 0-2.7 1.2-0.9 1.1-0.9 3.4t0.9 3.4q1 1.2 2.7 1.2" fill="#f00"/>
<path class="atom-15" d="m158.4 72.8 3.8 6q0.4 0.6 1 1.7 0.5 1.1 0.6 1.2v-8.9h1.5v11.4h-1.6l-4-6.6q-0.5-0.8-1-1.7-0.4-0.8-0.6-1.1v9.4h-1.5v-11.4h1.8" fill="#00f"/>
<path class="atom-18" d="m93 72.5 3.8 6.1q0.4 0.6 0.9 1.7 0.6 1 0.7 1.1v-8.9h1.5v11.5h-1.6l-4-6.7q-0.5-0.7-1-1.6-0.4-0.9-0.6-1.2v9.5h-1.5v-11.5h1.8" fill="#00f"/>
</svg>
