<svg height="104" viewBox="0 0 66 104" width="66" xmlns="http://www.w3.org/2000/svg"><path d="m4106.31 7045.92a143.984 143.984 0 1 0 287.97 0 143.984 143.984 0 1 0 -287.97 0z" fill="#fd6666" transform="matrix(.05 0 0 .05 -175 -302)"/><text font-family="Helvetica" font-size="200" font-weight="bold" transform="matrix(.05 0 0 .05 15.481 46.991)">N</text><path d="m3599.28 6918.9-10.74-11.84 202.71-3.62.21 12.03z" transform="matrix(.05 0 0 .05 -175 -302)"/><path d="m3567.59 7194.17-13.24 9.78 34.19-296.89 10.74 11.84z" transform="matrix(.05 0 0 .05 -175 -302)"/><text font-family="Helvetica" font-size="200" font-weight="bold" transform="matrix(.05 0 0 .05 13.593 64.185)">N</text><path d="m3748.37 7227.81-2.2 11.83-191.82-35.69 13.24-9.78z" transform="matrix(.05 0 0 .05 -175 -302)"/><path d="m3780.76 7528.91-13.48 4.28 42.83-170.76 11.67 2.93z" transform="matrix(.05 0 0 .05 -175 -302)"/><path d="m4093.42 7392.74-3.42 11.96-146.55-86.99 6.14-10.34z" transform="matrix(.05 0 0 .05 -175 -302)"/><path d="m4377.68 7398.55 3.88 12.11-78.3-1.6-.51-12.04z" transform="matrix(.05 0 0 .05 -175 -302)"/><path d="m4090 7404.7 3.42-11.96 133.1 2.72.51 12.04z" transform="matrix(.05 0 0 .05 -175 -302)"/><text font-family="Helvetica" font-size="200" font-weight="bold" transform="matrix(.05 0 0 .05 51.644 63.235)">O</text><text font-family="Helvetica" font-size="150" font-weight="bold" transform="matrix(.05 0 0 .05 59.423 59.636)">-</text><path d="m4520.54 7292.27 7.19 9.65-146.17 108.74-3.88-12.11z" transform="matrix(.05 0 0 .05 -175 -302)"/><path d="m4121.28 6744.49 3.51 12.08-138.85 90.55-6.57-10.08z" transform="matrix(.05 0 0 .05 -175 -302)"/><path d="m4413.07 6748.05-4.17 11.98-113.65-1.39.31-12.02z" transform="matrix(.05 0 0 .05 -175 -302)"/><path d="m4124.79 6756.57-3.51-12.08 98.18 1.2-.31 12.03z" transform="matrix(.05 0 0 .05 -175 -302)"/><text font-family="Helvetica" font-size="200" font-weight="bold" transform="matrix(.05 0 0 .05 53.059 48.098)">O</text><text font-family="Helvetica" font-size="150" font-weight="bold" transform="matrix(.05 0 0 .05 60.837 44.499)">-</text><path d="m4558.74 6860.47-7.35 9.53-142.49-109.97 4.17-11.98z" transform="matrix(.05 0 0 .05 -175 -302)"/><path d="m3765.69 6639.82 14.22 2.98 61.76 150.97-11.14 4.56z" transform="matrix(.05 0 0 .05 -175 -302)"/><path d="m3977.56 6434.51 4.08 12.8-201.73 195.49-14.22-2.98z" transform="matrix(.05 0 0 .05 -175 -302)"/><text font-family="Helvetica" font-size="200" font-weight="bold" transform="matrix(.05 0 0 .05 16.583 9.68)">O</text><path d="m3905.62 6277.48 11.67-2.93 46.65 185.72-11.67 2.93z" transform="matrix(.05 0 0 .05 -175 -302)"/><path d="m3955.9 6264.86 11.67-2.94 45.65 181.78-11.67 2.93z" transform="matrix(.05 0 0 .05 -175 -302)"/><text font-family="Helvetica" font-size="200" font-weight="bold" transform="matrix(.05 0 0 .05 34.324 25.822)">O</text><text font-family="Helvetica" font-size="150" font-weight="bold" transform="matrix(.05 0 0 .05 42.102 22.223)">-</text><path d="m4166.16 6463.37-1.82 11.89-182.7-27.95-4.08-12.8z" transform="matrix(.05 0 0 .05 -175 -302)"/><text font-family="Helvetica" font-size="200" font-weight="bold" transform="matrix(.05 0 0 .05 53.618 31.28)">O</text><path d="m4543.2 6626.9 6.7 9.99-181.26 121.59-6.7-10z" transform="matrix(.05 0 0 .05 -175 -302)"/><path d="m4572.08 6669.94 6.7 10-142.81 95.79-6.7-9.99z" transform="matrix(.05 0 0 .05 -175 -302)"/><text font-family="Helvetica" font-size="200" font-weight="bold" transform="matrix(.05 0 0 .05 50.928 81.31)">O</text><path d="m4537.36 7500.19-7.92 9.06-132.51-115.94 7.92-9.06z" transform="matrix(.05 0 0 .05 -175 -302)"/><path d="m4503.23 7539.2-7.92 9.06-159.95-139.95 7.92-9.06z" transform="matrix(.05 0 0 .05 -175 -302)"/><path d="m3994.28 7712.2-3.52 12.83-223.48-191.84 13.48-4.28z" transform="matrix(.05 0 0 .05 -175 -302)"/><text font-family="Helvetica" font-size="200" font-weight="bold" transform="matrix(.05 0 0 .05 34.919 85.043)">O</text><text font-family="Helvetica" font-size="150" font-weight="bold" transform="matrix(.05 0 0 .05 42.698 81.444)">-</text><path d="m4174.14 7680.67 2.07 11.85-185.45 32.51 3.52-12.83z" transform="matrix(.05 0 0 .05 -175 -302)"/><text font-family="Helvetica" font-size="200" font-weight="bold" transform="matrix(.05 0 0 .05 17.296 101.511)">O</text><g transform="matrix(.05 0 0 .05 -175 -302)"><path d="m3980.48 7901.13-11.68-2.87 45.78-185.97 11.68 2.87z"/><path d="m3930.15 7888.74-11.68-2.87 46.18-187.61 11.68 2.88z"/><path d="m4265.79 7046.95-9.77-9.65 61.44-18.22 3.42 11.53z"/><path d="m4375.97 7014.27-3.42-11.54 55.08-16.34 3.43 11.54z"/><path d="m4486.14 6981.59-3.42-11.54 55.09-16.34 3.42 11.53z"/><path d="m4255.41 6594.13 12.03.31-1.27 49.19-12.03-.31z"/><path d="m4252.87 6692.51 12.03.31-1.27 49.19-12.03-.31z"/><path d="m4250.34 6790.89 12.02.31-1.26 49.19-12.03-.31z"/><path d="m4247.8 6889.27 12.03.31-1.27 49.19-12.03-.31z"/><path d="m4245.26 6987.65 12.03.31-1.27 49.34-12.02-.47z"/><path d="m3981.43 6951.5 4.21-11.27 50.69 18.95-4.22 11.27z"/><path d="m4082.8 6989.41 4.22-11.27 50.68 18.95-4.21 11.27z"/><path d="m4184.18 7027.31 4.21-11.27 55.61 20.79-9.13 9.44z"/><path d="m3950.94 7204.14-5.45-10.72 41.34-21.02 5.45 10.72z"/><path d="m4033.62 7162.1-5.45-10.73 41.34-21.02 5.45 10.73z"/><path d="m4116.3 7120.06-5.45-10.73 41.34-21.02 5.45 10.72z"/><path d="m4198.98 7078.01-5.45-10.72 41.34-21.02 9.31 8.76z"/><path d="m4277.69 7562.62-12.02.51-1.95-46.1 12.02-.51z"/><path d="m4273.79 7470.43-12.02.5-1.95-46.09 12.02-.51z"/><path d="m4269.89 7378.23-12.02.51-1.95-46.1 12.02-.51z"/><path d="m4265.99 7286.04-12.02.5-1.95-46.09 12.02-.51z"/><path d="m4262.09 7193.84-12.02.51-1.95-46.1 12.02-.51z"/><path d="m4258.19 7101.65-12.02.5-1.99-47.12 12.06.52z"/><path d="m4520.57 7179.19-5.54 10.67-50.96-26.44 5.55-10.68z"/><path d="m4418.66 7126.29-5.54 10.68-50.96-26.45 5.55-10.67z"/><path d="m4316.75 7073.4-5.54 10.68-54.97-28.53 9.55-8.6z"/></g></svg>
