<svg height="256" viewBox="0 0 256 256" width="256" xmlns="http://www.w3.org/2000/svg"><path d="m0 0h256v256h-256z" fill="#fff"/><g fill="none" stroke-width="2"><g stroke="#000"><path d="m227 108.7-41.4 23.8"/><path d="m156.3 136.6-27.8-16.1"/><path d="m161.1 128.4-27.9-16.1"/><path d="m103.9 116.3-27.9 16.1"/></g><path d="m211.195 81.246c-2.056 1.185-.476 3.927 1.58 2.742 2.057-1.186 3.637 1.556 1.581 2.741-2.057 1.185-.476 3.927 1.58 2.742s3.636 1.556 1.58 2.741c-2.056 1.186-.476 3.927 1.58 2.742s3.637 1.556 1.581 2.741c-2.057 1.186-.476 3.927 1.58 2.742s3.636 1.556 1.58 2.741c-2.056 1.186-.476 3.927 1.58 2.742s3.637 1.556 1.581 2.742c-2.057 1.185-.476 3.926 1.58 2.741s3.636 1.556 1.58 2.742c-2.056 1.185-.476 3.926 1.58 2.741s3.637 1.557 1.581 2.742c-2.057 1.185-.476 3.926 1.58 2.741s3.636 1.557 1.58 2.742-.476 3.927 1.58 2.741c2.056-1.185 3.637 1.557 1.581 2.742-2.057 1.185-.476 3.927 1.58 2.741 2.056-1.185 3.636 1.557 1.58 2.742" stroke="#7f7f7f"/></g><g font-family="sans-serif"><text font-size="37" x="160.8" y="159.3">N</text><text font-size="37" x="106" y="127.6">N</text><text font-size="37" x="12.8" y="159.2">H</text><text font-size="25" x="39" y="174.4">3</text><text font-size="37" x="51.2" y="159.2">C</text></g></svg>
