<svg height="256" viewBox="0 0 256 256" width="256" xmlns="http://www.w3.org/2000/svg"><path d="m0 0h256v256h-256z" fill="#fff"/><path d="m25.5 156.7 43.8-25.3" fill="none" stroke="#000" stroke-width="2"/><path d="m73.1 133.6-.1-36" fill="none" stroke="#000" stroke-width="2"/><path d="m65.5 133.6-.1-36" fill="none" stroke="#000" stroke-width="2"/><path d="m69.3 131.4 33 19" fill="none" stroke="#000" stroke-width="2"/><path d="m123.9 150.4 33-19.1" fill="none" stroke="#000" stroke-width="2"/><path d="m156.9 131.3-15.6-26.9" fill="none" stroke="#000" stroke-width="2"/><path d="m156.9 131.3 15.6-27" fill="none" stroke="#000" stroke-width="2"/><path d="m156.9 131.3 33.1 19.1" fill="none" stroke="#000" stroke-width="2"/><path d="m67.1 132.7 2.2-1.3 1.6 1" fill="none" stroke="#000" stroke-miterlimit="10" stroke-width="2"/><path d="m38.133 178.631c1.643-.95.376-3.14-1.267-2.19-1.642.95-2.909-1.24-1.266-2.19 1.642-.95.376-3.14-1.267-2.191-1.642.95-2.909-1.24-1.267-2.19 1.643-.95.376-3.14-1.266-2.19-1.643.95-2.909-1.24-1.267-2.19 1.643-.95.376-3.14-1.266-2.19-1.643.95-2.91-1.241-1.267-2.191 1.642-.949.376-3.14-1.267-2.19-1.642.95-2.909-1.24-1.266-2.19 1.642-.95.375-3.14-1.267-2.19-1.643.95-2.909-1.24-1.267-2.19 1.643-.95.376-3.14-1.266-2.191-1.643.95-2.91-1.24-1.267-2.19s.376-3.14-1.267-2.19c-1.642.95-2.909-1.24-1.266-2.19 1.642-.95.376-3.14-1.267-2.19s-2.909-1.241-1.267-2.191c1.643-.949.376-3.14-1.266-2.19-1.643.95-2.91-1.24-1.267-2.19" fill="none" stroke="#7f7f7f" stroke-width="2"/><g font-family="sans-serif"><text font-size="30" x="60.1" y="96">O</text><text font-size="30" x="104" y="171.8">O</text><text font-size="30" x="91.8" y="102.7">H</text><text font-size="20" x="112.7" y="114.9">3</text><text font-size="30" x="122.5" y="102.7">C</text><text font-size="30" x="173.1" y="102.7">C</text><text font-size="30" x="194" y="102.7">H</text><text font-size="20" x="215" y="114.8">3</text><text font-size="30" x="191.6" y="171.8">C</text><text font-size="30" x="212.6" y="171.8">H</text><text font-size="20" x="233.5" y="183.9">3</text></g></svg>
