<svg height="256" viewBox="0 0 256 256" width="256" xmlns="http://www.w3.org/2000/svg"><path d="m0 0h256v256h-256z" fill="#fff"/><g fill="none" stroke-width="2"><path d="m41.9 181.8 78.3-44.9" stroke="#000"/><path d="m127 140.9.2-71.2" stroke="#000"/><path d="m113.5 140.8.2-71.2" stroke="#000"/><path d="m120.2 136.9 63.1 36.7" stroke="#000"/><path d="m116.3 139.2 3.9-2.3 3.2 1.9" stroke="#000" stroke-miterlimit="10"/><path d="m64.337 220.923c2.937-1.681.695-5.597-2.242-3.916s-5.179-2.235-2.242-3.916c2.937-1.682.695-5.598-2.242-3.916-2.937 1.681-5.179-2.235-2.242-3.916 2.937-1.682.695-5.598-2.242-3.917-2.937 1.682-5.179-2.234-2.242-3.916 2.937-1.681.695-5.597-2.242-3.916-2.937 1.682-5.179-2.235-2.242-3.916s.696-5.597-2.241-3.916-5.179-2.235-2.242-3.916c2.937-1.682.695-5.598-2.242-3.916-2.937 1.681-5.179-2.235-2.242-3.916 2.937-1.682.695-5.598-2.242-3.917-2.937 1.682-5.179-2.234-2.242-3.916 2.937-1.681.695-5.597-2.242-3.916-2.937 1.682-5.179-2.235-2.242-3.916s.695-5.597-2.242-3.916-5.179-2.235-2.242-3.916c2.937-1.682.695-5.598-2.242-3.916-2.937 1.681-5.178-2.235-2.242-3.917" stroke="#7f7f7f"/></g><text font-family="sans-serif" font-size="40" x="108.6" y="66.7">O</text><text font-family="sans-serif" font-size="40" x="186.2" y="202.3">O</text><text font-family="sans-serif" font-size="40" x="213.8" y="202.3">H</text></svg>
