<svg height="256" viewBox="0 0 256 256" width="256" xmlns="http://www.w3.org/2000/svg"><path d="m0 0h256v256h-256z" fill="#fff"/><g fill="none" stroke-width="2"><path d="m23.3 131.2 36.7-21" stroke="#000"/><path d="m63.1 112.1.1-30" stroke="#000"/><path d="m56.8 112 .1-30" stroke="#000"/><path d="m60 110.2 27.5 16" stroke="#000"/><path d="m105.5 126.3 27.6-15.8" stroke="#000"/><path d="m133.1 110.5 36.5 21.2" stroke="#000"/><path d="m169.6 131.7 36.7-21" stroke="#000"/><path d="m176 135.4 30.3-17.3" stroke="#000"/><path d="m206.3 110.7 36.5 21.3" stroke="#000"/><path d="m242.8 132-.1 42.2" stroke="#000"/><path d="m236.5 135.6-.2 35" stroke="#000"/><path d="m242.7 174.2-36.7 21" stroke="#000"/><path d="m206 195.2-36.5-21.2" stroke="#000"/><path d="m206 187.9-30.2-17.6" stroke="#000"/><path d="m169.5 174 .1-42.3" stroke="#000"/><path d="m58.1 111.3 1.9-1.1 1.3.8" stroke="#000" stroke-miterlimit="10"/><path d="m131.7 111.3 1.4-.8 1.9 1" stroke="#000" stroke-miterlimit="10"/><path d="m204.5 111.8 1.8-1.1 1.8 1.1" stroke="#000" stroke-miterlimit="10"/><path d="m241 130.9 1.8 1.1v2.1" stroke="#000" stroke-miterlimit="10"/><path d="m242.7 172.1v2.1l-1.9 1.1" stroke="#000" stroke-miterlimit="10"/><path d="m207.8 194.2-1.8 1-1.8-1" stroke="#000" stroke-miterlimit="10"/><path d="m171.3 175-1.8-1v-2.1" stroke="#000" stroke-miterlimit="10"/><path d="m33.795 149.542c1.374-.787.325-2.62-1.05-1.832-1.375.787-2.424-1.046-1.05-1.833 1.375-.788.325-2.621-1.05-1.833-1.374.787-2.424-1.046-1.049-1.833 1.374-.787.325-2.62-1.05-1.833s-2.424-1.046-1.05-1.833c1.375-.787.325-2.62-1.049-1.833-1.375.787-2.425-1.046-1.05-1.833s.325-2.62-1.05-1.833c-1.375.788-2.424-1.045-1.05-1.833 1.375-.787.325-2.62-1.049-1.833-1.375.788-2.425-1.045-1.05-1.832 1.375-.788.325-2.621-1.05-1.833-1.375.787-2.424-1.046-1.05-1.833 1.375-.788.325-2.621-1.049-1.833-1.375.787-2.425-1.046-1.05-1.833s.325-2.62-1.05-1.833c-1.374.787-2.424-1.046-1.049-1.833 1.374-.787.324-2.62-1.05-1.833-1.375.787-2.425-1.045-1.05-1.833" stroke="#7f7f7f"/></g><text font-family="sans-serif" font-size="25" x="52.5" y="80.6">O</text><text font-family="sans-serif" font-size="25" x="88.9" y="144.1">O</text></svg>
