<svg height="256" viewBox="0 0 256 256" width="256" xmlns="http://www.w3.org/2000/svg"><path d="m0 0h256v256h-256z" fill="#fff"/><g fill="none" stroke-width="2"><g stroke="#000"><path d="m34.1 181.8 73.8-42.5"/><path d="m107.9 139.3 77.8 34.7"/><path d="m185.7 174 57.1-63.3"/><path d="m242.8 110.7-42.5-73.8"/><path d="m200.3 36.9-83.4 17.6"/><path d="m116.9 54.5-9 84.8"/><path d="m181.8 172.3 3.9 1.7 2.9-3.2" stroke-miterlimit="10"/><path d="m239.9 113.9 2.9-3.2-2.1-3.6" stroke-miterlimit="10"/><path d="m202.4 40.6-2.1-3.7-4.2.9" stroke-miterlimit="10"/><path d="m121.1 53.6-4.2.9-.4 4.3" stroke-miterlimit="10"/></g><path d="m55.322 218.702c2.769-1.595.643-5.287-2.126-3.693-2.77 1.595-4.896-2.098-2.126-3.692 2.769-1.595.643-5.287-2.127-3.692-2.769 1.594-4.895-2.098-2.126-3.693 2.77-1.594.643-5.286-2.126-3.692-2.769 1.595-4.895-2.098-2.126-3.692 2.769-1.595.643-5.287-2.126-3.693-2.769 1.595-4.895-2.097-2.126-3.692 2.769-1.594.643-5.287-2.126-3.692-2.769 1.594-4.895-2.098-2.126-3.692 2.769-1.595.643-5.287-2.126-3.693-2.769 1.595-4.895-2.098-2.126-3.692 2.769-1.595.643-5.287-2.126-3.692-2.77 1.594-4.896-2.098-2.126-3.693 2.769-1.594.643-5.287-2.127-3.692-2.769 1.594-4.895-2.098-2.126-3.692 2.77-1.595.643-5.287-2.126-3.693-2.769 1.595-4.895-2.097-2.126-3.692 2.769-1.594.643-5.287-2.126-3.692-2.769 1.594-4.895-2.098-2.126-3.693" stroke="#7f7f7f"/></g></svg>
