<svg height="256" viewBox="0 0 256 256" width="256" xmlns="http://www.w3.org/2000/svg"><path d="m0 0h256v256h-256z" fill="#fff"/><g fill="none" stroke-width="2"><g stroke="#000"><path d="m13 128.2 123-.4"/><path d="m136 127.8 106.8 61.1"/><path d="m242.8 188.9-.5-123"/><path d="m242.3 65.9-106.3 61.9"/><path d="m237.5 185.8 5.3 3.1v-6.2" stroke-miterlimit="10"/><path d="m242.4 72-.1-6.1-5.3 3.1" stroke-miterlimit="10"/></g><path d="m13.243 189.729c4.613-.017 4.591-6.168-.022-6.151-4.613.016-4.636-6.135-.022-6.151 4.613-.017 4.591-6.168-.022-6.151-4.614.016-4.636-6.135-.023-6.151 4.614-.017 4.591-6.168-.022-6.151-4.613.016-4.635-6.135-.022-6.151 4.613-.017 4.591-6.168-.022-6.152-4.613.017-4.635-6.134-.022-6.151 4.613-.016 4.591-6.167-.022-6.151-4.614.017-4.636-6.134-.022-6.151 4.613-.016 4.591-6.167-.023-6.151-4.613.017-4.635-6.134-.022-6.151 4.613-.016 4.591-6.167-.022-6.151-4.613.017-4.635-6.134-.022-6.151 4.613-.016 4.591-6.167-.022-6.151-4.613.017-4.636-6.134-.022-6.151 4.613-.016 4.591-6.167-.023-6.151-4.613.017-4.635-6.134-.022-6.151 4.614-.016 4.591-6.167-.022-6.151-4.613.017-4.635-6.134-.022-6.151" stroke="#7f7f7f"/></g></svg>
