<svg height="256" viewBox="0 0 256 256" width="256" xmlns="http://www.w3.org/2000/svg"><path d="m0 0h256v256h-256z" fill="#fff"/><g fill="none" stroke-width="2"><path d="m11.636 147.14 32.201-4.15" stroke="#7f7f7f"/><g stroke="#000"><path d="m43.837 142.99 32.2-4.151"/><path d="m76.037 138.839 32.317 56.335"/><path d="m76.037 138.839 16.99-62.698"/><path d="m108.354 195.174 62.699 16.989"/><path d="m171.053 212.163 56.334-32.317"/><path d="m227.387 179.846 16.977-62.685"/><path d="m244.364 117.161-32.317-56.335"/><path d="m212.047 60.826-62.686-16.989"/><path d="m149.361 43.837-56.334 32.304"/></g><path d="m15.787 179.346c3.048-1.757 2.875-3.099-.519-4.026-3.393-.927-3.566-2.268-.518-4.025 3.047-1.758 2.874-3.099-.519-4.026-3.394-.927-3.567-2.269-.519-4.026s2.875-3.099-.519-4.026-3.567-2.269-.519-4.026 2.875-3.099-.519-4.026c-3.393-.926-3.566-2.268-.519-4.025 3.048-1.757 2.875-3.099-.518-4.026-3.394-.927-3.567-2.269-.519-4.026 3.047-1.757 2.874-3.099-.519-4.026-3.394-.927-3.567-2.269-.519-4.026s2.875-3.099-.519-4.026c-3.394-.926-3.566-2.268-.519-4.025 3.048-1.757 2.875-3.099-.519-4.026-3.393-.927-3.566-2.269-.519-4.026" stroke="#7f7f7f"/></g></svg>
