<svg height="256" viewBox="0 0 256 256" width="256" xmlns="http://www.w3.org/2000/svg"><path d="m0 0h256v256h-256z" fill="#fff"/><g fill="none" stroke-width="3"><path d="m11.636 217.413 38.788-22.358" stroke="#7f7f7f"/><g stroke="#000"><path d="m50.424 195.055 38.788-22.358"/><path d="m89.212 172.697.072-89.538"/><path d="m89.212 172.697 77.504 44.841"/><path d="m89.284 83.159 77.576-44.697"/><path d="m166.86 38.462 77.504 44.823"/><path d="m244.364 83.285-.072 89.538"/><path d="m244.292 172.823-77.576 44.715"/></g><path d="m33.994 256.2c2.947-3.852 2.015-5.468-2.795-4.849-4.81.62-5.742-.996-2.795-4.848s2.016-5.468-2.794-4.848c-4.811.619-5.742-.997-2.795-4.849s2.016-5.468-2.795-4.848c-4.81.619-5.741-.997-2.794-4.849 2.947-3.851 2.015-5.468-2.795-4.848s-5.742-.996-2.795-4.848c2.948-3.852 2.016-5.468-2.794-4.849-4.811.62-5.742-.996-2.795-4.848s2.016-5.468-2.795-4.848c-4.81.619-5.741-.997-2.794-4.849s2.015-5.468-2.795-4.848c-4.81.619-5.742-.997-2.794-4.849 2.947-3.851 2.015-5.467-2.795-4.848-4.81.62-5.742-.996-2.795-4.848" stroke="#7f7f7f"/></g></svg>
