<svg height="256" viewBox="0 0 256 256" width="256" xmlns="http://www.w3.org/2000/svg"><path d="m0 0h256v256h-256z" fill="#fff"/><g fill="none" stroke-width="2"><path d="m11.636 188.331 25.692-15.422" stroke="#7f7f7f"/><g stroke="#000"><path d="m37.328 172.909 25.691-15.422"/><path d="m63.019 157.487 49.876 34.657"/><path d="m63.019 157.487-8.034-59.416"/><path d="m112.895 192.144 60.839 2.941"/><path d="m173.734 195.085 52.757-29.995"/><path d="m226.491 165.09 17.873-57.252"/><path d="m244.364 107.838-40.839-42.44"/><path d="m203.525 65.398-52.661 26.253"/><path d="m150.864 91.651-50.115-30.736"/><path d="m100.749 60.915-45.764 37.156"/></g><path d="m27.019 213.956c1.921-2.606 1.28-3.674-1.923-3.203-3.204.47-3.845-.598-1.923-3.203 1.922-2.606 1.281-3.674-1.923-3.204-3.203.471-3.844-.597-1.922-3.203 1.921-2.606 1.28-3.673-1.923-3.203-3.204.471-3.845-.597-1.923-3.203s1.281-3.674-1.923-3.203c-3.203.47-3.844-.597-1.923-3.203 1.922-2.606 1.281-3.674-1.922-3.203-3.204.47-3.845-.598-1.923-3.204 1.921-2.605 1.28-3.673-1.923-3.203-3.203.471-3.844-.597-1.923-3.203 1.922-2.606 1.281-3.673-1.923-3.203-3.203.471-3.844-.597-1.922-3.203 1.921-2.606 1.28-3.674-1.923-3.203-3.204.47-3.844-.597-1.923-3.203" stroke="#7f7f7f"/></g></svg>
