<svg height="256" viewBox="0 0 256 256" width="256" xmlns="http://www.w3.org/2000/svg"><path d="m0 0h256v256h-256z" fill="#fff"/><g fill="none" stroke-width="2"><g stroke="#000"><path d="m25 158 90.2-24.4"/><path d="m115.2 133.6 46.5-81.1"/><path d="m161.7 52.5 81.1 46.5"/><path d="m242.8 99-46.5 81.1"/><path d="m196.3 180.1-81.1-46.5"/><path d="m159.4 56.5 2.3-4 4.1 2.3" stroke-miterlimit="10"/><path d="m238.7 96.7 4.1 2.3-2.3 4.1" stroke-miterlimit="10"/><path d="m198.6 176-2.3 4.1-4.1-2.4" stroke-miterlimit="10"/></g><path d="m37.248 203.108c3.383-.917 2.16-5.427-1.222-4.51-3.383.917-4.605-3.594-1.223-4.51 3.383-.917 2.161-5.427-1.222-4.511-3.383.917-4.605-3.593-1.222-4.51 3.382-.917 2.16-5.427-1.223-4.51s-4.605-3.593-1.222-4.51c3.382-.917 2.16-5.427-1.223-4.51-3.382.917-4.605-3.594-1.222-4.51 3.383-.917 2.16-5.427-1.223-4.511-3.382.917-4.605-3.593-1.222-4.51s2.16-5.427-1.222-4.51c-3.383.917-4.605-3.593-1.223-4.51 3.383-.917 2.161-5.427-1.222-4.51-3.383.916-4.605-3.594-1.223-4.511 3.383-.916 2.161-5.427-1.222-4.51s-4.605-3.593-1.222-4.51c3.382-.917 2.16-5.427-1.223-4.51-3.382.917-4.605-3.594-1.222-4.51 3.382-.917 2.16-5.427-1.223-4.51-3.382.916-4.605-3.594-1.222-4.511" stroke="#7f7f7f"/></g></svg>
