<svg height="256" viewBox="0 0 256 256" width="256" xmlns="http://www.w3.org/2000/svg"><path d="m0 0h256v256h-256z" fill="#fff"/><g fill="none" stroke-width="2"><path d="m13.249 244.364 28.686-16.669" stroke="#7f7f7f"/><g stroke="#000"><path d="m41.935 227.695 28.686-16.669"/><path d="m70.621 211.026-.186-66.357"/><path d="m70.621 211.026 57.571 33.019"/><path d="m70.435 144.669 57.373-33.338"/><path d="m127.808 111.331-.186-66.357"/><path d="m127.622 44.974 57.372-33.338"/><path d="m184.994 11.636 57.558 33.02"/><path d="m242.552 44.656.199 66.357"/><path d="m242.751 111.013-57.372 33.337"/><path d="m185.379 144.35.186 66.357"/><path d="m185.565 210.707-57.373 33.338"/></g><path d="m29.918 273.051c2.174-2.863 1.48-4.058-2.083-3.586-3.564.471-4.258-.724-2.084-3.586s1.48-4.058-2.084-3.586c-3.563.472-4.258-.724-2.083-3.586 2.174-2.862 1.479-4.057-2.084-3.586-3.563.472-4.258-.723-2.084-3.586 2.174-2.862 1.48-4.057-2.083-3.585-3.564.471-4.258-.724-2.084-3.586 2.174-2.863 1.479-4.058-2.084-3.586-3.563.471-4.258-.724-2.084-3.586 2.175-2.862 1.48-4.058-2.083-3.586s-4.258-.724-2.084-3.586 1.48-4.057-2.084-3.586c-3.563.472-4.257-.723-2.083-3.586 2.174-2.862 1.479-4.057-2.084-3.585-3.563.471-4.258-.724-2.084-3.586" stroke="#7f7f7f"/></g></svg>
