<svg height="256" viewBox="0 0 256 256" width="256" xmlns="http://www.w3.org/2000/svg"><path d="m0 0h256v256h-256z" fill="#fff"/><g fill="none" stroke-width="3"><path d="m208.899 11.636-19.113 33.476" stroke="#7f7f7f"/><g stroke="#000"><path d="m189.786 45.112-19.112 33.476"/><path d="m170.674 78.588-76.913-5.397"/><path d="m170.674 78.588 43.729 63.482"/><path d="m93.761 73.191-52.164 56.76"/><path d="m41.597 129.951 11.842 76.188"/><path d="m53.439 206.139 66.967 38.225"/><path d="m120.406 244.364 71.624-28.511"/><path d="m192.03 215.853 22.373-73.783"/></g><path d="m175.422-7.477c-.517 4.144.878 4.941 4.184 2.389 3.307-2.551 4.701-1.755 4.185 2.39-.516 4.144.878 4.94 4.185 2.389 3.306-2.552 4.701-1.755 4.184 2.389-.516 4.144.879 4.94 4.185 2.389s4.701-1.755 4.184 2.389c-.516 4.144.879 4.941 4.185 2.389 3.306-2.551 4.701-1.755 4.185 2.389-.517 4.144.878 4.941 4.184 2.39 3.306-2.552 4.701-1.755 4.185 2.389-.517 4.144.878 4.94 4.185 2.389 3.306-2.551 4.701-1.755 4.184 2.389-.516 4.144.879 4.94 4.185 2.389s4.701-1.755 4.184 2.389c-.516 4.144.879 4.941 4.185 2.389 3.306-2.551 4.701-1.755 4.185 2.39" stroke="#7f7f7f"/></g></svg>
