<svg height="256" viewBox="0 0 256 256" width="256" xmlns="http://www.w3.org/2000/svg"><path d="m0 0h256v256h-256z" fill="#fff"/><g fill="none" stroke-width="2"><g stroke="#000"><path d="m18.7 127.2 20.5-11.8"/><path d="m39.2 115.4 20.4 11.9"/><path d="m59.6 127.3 20.4-11.8"/><path d="m80 115.5 20.5 11.8"/><path d="m100.5 127.3 20.4-11.8"/><path d="m120.9 115.5 20.5 11.8"/><path d="m141.4 127.3 20.4-11.8"/><path d="m161.8 115.5 20.5 11.9"/><path d="m182.3 127.4 20.4-11.8"/><path d="m202.7 115.6 15.4 8.9"/><path d="m38.1 116 1.1-.6 1 .6" stroke-miterlimit="10"/><path d="m58.6 126.7 1 .6 1-.6" stroke-miterlimit="10"/><path d="m79 116.1 1-.6 1.1.6" stroke-miterlimit="10"/><path d="m99.5 126.7 1 .6 1-.6" stroke-miterlimit="10"/><path d="m119.9 116.1 1-.6 1.1.6" stroke-miterlimit="10"/><path d="m140.4 126.7 1 .6 1-.6" stroke-miterlimit="10"/><path d="m160.8 116.1 1-.6 1.1.6" stroke-miterlimit="10"/><path d="m181.3 126.8 1 .6 1-.6" stroke-miterlimit="10"/><path d="m201.7 116.2 1-.6.8.4" stroke-miterlimit="10"/></g><path d="m24.588 137.465c.768-.442.178-1.465-.589-1.023s-1.357-.581-.59-1.023c.768-.442.178-1.465-.589-1.023-.767.443-1.357-.58-.589-1.023.767-.442.177-1.465-.59-1.022-.767.442-1.356-.581-.589-1.023.767-.443.178-1.465-.59-1.023-.767.442-1.356-.581-.589-1.023s.178-1.465-.589-1.023c-.768.442-1.357-.581-.59-1.023s.178-1.465-.589-1.023-1.357-.581-.59-1.023c.768-.442.178-1.465-.589-1.023s-1.357-.581-.589-1.023c.767-.442.177-1.465-.59-1.023s-1.357-.581-.589-1.023c.767-.442.178-1.465-.59-1.023-.767.442-1.356-.581-.589-1.023s.178-1.465-.59-1.023c-.767.442-1.356-.581-.589-1.023" stroke="#7f7f7f"/></g><g font-family="sans-serif"><text font-size="14" x="218.9" y="134.5">C</text><text font-size="14" x="228.7" y="134.5">H</text><text font-size="9" x="238.5" y="140.2">3</text></g></svg>
