<svg height="256" viewBox="0 0 256 256" width="256" xmlns="http://www.w3.org/2000/svg"><path d="m0 0h256v256h-256z" fill="#fff"/><ellipse cx="114" cy="111.6" fill="#ff7f7f" fill-rule="evenodd" rx="19.8" ry="19.8" stroke="#ff7f7f"/><g fill="none" stroke="#000" stroke-width="2"><path d="m64 201.9 29-16.8"/><path d="m121.1 183.3 46.1 20.6"/><path d="m125.1 174.3 39.6 17.7"/><path d="m167.2 203.9 44.2-48.9"/><path d="m211.4 155-20.3-35.1"/><path d="m199.2 153.7-16.6-28.9"/><path d="m184.8 83.9 10.8-24.2"/><path d="m164.5 100.9-36.4 7.7"/><path d="m108.6 163 3.1-29.5"/><path d="m164.9 202.9 2.3 1 2.2-2.4" stroke-miterlimit="10"/><path d="m209.2 157.5 2.2-2.5-1-1.7" stroke-miterlimit="10"/></g><text font-family="sans-serif" font-size="39" x="12.8" y="229.7">H</text><text font-family="sans-serif" font-size="39" x="38.1" y="229.7">O</text><text font-family="sans-serif" font-size="39" x="95.2" y="196.8">N</text><text font-family="sans-serif" font-size="39" x="166.6" y="117.7">N</text><text font-family="sans-serif" font-size="39" x="193.5" y="57.5">O</text><text font-family="sans-serif" font-size="39" x="220.8" y="57.5">H</text><text x="102.2" y="131.3"/></svg>
