<svg height="256" viewBox="0 0 256 256" width="256" xmlns="http://www.w3.org/2000/svg"><path d="m0 0h256v256h-256z" fill="#fff"/><ellipse cx="143.6" cy="99.8" fill="#ff7f7f" fill-rule="evenodd" rx="14.1" ry="14.1" stroke="#ff7f7f"/><path d="m59.9 100.9 26.8 2.8" fill="none" stroke="#000" stroke-width="2"/><path d="m96.7 94.7v-21.4" fill="none" stroke="#000" stroke-width="2"/><path d="m93.4 120.5-6.4 30.4" fill="none" stroke="#000" stroke-width="2"/><path d="m87 150.9 40.8 23.5" fill="none" stroke="#000" stroke-width="2"/><path d="m127.8 174.4 25-22.5" fill="none" stroke="#000" stroke-width="2"/><path d="m172.9 137.1 20.7-12" fill="none" stroke="#000" stroke-width="2"/><path d="m172.9 156.7 10.3 14.3" fill="none" stroke="#000" stroke-width="2"/><path d="m158.3 132.8-7.7-17.3" fill="none" stroke="#000" stroke-width="2"/><path d="m106.8 103.7 26.8-2.8" fill="none" stroke="#000" stroke-width="2"/><path d="m87.3 149.3-.3 1.6 2 1.1" fill="none" stroke="#000" stroke-miterlimit="10" stroke-width="2"/><path d="m125.7 173.3 2.1 1.1 1.2-1.1" fill="none" stroke="#000" stroke-miterlimit="10" stroke-width="2"/><g font-family="sans-serif"><text font-size="28" x="12.8" y="114">H</text><text font-size="18" x="32.3" y="125.3">3</text><text font-size="28" x="41.4" y="114">C</text><text font-size="28" x="88.3" y="118.9">P</text><text font-size="28" x="88.2" y="71.8">C</text><text font-size="28" x="107.8" y="71.8">H</text><text font-size="18" x="127.3" y="83.1">3</text><text font-size="28" x="154.3" y="157">P</text><text font-size="28" x="195.1" y="133.4">C</text><text font-size="28" x="214.7" y="133.4">H</text><text font-size="18" x="234.2" y="144.8">3</text><text font-size="28" x="182" y="195.2">C</text><text font-size="28" x="201.6" y="195.2">H</text><text font-size="18" x="221.1" y="206.5">3</text></g><text x="135.1" y="114"/></svg>
