<svg height="256" viewBox="0 0 256 256" width="256" xmlns="http://www.w3.org/2000/svg"><path d="m0 0h256v256h-256z" fill="#fff"/><ellipse cx="121.6" cy="127.8" fill="#ff7f7f" fill-rule="evenodd" rx="9.7" ry="9.7" stroke="#ff7f7f"/><g fill="none" stroke="#000" stroke-width="2"><path d="m112.5 85.4 21.2 12.2"/><path d="m143.6 94.7 10.1-22.7"/><path d="m153.7 72 32.3-3.4"/><path d="m156 66.9 26.7-2.8"/><path d="m186 68.6 13.1-29.6"/><path d="m199.1 39-19.1-26.2"/><path d="m193.5 39.6-15.7-21.7"/><path d="m180 12.8-32.2 3.4"/><path d="m147.8 16.2-13.1 29.6"/><path d="m151.1 20.7-10.8 24.5"/><path d="m147.5 103.9 23.9 7.7"/><path d="m171.4 111.6v32.4"/><path d="m171.4 144-23.9 7.8"/><path d="m145.4 164.8 8.4 18.8"/><path d="m153.8 183.6-19 26.2"/><path d="m156.1 188.7-15.7 21.7"/><path d="m134.8 209.8 13.2 29.6"/><path d="m148 239.4 32.2 3.4"/><path d="m151.3 234.9 26.6 2.8"/><path d="m180.2 242.8 19-26.2"/><path d="m199.2 216.6-13.2-29.6"/><path d="m193.6 216-10.9-24.5"/><path d="m133.7 158-21.1 12.3"/><path d="m112.6 170.3-28.1-16.2"/><path d="m107.7 173.1-23.2-13.4"/><path d="m84.5 154.1-28 16.2"/><path d="m56.5 170.3v32.4"/><path d="m61.3 173.1v26.8"/><path d="m56.5 202.7 28.1 16.2"/><path d="m84.6 218.9 28-16.2"/><path d="m84.6 213.3 23.1-13.4"/><path d="m112.5 85.4v-32.4"/><path d="m107.7 82.6-.1-26.7"/><path d="m112.5 53-28.1-16.1"/><path d="m84.4 36.9-28 16.2"/><path d="m84.4 42.5-23.2 13.4"/><path d="m56.4 53.1v32.4"/><path d="m56.4 85.5 28.1 16.2"/><path d="m61.3 82.7 23.2 13.4"/><path d="m84.5 101.7 28-16.3"/><path d="m134.7 45.8 19 26.2"/><path d="m186 187-32.2-3.4"/><path d="m112.6 202.7v-32.4"/><path d="m135.6 147.1-7.1-9.8"/><path d="m133.7 111.1-7.1 9.8"/><path d="m184.3 68.8 1.7-.2.6-1.5" stroke-miterlimit="10"/><path d="m198.4 40.5.7-1.5-1-1.3" stroke-miterlimit="10"/><path d="m181 14.1-1-1.3-1.6.2" stroke-miterlimit="10"/><path d="m149.4 16-1.6.2-.6 1.5" stroke-miterlimit="10"/><path d="m135.3 44.3-.6 1.5.9 1.3" stroke-miterlimit="10"/><path d="m170.2 111.2 1.2.4v1.6" stroke-miterlimit="10"/><path d="m171.4 142.4v1.6l-1.2.4" stroke-miterlimit="10"/><path d="m135.7 208.5-.9 1.3.6 1.5" stroke-miterlimit="10"/><path d="m147.3 238 .7 1.4 1.6.2" stroke-miterlimit="10"/><path d="m178.6 242.6 1.6.2.9-1.3" stroke-miterlimit="10"/><path d="m198.3 217.9.9-1.3-.6-1.5" stroke-miterlimit="10"/><path d="m186.7 188.5-.7-1.5-1.6-.2" stroke-miterlimit="10"/><path d="m85.9 154.9-1.4-.8-1.4.8" stroke-miterlimit="10"/><path d="m57.9 169.5-1.4.8v1.6" stroke-miterlimit="10"/><path d="m56.5 201.1v1.6l1.4.8" stroke-miterlimit="10"/><path d="m83.2 218.1 1.4.8 1.4-.8" stroke-miterlimit="10"/><path d="m111.2 203.5 1.4-.8v-1.7" stroke-miterlimit="10"/><path d="m112.5 54.7v-1.7l-1.4-.8" stroke-miterlimit="10"/><path d="m85.8 37.7-1.4-.8-1.4.8" stroke-miterlimit="10"/><path d="m57.8 52.3-1.4.8v1.6" stroke-miterlimit="10"/><path d="m56.4 83.9v1.6l1.4.8" stroke-miterlimit="10"/><path d="m83.1 100.9 1.4.8 1.4-.8" stroke-miterlimit="10"/></g><text font-family="sans-serif" font-size="19" x="134.7" y="111.3">P</text><text font-family="sans-serif" font-size="19" x="134.8" y="163.8">P</text><text x="115.7" y="137.6"/></svg>
