<svg height="256" viewBox="0 0 256 256" width="256" xmlns="http://www.w3.org/2000/svg"><path d="m0 0h256v256h-256z" fill="#fff"/><g fill="none" stroke-width="2"><g stroke="#000"><path d="m17.1 118.6 112.2-.4"/><path d="m129.3 118.2 81.7 46.7"/><path d="m226.6 158.2-.3-96.5"/><path d="m226.3 61.7-97 56.5"/><path d="m226.3 66.5v-4.8l-4.9 2.8" stroke-miterlimit="10"/></g><path d="m17.304 174.671c4.208-.015 4.188-5.626-.021-5.611-4.208.016-4.228-5.595-.02-5.61 4.208-.016 4.188-5.626-.02-5.611s-4.228-5.596-.02-5.611 4.188-5.626-.02-5.611-4.229-5.596-.021-5.611 4.188-5.626-.02-5.61c-4.208.015-4.228-5.596-.02-5.611s4.188-5.626-.02-5.611-4.228-5.596-.02-5.611 4.187-5.626-.021-5.611-4.228-5.595-.02-5.611c4.208-.015 4.188-5.626-.02-5.61-4.208.015-4.228-5.596-.02-5.611s4.188-5.626-.02-5.611-4.229-5.596-.021-5.611 4.188-5.626-.02-5.611c-4.208.016-4.228-5.595-.02-5.61 4.208-.016 4.188-5.626-.02-5.611s-4.228-5.596-.02-5.611" stroke="#7f7f7f"/></g><text font-family="sans-serif" font-size="40" x="214.7" y="193.9">O</text></svg>
