<svg height="256" viewBox="0 0 256 256" width="256" xmlns="http://www.w3.org/2000/svg"><path d="m0 0h256v256h-256z" fill="#fff"/><g fill="none" stroke-width="2"><path d="m227 167.2-54.8-31.5" stroke="#000"/><path d="m176.9 138.4-.1-45" stroke="#000"/><path d="m167.4 138.4-.1-44.9" stroke="#000"/><path d="m172.2 135.7-41.3 23.9" stroke="#000"/><path d="m103.9 159.7-27.9-16.1" stroke="#000"/><path d="m174.9 137.2-2.7-1.5-2.1 1.2" stroke="#000" stroke-miterlimit="10"/><path d="m242.8 139.75c-2.058-1.183-3.634 1.561-1.577 2.743 2.058 1.183.482 3.926-1.576 2.744-2.058-1.183-3.634 1.561-1.577 2.743 2.058 1.183.481 3.926-1.576 2.744-2.058-1.182-3.634 1.561-1.577 2.744 2.058 1.182.481 3.926-1.576 2.743-2.058-1.182-3.635 1.562-1.577 2.744s.481 3.926-1.577 2.744c-2.057-1.183-3.634 1.561-1.576 2.743 2.058 1.183.481 3.926-1.577 2.744-2.057-1.182-3.634 1.561-1.576 2.744 2.057 1.182.481 3.926-1.577 2.743-2.057-1.182-3.634 1.562-1.576 2.744 2.057 1.182.481 3.926-1.577 2.744-2.058-1.183-3.634 1.561-1.576 2.743 2.057 1.183.481 3.926-1.577 2.744-2.058-1.183-3.634 1.561-1.577 2.743 2.058 1.183.481 3.926-1.576 2.744-2.058-1.182-3.634 1.561-1.577 2.744 2.058 1.182.481 3.926-1.576 2.743" stroke="#7f7f7f"/></g><text font-family="sans-serif" font-size="37" x="160.6" y="91.4">O</text><text font-family="sans-serif" font-size="37" x="106" y="186.4">O</text><text font-family="sans-serif" font-size="37" x="12.8" y="154.9">H</text><text font-family="sans-serif" font-size="25" x="39" y="170">3</text><text font-family="sans-serif" font-size="37" x="51.2" y="154.9">C</text></svg>
