<?xml version="1.0" encoding="UTF-8"?>
<svg width="256px" height="256px" baseProfile="full" version="1.1" viewBox="0 0 256 256" xml:space="preserve" xmlns="http://www.w3.org/2000/svg">

 <!-- END OF HEADER -->
<rect width="256" height="256" fill="#fff"> </rect>
<path class="bond-0 atom-0 atom-1" d="m39.8 195.4h176" fill="none" stroke="#191919" stroke-width="2px"/>
<path class="bond-1 atom-2 atom-3" d="m26.4 60.2h202.8" fill="none" stroke="#000" stroke-width="2px"/>
<path class="atom-0" d="m21 192.2 4.2-4.2-5.5-1.1 0.8-2.9 5.1 2.6-0.7-5.6h3l-0.9 5.6 5.2-2.4 0.9 2.7-5.6 1 4 4.3-2.5 1.8-2.7-5.3-2.8 5.3-2.5-1.8" fill="#191919"/>
<path class="atom-1" d="m223.9 192.2 4.1-4.2-5.5-1.1 0.9-2.9 5 2.6-0.7-5.6h3l-0.8 5.6 5.1-2.4 0.9 2.7-5.6 1 4 4.3-2.4 1.8-2.8-5.3-2.8 5.3-2.4-1.8" fill="#191919"/>
</svg>
