<svg height="39" viewBox="0 0 81 39" width="81" xmlns="http://www.w3.org/2000/svg"><text font-family="Helvetica" font-size="320" font-weight="bold" transform="matrix(.05 0 0 .05 .994 13.758)">H</text><text font-family="Helvetica" font-size="240" font-weight="bold" transform="matrix(.05 0 0 .05 12.549 17.438)">2</text><text font-family="Helvetica" font-size="320" font-weight="bold" transform="matrix(.05 0 0 .05 19.223 13.758)">C</text><text font-family="Helvetica" font-size="320" font-weight="bold" transform="matrix(.05 0 0 .05 49.223 13.758)">CH</text><text font-family="Helvetica" font-size="240" font-weight="bold" transform="matrix(.05 0 0 .05 72.332 17.438)">2</text><g transform="matrix(.05 0 0 .05 -230 -352)"><path d="m5558.83 7154v20h-108.83v-20z"/><path d="m5243.95 7174v-20h106.05v20z"/><path d="m5558.83 7226v20h-108.83v-20z"/><path d="m5243.95 7246v-20h106.05v20z"/><path d="m5390 7180h20v54.55h-20z"/><path d="m5390 7289.09h20v54.55h-20z"/><path d="m5390 7398.18h20v54.55h-20z"/><path d="m5390 7507.27h20v54.55h-20z"/><path d="m5390 7616.36h20v54.55h-20z"/><path d="m5390 7725.45h20v54.55h-20z"/></g></svg>
