<svg height="49" viewBox="0 0 58 49" width="58" xmlns="http://www.w3.org/2000/svg"><g transform="matrix(.05 0 0 .05 -186 -237)"><path d="m4296.66 4783.7.32 23.02-511.9 301.89-10.16-17.22z"/><path d="m4292.91 4869.49 10.16 17.23-43.77 25.81-10.16-17.23z"/><path d="m4205.38 4921.11 10.16 17.23-43.77 25.81-10.16-17.23z"/><path d="m4117.85 4972.73 10.16 17.23-43.77 25.81-10.16-17.23z"/><path d="m4030.32 5024.35 10.16 17.23-43.77 25.81-10.16-17.23z"/><path d="m3942.79 5075.97 10.16 17.23-43.77 25.81-10.16-17.23z"/><path d="m3855.26 5127.59 10.16 17.23-43.77 25.81-10.15-17.23z"/><path d="m4826.86 5076.55-9.67 17.51-520.21-287.34-.32-23.02z"/><path d="m4792.05 5139.58-9.67 17.51-44.48-24.57 9.67-17.51z"/><path d="m4703.1 5090.45-9.67 17.5-44.48-24.56 9.67-17.51z"/><path d="m4614.15 5041.32-9.67 17.5-44.48-24.56 9.67-17.51z"/><path d="m4525.2 4992.18-9.67 17.51-44.48-24.57 9.67-17.5z"/><path d="m4436.25 4943.05-9.67 17.51-44.48-24.57 9.67-17.5z"/><path d="m4347.3 4893.92-9.67 17.51-44.48-24.57 9.67-17.51z"/><path d="m4308.74 5659.39-19.99.63-1.71-54.52 19.99-.62z"/><path d="m4305.33 5550.36-19.99.62-1.71-54.52 19.99-.62z"/><path d="m4301.92 5441.32-19.99.62-1.7-54.51 19.99-.63z"/><path d="m4298.51 5332.28-19.99.63-1.7-54.52 19.99-.63z"/><path d="m4295.11 5223.24-19.99.63-1.71-54.52 19.99-.62z"/><path d="m4291.7 5114.21-19.99.62-1.71-54.52 20-.62z"/></g></svg>
