<svg height="61" viewBox="0 0 141 61" width="141" xmlns="http://www.w3.org/2000/svg"><g transform="matrix(.05 0 0 .05 -161 -220)"><path d="m4570 5580h-20v-54.55h20z"/><path d="m4570 5470.91h-20v-54.55h20z"/><path d="m4570 5361.82h-20v-46.11h20z"/><path d="m4570 5034.55h-20v-54.55h20z"/><path d="m5995.37 4451.77-78.46 50.41-708.1 262.4-3.59-20z"/><path d="m5432.4 4988.38-78.67 107.28-646.8 195.05-11.8-80z"/><path d="m3931.79 4541.65 2.82 22.25-560.42 379.34-100.67 43.99z"/><path d="m4000.45 5210.71-16.37 80-710.56-303.48 100.67-43.99z"/><path d="m4499.98 4744.58-3.47 20-561.9-200.68-2.82-22.25z"/><path d="m4496.51 4764.58 3.47-20h705.24l3.59 20z"/><path d="m4498.25 4849.63v-20h708.76v20z"/><path d="m3984.08 5290.71 16.37-80h694.68l11.8 80z"/><path d="m4015.81 5145.66v-20h668.25v20z"/><path d="m5916.91 4502.18 78.46-50.41-641.64 643.89 78.67-107.28z"/></g></svg>
