<svg height="48" viewBox="0 0 66 48" width="66" xmlns="http://www.w3.org/2000/svg"><g transform="matrix(.05 0 0 .05 -159 -191)"><path d="m3509.59 4258.89-89.47 80-182.83-307.4 35.54 11.44z"/><path d="m4405.46 4050.43 37.3-10.27-206.21 298.73-89.53-80z"/><path d="m3849.08 3893.6.22-20.71 593.46 167.27-37.3 10.27z"/><path d="m3849.3 3872.89-.22 20.71-576.25 149.33-35.54-11.44z"/><path d="m3838.25 4218.82c211.02 0 384.74-57.27 384.74-126.4 0-69.99-173.72-127.32-384.74-127.32-210.95 0-383.74 57.33-383.74 127.32 0 69.13 172.79 126.4 383.74 126.4" fill="none" stroke="#000" stroke-width="20"/><path d="m3850 4740h-20v-54.55h20z"/><path d="m3850 4630.91h-20v-54.55h20z"/><path d="m3850 4521.82h-20v-54.55h20z"/><path d="m3850 4412.73h-20v-33.84h20z"/><path d="m3850 4194.55h-20v-54.55h20z"/><path d="m4147.02 4258.89 89.53 80h-816.43l89.47-80z"/></g></svg>
