<?xml version="1.0" encoding="UTF-8"?>
<svg width="256px" height="256px" baseProfile="full" version="1.1" viewBox="0 0 256 256" xml:space="preserve" xmlns="http://www.w3.org/2000/svg">

 <!-- END OF HEADER -->
<rect width="256" height="256" fill="#fff"> </rect>
<path class="bond-0 atom-0 atom-1" d="m174.8 127.8h56.3" fill="none" stroke="#191919" stroke-width="2px"/>
<path class="bond-1 atom-2 atom-3" d="m121 127.8-41.4-56.9" fill="none" stroke="#000" stroke-width="2px"/>
<path class="bond-2 atom-3 atom-4" d="m79.6 70.9-66.8 21.8" fill="none" stroke="#000" stroke-width="2px"/>
<path class="bond-3 atom-4 atom-5" d="m12.8 92.7v70.2" fill="none" stroke="#000" stroke-width="2px"/>
<path class="bond-4 atom-5 atom-6" d="m12.8 162.9 66.8 21.8" fill="none" stroke="#000" stroke-width="2px"/>
<path class="bond-5 atom-6 atom-2" d="m79.6 184.7 41.4-56.9" fill="none" stroke="#000" stroke-width="2px"/>
<path d="m118.9 125 2.1 2.8-2.1 2.8" fill="none" stroke="#000" stroke-miterlimit="10" stroke-width="2px"/>
<path d="m81.7 73.8-2.1-2.9-3.3 1.1" fill="none" stroke="#000" stroke-miterlimit="10" stroke-width="2px"/>
<path d="m16.1 91.6-3.3 1.1v3.5" fill="none" stroke="#000" stroke-miterlimit="10" stroke-width="2px"/>
<path d="m12.8 159.4v3.5l3.3 1.1" fill="none" stroke="#000" stroke-miterlimit="10" stroke-width="2px"/>
<path d="m76.3 183.6 3.3 1.1 2.1-2.9" fill="none" stroke="#000" stroke-miterlimit="10" stroke-width="2px"/>
<path class="atom-0" d="m164.1 125.6 2.9-3-3.9-0.8 0.6-2 3.6 1.8-0.5-3.9h2.1l-0.6 3.9 3.6-1.7 0.6 1.9-3.9 0.7 2.8 3.1-1.7 1.2-2-3.7-1.9 3.7-1.7-1.2" fill="#191919"/>
<path class="atom-1" d="m234.3 125.6 3-3-3.9-0.8 0.6-2 3.5 1.8-0.5-3.9h2.1l-0.5 3.9 3.6-1.7 0.6 1.9-3.9 0.7 2.8 3.1-1.7 1.2-2-3.7-1.9 3.7-1.8-1.2" fill="#191919"/>
</svg>
