<?xml version="1.0" encoding="UTF-8"?>
<svg width="256px" height="256px" baseProfile="full" version="1.1" viewBox="0 0 256 256" xml:space="preserve" xmlns="http://www.w3.org/2000/svg">

 <!-- END OF HEADER -->
<rect width="256" height="256" fill="#fff"> </rect>
<path class="bond-0 atom-0 atom-1" d="m91.6 25.8h72.4" fill="none" stroke="#191919" stroke-width="2px"/>
<path class="bond-1 atom-2 atom-3" d="m218.3 164.5-45.3 78.3" fill="none" stroke="#000" stroke-width="2px"/>
<path class="bond-2 atom-3 atom-4" d="m173 242.8h-90.4" fill="none" stroke="#000" stroke-width="2px"/>
<path class="bond-3 atom-4 atom-5" d="m82.6 242.8-45.3-78.3" fill="none" stroke="#000" stroke-width="2px"/>
<path class="bond-4 atom-5 atom-6" d="m37.3 164.5 45.3-78.4" fill="none" stroke="#000" stroke-width="2px"/>
<path class="bond-5 atom-6 atom-7" d="m82.6 86.1h90.4" fill="none" stroke="#000" stroke-width="2px"/>
<path class="bond-6 atom-7 atom-2" d="m173 86.1 45.3 78.4" fill="none" stroke="#000" stroke-width="2px"/>
<path d="m216 168.4 2.3-3.9-2.3-4" fill="none" stroke="#000" stroke-miterlimit="10" stroke-width="2px"/>
<path d="m175.3 238.9-2.3 3.9h-4.5" fill="none" stroke="#000" stroke-miterlimit="10" stroke-width="2px"/>
<path d="m87.1 242.8h-4.5l-2.3-3.9" fill="none" stroke="#000" stroke-miterlimit="10" stroke-width="2px"/>
<path d="m39.6 168.4-2.3-3.9 2.3-4" fill="none" stroke="#000" stroke-miterlimit="10" stroke-width="2px"/>
<path d="m80.3 90 2.3-3.9h4.5" fill="none" stroke="#000" stroke-miterlimit="10" stroke-width="2px"/>
<path d="m168.5 86.1h4.5l2.3 3.9" fill="none" stroke="#000" stroke-miterlimit="10" stroke-width="2px"/>
<path class="atom-0" d="m77.7 23 3.8-3.9-5-1 0.8-2.6 4.6 2.4-0.7-5.1h2.7l-0.7 5 4.6-2.1 0.8 2.4-5 1 3.6 3.8-2.2 1.6-2.5-4.8-2.6 4.8-2.2-1.5" fill="#191919"/>
<path class="atom-1" d="m168.2 23 3.8-3.9-5-1 0.7-2.6 4.6 2.4-0.6-5.1h2.7l-0.8 5 4.7-2.1 0.8 2.4-5.1 1 3.6 3.8-2.2 1.6-2.5-4.8-2.5 4.8-2.2-1.5" fill="#191919"/>
</svg>
