<svg height="69" viewBox="0 0 96 69" width="96" xmlns="http://www.w3.org/2000/svg"><g transform="matrix(.05 0 0 .05 -177 -235)"><path d="m4490 6040h-20v-57.33h20z"/><path d="m4490 5925.33h-20v-57.33h20z"/><path d="m4490 5810.67h-20v-57.34h20z"/><path d="m4490 5696h-20v-57.33h20z"/><path d="m4490 5466.67h-20v-57.34h20z"/><path d="m4490 5352h-20v-57.33h20z"/><path d="m4490 5237.33h-20v-57.33h20z"/><path d="m4906.01 5519.84 90.7 80.3-991.44-3.32 91.24-79.69z"/><path d="m5389.01 5165.35 30.36.11-422.66 434.68-90.7-80.3z"/><path d="m4951.21 4779.06 7.59-19.98 460.57 406.38-30.36-.11z"/><path d="m4056.28 4776.06-7.46-20.02 909.98 3.04-7.59 19.98z"/><path d="m3615.9 5159.41-30.36-.08 463.28-403.29 7.46 20.02z"/><path d="m4096.51 5517.13-91.24 79.69-419.73-437.49 30.36.08z"/><path d="m3865.3 5160.89c-.6 177.95 284.38 323.35 636.07 324.53s637.64-142.31 638.24-320.27c.59-177.95-284.39-323.35-636.08-324.53s-637.64 142.31-638.23 320.27" fill="none" stroke="#000" stroke-width="20"/></g></svg>
