<svg height="256" viewBox="0 0 256 256" width="256" xmlns="http://www.w3.org/2000/svg"><path d="m0 0h256v256h-256z" fill="#fff"/><g fill="none" stroke-width="2"><path d="m214.8 124.9-72.9 42.2" stroke="#000"/><path d="m141.9 167.1-58.2-33.5" stroke="#000"/><path d="m141.9 152.5-51.9-29.9" stroke="#000"/><path d="m145.6 165-3.7 2.1-2.9-1.7" stroke="#000" stroke-miterlimit="10"/><path d="m193.728 88.488c-2.734 1.582-.625 5.227 2.108 3.645 2.734-1.581 4.843 2.063 2.109 3.645s-.625 5.226 2.109 3.645c2.733-1.582 4.842 2.063 2.108 3.644-2.733 1.582-.624 5.227 2.109 3.645 2.734-1.581 4.843 2.063 2.109 3.645s-.625 5.226 2.109 3.645c2.733-1.582 4.842 2.063 2.108 3.645-2.733 1.581-.625 5.226 2.109 3.644 2.734-1.581 4.842 2.063 2.109 3.645-2.734 1.582-.625 5.226 2.108 3.645 2.734-1.582 4.843 2.063 2.109 3.645-2.733 1.581-.625 5.226 2.109 3.644 2.734-1.581 4.842 2.064 2.109 3.645-2.734 1.582-.625 5.226 2.108 3.645 2.734-1.582 4.843 2.063 2.109 3.645-2.734 1.581-.625 5.226 2.109 3.644 2.733-1.581 4.842 2.064 2.108 3.645-2.733 1.582-.624 5.227 2.109 3.645 2.734-1.582 4.843 2.063 2.109 3.645" stroke="#7f7f7f"/></g><text font-family="sans-serif" font-size="40" x="19.7" y="139.6">H</text><text font-family="sans-serif" font-size="26" x="47.3" y="155.6">2</text><text font-family="sans-serif" font-size="40" x="60.1" y="139.6">C</text></svg>
