<svg height="256" viewBox="0 0 256 256" width="256" xmlns="http://www.w3.org/2000/svg"><path d="m0 0h256v256h-256z" fill="#fff"/><g fill="none" stroke-width="2"><path d="m41.7 158.8 77.4-44.4" stroke="#000"/><path d="m119.1 114.4 62.5-35.7" stroke="#000"/><path d="m112.4 102.8 62.5-35.7" stroke="#000"/><path d="m125.7 126.1 62.5-35.8" stroke="#000"/><path d="m115.2 116.7 3.9-2.3 3.1-1.7" stroke="#000" stroke-miterlimit="10"/><path d="m63.822 197.479c2.903-1.662.687-5.533-2.216-3.871s-5.12-2.21-2.216-3.872c2.903-1.662.687-5.533-2.217-3.871-2.903 1.662-5.119-2.209-2.216-3.871s.687-5.534-2.216-3.872c-2.903 1.663-5.12-2.209-2.216-3.871 2.903-1.662.687-5.533-2.217-3.871-2.903 1.662-5.119-2.209-2.216-3.871 2.903-1.663.687-5.534-2.216-3.872s-5.12-2.209-2.216-3.871c2.903-1.662.687-5.533-2.217-3.871-2.903 1.662-5.119-2.21-2.216-3.872s.687-5.533-2.216-3.871-5.12-2.209-2.216-3.871c2.903-1.662.687-5.534-2.217-3.872-2.903 1.663-5.119-2.209-2.216-3.871s.687-5.533-2.216-3.871-5.12-2.209-2.216-3.871c2.903-1.662.687-5.534-2.217-3.872-2.903 1.662-5.119-2.209-2.216-3.871" stroke="#7f7f7f"/></g><text font-family="sans-serif" font-size="40" x="184.5" y="90.1">C</text><text font-family="sans-serif" font-size="40" x="212.1" y="90.1">H</text></svg>
