<svg height="256" viewBox="0 0 256 256" width="256" xmlns="http://www.w3.org/2000/svg"><path d="m0 0h256v256h-256z" fill="#fff"/><g fill="none" stroke-width="2"><g stroke="#000"><path d="m215.5 130.6-71.9-41.6"/><path d="m143.6 89-57.2 33"/><path d="m147.2 91.1-3.6-2.1-2.8 1.7" stroke-miterlimit="10"/></g><path d="m236.35 94.671c-2.697-1.561-4.777 2.035-2.08 3.595 2.696 1.56.616 5.156-2.081 3.595-2.696-1.56-4.777 2.036-2.08 3.596s.617 5.156-2.08 3.595c-2.697-1.56-4.777 2.036-2.08 3.596 2.696 1.56.616 5.156-2.08 3.595-2.697-1.56-4.777 2.036-2.081 3.596 2.697 1.56.617 5.155-2.08 3.595-2.696-1.56-4.777 2.036-2.08 3.596s.617 5.155-2.08 3.595-4.777 2.035-2.08 3.596c2.696 1.56.616 5.155-2.081 3.595-2.696-1.56-4.776 2.035-2.08 3.596 2.697 1.56.617 5.155-2.08 3.595s-4.777 2.035-2.08 3.596c2.697 1.56.616 5.155-2.08 3.595-2.697-1.56-4.777 2.035-2.08 3.595 2.696 1.561.616 5.156-2.081 3.596-2.696-1.56-4.776 2.035-2.08 3.595 2.697 1.561.617 5.156-2.08 3.596" stroke="#7f7f7f"/></g><g font-family="sans-serif"><text font-size="40" x="19.3" y="150.5">H</text><text font-size="26" x="46.9" y="166.5">3</text><text font-size="40" x="59.7" y="150.5">C</text></g></svg>
