<svg height="256" viewBox="0 0 256 256" width="256" xmlns="http://www.w3.org/2000/svg"><path d="m0 0h256v256h-256z" fill="#fff"/><g fill="none" stroke-width="2"><path d="m21.6 106.6 30.2-17.5" stroke="#000"/><path d="m54.4 90.6v-24.8" stroke="#000"/><path d="m49.2 90.6-.1-24.8" stroke="#000"/><path d="m51.8 89.1 22.8 13.2" stroke="#000"/><path d="m89.5 102.3 22.8-13.2" stroke="#000"/><path d="m112.3 89.1 30.3 17.4" stroke="#000"/><path d="m142.6 106.5 31.9-14.3" stroke="#000"/><path d="m174.5 92.2 10.7-33.2" stroke="#000"/><path d="m180.4 91 8.9-27.5" stroke="#000"/><path d="m185.2 59 34.2-7.3" stroke="#000"/><path d="m219.4 51.7 23.4 26" stroke="#000"/><path d="m217.5 57.4 19.4 21.5" stroke="#000"/><path d="m242.8 77.7-10.7 33.2" stroke="#000"/><path d="m232.1 110.9-34.2 7.3" stroke="#000"/><path d="m228 106.4-28.2 6" stroke="#000"/><path d="m197.9 118.2-17.4 30.3" stroke="#000"/><path d="m180.5 148.5 10.8 33.2" stroke="#000"/><path d="m176.4 153 9 27.4" stroke="#000"/><path d="m191.3 181.7-23.3 26" stroke="#000"/><path d="m168 207.7-34.2-7.3" stroke="#000"/><path d="m166.1 201.9-28.3-6" stroke="#000"/><path d="m133.8 200.4-10.9-33.2" stroke="#000"/><path d="m122.9 167.2 23.4-25.9" stroke="#000"/><path d="m128.8 168.5 19.4-21.5" stroke="#000"/><path d="m146.3 141.3-3.7-34.8" stroke="#000"/><path d="m197.9 118.2-23.4-26" stroke="#000"/><path d="m146.3 141.3 34.2 7.2" stroke="#000"/><path d="m50.3 90 1.5-.9 1.1.7" stroke="#000" stroke-miterlimit="10"/><path d="m111.2 89.7 1.1-.6 1.5.8" stroke="#000" stroke-miterlimit="10"/><path d="m184.7 60.7.5-1.7 1.7-.3" stroke="#000" stroke-miterlimit="10"/><path d="m217.7 52.1 1.7-.4 1.2 1.3" stroke="#000" stroke-miterlimit="10"/><path d="m241.6 76.4 1.2 1.3-.5 1.6" stroke="#000" stroke-miterlimit="10"/><path d="m232.6 109.2-.5 1.7-1.7.3" stroke="#000" stroke-miterlimit="10"/><path d="m190.8 180 .5 1.7-1.2 1.3" stroke="#000" stroke-miterlimit="10"/><path d="m169.1 206.4-1.1 1.3-1.7-.4" stroke="#000" stroke-miterlimit="10"/><path d="m135.5 200.8-1.7-.4-.6-1.6" stroke="#000" stroke-miterlimit="10"/><path d="m123.5 168.9-.6-1.7 1.2-1.3" stroke="#000" stroke-miterlimit="10"/><path d="m30.306 121.752c1.134-.656.259-2.168-.875-1.512-1.134.657-2.009-.855-.875-1.512 1.133-.656.258-2.168-.876-1.512-1.134.657-2.009-.855-.875-1.512 1.134-.656.259-2.168-.875-1.511-1.134.656-2.009-.856-.876-1.512 1.134-.657.259-2.169-.875-1.512-1.134.656-2.009-.856-.875-1.512 1.134-.657.258-2.169-.876-1.512-1.133.656-2.009-.856-.875-1.512 1.134-.657.259-2.169-.875-1.512-1.134.656-2.009-.856-.875-1.512 1.133-.657.258-2.169-.876-1.512-1.134.656-2.009-.856-.875-1.512 1.134-.657.258-2.168-.875-1.512-1.134.656-2.01-.856-.876-1.512s.259-2.168-.875-1.512-2.009-.856-.875-1.512.258-2.168-.876-1.512c-1.134.657-2.009-.855-.875-1.512" stroke="#7f7f7f"/></g><text font-family="sans-serif" font-size="20" x="45.5" y="64.7">O</text><text font-family="sans-serif" font-size="20" x="75.8" y="117">O</text></svg>
