<svg height="256" viewBox="0 0 256 256" width="256" xmlns="http://www.w3.org/2000/svg"><path d="m0 0h256v256h-256z" fill="#fff"/><g fill="none" stroke-width="2"><g stroke="#000"><path d="m234.7 118-28.1 16.2"/><path d="m206.6 134.2-28-16.2"/><path d="m178.6 118-28.1 16.2"/><path d="m150.5 134.2-28-16.2"/><path d="m122.5 118-28.1 16.1"/><path d="m94.4 134.1-28.1-16.2"/><path d="m66.3 117.9-21.1 12.2"/><path d="m208 133.4-1.4.8-1.4-.8" stroke-miterlimit="10"/><path d="m180 118.8-1.4-.8-1.4.8" stroke-miterlimit="10"/><path d="m151.9 133.4-1.4.8-1.4-.8" stroke-miterlimit="10"/><path d="m123.9 118.8-1.4-.8-1.4.8" stroke-miterlimit="10"/><path d="m95.8 133.3-1.4.8-1.4-.8" stroke-miterlimit="10"/><path d="m67.7 118.7-1.4-.8-1 .6" stroke-miterlimit="10"/></g><path d="m226.619 104.01c-1.053.607-.244 2.011.809 1.404 1.052-.607 1.861.797.809 1.404-1.053.606-.244 2.01.809 1.403s1.862.797.809 1.404-.244 2.01.809 1.403c1.053-.606 1.862.797.809 1.404s-.244 2.011.809 1.404 1.862.797.809 1.403c-1.053.607-.244 2.011.809 1.404s1.862.797.809 1.404c-1.052.606-.243 2.01.809 1.403 1.053-.607 1.862.797.809 1.404-1.052.607-.243 2.01.81 1.404 1.052-.607 1.861.796.809 1.403-1.053.607-.244 2.011.809 1.404 1.052-.607 1.861.797.809 1.404-1.053.606-.244 2.01.809 1.403s1.862.797.809 1.404-.244 2.01.809 1.403c1.053-.606 1.862.797.809 1.404" stroke="#7f7f7f"/></g><g font-family="sans-serif"><text font-size="19" x="12.8" y="143.8">H</text><text font-size="12" x="26.2" y="151.6">3</text><text font-size="19" x="32.4" y="143.8">C</text></g></svg>
