<svg height="256" viewBox="0 0 256 256" width="256" xmlns="http://www.w3.org/2000/svg"><path d="m0 0h256v256h-256z" fill="#fff"/><g fill="none" stroke-width="2"><g stroke="#000"><path d="m227 135.5-54.8-31.6"/><path d="m172.2 103.9-41.3 23.9"/><path d="m172.2 114.9-36.6 21.2"/><path d="m103.9 127.9-27.9-16.1"/><path d="m174.9 105.5-2.7-1.6-2.1 1.2" stroke-miterlimit="10"/></g><path d="m242.8 108.131c-2.056-1.185-3.636 1.557-1.58 2.742s.476 3.927-1.58 2.741c-2.057-1.185-3.637 1.557-1.581 2.742s.476 3.927-1.58 2.741c-2.056-1.185-3.636 1.557-1.58 2.742s.476 3.927-1.58 2.742c-2.057-1.186-3.637 1.556-1.581 2.741s.476 3.927-1.58 2.742c-2.056-1.186-3.636 1.556-1.58 2.741s.476 3.927-1.58 2.742c-2.057-1.186-3.637 1.556-1.581 2.741s.476 3.927-1.58 2.742-3.636 1.556-1.58 2.741c2.056 1.186.476 3.927-1.58 2.742-2.057-1.185-3.637 1.556-1.581 2.741 2.056 1.186.476 3.927-1.58 2.742s-3.636 1.556-1.58 2.742c2.056 1.185.476 3.926-1.58 2.741-2.057-1.185-3.637 1.556-1.581 2.742 2.057 1.185.476 3.926-1.58 2.741" stroke="#7f7f7f"/></g><g font-family="sans-serif"><text font-size="37" x="106" y="154.6">N</text><text font-size="37" x="12.8" y="123">H</text><text font-size="25" x="39" y="138.2">3</text><text font-size="37" x="51.2" y="123">C</text></g></svg>
