<svg height="256" viewBox="0 0 256 256" width="256" xmlns="http://www.w3.org/2000/svg"><path d="m0 0h256v256h-256z" fill="#fff"/><g fill="none" stroke-width="2"><path d="m39.4 176.8 71-40.7" stroke="#000"/><path d="m110.4 136.1.2-59.1" stroke="#000"/><path d="m110.4 136.1 56 32.6" stroke="#000"/><path d="m59.738 212.273c2.662-1.525.63-5.075-2.033-3.55-2.662 1.524-4.694-2.026-2.032-3.55s.63-5.074-2.032-3.55c-2.663 1.524-4.695-2.026-2.033-3.55 2.663-1.524.631-5.074-2.032-3.55-2.662 1.524-4.694-2.026-2.032-3.55s.63-5.074-2.032-3.55c-2.663 1.524-4.695-2.026-2.033-3.55 2.663-1.524.63-5.074-2.032-3.55s-4.695-2.026-2.032-3.55c2.662-1.524.63-5.074-2.033-3.55-2.662 1.524-4.694-2.026-2.032-3.55 2.663-1.524.63-5.074-2.032-3.55s-4.695-2.025-2.032-3.55c2.662-1.524.63-5.074-2.033-3.55-2.662 1.525-4.694-2.025-2.032-3.55 2.662-1.524.63-5.074-2.032-3.549-2.663 1.524-4.695-2.026-2.032-3.55 2.662-1.525.63-5.075-2.033-3.55-2.662 1.524-4.694-2.026-2.032-3.55" stroke="#7f7f7f"/></g><g font-family="sans-serif"><text font-size="40" x="98.7" y="74.3">C</text><text font-size="40" x="126.3" y="74.3">H</text><text font-size="26" x="153.9" y="90.3">3</text><text font-size="40" x="169.1" y="197.3">C</text><text font-size="40" x="196.7" y="197.3">H</text><text font-size="26" x="224.3" y="213.3">3</text></g></svg>
