<svg height="256" viewBox="0 0 256 256" width="256" xmlns="http://www.w3.org/2000/svg"><path d="m0 0h256v256h-256z" fill="#fff"/><g fill="none" stroke-width="2"><g stroke="#000"><path d="m42.9 161.5 70.5-40.4"/><path d="m155 97.3 44.1-25.3"/><path d="m147.6 84.4 44.1-25.3"/><path d="m162.4 110.1 44.1-25.2"/></g><path d="m67.416 204.33c3.216-1.841.761-6.129-2.454-4.288-3.216 1.841-5.671-2.447-2.455-4.288s.761-6.128-2.455-4.287c-3.215 1.84-5.67-2.447-2.454-4.288 3.215-1.841.761-6.129-2.455-4.288s-5.67-2.447-2.455-4.288c3.216-1.841.761-6.129-2.454-4.288-3.216 1.841-5.671-2.447-2.455-4.287 3.216-1.841.761-6.129-2.455-4.288-3.215 1.841-5.67-2.447-2.454-4.288 3.215-1.841.761-6.129-2.455-4.288s-5.67-2.447-2.455-4.288c3.216-1.841.761-6.128-2.454-4.287-3.216 1.84-5.671-2.447-2.455-4.288s.761-6.129-2.455-4.288c-3.215 1.841-5.67-2.447-2.454-4.288 3.215-1.841.76-6.128-2.455-4.288-3.216 1.841-5.671-2.446-2.455-4.287s.761-6.129-2.455-4.288c-3.215 1.841-5.67-2.447-2.454-4.288" stroke="#7f7f7f"/></g><g font-family="sans-serif"><text font-size="40" x="116.6" y="132.4">N</text><text font-size="26" x="144.2" y="116.4">+</text><text font-size="40" x="202.4" y="83.3">C</text><text font-size="26" x="230" y="67.3">-</text></g></svg>
