<svg height="256" viewBox="0 0 256 256" width="256" xmlns="http://www.w3.org/2000/svg"><path d="m0 0h256v256h-256z" fill="#fff"/><g fill="none" stroke-width="2"><g stroke="#000"><path d="m25.5 156.8 43.8-25.4"/><path d="m69.3 131.4 43.8 25.3"/><path d="m113.1 156.7 43.8-25.3"/><path d="m156.9 131.4 33.1 19"/><path d="m156.9 131.4v-33.8"/><path d="m67.1 132.7 2.2-1.3 2.2 1.3" stroke-miterlimit="10"/><path d="m110.9 155.4 2.2 1.3 2.2-1.3" stroke-miterlimit="10"/></g><path d="m38.133 178.666c1.643-.949.376-3.14-1.267-2.19-1.642.95-2.909-1.24-1.266-2.19 1.642-.95.376-3.14-1.267-2.19-1.642.95-2.909-1.24-1.267-2.19 1.643-.95.376-3.14-1.266-2.191-1.643.95-2.909-1.24-1.267-2.19 1.643-.95.376-3.14-1.266-2.19-1.643.95-2.91-1.24-1.267-2.19 1.642-.95.376-3.14-1.267-2.19-1.642.95-2.909-1.241-1.266-2.191 1.642-.949.375-3.14-1.267-2.19-1.643.95-2.909-1.24-1.267-2.19 1.643-.95.376-3.14-1.266-2.19-1.643.95-2.91-1.24-1.267-2.19s.376-3.14-1.267-2.19c-1.642.949-2.909-1.241-1.266-2.191 1.642-.95.376-3.14-1.267-2.19s-2.909-1.24-1.267-2.19c1.643-.95.376-3.14-1.266-2.19-1.643.95-2.91-1.241-1.267-2.19" stroke="#7f7f7f"/></g><g font-family="sans-serif"><text font-size="30" x="191.6" y="171.8">C</text><text font-size="30" x="212.6" y="171.8">H</text><text font-size="20" x="233.5" y="183.9">3</text><text font-size="30" x="147.8" y="95.9">C</text><text font-size="30" x="168.7" y="95.9">H</text><text font-size="20" x="189.7" y="108.1">3</text></g></svg>
