<svg height="256" viewBox="0 0 256 256" width="256" xmlns="http://www.w3.org/2000/svg"><path d="m0 0h256v256h-256z" fill="#fff"/><g fill="none" stroke-width="2"><g stroke="#000"><path d="m210.3 95.2-28.8 49.3"/><path d="m158.6 164.5-44.9-.2"/><path d="m158.7 153.4-45-.2"/><path d="m84.8 164.1-44.9-.2"/><path d="m84.9 153.1-45-.2"/></g><path d="m178.39 76.62c-1.395 2.391 1.793 4.25 3.188 1.859s4.583-.531 3.188 1.86c-1.394 2.391 1.794 4.251 3.189 1.859 1.394-2.391 4.583-.531 3.188 1.86s1.794 4.251 3.188 1.859c1.395-2.391 4.583-.531 3.189 1.86-1.395 2.391 1.793 4.251 3.188 1.859 1.395-2.391 4.583-.531 3.188 1.86-1.394 2.391 1.794 4.251 3.189 1.86 1.394-2.392 4.583-.532 3.188 1.859s1.794 4.251 3.188 1.86c1.395-2.392 4.583-.532 3.189 1.859-1.395 2.391 1.793 4.251 3.188 1.86s4.583-.532 3.188 1.859c-1.394 2.392 1.794 4.251 3.189 1.86 1.394-2.391 4.583-.532 3.188 1.859-1.395 2.392 1.794 4.251 3.188 1.86 1.395-2.391 4.583-.532 3.189 1.859-1.395 2.392 1.793 4.251 3.188 1.86s4.583-.532 3.188 1.86" stroke="#7f7f7f"/></g><g font-family="sans-serif" font-size="40"><text x="161.1" y="179">N</text><text x="87.3" y="178.7">C</text><text x="13.4" y="178.3">S</text></g></svg>
