<svg height="256" viewBox="0 0 256 256" width="256" xmlns="http://www.w3.org/2000/svg"><path d="m0 0h256v256h-256z" fill="#fff"/><g fill="none" stroke-width="2"><g stroke="#000"><path d="m205.3 97.1-39.3 22.6"/><path d="m166 119.7v45.2"/><path d="m159.2 123.6v37.4"/><path d="m166 164.9 29.5 17.1"/><path d="m166 164.9-39.2 22.6"/><path d="m126.8 187.5-39.2-22.6"/><path d="m126.8 179.7-32.4-18.8"/><path d="m87.6 164.9-29.6 17"/><path d="m87.6 164.9v-45.3"/><path d="m87.6 119.6 39.3-22.6"/><path d="m94.4 123.5 32.5-18.7"/><path d="m126.9 97v-30.2"/><path d="m126.9 97 39.1 22.7"/><path d="m128.7 186.4-1.9 1.1-2-1.1" stroke-miterlimit="10"/><path d="m87.6 121.9v-2.3l2-1.1" stroke-miterlimit="10"/></g><path d="m193.955 77.442c-1.47.848-.34 2.809 1.13 1.961 1.471-.848 2.601 1.113 1.131 1.961-1.471.848-.341 2.809 1.13 1.961s2.601 1.113 1.13 1.961c-1.47.847-.34 2.808 1.13 1.961 1.471-.848 2.601 1.113 1.131 1.96-1.471.848-.341 2.809 1.13 1.961 1.471-.847 2.601 1.114 1.13 1.961-1.47.848-.34 2.809 1.131 1.961 1.47-.848 2.6 1.113 1.13 1.961-1.471.848-.341 2.808 1.13 1.961 1.471-.848 2.601 1.113 1.13 1.961-1.47.847-.34 2.808 1.131 1.961 1.47-.848 2.6 1.113 1.13 1.96-1.471.848-.341 2.809 1.13 1.961 1.471-.847 2.601 1.113 1.13 1.961-1.47.848-.34 2.809 1.131 1.961 1.47-.848 2.6 1.113 1.13 1.961-1.471.848-.341 2.808 1.13 1.961 1.471-.848 2.601 1.113 1.13 1.961" stroke="#7f7f7f"/></g><g font-family="sans-serif"><text font-size="27" x="197" y="201.2">C</text><text font-size="27" x="215.8" y="201.2">H</text><text font-size="17" x="234.5" y="212">3</text><text font-size="27" x="12.8" y="201">H</text><text font-size="17" x="31.5" y="211.9">3</text><text font-size="27" x="40.2" y="201">C</text><text font-size="27" x="118.7" y="65.3">C</text><text font-size="27" x="137.5" y="65.3">H</text><text font-size="17" x="156.2" y="76.2">3</text></g></svg>
