<svg height="256" viewBox="0 0 256 256" width="256" xmlns="http://www.w3.org/2000/svg"><path d="m0 0h256v256h-256z" fill="#fff"/><g fill="none" stroke-width="2"><path d="m39.2 176.6 18.9-32.4" stroke="#000"/><path d="m82.9 123.9 35.1.2" stroke="#000"/><path d="m126.3 144.5-.1 27.7" stroke="#000"/><path d="m135.5 144.5-.1 27.7" stroke="#000"/><path d="m135.6 111.2.2-27.8" stroke="#000"/><path d="m126.5 111.1.1-27.7" stroke="#000"/><path d="m144 124.2 35.1.2" stroke="#000"/><path d="m65.546 191.988c1.154-1.978-1.484-3.516-2.637-1.538-1.154 1.978-3.791.44-2.637-1.538 1.153-1.978-1.484-3.516-2.638-1.538-1.153 1.978-3.791.44-2.637-1.538 1.153-1.978-1.484-3.516-2.637-1.538-1.154 1.977-3.791.439-2.638-1.539 1.154-1.978-1.483-3.516-2.637-1.538s-3.791.44-2.637-1.538c1.153-1.978-1.484-3.516-2.638-1.538-1.153 1.978-3.791.44-2.637-1.538s-1.484-3.516-2.637-1.539c-1.154 1.978-3.791.44-2.638-1.538 1.154-1.978-1.483-3.516-2.637-1.538-1.153 1.978-3.791.44-2.637-1.538 1.153-1.978-1.484-3.516-2.637-1.538-1.154 1.978-3.791.44-2.638-1.538 1.154-1.978-1.483-3.516-2.637-1.539-1.154 1.978-3.791.44-2.637-1.538 1.153-1.978-1.484-3.516-2.638-1.538-1.153 1.978-3.791.44-2.637-1.538" stroke="#7f7f7f"/></g><text font-family="sans-serif" font-size="36" x="58.9" y="142.2">O</text><text font-family="sans-serif" font-size="36" x="120" y="142.5">S</text><text font-family="sans-serif" font-size="36" x="119.7" y="203.5">O</text><text font-family="sans-serif" font-size="36" x="120.3" y="81.4">O</text><text font-family="sans-serif" font-size="36" x="181.1" y="142.7">C</text><text font-family="sans-serif" font-size="36" x="206.3" y="142.7">H</text><text font-family="sans-serif" font-size="24" x="231.6" y="157.4">3</text></svg>
