<svg height="256" viewBox="0 0 256 256" width="256" xmlns="http://www.w3.org/2000/svg"><path d="m0 0h256v256h-256z" fill="#fff"/><g fill="none" stroke-width="2"><path d="m28.4 128.1 54.2 31.2" stroke="#000"/><path d="m82.6 159.3 54.1-31.3" stroke="#000"/><path d="m136.7 128-19.3-33.3" stroke="#000"/><path d="m136.7 128 19.2-33.3" stroke="#000"/><path d="m136.7 128 40.8 23.6" stroke="#000"/><path d="m79.9 157.8 2.7 1.5 2.7-1.5" stroke="#000" stroke-miterlimit="10"/><path d="m12.8 155.188c2.031 1.17 3.592-1.538 1.561-2.709-2.031-1.17-.47-3.878 1.561-2.708 2.031 1.171 3.592-1.537 1.561-2.708s-.47-3.879 1.561-2.708 3.592-1.537 1.561-2.708-.47-3.879 1.561-2.708 3.592-1.538 1.561-2.708c-2.031-1.171-.47-3.879 1.561-2.708 2.031 1.17 3.592-1.538 1.561-2.709-2.031-1.17-.47-3.878 1.561-2.708 2.031 1.171 3.592-1.537 1.561-2.708s-.47-3.879 1.561-2.708 3.592-1.537 1.561-2.708-.47-3.879 1.561-2.708 3.592-1.538 1.561-2.708c-2.031-1.171-.47-3.879 1.561-2.708 2.031 1.17 3.592-1.538 1.561-2.709-2.031-1.17-.47-3.878 1.561-2.708 2.031 1.171 3.592-1.537 1.561-2.708s-.47-3.879 1.561-2.708" stroke="#7f7f7f"/></g><g font-family="sans-serif"><text font-size="37" x="56.2" y="92.7">H</text><text font-size="24" x="82.1" y="107.7">3</text><g font-size="37"><text x="94.1" y="92.7">C</text><text x="156.6" y="92.6">C</text><text x="182.5" y="92.6">H</text></g><text font-size="24" x="208.4" y="107.6">3</text><text font-size="37" x="179.6" y="178">C</text><text font-size="37" x="205.5" y="178">H</text><text font-size="24" x="231.4" y="193">3</text></g></svg>
