<svg height="256" viewBox="0 0 256 256" width="256" xmlns="http://www.w3.org/2000/svg"><path d="m0 0h256v256h-256z" fill="#fff"/><g fill="none" stroke-width="2"><path d="m42.8 163.5 92.2-52.8" stroke="#000"/><path d="m135 110.7 76.7-43.9" stroke="#000"/><path d="m127.1 96.9 76.7-43.9" stroke="#000"/><path d="m142.9 124.6 76.7-43.9" stroke="#000"/><path d="m130.4 113.4 4.6-2.7 3.8-2.2" stroke="#000" stroke-miterlimit="10"/><path d="m69.17 209.661c3.459-1.98.819-6.592-2.64-4.611-3.459 1.98-6.099-2.632-2.64-4.612s.818-6.592-2.64-4.612c-3.459 1.98-6.099-2.632-2.641-4.612 3.459-1.98.819-6.592-2.64-4.612-3.458 1.98-6.099-2.632-2.64-4.612s.819-6.592-2.64-4.612-6.099-2.632-2.64-4.612c3.458-1.98.818-6.592-2.641-4.612-3.458 1.98-6.099-2.632-2.64-4.612s.819-6.592-2.64-4.612-6.099-2.632-2.64-4.612c3.458-1.98.818-6.592-2.641-4.611-3.458 1.98-6.099-2.632-2.64-4.612s.819-6.592-2.64-4.612-6.099-2.632-2.64-4.612c3.458-1.98.818-6.592-2.641-4.612-3.458 1.98-6.099-2.632-2.64-4.612s.819-6.592-2.64-4.612-6.099-2.632-2.64-4.612" stroke="#7f7f7f"/></g><text font-family="sans-serif" font-size="40" x="215.2" y="77.9">N</text></svg>
