<svg height="256" viewBox="0 0 256 256" width="256" xmlns="http://www.w3.org/2000/svg"><path d="m0 0h256v256h-256z" fill="#fff"/><g fill="none" stroke-width="2"><path d="m42.9 186.6 70.9-40.6" stroke="#000"/><path d="m136.6 122 .2-60.8" stroke="#000"/><path d="m121.7 121.9.2-60.7" stroke="#000"/><path d="m144.4 146.1 55.3 32.2" stroke="#000"/><path d="m67.615 229.665c3.232-1.85.765-6.159-2.466-4.309-3.232 1.85-5.699-2.459-2.467-4.309 3.231-1.851.765-6.16-2.467-4.309-3.232 1.85-5.699-2.459-2.467-4.31 3.232-1.85.765-6.159-2.467-4.309s-5.698-2.459-2.467-4.309c3.232-1.85.765-6.159-2.467-4.309-3.231 1.85-5.698-2.459-2.466-4.309 3.231-1.85.764-6.159-2.467-4.309-3.232 1.85-5.699-2.459-2.467-4.309s.765-6.159-2.467-4.309-5.699-2.459-2.467-4.309.765-6.159-2.467-4.309c-3.231 1.85-5.698-2.459-2.467-4.309 3.232-1.85.765-6.159-2.466-4.309-3.232 1.85-5.699-2.459-2.467-4.309 3.231-1.85.764-6.159-2.467-4.309-3.232 1.85-5.699-2.459-2.467-4.309s.765-6.16-2.467-4.309c-3.232 1.85-5.698-2.459-2.467-4.31" stroke="#7f7f7f"/></g><text font-family="sans-serif" font-size="40" x="117.1" y="157.2">N</text><text font-family="sans-serif" font-size="26" x="144.7" y="141.2">+</text><text font-family="sans-serif" font-size="40" x="117.5" y="57.9">O</text><text font-family="sans-serif" font-size="40" x="202.9" y="207.2">O</text><text font-family="sans-serif" font-size="26" x="230.5" y="191.2">-</text></svg>
