<svg height="256" viewBox="0 0 256 256" width="256" xmlns="http://www.w3.org/2000/svg"><path d="m0 0h256v256h-256z" fill="#fff"/><g fill="none" stroke-width="2"><g stroke="#000"><path d="m212.6 114.2-76.6 44.3"/><path d="m109 151.6-61.1-35.2"/><path d="m101 165.4-61.1-35.2"/></g><path d="m185.962 68.15c-3.453 1.998-.789 6.601 2.663 4.603 3.453-1.997 6.116 2.606 2.664 4.604-3.453 1.997-.79 6.601 2.663 4.603 3.452-1.997 6.116 2.606 2.663 4.603-3.452 1.998-.789 6.601 2.663 4.604 3.453-1.998 6.116 2.605 2.664 4.603-3.453 1.997-.79 6.601 2.663 4.603 3.452-1.997 6.116 2.606 2.663 4.603-3.452 1.998-.789 6.601 2.663 4.604 3.453-1.998 6.116 2.605 2.664 4.603-3.453 1.997-.79 6.601 2.663 4.603 3.452-1.997 6.116 2.606 2.663 4.603-3.452 1.998-.789 6.601 2.663 4.604 3.453-1.998 6.116 2.605 2.664 4.603-3.453 1.997-.79 6.601 2.663 4.603 3.453-1.997 6.116 2.606 2.663 4.604-3.452 1.997-.789 6.6 2.663 4.603 3.453-1.998 6.116 2.606 2.664 4.603-3.453 1.998-.79 6.601 2.663 4.603 3.453-1.997 6.116 2.606 2.663 4.604" stroke="#7f7f7f"/></g><g font-family="sans-serif" font-size="40"><text x="108.5" y="187.4">N</text><text x="16.4" y="134.3">O</text></g></svg>
