<svg height="256" viewBox="0 0 256 256" width="256" xmlns="http://www.w3.org/2000/svg"><path d="m0 0h256v256h-256z" fill="#fff"/><g fill="none" stroke-width="2"><g stroke="#000"><path d="m223 136.3-51.3-29.6"/><path d="m142.7 106.8-36.7 21.2"/><path d="m79.8 123.1-36.8-21.2"/><path d="m74.1 133-36.8-21.2"/></g><path d="m241.964 103.411c-2.468-1.422-4.364 1.868-1.897 3.291 2.468 1.422.572 4.713-1.896 3.29-2.468-1.422-4.364 1.868-1.897 3.29 2.468 1.423.572 4.713-1.896 3.291-2.468-1.423-4.365 1.868-1.897 3.29s.571 4.713-1.896 3.29c-2.468-1.422-4.365 1.868-1.897 3.291 2.468 1.422.571 4.712-1.896 3.29-2.468-1.423-4.365 1.868-1.897 3.29 2.468 1.423.571 4.713-1.897 3.291-2.467-1.423-4.364 1.867-1.896 3.29 2.468 1.422.571 4.713-1.897 3.29-2.467-1.422-4.364 1.868-1.896 3.29 2.468 1.423.571 4.713-1.897 3.291-2.468-1.423-4.364 1.868-1.896 3.29 2.467 1.423.571 4.713-1.897 3.29-2.468-1.422-4.364 1.868-1.896 3.291 2.467 1.422.571 4.712-1.897 3.29s-4.364 1.868-1.897 3.29c2.468 1.423.572 4.713-1.896 3.291" stroke="#7f7f7f"/></g><g font-family="sans-serif" font-size="40"><text x="145.2" y="118.4">O</text><text x="79.4" y="156.4">N</text><text x="13.6" y="118.5">O</text></g></svg>
