<?xml version="1.0" encoding="UTF-8"?>
<svg width="256px" height="256px" baseProfile="full" version="1.1" viewBox="0 0 256 256" xml:space="preserve" xmlns="http://www.w3.org/2000/svg">

 <!-- END OF HEADER -->
<rect width="256" height="256" fill="#fff"> </rect>
<path class="bond-0 atom-0 atom-1" d="m30.8 200.3 33.2-19.2" fill="none" stroke="#191919" stroke-width="2px"/>
<path class="bond-0 atom-0 atom-1" d="m64 181.1 33.2-19.1" fill="none" stroke="#00f" stroke-width="2px"/>
<path class="bond-1 atom-1 atom-2" d="m125.6 162 30 17.3" fill="none" stroke="#00f" stroke-width="2px"/>
<path class="bond-1 atom-1 atom-2" d="m155.6 179.3 30.1 17.4" fill="none" stroke="#f00" stroke-width="2px"/>
<path class="bond-2 atom-1 atom-3" d="m111.4 136.2v-34.5" fill="none" stroke="#00f" stroke-width="2px"/>
<path class="bond-2 atom-1 atom-3" d="m111.4 101.7v-34.5" fill="none" stroke="#f00" stroke-width="2px"/>
<path class="atom-0" d="m15.3 203 4.1-4.2-5.5-1.1 0.8-2.9 5.1 2.6-0.7-5.6h3l-0.8 5.5 5.1-2.4 0.9 2.8-5.6 1 4 4.3-2.4 1.7-2.8-5.2-2.8 5.2-2.4-1.7" fill="#191919"/>
<path class="atom-1" d="m105.1 139.6 9.3 15q0.9 1.5 2.4 4.2t1.5 2.8v-22h3.8v28.3h-3.9l-9.9-16.4q-1.2-1.9-2.4-4.1t-1.6-2.9v23.4h-3.7v-28.3h4.5" fill="#00f"/>
<path class="atom-2" d="m189.1 206.3q0-6.8 3.4-10.6 3.3-3.8 9.6-3.8t9.7 3.8q3.3 3.8 3.3 10.6t-3.4 10.8q-3.4 3.8-9.6 3.8t-9.6-3.8q-3.4-3.9-3.4-10.8m13 11.4q4.3 0 6.7-2.8 2.3-3 2.3-8.6t-2.3-8.4q-2.4-2.8-6.7-2.8t-6.7 2.8q-2.3 2.8-2.3 8.4 0 5.7 2.3 8.6 2.4 2.8 6.7 2.8" fill="#f00"/>
<path class="atom-2" d="m219.5 192.2h3.9v12h14.5v-12h3.8v28.3h-3.8v-13.1h-14.5v13.1h-3.9v-28.3" fill="#f00"/>
<path class="atom-3" d="m98.4 49.1q0-6.8 3.3-10.6 3.4-3.8 9.7-3.8 6.2 0 9.6 3.8t3.4 10.6-3.4 10.8q-3.4 3.8-9.6 3.8-6.3 0-9.7-3.8-3.3-3.9-3.3-10.8m13 11.4q4.3 0 6.6-2.8 2.4-3 2.4-8.6t-2.4-8.4q-2.3-2.8-6.6-2.8-4.4 0-6.7 2.8t-2.3 8.4q0 5.7 2.3 8.6 2.3 2.8 6.7 2.8" fill="#f00"/>
<path class="atom-3" d="m128.8 35h3.8v12h14.5v-12h3.8v28.3h-3.8v-13.1h-14.5v13.1h-3.8v-28.3" fill="#f00"/>
</svg>
