<svg height="256" viewBox="0 0 256 256" width="256" xmlns="http://www.w3.org/2000/svg"><path d="m0 0h256v256h-256z" fill="#fff"/><g fill="none" stroke-width="2"><g stroke="#000"><path d="m236.3 120-22.6 13"/><path d="m213.7 133-22.5-13.1"/><path d="m191.2 119.9-22.6 13"/><path d="m168.6 132.9-22.5-13"/><path d="m146.1 119.9-22.6 13"/><path d="m123.5 132.9-22.5-13"/><path d="m101 119.9-22.6 13"/><path d="m78.4 132.9-22.6-13.1"/><path d="m55.8 119.8-17 9.8"/><path d="m214.9 132.3-1.2.7-1.1-.7" stroke-miterlimit="10"/><path d="m192.3 120.6-1.1-.7-1.1.7" stroke-miterlimit="10"/><path d="m169.7 132.3-1.1.6-1.1-.6" stroke-miterlimit="10"/><path d="m147.2 120.6-1.1-.7-1.2.7" stroke-miterlimit="10"/><path d="m124.6 132.3-1.1.6-1.1-.6" stroke-miterlimit="10"/><path d="m102.1 120.5-1.1-.6-1.2.6" stroke-miterlimit="10"/><path d="m79.5 132.2-1.1.7-1.1-.7" stroke-miterlimit="10"/><path d="m57 120.5-1.2-.7-.8.5" stroke-miterlimit="10"/></g><path d="m229.796 108.697c-.846.487-.196 1.616.65 1.128.847-.488 1.497.641.651 1.128-.847.488-.196 1.617.65 1.129s1.496.641.65 1.128c-.846.488-.196 1.616.65 1.129.846-.488 1.497.641.65 1.128-.846.488-.196 1.616.651 1.129.846-.488 1.496.641.65 1.128-.847.488-.196 1.616.65 1.129.846-.488 1.496.64.65 1.128s-.196 1.616.65 1.129c.847-.488 1.497.64.651 1.128-.847.488-.197 1.616.65 1.128.846-.487 1.496.641.65 1.129-.846.487-.196 1.616.65 1.128.846-.487 1.497.641.65 1.129-.846.487-.196 1.616.65 1.128.847-.487 1.497.641.651 1.129-.847.487-.196 1.616.65 1.128s1.496.641.65 1.129" stroke="#7f7f7f"/></g><g font-family="sans-serif"><text font-size="15" x="12.8" y="140.7">H</text><text font-size="10" x="23.6" y="146.9">3</text><text font-size="15" x="28.6" y="140.7">C</text></g></svg>
