<svg height="256" viewBox="0 0 256 256" width="256" xmlns="http://www.w3.org/2000/svg"><path d="m0 0h256v256h-256z" fill="#fff"/><g fill="none" stroke-width="2"><g stroke="#000"><path d="m20 127.1 24.9-14.3"/><path d="m44.9 112.8 24.8 14.4"/><path d="m69.7 127.2 24.9-14.4"/><path d="m94.6 112.8 24.9 14.4"/><path d="m119.5 127.2 24.8-14.3"/><path d="m144.3 112.9 24.9 14.4"/><path d="m169.2 127.3 24.9-14.4"/><path d="m194.1 112.9 18.7 10.9"/><path d="m43.6 113.5 1.3-.7 1.2.7" stroke-miterlimit="10"/><path d="m68.5 126.5 1.2.7 1.3-.7" stroke-miterlimit="10"/><path d="m93.3 113.6 1.3-.8 1.2.8" stroke-miterlimit="10"/><path d="m118.2 126.5 1.3.7 1.2-.7" stroke-miterlimit="10"/><path d="m143.1 113.6 1.2-.7 1.3.7" stroke-miterlimit="10"/><path d="m168 126.5 1.2.8 1.2-.8" stroke-miterlimit="10"/><path d="m192.8 113.6 1.3-.7.9.6" stroke-miterlimit="10"/></g><path d="m27.138 139.576c.933-.538.216-1.782-.717-1.244-.933.537-1.65-.707-.717-1.245.933-.537.216-1.781-.717-1.244-.933.538-1.65-.706-.717-1.244s.216-1.782-.717-1.244c-.933.537-1.65-.707-.717-1.244.934-.538.217-1.782-.716-1.245-.934.538-1.65-.706-.717-1.244s.216-1.782-.717-1.244-1.65-.707-.717-1.244c.933-.538.216-1.782-.717-1.244-.933.537-1.65-.707-.717-1.245.933-.537.216-1.782-.717-1.244s-1.65-.706-.717-1.244.217-1.782-.717-1.244c-.933.537-1.65-.707-.716-1.245.933-.537.216-1.781-.717-1.244-.933.538-1.65-.706-.717-1.244s.216-1.782-.717-1.244c-.933.537-1.65-.707-.717-1.244" stroke="#7f7f7f"/></g><g font-family="sans-serif"><text font-size="17" x="213.8" y="135.9">C</text><text font-size="17" x="225.7" y="135.9">H</text><text font-size="11" x="237.5" y="142.8">3</text></g></svg>
