<svg height="256" viewBox="0 0 256 256" width="256" xmlns="http://www.w3.org/2000/svg"><path d="m0 0h256v256h-256z" fill="#fff"/><ellipse cx="146.1" cy="218.2" fill="#ff7f7f" fill-rule="evenodd" rx="23.5" ry="23.5" stroke="#ff7f7f"/><g fill="none" stroke="#000" stroke-width="2"><path d="m60 56.7 41.1 45.1"/><path d="m51.3 64.6 41.1 45.1"/><path d="m93.9 102.6-12.9 62.2"/><path d="m93.9 102.6 77.9-8.6"/><path d="m174.8 100.6 28.1-49.2"/><path d="m164.6 94.8 28.1-49.3"/><path d="m171.8 94 25.7 56.9"/><path d="m92.6 187.7 38.9 22.2"/><path d="m189.5 178.7-28.8 26.2"/><path d="m93.2 105.7.7-3.1 3.9-.4" stroke-miterlimit="10"/><path d="m167.9 94.4 3.9-.4 1.3 2.8" stroke-miterlimit="10"/></g><text font-family="sans-serif" font-size="40" x="29.1" y="64.6">O</text><text font-family="sans-serif" font-size="40" x="66" y="199.4">O</text><text font-family="sans-serif" font-size="26" x="93.6" y="183.4">-</text><text x="134.1" y="238.2"/><text font-family="sans-serif" font-size="40" x="192.1" y="185.4">O</text><text font-family="sans-serif" font-size="26" x="219.7" y="169.4">-</text><text font-family="sans-serif" font-size="40" x="198.7" y="45.9">O</text></svg>
