<svg height="256" viewBox="0 0 256 256" width="256" xmlns="http://www.w3.org/2000/svg"><path d="m0 0h256v256h-256z" fill="#fff"/><g fill="none" stroke-width="2"><path d="m33 191 69.9-40.3" stroke="#000"/><path d="m102.9 150.7.1-80.8" stroke="#000"/><path d="m115 143.7.1-66.8" stroke="#000"/><path d="m103 69.9 69.9-40.3" stroke="#000"/><path d="m172.9 29.6 69.9 40.5" stroke="#000"/><path d="m172.9 43.6 57.8 33.4" stroke="#000"/><path d="m242.8 70.1-.1 80.7" stroke="#000"/><path d="m242.7 150.8-69.9 40.3" stroke="#000"/><path d="m230.6 143.8-57.8 33.3" stroke="#000"/><path d="m172.8 191.1-69.9-40.4" stroke="#000"/><path d="m103 74v-4.1l3.5-2" stroke="#000" stroke-miterlimit="10"/><path d="m169.4 31.7 3.5-2.1 3.5 2.1" stroke="#000" stroke-miterlimit="10"/><path d="m239.3 68 3.5 2.1v4" stroke="#000" stroke-miterlimit="10"/><path d="m242.7 146.7v4.1l-3.5 2" stroke="#000" stroke-miterlimit="10"/><path d="m176.3 189.1-3.5 2-3.5-2" stroke="#000" stroke-miterlimit="10"/><path d="m53.117 225.963c2.623-1.512.607-5.009-2.016-3.497s-4.638-1.986-2.016-3.498c2.623-1.511.608-5.009-2.015-3.497s-4.639-1.985-2.016-3.497.607-5.009-2.016-3.497c-2.623 1.511-4.639-1.986-2.016-3.498s.607-5.009-2.016-3.497-4.639-1.985-2.016-3.497.607-5.009-2.016-3.498c-2.622 1.512-4.638-1.985-2.015-3.497s.607-5.009-2.016-3.497-4.639-1.985-2.016-3.497.607-5.009-2.016-3.498c-2.623 1.512-4.639-1.985-2.016-3.497s.607-5.009-2.016-3.497-4.638-1.986-2.016-3.497c2.623-1.512.608-5.01-2.015-3.498s-4.639-1.985-2.016-3.497.607-5.009-2.016-3.497-4.639-1.986-2.016-3.497" stroke="#7f7f7f"/></g></svg>
