<svg height="256" viewBox="0 0 256 256" width="256" xmlns="http://www.w3.org/2000/svg"><path d="m0 0h256v256h-256z" fill="#fff"/><ellipse cx="168.5" cy="56.9" fill="#ff7f7f" fill-rule="evenodd" rx="15.9" ry="15.9" stroke="#ff7f7f"/><g fill="none" stroke="#000" stroke-width="2"><path d="m150.8 140.9.1 53.1"/><path d="m158.9 145.6.1 43.7"/><path d="m150.9 194 46 26.4"/><path d="m196.9 220.4 45.9-26.6"/><path d="m196.9 211 37.8-21.9"/><path d="m242.8 193.8-.1-53"/><path d="m242.7 140.8-34.7-20"/><path d="m234.6 145.5-30.6-17.6"/><path d="m104.7 79.2.1 35.3"/><path d="m112.9 79.1v30.7"/><path d="m104.8 114.5-45.9 26.6"/><path d="m58.9 141.1.1 53.1"/><path d="m59 194.2 46 26.4"/><path d="m67.1 189.4 37.9 21.8"/><path d="m58.9 141.1-46-26.4"/><path d="m58.9 131.7-37.9-21.7"/><path d="m12.9 114.7-.1-53.1"/><path d="m12.8 61.6 45.9-26.6"/><path d="m20.9 66.3 37.8-21.9"/><path d="m185.3 120.9-34.5 20"/><path d="m104.8 114.5 46 26.4"/><path d="m105 220.6 45.9-26.6"/><path d="m58.7 35 34.6 19.9"/><path d="m191.1 103-13.9-28.4"/><path d="m116 60.6 41.1-2.9"/><path d="m194.6 219.1 2.3 1.3 2.3-1.3" stroke-miterlimit="10"/><path d="m240.5 195.1 2.3-1.3v-2.6" stroke-miterlimit="10"/><path d="m242.7 143.4v-2.6l-1.7-1" stroke-miterlimit="10"/><path d="m59 191.5v2.7l2.3 1.3" stroke-miterlimit="10"/><path d="m102.7 219.3 2.3 1.3 2.3-1.3" stroke-miterlimit="10"/><path d="m15.2 116-2.3-1.3v-2.7" stroke-miterlimit="10"/><path d="m12.8 64.3v-2.7l2.3-1.3" stroke-miterlimit="10"/><path d="m56.4 36.3 2.3-1.3 1.7 1" stroke-miterlimit="10"/></g><text font-family="sans-serif" font-size="31" x="187.1" y="130.2">N</text><text x="158.9" y="72.8"/><text font-family="sans-serif" font-size="31" x="95.1" y="77.4">N</text></svg>
