<svg height="256" viewBox="0 0 256 256" width="256" xmlns="http://www.w3.org/2000/svg"><path d="m0 0h256v256h-256z" fill="#fff"/><g fill="none" stroke-width="2"><path d="m45.3 60.4 28.8 49.3" stroke="#000"/><path d="m97 124.1 44.9-.2" stroke="#000"/><path d="m170.8 129.3 44.9-.2" stroke="#000"/><path d="m170.7 118.2 45-.2" stroke="#000"/><path d="m156.4 146.2.2 37" stroke="#000"/><path d="m156.3 109.4-.2-37" stroke="#000"/><path d="m13.444 78.962c1.394 2.392 4.583.532 3.188-1.859-1.394-2.391 1.794-4.251 3.188-1.86 1.395 2.391 4.583.532 3.189-1.859-1.395-2.391 1.793-4.251 3.188-1.86s4.583.532 3.188-1.859c-1.394-2.391 1.794-4.251 3.189-1.86 1.394 2.391 4.583.532 3.188-1.859-1.395-2.392 1.794-4.251 3.188-1.86 1.395 2.391 4.583.532 3.189-1.86-1.395-2.391 1.793-4.25 3.188-1.859s4.583.532 3.188-1.86c-1.394-2.391 1.794-4.25 3.189-1.859 1.394 2.391 4.583.531 3.188-1.86s1.794-4.25 3.188-1.859c1.395 2.391 4.583.531 3.189-1.86-1.395-2.391 1.793-4.25 3.188-1.859s4.583.531 3.188-1.86c-1.394-2.391 1.794-4.251 3.189-1.859 1.394 2.391 4.583.531 3.188-1.86s1.794-4.251 3.188-1.86" stroke="#7f7f7f"/></g><text font-family="sans-serif" font-size="40" x="70.5" y="144.1">O</text><text font-family="sans-serif" font-size="40" x="144.3" y="143.8">P</text><text font-family="sans-serif" font-size="40" x="218.2" y="143.5">O</text><text font-family="sans-serif" font-size="40" x="144.7" y="217.6">O</text><text font-family="sans-serif" font-size="40" x="172.3" y="217.6">H</text><text font-family="sans-serif" font-size="40" x="144" y="70">O</text><text font-family="sans-serif" font-size="40" x="171.6" y="70">H</text></svg>
