<?xml version="1.0" encoding="UTF-8"?>
<svg width="256px" height="256px" baseProfile="full" version="1.1" viewBox="0 0 256 256" xml:space="preserve" xmlns="http://www.w3.org/2000/svg">

 <!-- END OF HEADER -->
<rect width="256" height="256" fill="#fff"> </rect>
<path class="bond-0 atom-0 atom-1" d="m30.8 174.1 34-19.6" fill="none" stroke="#191919" stroke-width="2px"/>
<path class="bond-0 atom-0 atom-1" d="m64.8 154.5 34-19.7" fill="none" stroke="#cc0" stroke-width="2px"/>
<path class="bond-1 atom-1 atom-2" d="m123.9 120.3 30.9-17.8" fill="none" stroke="#cc0" stroke-width="2px"/>
<path class="bond-1 atom-1 atom-2" d="m154.8 102.5 30.9-17.8" fill="none" stroke="#f00" stroke-width="2px"/>
<path class="bond-2 atom-1 atom-3" d="m122 145.9 15.7 27.3" fill="none" stroke="#cc0" stroke-width="2px"/>
<path class="bond-2 atom-1 atom-3" d="m137.7 173.2 15.8 27.4" fill="none" stroke="#f00" stroke-width="2px"/>
<path class="bond-3 atom-1 atom-4" d="m101.2 110-15.8-27.5" fill="none" stroke="#cc0" stroke-width="2px"/>
<path class="bond-3 atom-1 atom-4" d="m85.4 82.5-15.9-27.5" fill="none" stroke="#f00" stroke-width="2px"/>
<path class="atom-0" d="m15.3 176.8 4.1-4.2-5.5-1.1 0.8-2.9 5.1 2.6-0.7-5.6h3l-0.8 5.5 5.1-2.4 0.9 2.8-5.6 1 4 4.3-2.4 1.7-2.8-5.2-2.8 5.2-2.4-1.7" fill="#191919"/>
<path class="atom-1" d="m103.4 137.3q0.3 0.1 1.6 0.7 1.3 0.5 2.8 0.9 1.4 0.3 2.9 0.3 2.7 0 4.2-1.3 1.6-1.3 1.6-3.6 0-1.5-0.8-2.5-0.8-0.9-2-1.5-1.2-0.5-3.2-1.1-2.5-0.7-4-1.5-1.5-0.7-2.6-2.2-1-1.5-1-4.1 0-3.5 2.4-5.7t7.2-2.2q3.3 0 7 1.5l-0.9 3.1q-3.4-1.4-6-1.4-2.7 0-4.2 1.2-1.6 1.1-1.5 3 0 1.6 0.7 2.5 0.8 0.9 2 1.4 1.1 0.5 3 1.1 2.6 0.8 4.1 1.6t2.6 2.5q1.1 1.6 1.1 4.3 0 4-2.6 6.1t-7 2.1q-2.5 0-4.4-0.6-1.9-0.5-4.1-1.4l1.1-3.2" fill="#cc0"/>
<path class="atom-2" d="m189.1 75.3q0-6.8 3.4-10.6 3.3-3.8 9.6-3.8t9.7 3.8q3.3 3.8 3.3 10.6t-3.4 10.8q-3.4 3.8-9.6 3.8t-9.6-3.8q-3.4-3.9-3.4-10.8m13 11.4q4.3 0 6.7-2.8 2.3-3 2.3-8.6t-2.3-8.4q-2.4-2.8-6.7-2.8t-6.7 2.8q-2.3 2.8-2.3 8.4 0 5.7 2.3 8.6 2.4 2.8 6.7 2.8" fill="#f00"/>
<path class="atom-2" d="m219.5 61.2h3.9v12h14.5v-12h3.8v28.3h-3.8v-13.1h-14.5v13.1h-3.9v-28.3" fill="#f00"/>
<path class="atom-3" d="m150.8 218.4q0-6.8 3.3-10.6 3.4-3.8 9.7-3.8 6.2 0 9.6 3.8t3.4 10.6q0 6.9-3.4 10.8t-9.6 3.9q-6.3 0-9.7-3.9-3.3-3.9-3.3-10.8m13 11.5q4.3 0 6.6-2.9 2.4-2.9 2.4-8.6 0-5.5-2.4-8.3-2.3-2.9-6.6-2.9-4.4 0-6.7 2.8t-2.3 8.4q0 5.7 2.3 8.6t6.7 2.9" fill="#f00"/>
<path class="atom-3" d="m181.2 204.3h3.8v12.1h14.5v-12.1h3.8v28.4h-3.8v-13.1h-14.5v13.1h-3.8v-28.4" fill="#f00"/>
<path class="atom-4" d="m18 22.8h3.8v12.1h14.5v-12.1h3.9v28.3h-3.9v-13h-14.5v13h-3.8v-28.3" fill="#f00"/>
<path class="atom-4" d="m46 36.9q0-6.8 3.3-10.6 3.4-3.8 9.7-3.8 6.2 0 9.6 3.8t3.4 10.6q0 6.9-3.4 10.8t-9.6 3.9q-6.3 0-9.7-3.9-3.3-3.9-3.3-10.8m13 11.5q4.3 0 6.6-2.9 2.4-2.9 2.4-8.6 0-5.6-2.4-8.4-2.3-2.8-6.6-2.8-4.4 0-6.7 2.8t-2.3 8.4q0 5.7 2.3 8.6t6.7 2.9" fill="#f00"/>
</svg>
