<svg height="256" viewBox="0 0 256 256" width="256" xmlns="http://www.w3.org/2000/svg"><path d="m0 0h256v256h-256z" fill="#fff"/><g fill="none" stroke-width="2"><path d="m127.8 20.3v82.3" stroke="#000"/><path d="m112.6 110.5h-67" stroke="#000"/><path d="m112.6 125.1h-67" stroke="#000"/><path d="m143 125.1h67" stroke="#000"/><path d="m143 110.5h67" stroke="#000"/><path d="m127.8 141v59" stroke="#000"/><path d="m79.071 20.342c0 3.655 4.873 3.655 4.873 0 0-3.654 4.873-3.654 4.873 0 0 3.655 4.873 3.655 4.873 0 0-3.654 4.873-3.654 4.873 0 0 3.655 4.873 3.655 4.873 0 0-3.654 4.872-3.654 4.872 0 0 3.655 4.873 3.655 4.873 0 0-3.654 4.873-3.654 4.873 0 0 3.655 4.873 3.655 4.873 0 0-3.654 4.873-3.654 4.873 0 0 3.655 4.873 3.655 4.873 0 0-3.654 4.873-3.654 4.873 0 0 3.655 4.873 3.655 4.873 0 0-3.654 4.873-3.654 4.873 0 0 3.655 4.872 3.655 4.872 0 0-3.654 4.873-3.654 4.873 0 0 3.655 4.873 3.655 4.873 0 0-3.654 4.873-3.654 4.873 0 0 3.655 4.873 3.655 4.873 0 0-3.654 4.873-3.654 4.873 0" stroke="#7f7f7f"/></g><text font-family="sans-serif" font-size="40" x="115.8" y="137.8">S</text><text font-family="sans-serif" font-size="40" x="18.3" y="137.8">O</text><text font-family="sans-serif" font-size="40" x="213.3" y="137.8">O</text><text font-family="sans-serif" font-size="40" x="115.8" y="235.3">O</text><text font-family="sans-serif" font-size="40" x="143.4" y="235.3">H</text></svg>
