<svg height="256" viewBox="0 0 256 256" width="256" xmlns="http://www.w3.org/2000/svg"><path d="m0 0h256v256h-256z" fill="#fff"/><g fill="none" stroke-width="2"><path d="m161.1 71.5-34.6 59.3" stroke="#000"/><path d="m126.5 130.8-21.4-37.3" stroke="#000"/><path d="m126.5 130.8 45 26.3" stroke="#000"/><path d="m126.5 130.8-45.4 25.9" stroke="#000"/><path d="m131.393 54.19c-1.297 2.225 1.669 3.955 2.966 1.73 1.298-2.225 4.264-.495 2.967 1.73-1.298 2.225 1.668 3.955 2.966 1.73 1.297-2.225 4.263-.495 2.966 1.73-1.298 2.224 1.669 3.954 2.966 1.73 1.297-2.225 4.264-.495 2.966 1.73-1.297 2.224 1.669 3.954 2.966 1.73 1.298-2.225 4.264-.495 2.966 1.73-1.297 2.224 1.669 3.954 2.967 1.73 1.297-2.225 4.263-.495 2.966 1.73-1.298 2.224 1.668 3.954 2.966 1.73 1.297-2.225 4.263-.495 2.966 1.73-1.298 2.224 1.669 3.954 2.966 1.73 1.298-2.225 4.264-.495 2.966 1.73-1.297 2.224 1.669 3.954 2.966 1.729 1.298-2.224 4.264-.494 2.967 1.73-1.298 2.225 1.668 3.955 2.966 1.73 1.297-2.224 4.263-.494 2.966 1.73-1.298 2.225 1.668 3.955 2.966 1.73 1.297-2.224 4.264-.494 2.966 1.73" stroke="#7f7f7f"/></g><g font-family="sans-serif"><text font-size="40" x="40" y="91.2">H</text><text font-size="26" x="67.6" y="107.2">3</text><g font-size="40"><text x="80.4" y="91.2">C</text><text x="173.8" y="185.4">C</text><text x="201.4" y="185.4">H</text></g><text font-size="26" x="229" y="201.4">3</text><text font-size="40" x="14.4" y="184.9">H</text><text font-size="26" x="42" y="200.9">3</text><text font-size="40" x="54.8" y="184.9">C</text></g></svg>
