<svg height="256" viewBox="0 0 256 256" width="256" xmlns="http://www.w3.org/2000/svg"><path d="m0 0h256v256h-256z" fill="#fff"/><g fill="none" stroke-width="2"><g stroke="#000"><path d="m212 124.1-93.7 54.2"/><path d="m118.3 178.3-78.2-45.1"/><path d="m118.3 159.6-70.1-40.4"/><path d="m122.9 175.6-4.6 2.7-3.9-2.2" stroke-miterlimit="10"/></g><path d="m184.854 77.275c-3.513 2.033-.803 6.717 2.711 4.684 3.513-2.032 6.223 2.652 2.71 4.685-3.514 2.033-.803 6.717 2.71 4.684 3.513-2.032 6.224 2.652 2.71 4.685-3.513 2.032-.803 6.717 2.71 4.684 3.514-2.033 6.224 2.652 2.711 4.684-3.514 2.033-.804 6.718 2.71 4.685 3.513-2.033 6.223 2.652 2.71 4.684-3.513 2.033-.803 6.717 2.71 4.685 3.514-2.033 6.224 2.651 2.71 4.684-3.513 2.033-.803 6.717 2.711 4.685 3.513-2.033 6.223 2.651 2.71 4.684-3.514 2.033-.803 6.717 2.71 4.684 3.514-2.032 6.224 2.652 2.71 4.685-3.513 2.033-.803 6.717 2.711 4.684 3.513-2.033 6.223 2.652 2.71 4.685-3.514 2.032-.803 6.717 2.71 4.684s6.224 2.652 2.71 4.684c-3.513 2.033-.803 6.718 2.71 4.685 3.514-2.033 6.224 2.652 2.711 4.684" stroke="#7f7f7f"/></g><text font-family="sans-serif" font-size="40" x="16.5" y="137.2">S</text></svg>
