<svg height="256" viewBox="0 0 256 256" width="256" xmlns="http://www.w3.org/2000/svg"><path d="m0 0h256v256h-256z" fill="#fff"/><g fill="none" stroke-width="2"><g stroke="#000"><path d="m232.2 75.3-28 15.9"/><path d="m192.7 85.7-7.9-13.8"/><path d="m187.1 88.9-7.9-13.8"/><path d="m200.4 112.2 7.8 13.8"/><path d="m206 109.1 7.8 13.8"/><path d="m186 101.6-28.1 16"/><path d="m157.9 117.6-36.9-21.7"/><path d="m151.5 121.2-30.5-17.9"/><path d="m121 95.9-37.2 21.2"/><path d="m83.8 117.1-.2 42.7"/><path d="m90.2 120.8-.2 35.4"/><path d="m83.6 159.8-28.1 16"/><path d="m83.6 159.8 36.9 21.6"/><path d="m120.5 181.4 37.1-21.1"/><path d="m120.5 174 30.7-17.4"/><path d="m157.6 160.3.3-42.7"/><path d="m122.9 97-1.9-1.1-1.8 1.1" stroke-miterlimit="10"/><path d="m85.7 116-1.9 1.1v2.1" stroke-miterlimit="10"/><path d="m118.6 180.4 1.9 1 1.8-1" stroke-miterlimit="10"/><path d="m155.8 161.4 1.8-1.1v-2.1" stroke-miterlimit="10"/></g><path d="m221.661 56.683c-1.394.793-.337 2.651 1.057 1.858 1.393-.792 2.45 1.066 1.057 1.858-1.394.793-.337 2.651 1.057 1.859 1.393-.793 2.45 1.065 1.057 1.858-1.394.793-.337 2.651 1.056 1.858 1.394-.793 2.451 1.066 1.057 1.858-1.393.793-.336 2.651 1.057 1.859 1.394-.793 2.451 1.065 1.057 1.858-1.393.793-.336 2.651 1.057 1.858 1.394-.793 2.451 1.066 1.057 1.858-1.393.793-.336 2.651 1.057 1.859 1.394-.793 2.451 1.065 1.057 1.858-1.393.793-.336 2.651 1.057 1.858 1.394-.793 2.451 1.066 1.057 1.858-1.393.793-.337 2.651 1.057 1.859 1.394-.793 2.451 1.065 1.057 1.858s-.337 2.651 1.057 1.858 2.451 1.066 1.057 1.858c-1.394.793-.337 2.651 1.057 1.859 1.394-.793 2.451 1.065 1.057 1.858" stroke="#7f7f7f"/></g><g font-family="sans-serif"><text font-size="25" x="187.4" y="109.2">S</text><text font-size="25" x="166.2" y="72.1">O</text><text font-size="25" x="208.5" y="146.4">O</text><text font-size="25" x="12.8" y="193.8">H</text><text font-size="16" x="30.5" y="204.1">3</text><text font-size="25" x="38.7" y="193.8">C</text></g></svg>
