<svg height="256" viewBox="0 0 256 256" width="256" xmlns="http://www.w3.org/2000/svg"><path d="m0 0h256v256h-256z" fill="#fff"/><path d="m42.8 178.5 83.3-47.8" fill="none" stroke="#000" stroke-width="2"/><path d="m126.1 130.7 34.8-59.8" fill="none" stroke="#000" stroke-width="2"/><path d="m126.1 130.7-38.6-67.3" fill="none" stroke="#000" stroke-width="2"/><path d="m126.1 130.7 67.9 39.5" fill="none" stroke="#000" stroke-width="2"/><path d="m66.675 220.185c3.124-1.793.734-5.958-2.39-4.166s-5.514-2.374-2.39-4.166.735-5.958-2.39-4.166c-3.124 1.793-5.514-2.373-2.389-4.166 3.124-1.792.734-5.958-2.39-4.165-3.125 1.792-5.514-2.374-2.39-4.166s.734-5.958-2.39-4.166-5.514-2.373-2.39-4.166c3.125-1.792.735-5.958-2.389-4.166-3.125 1.793-5.514-2.373-2.39-4.165 3.124-1.793.734-5.959-2.39-4.166-3.124 1.792-5.514-2.374-2.39-4.166 3.125-1.792.735-5.958-2.39-4.166-3.124 1.792-5.514-2.373-2.389-4.166 3.124-1.792.734-5.958-2.39-4.165-3.124 1.792-5.514-2.374-2.39-4.166 3.124-1.793.735-5.958-2.39-4.166-3.124 1.792-5.514-2.374-2.39-4.166 3.125-1.792.735-5.958-2.389-4.166-3.125 1.793-5.514-2.373-2.39-4.165" fill="none" stroke="#7f7f7f" stroke-width="2"/><g font-family="sans-serif" font-size="40"><text x="162.3" y="67.7">B</text><text x="189.9" y="67.7">r</text><text x="44.7" y="67.4">B</text><text x="72.3" y="67.4">r</text><text x="197.1" y="199">B</text><text x="224.7" y="199">r</text></g></svg>
