<svg height="256" viewBox="0 0 256 256" width="256" xmlns="http://www.w3.org/2000/svg"><path d="m0 0h256v256h-256z" fill="#fff"/><path d="m43 179.9 85.8-49.3" fill="none" stroke="#000" stroke-width="2"/><path d="m128.8 130.6 36.1-62.2" fill="none" stroke="#000" stroke-width="2"/><path d="m128.8 130.6-42.3-73.6" fill="none" stroke="#000" stroke-width="2"/><path d="m128.8 130.6 70.2 40.9" fill="none" stroke="#000" stroke-width="2"/><path d="m67.571 222.749c3.217-1.845.756-6.135-2.461-4.289-3.217 1.845-5.678-2.444-2.461-4.29 3.217-1.845.757-6.135-2.46-4.289-3.218 1.845-5.678-2.444-2.461-4.29 3.217-1.845.756-6.135-2.461-4.289-3.217 1.845-5.678-2.444-2.461-4.29 3.217-1.845.757-6.135-2.46-4.289-3.217 1.845-5.678-2.444-2.461-4.29 3.217-1.845.756-6.135-2.461-4.289-3.217 1.845-5.678-2.444-2.461-4.29 3.217-1.845.757-6.135-2.46-4.289-3.217 1.845-5.678-2.444-2.461-4.29 3.217-1.845.756-6.135-2.461-4.289-3.217 1.845-5.678-2.444-2.461-4.29 3.217-1.845.757-6.135-2.46-4.289s-5.678-2.444-2.461-4.289c3.217-1.846.756-6.135-2.461-4.29-3.217 1.846-5.678-2.444-2.461-4.289 3.218-1.846.757-6.135-2.46-4.29-3.217 1.846-5.678-2.444-2.461-4.289" fill="none" stroke="#7f7f7f" stroke-width="2"/><g font-family="sans-serif" font-size="40"><text x="166.4" y="65.1">C</text><text x="194" y="65.1">l</text><text x="48.2" y="64.9">C</text><text x="75.8" y="64.9">l</text><text x="202.3" y="200.3">C</text><text x="229.9" y="200.3">l</text></g></svg>
