<svg height="256" viewBox="0 0 256 256" width="256" xmlns="http://www.w3.org/2000/svg"><path d="m0 0h256v256h-256z" fill="#fff"/><g fill="none" stroke-width="2"><path d="m42.9 183.4 92.3-53" stroke="#000"/><path d="m135.2 130.4 39.8-68.5" stroke="#000"/><path d="m135.2 130.4-39.5-68.8" stroke="#000"/><path d="m135.2 130.4 76.5 44.5" stroke="#000"/><path d="m69.346 229.529c3.462-1.986.814-6.603-2.649-4.617-3.462 1.987-6.11-2.63-2.648-4.616s.814-6.603-2.648-4.617c-3.462 1.987-6.111-2.63-2.648-4.616 3.462-1.986.813-6.603-2.649-4.616-3.462 1.986-6.11-2.631-2.648-4.617s.814-6.602-2.648-4.616c-3.463 1.986-6.111-2.63-2.649-4.617 3.463-1.986.814-6.602-2.648-4.616s-6.11-2.63-2.648-4.616c3.462-1.987.814-6.603-2.649-4.617-3.462 1.986-6.11-2.63-2.648-4.616s.814-6.603-2.648-4.617c-3.462 1.987-6.111-2.63-2.648-4.616 3.462-1.986.814-6.603-2.649-4.616-3.462 1.986-6.11-2.631-2.648-4.617s.814-6.603-2.648-4.616c-3.463 1.986-6.111-2.631-2.649-4.617 3.463-1.986.814-6.602-2.648-4.616s-6.11-2.63-2.648-4.617" stroke="#7f7f7f"/></g><text font-family="sans-serif" font-size="40" x="176.7" y="58.4">F</text><text font-family="sans-serif" font-size="40" x="70.2" y="58.1">F</text><text font-family="sans-serif" font-size="40" x="215.2" y="203.9">F</text></svg>
