<svg height="256" viewBox="0 0 256 256" width="256" xmlns="http://www.w3.org/2000/svg"><path d="m0 0h256v256h-256z" fill="#fff"/><g fill="none" stroke-width="2"><path d="m13.6 123.7 61 .1" stroke="#000"/><path d="m94.8 109.3v-38.5" stroke="#000"/><path d="m83.5 109.3v-38.6" stroke="#000"/><path d="m83.5 146.3-.1 38.5" stroke="#000"/><path d="m94.8 146.3-.1 38.5" stroke="#000"/><path d="m103.6 123.8h61" stroke="#000"/><path d="m164.6 123.8v61" stroke="#000"/><path d="m164.6 123.8 50.9 29.5" stroke="#000"/><path d="m164.6 123.8 24.8-42.8" stroke="#000"/><path d="m13.596 161.464c2.831.002 2.834-3.773.003-3.776-2.832-.002-2.829-3.777.003-3.775 2.831.002 2.835-3.773.003-3.776-2.832-.002-2.829-3.777.003-3.775s2.835-3.773.003-3.775c-2.832-.003-2.829-3.778.003-3.776s2.835-3.773.003-3.775c-2.832-.003-2.829-3.778.003-3.776 2.832.003 2.835-3.773.003-3.775s-2.829-3.778.003-3.776c2.832.003 2.835-3.773.003-3.775s-2.829-3.778.003-3.775c2.832.002 2.835-3.774.003-3.776-2.831-.002-2.828-3.778.003-3.775 2.832.002 2.835-3.774.003-3.776-2.831-.002-2.828-3.778.003-3.775 2.832.002 2.835-3.773.003-3.776-2.831-.002-2.828-3.777.003-3.775 2.832.002 2.835-3.773.003-3.776-2.831-.002-2.828-3.777.003-3.775" stroke="#7f7f7f"/></g><text font-family="sans-serif" font-size="40" x="77.1" y="143.8">S</text><text font-family="sans-serif" font-size="40" x="77.2" y="68.3">O</text><text font-family="sans-serif" font-size="40" x="77.1" y="219.3">O</text><text font-family="sans-serif" font-size="40" x="152.6" y="219.3">F</text><text font-family="sans-serif" font-size="40" x="218" y="181.6">F</text><text font-family="sans-serif" font-size="40" x="190.5" y="78.5">F</text></svg>
