<svg height="256" viewBox="0 0 256 256" width="256" xmlns="http://www.w3.org/2000/svg"><path d="m0 0h256v256h-256z" fill="#fff"/><g fill="none" stroke-width="2"><path d="m27.5 109.4 38.6-22.3" stroke="#000"/><path d="m91.3 87.1 26 15.1" stroke="#000"/><path d="m141 99.1 10.9-18.9" stroke="#000"/><path d="m133.3 94.6 10.9-18.8" stroke="#000"/><path d="m114.6 126.9-10.9 18.9" stroke="#000"/><path d="m122.3 131.3-10.9 18.9" stroke="#000"/><path d="m142.4 116.7 38.6 22.3" stroke="#000"/><path d="m181 139-22.3 38.6" stroke="#000"/><path d="m181 139 22.2 38.6" stroke="#000"/><path d="m181 139 38.6-22.2" stroke="#000"/><path d="m42.299 134.953c1.919-1.106.444-3.665-1.475-2.559s-3.394-1.453-1.475-2.559.444-3.665-1.475-2.559-3.394-1.452-1.475-2.559c1.919-1.106.444-3.665-1.475-2.558-1.919 1.106-3.394-1.453-1.475-2.559 1.919-1.107.444-3.665-1.475-2.559s-3.394-1.453-1.475-2.559.444-3.665-1.475-2.559-3.394-1.453-1.475-2.559c1.92-1.106.445-3.665-1.475-2.559-1.919 1.107-3.394-1.452-1.474-2.558 1.919-1.107.444-3.665-1.475-2.559s-3.394-1.453-1.475-2.559.444-3.665-1.475-2.559-3.394-1.453-1.475-2.559.444-3.665-1.475-2.559c-1.919 1.107-3.394-1.452-1.475-2.558 1.919-1.107.444-3.665-1.475-2.559s-3.394-1.453-1.475-2.559" stroke="#7f7f7f"/></g><text font-family="sans-serif" font-size="35" x="68.1" y="97.6">O</text><text font-family="sans-serif" font-size="35" x="119.2" y="127.2">S</text><text font-family="sans-serif" font-size="35" x="148.8" y="76">O</text><text font-family="sans-serif" font-size="35" x="89.7" y="178.3">O</text><text font-family="sans-serif" font-size="35" x="140.8" y="207.9">F</text><text font-family="sans-serif" font-size="35" x="199.9" y="207.9">F</text><text font-family="sans-serif" font-size="35" x="221.5" y="127.3">F</text></svg>
