<svg height="256" viewBox="0 0 256 256" width="256" xmlns="http://www.w3.org/2000/svg"><path d="m0 0h256v256h-256z" fill="#fff"/><g fill="none" stroke-width="2"><g stroke="#000"><path d="m115.4 183.8 20.7-35.5"/><path d="m136.1 148.3-41.1-.2"/><path d="m95 148.1-20.5-35.6"/><path d="m87.9 148.1-16.9-29.5"/><path d="m74.5 112.5-41.1-.1"/><path d="m33.4 112.4-20.6 35.5"/><path d="m37 118.5-17.1 29.4"/><path d="m12.8 147.9 20.4 35.6"/><path d="m33.2 183.5 41.1.2"/><path d="m36.8 177.4 34 .1"/><path d="m136.1 148.3 35.5 20.6"/><path d="m171.6 168.9-.1 41.1"/><path d="m177.8 172.5-.1 33.9"/><path d="m171.5 210 35.5 20.6"/><path d="m207 230.6 35.7-20.4"/><path d="m207.1 223.5 29.4-16.9"/><path d="m242.7 210.2.1-41.1"/><path d="m242.8 169.1-35.5-20.6"/><path d="m236.6 172.6-29.4-17"/><path d="m136.1 148.3.1-41.1"/><path d="m136.2 107.2 35.6-20.5"/><path d="m136.2 100 29.5-16.9"/><path d="m171.8 86.7.2-41.1"/><path d="m172 45.6-35.6-20.6"/><path d="m165.8 49.2-29.4-17.1"/><path d="m136.4 25-35.6 20.4"/><path d="m100.8 45.4-.1 41.1"/><path d="m106.9 49-.1 34"/><path d="m74.3 183.7 20.7-35.6"/><path d="m207.3 148.5-35.7 20.4"/><path d="m100.7 86.5 35.5 20.7"/><path d="m75.6 114.3-1.1-1.8h-2" stroke-miterlimit="10"/><path d="m35.5 112.4h-2.1l-1 1.7" stroke-miterlimit="10"/><path d="m13.8 146.1-1 1.8 1 1.8" stroke-miterlimit="10"/><path d="m32.2 181.8 1 1.7 2.1.1" stroke-miterlimit="10"/><path d="m72.3 183.7h2l1.1-1.8" stroke-miterlimit="10"/><path d="m171.5 207.9v2.1l1.8 1" stroke-miterlimit="10"/><path d="m205.3 229.6 1.7 1 1.8-1" stroke-miterlimit="10"/><path d="m240.9 211.2 1.8-1v-2.1" stroke-miterlimit="10"/><path d="m242.8 171.2v-2.1l-1.8-1" stroke-miterlimit="10"/><path d="m209 149.5-1.7-1-1.8 1" stroke-miterlimit="10"/><path d="m170.1 87.7 1.7-1 .1-2" stroke-miterlimit="10"/><path d="m172 47.7v-2.1l-1.8-1" stroke-miterlimit="10"/><path d="m138.2 26-1.8-1-1.8 1" stroke-miterlimit="10"/><path d="m102.6 44.4-1.8 1v2.1" stroke-miterlimit="10"/><path d="m100.7 84.5v2l1.7 1" stroke-miterlimit="10"/></g><path d="m133.205 194.112c.774-1.333-1.003-2.365-1.777-1.033-.774 1.333-2.551.3-1.777-1.032.775-1.333-1.002-2.365-1.776-1.033-.775 1.333-2.551.301-1.777-1.032.774-1.332-1.002-2.365-1.777-1.032-.774 1.332-2.551.3-1.776-1.033.774-1.332-1.003-2.365-1.777-1.032-.774 1.332-2.551.3-1.777-1.033.774-1.332-1.002-2.364-1.777-1.032-.774 1.333-2.551.3-1.776-1.032.774-1.333-1.003-2.365-1.777-1.033-.774 1.333-2.551.3-1.777-1.032.775-1.333-1.002-2.365-1.776-1.033-.775 1.333-2.551.3-1.777-1.032.774-1.333-1.003-2.365-1.777-1.032-.774 1.332-2.551.3-1.777-1.033.775-1.332-1.002-2.365-1.776-1.032-.775 1.332-2.551.3-1.777-1.033.774-1.332-1.002-2.365-1.777-1.032-.774 1.332-2.551.3-1.776-1.032" stroke="#7f7f7f"/></g></svg>
