<svg height="256" viewBox="0 0 256 256" width="256" xmlns="http://www.w3.org/2000/svg"><path d="m0 0h256v256h-256z" fill="#fff"/><g fill="none" stroke-width="2"><path d="m24.5 139.7 40.4-23.3" stroke="#000"/><path d="m68.4 118.4.1-33.2" stroke="#000"/><path d="m61.4 118.4v-33.2" stroke="#000"/><path d="m64.9 116.4 30.5 17.6" stroke="#000"/><path d="m115.3 134 30.5-17.5" stroke="#000"/><path d="m145.8 116.5 40.4 23.3" stroke="#000"/><path d="m186.2 139.8-19.2 33.3" stroke="#000"/><path d="m186.2 139.8 17.6 30.6" stroke="#000"/><path d="m186.2 139.8 30.6-17.5" stroke="#000"/><path d="m62.9 117.6 2-1.2 1.5.9" stroke="#000" stroke-miterlimit="10"/><path d="m144.3 117.3 1.5-.8 2 1.1" stroke="#000" stroke-miterlimit="10"/><path d="m36.123 159.945c1.517-.875.351-2.898-1.166-2.023-1.518.874-2.684-1.149-1.167-2.023 1.518-.875.352-2.898-1.166-2.023-1.517.874-2.683-1.149-1.166-2.024 1.518-.874.351-2.897-1.166-2.023-1.517.875-2.683-1.148-1.166-2.023 1.517-.874.351-2.897-1.166-2.023-1.518.875-2.684-1.148-1.166-2.023 1.517-.875.351-2.898-1.166-2.023-1.518.875-2.684-1.149-1.167-2.023 1.518-.875.352-2.898-1.166-2.023-1.517.874-2.683-1.149-1.166-2.023 1.517-.875.351-2.898-1.166-2.023-1.517.874-2.683-1.149-1.166-2.024 1.517-.874.351-2.897-1.166-2.023-1.518.875-2.684-1.148-1.166-2.023 1.517-.874.351-2.898-1.167-2.023-1.517.875-2.683-1.148-1.166-2.023 1.518-.875.352-2.898-1.166-2.023-1.517.874-2.683-1.149-1.166-2.023" stroke="#7f7f7f"/></g><text font-family="sans-serif" font-size="28" x="56.6" y="83.7">O</text><text font-family="sans-serif" font-size="28" x="96.9" y="153.8">O</text><text font-family="sans-serif" font-size="28" x="140.9" y="194.3">C</text><text font-family="sans-serif" font-size="28" x="160.3" y="194.3">l</text><text font-family="sans-serif" font-size="28" x="201.2" y="194.3">C</text><text font-family="sans-serif" font-size="28" x="220.5" y="194.3">l</text><text font-family="sans-serif" font-size="28" x="218.3" y="130.5">C</text><text font-family="sans-serif" font-size="28" x="237.6" y="130.5">l</text></svg>
