<svg xmlns="http://www.w3.org/2000/svg" xmlns:svg="http://www.w3.org/2000/svg" id="svg1" width="128" height="128" version="1.1" viewBox="0 0 33.867 33.867" xml:space="preserve"><defs id="defs1"><linearGradient id="linearGradient10"><stop style="stop-color:#c2c2c2;stop-opacity:1" id="stop9" offset="0"/><stop style="stop-color:#000;stop-opacity:1" id="stop10" offset="1"/></linearGradient><linearGradient id="linearGradient1"><stop style="stop-color:#ece69f;stop-opacity:1" id="stop7" offset="0"/><stop style="stop-color:#ffca00;stop-opacity:1" id="stop8" offset="1"/></linearGradient><linearGradient id="linearGradient1-1"><stop style="stop-color:#c2c2c2;stop-opacity:1" id="stop4" offset="0"/><stop style="stop-color:#7b7b7b;stop-opacity:1" id="stop5" offset="1"/></linearGradient><clipPath id="clipPath2" clipPathUnits="userSpaceOnUse"><path id="path2" d="M 0,0 H 98 V 106 H 0 Z"/></clipPath><clipPath id="clipPath6" clipPathUnits="userSpaceOnUse"><path id="path6" d="M 0,0 H 98 V 106 H 0 Z"/></clipPath><clipPath id="clipPath10" clipPathUnits="userSpaceOnUse"><path id="path10" d="M 0,0 H 98 V 106 H 0 Z"/></clipPath><clipPath id="clipPath14" clipPathUnits="userSpaceOnUse"><path id="path14" d="M 0,0 H 98 V 106 H 0 Z"/></clipPath><clipPath id="clipPath18" clipPathUnits="userSpaceOnUse"><path id="path18" d="M 0,0 H 98 V 106 H 0 Z"/></clipPath><clipPath id="clipPath22" clipPathUnits="userSpaceOnUse"><path id="path22" d="M 0,0 H 98 V 106 H 0 Z"/></clipPath><clipPath id="clipPath26" clipPathUnits="userSpaceOnUse"><path id="path26" d="M 0,0 H 98 V 106 H 0 Z"/></clipPath><clipPath id="clipPath22-1" clipPathUnits="userSpaceOnUse"><path id="path22-3" d="M 0,0 H 98 V 106 H 0 Z"/></clipPath><clipPath id="clipPath22-1-7" clipPathUnits="userSpaceOnUse"><path id="path22-3-4" d="M 0,0 H 98 V 106 H 0 Z"/></clipPath><clipPath id="clipPath22-1-5" clipPathUnits="userSpaceOnUse"><path id="path22-3-9" d="M 0,0 H 98 V 106 H 0 Z"/></clipPath><clipPath id="clipPath22-1-0" clipPathUnits="userSpaceOnUse"><path id="path22-3-6" d="M 0,0 H 98 V 106 H 0 Z"/></clipPath><clipPath id="clipPath22-1-54" clipPathUnits="userSpaceOnUse"><path id="path22-3-66" d="M 0,0 H 98 V 106 H 0 Z"/></clipPath><clipPath id="clipPath22-1-0-2" clipPathUnits="userSpaceOnUse"><path id="path22-3-6-1" d="M 0,0 H 98 V 106 H 0 Z"/></clipPath><clipPath id="clipPath22-1-5-1" clipPathUnits="userSpaceOnUse"><path id="path22-3-9-3" d="M 0,0 H 98 V 106 H 0 Z"/></clipPath><clipPath id="clipPath22-1-5-7" clipPathUnits="userSpaceOnUse"><path id="path22-3-9-33" d="M 0,0 H 98 V 106 H 0 Z"/></clipPath><clipPath id="clipPath22-1-5-3" clipPathUnits="userSpaceOnUse"><path id="path22-3-9-8" d="M 0,0 H 98 V 106 H 0 Z"/></clipPath><clipPath id="clipPath22-1-5-6" clipPathUnits="userSpaceOnUse"><path id="path22-3-9-1" d="M 0,0 H 98 V 106 H 0 Z"/></clipPath><clipPath id="clipPath22-1-7-3" clipPathUnits="userSpaceOnUse"><path id="path22-3-4-0" d="M 0,0 H 98 V 106 H 0 Z"/></clipPath><clipPath id="clipPath22-1-0-2-0" clipPathUnits="userSpaceOnUse"><path id="path22-3-6-1-4" d="M 0,0 H 98 V 106 H 0 Z"/></clipPath><clipPath id="clipPath22-1-5-1-5" clipPathUnits="userSpaceOnUse"><path id="path22-3-9-3-4" d="M 0,0 H 98 V 106 H 0 Z"/></clipPath><clipPath id="clipPath22-1-5-3-2" clipPathUnits="userSpaceOnUse"><path id="path22-3-9-8-4" d="M 0,0 H 98 V 106 H 0 Z"/></clipPath></defs><g id="layer1" style="display:inline" transform="matrix(0.29146868,0,0,0.29146868,12.494055,11.197731)"><rect style="fill:#000;fill-opacity:1;stroke:none;stroke-width:3.75082;stroke-linecap:round;stroke-linejoin:bevel;stroke-dasharray:none;stroke-opacity:1;paint-order:stroke fill markers" id="rect1" width="102.852" height="68.297" x="-36.17" y="9.478" rx="1.835"/><path style="fill:#fff;fill-opacity:1;stroke:none;stroke-width:3.63104;stroke-linecap:round;stroke-linejoin:bevel;stroke-dasharray:none;stroke-opacity:1;paint-order:stroke fill markers" id="path3" d="m 70.898758,136.5 -39.973137,23.0785 0,-46.157 z" transform="matrix(0.85417763,0,0,0.85417763,-25.096096,-71.942004)"/><g id="g4" transform="rotate(-15,18.897759,473.70246)"><rect style="display:inline;fill:#000;fill-opacity:1;stroke:none;stroke-width:3.68362;stroke-linecap:round;stroke-linejoin:bevel;stroke-dasharray:none;stroke-opacity:1;paint-order:stroke fill markers" id="rect2-1-9" width="102.851" height="22.402" x="85.861" y="-11.38" rx="1.847"/><rect style="fill:#fff;fill-opacity:1;stroke:none;stroke-width:3.68056;stroke-linecap:round;stroke-linejoin:bevel;stroke-dasharray:none;stroke-opacity:1;paint-order:stroke fill markers" id="rect3" width="11.427" height="22.402" x="97.291" y="-11.38"/><rect style="display:inline;fill:#fff;fill-opacity:1;stroke:none;stroke-width:3.68056;stroke-linecap:round;stroke-linejoin:bevel;stroke-dasharray:none;stroke-opacity:1;paint-order:stroke fill markers" id="rect3-3" width="11.427" height="22.402" x="120.146" y="-11.38"/><rect style="display:inline;fill:#fff;fill-opacity:1;stroke:none;stroke-width:3.68056;stroke-linecap:round;stroke-linejoin:bevel;stroke-dasharray:none;stroke-opacity:1;paint-order:stroke fill markers" id="rect3-1" width="11.427" height="22.402" x="143.001" y="-11.38"/><rect style="display:inline;fill:#fff;fill-opacity:1;stroke:none;stroke-width:3.68056;stroke-linecap:round;stroke-linejoin:bevel;stroke-dasharray:none;stroke-opacity:1;paint-order:stroke fill markers" id="rect3-7" width="11.427" height="22.402" x="165.855" y="-11.38"/></g></g></svg>