<?xml version="1.0" encoding="UTF-8"?>
<svg width="256px" height="256px" baseProfile="full" version="1.1" viewBox="0 0 256 256" xml:space="preserve" xmlns="http://www.w3.org/2000/svg">

 <!-- END OF HEADER -->
<rect width="256" height="256" fill="#fff"> </rect>
<path class="bond-0 atom-0 atom-1" d="m37.2 178.8 37-21.3" fill="none" stroke="#191919" stroke-width="2px"/>
<path class="bond-0 atom-0 atom-1" d="m74.2 157.5 36.9-21.3" fill="none" stroke="#00f" stroke-width="2px"/>
<path class="bond-1 atom-1 atom-2" d="m140.1 119.4 34.8-20" fill="none" stroke="#00f" stroke-width="2px"/>
<path class="bond-1 atom-1 atom-2" d="m174.9 99.4 34.7-20.1" fill="none" stroke="#000" stroke-width="2px"/>
<path class="bond-2 atom-1 atom-3" d="m136 145.7 18.1 31.5" fill="none" stroke="#00f" stroke-width="2px"/>
<path class="bond-2 atom-1 atom-3" d="m154.1 177.2 18.2 31.5" fill="none" stroke="#000" stroke-width="2px"/>
<path class="bond-3 atom-1 atom-4" d="m115.3 109.9-18.2-31.5" fill="none" stroke="#00f" stroke-width="2px"/>
<path class="bond-3 atom-1 atom-4" d="m97.1 78.4-18.2-31.5" fill="none" stroke="#000" stroke-width="2px"/>
<path class="atom-0" d="m21.4 181.7 4.2-4.2-5.5-1.2 0.8-2.8 5.1 2.6-0.7-5.6h3l-0.9 5.5 5.2-2.4 0.9 2.7-5.6 1.1 4 4.3-2.5 1.7-2.7-5.3-2.8 5.3-2.5-1.7" fill="#191919"/>
<path class="atom-1" d="m119.4 113.6 9.2 15q1 1.5 2.4 4.2 1.5 2.7 1.6 2.8v-22h3.8v28.4h-3.9l-10-16.4q-1.1-2-2.4-4.2-1.2-2.2-1.5-2.8v23.4h-3.7v-28.4h4.5" fill="#00f"/>
<path class="atom-2" d="m213.4 56.6h3.8v12h14.5v-12h3.8v28.3h-3.8v-13.1h-14.5v13.1h-3.8v-28.3"/>
<path class="atom-3" d="m171.6 212.5h3.8v12h14.5v-12h3.9v28.3h-3.9v-13.1h-14.5v13.1h-3.8v-28.3"/>
<path class="atom-4" d="m57.5 14.8h3.8v12h14.5v-12h3.8v28.3h-3.8v-13.1h-14.5v13.1h-3.8v-28.3"/>
</svg>
