<?xml version="1.0" encoding="UTF-8"?>
<svg width="256px" height="256px" baseProfile="full" version="1.1" viewBox="0 0 256 256" xml:space="preserve" xmlns="http://www.w3.org/2000/svg">

 <!-- END OF HEADER -->
<rect width="256" height="256" fill="#fff"> </rect>
<path class="bond-0 atom-0 atom-1" d="m242.8 172.7-19.3 33.4" fill="none" stroke="#000" stroke-width="2px"/>
<path class="bond-1 atom-1 atom-2" d="m223.5 206.1h-38.6" fill="none" stroke="#000" stroke-width="2px"/>
<path class="bond-2 atom-2 atom-3" d="m184.9 206.1-7.7-13.3" fill="none" stroke="#000" stroke-width="2px"/>
<path class="bond-2 atom-2 atom-3" d="m177.2 192.8-7.7-13.4" fill="none" stroke="#00f" stroke-width="2px"/>
<path class="bond-3 atom-3 atom-4" d="m160.1 171.5-14.4-3" fill="none" stroke="#00f" stroke-width="2px"/>
<path class="bond-3 atom-3 atom-4" d="m145.7 168.5-14.5-3.1" fill="none" stroke="#191919" stroke-width="2px"/>
<path class="bond-4 atom-4 atom-5" d="m124.4 165.4-14.5 3.1" fill="none" stroke="#191919" stroke-width="2px"/>
<path class="bond-4 atom-4 atom-5" d="m109.9 168.5-14.4 3" fill="none" stroke="#00f" stroke-width="2px"/>
<path class="bond-5 atom-5 atom-6" d="m86.1 179.4-7.7 13.4" fill="none" stroke="#00f" stroke-width="2px"/>
<path class="bond-5 atom-5 atom-6" d="m78.4 192.8-7.7 13.3" fill="none" stroke="#000" stroke-width="2px"/>
<path class="bond-6 atom-6 atom-7" d="m70.7 206.1h-38.6" fill="none" stroke="#000" stroke-width="2px"/>
<path class="bond-7 atom-7 atom-8" d="m32.1 206.1-19.3-33.4" fill="none" stroke="#000" stroke-width="2px"/>
<path class="bond-8 atom-8 atom-9" d="m12.8 172.7 19.3-33.4" fill="none" stroke="#000" stroke-width="2px"/>
<path class="bond-9 atom-9 atom-10" d="m32.1 139.3h38.6" fill="none" stroke="#000" stroke-width="2px"/>
<path class="bond-10 atom-10 atom-11" d="m70.7 139.3 21.8-35.7" fill="none" stroke="#000" stroke-width="2px"/>
<path class="bond-11 atom-11 atom-12" d="m92.5 103.6 4.1-38.4" fill="none" stroke="#000" stroke-width="2px"/>
<path class="bond-12 atom-12 atom-13" d="m96.6 65.2 35.2-15.7" fill="none" stroke="#000" stroke-width="2px"/>
<path class="bond-13 atom-13 atom-14" d="m131.8 49.5 31.3 22.7" fill="none" stroke="#000" stroke-width="2px"/>
<path class="bond-14 atom-14 atom-15" d="m163.1 72.2-4.1 38.4" fill="none" stroke="#000" stroke-width="2px"/>
<path class="bond-15 atom-15 atom-16" d="m159 110.6 25.9 28.7" fill="none" stroke="#000" stroke-width="2px"/>
<path class="bond-16 atom-16 atom-17" d="m184.9 139.3h38.6" fill="none" stroke="#000" stroke-width="2px"/>
<path class="bond-17 atom-15 atom-18" d="m159 110.6-14.9 6.6" fill="none" stroke="#000" stroke-width="2px"/>
<path class="bond-17 atom-15 atom-18" d="m144.1 117.2-14.9 6.7" fill="none" stroke="#00f" stroke-width="2px"/>
<path class="bond-18 atom-17 atom-0" d="m223.5 139.3 19.3 33.4" fill="none" stroke="#000" stroke-width="2px"/>
<path class="bond-19 atom-16 atom-3" d="m184.9 139.3-7.7 13.3" fill="none" stroke="#000" stroke-width="2px"/>
<path class="bond-19 atom-16 atom-3" d="m177.2 152.6-7.7 13.4" fill="none" stroke="#00f" stroke-width="2px"/>
<path class="bond-20 atom-18 atom-4" d="m124.5 133 1.3 12.4" fill="none" stroke="#00f" stroke-width="2px"/>
<path class="bond-20 atom-18 atom-4" d="m125.8 145.4 1.3 12.4" fill="none" stroke="#191919" stroke-width="2px"/>
<path class="bond-21 atom-10 atom-5" d="m70.7 139.3 7.7 13.3" fill="none" stroke="#000" stroke-width="2px"/>
<path class="bond-21 atom-10 atom-5" d="m78.4 152.6 7.7 13.4" fill="none" stroke="#00f" stroke-width="2px"/>
<path class="bond-22 atom-18 atom-11" d="m118.3 122.3-12.9-9.4" fill="none" stroke="#00f" stroke-width="2px"/>
<path class="bond-22 atom-18 atom-11" d="m105.4 112.9-12.9-9.3" fill="none" stroke="#000" stroke-width="2px"/>
<path d="m241.8 174.4 1-1.7-1-1.7" fill="none" stroke="#000" stroke-miterlimit="10" stroke-width="2px"/>
<path d="m224.5 204.5-1 1.6h-1.9" fill="none" stroke="#000" stroke-miterlimit="10" stroke-width="2px"/>
<path d="m186.8 206.1h-1.9l-0.4-0.6" fill="none" stroke="#000" stroke-miterlimit="10" stroke-width="2px"/>
<path d="m71.1 205.5-0.4 0.6h-1.9" fill="none" stroke="#000" stroke-miterlimit="10" stroke-width="2px"/>
<path d="m34 206.1h-1.9l-1-1.6" fill="none" stroke="#000" stroke-miterlimit="10" stroke-width="2px"/>
<path d="m13.8 174.4-1-1.7 1-1.7" fill="none" stroke="#000" stroke-miterlimit="10" stroke-width="2px"/>
<path d="m31.1 140.9 1-1.6h1.9" fill="none" stroke="#000" stroke-miterlimit="10" stroke-width="2px"/>
<path d="m96.4 67.1 0.2-1.9 1.7-0.8" fill="none" stroke="#000" stroke-miterlimit="10" stroke-width="2px"/>
<path d="m130.1 50.2 1.7-0.7 1.6 1.1" fill="none" stroke="#000" stroke-miterlimit="10" stroke-width="2px"/>
<path d="m161.5 71 1.6 1.2-0.2 1.9" fill="none" stroke="#000" stroke-miterlimit="10" stroke-width="2px"/>
<path d="m221.6 139.3h1.9l1 1.6" fill="none" stroke="#000" stroke-miterlimit="10" stroke-width="2px"/>
<path class="atom-3" d="m163.2 167.2 3.5 5.8q0.4 0.6 1 1.6 0.5 1.1 0.6 1.1v-8.5h1.4v11h-1.5l-3.8-6.4q-0.5-0.7-1-1.6-0.4-0.8-0.6-1.1v9.1h-1.4v-11h1.8" fill="#00f"/>
<path class="atom-4" d="m125.7 163.4 1.6-1.6-2.1-0.4 0.3-1.1 2 1-0.3-2.2h1.2l-0.3 2.2 1.9-1 0.4 1.1-2.2 0.4 1.6 1.6-1 0.7-1-2-1.1 2-1-0.7" fill="#191919"/>
<path class="atom-5" d="m87.6 167.2 3.6 5.8q0.4 0.6 0.9 1.6 0.6 1.1 0.6 1.1v-8.5h1.5v11h-1.5l-3.9-6.4q-0.4-0.7-0.9-1.6-0.5-0.8-0.6-1.1v9.1h-1.4v-11h1.7" fill="#00f"/>
<path class="atom-18" d="m121.3 120.8 3.6 5.8q0.4 0.6 1 1.6 0.5 1 0.6 1.1v-8.5h1.4v10.9h-1.5l-3.8-6.3q-0.5-0.7-1-1.6-0.4-0.8-0.6-1.1v9h-1.4v-10.9h1.7" fill="#00f"/>
</svg>
