<?xml version="1.0" encoding="UTF-8"?>
<svg width="256px" height="256px" baseProfile="full" version="1.1" viewBox="0 0 256 256" xml:space="preserve" xmlns="http://www.w3.org/2000/svg">

 <!-- END OF HEADER -->
<rect width="256" height="256" fill="#fff"> </rect>
<path class="bond-0 atom-0 atom-1" d="m239.4 153.3-3.8-48.4" fill="none" stroke="#000" stroke-width="2px"/>
<path class="bond-1 atom-1 atom-2" d="m235.6 104.9-47.1-11.3" fill="none" stroke="#000" stroke-width="2px"/>
<path class="bond-2 atom-2 atom-3" d="m188.5 93.6-23.1-42.6" fill="none" stroke="#000" stroke-width="2px"/>
<path class="bond-3 atom-3 atom-4" d="m165.4 51-48.5-1.3" fill="none" stroke="#000" stroke-width="2px"/>
<path class="bond-4 atom-4 atom-5" d="m116.9 49.7-31.4-36.9" fill="none" stroke="#000" stroke-width="2px"/>
<path class="bond-5 atom-5 atom-6" d="m85.5 12.8-44.8 18.5" fill="none" stroke="#000" stroke-width="2px"/>
<path class="bond-6 atom-6 atom-7" d="m40.7 31.3 3.8 48.3" fill="none" stroke="#000" stroke-width="2px"/>
<path class="bond-7 atom-7 atom-8" d="m44.5 79.6-25.9 41.3" fill="none" stroke="#000" stroke-width="2px"/>
<path class="bond-8 atom-8 atom-9" d="m18.6 120.9 18.5 44.8" fill="none" stroke="#000" stroke-width="2px"/>
<path class="bond-9 atom-9 atom-10" d="m37.1 165.7-20.9 43.7" fill="none" stroke="#000" stroke-width="2px"/>
<path class="bond-10 atom-10 atom-11" d="m16.2 209.4 35.1 33.4" fill="none" stroke="#000" stroke-width="2px"/>
<path class="bond-11 atom-11 atom-12" d="m51.3 242.8 42.7-23.1" fill="none" stroke="#000" stroke-width="2px"/>
<path class="bond-12 atom-12 atom-13" d="m94 219.7 48.2 6.9" fill="none" stroke="#000" stroke-width="2px"/>
<path class="bond-13 atom-13 atom-14" d="m142.2 226.6 33.3-35.2" fill="none" stroke="#000" stroke-width="2px"/>
<path class="bond-14 atom-14 atom-15" d="m175.5 191.4 14.1-39.5" fill="none" stroke="#000" stroke-width="2px"/>
<path class="bond-15 atom-15 atom-16" d="m189.6 151.9-1.9 5.2" fill="none" stroke="#000" stroke-width="2px"/>
<path class="bond-16 atom-16 atom-17" d="m187.7 157.1 14.1-39.6" fill="none" stroke="#000" stroke-width="2px"/>
<path class="bond-17 atom-17 atom-18" d="m201.8 117.5 22.3 15.8" fill="none" stroke="#000" stroke-width="2px"/>
<path class="bond-18 atom-18 atom-19" d="m224.1 133.3-29.5 38.5" fill="none" stroke="#000" stroke-width="2px"/>
<path class="bond-19 atom-19 atom-20" d="m194.6 171.8-12.4-14.5" fill="none" stroke="#000" stroke-width="2px"/>
<path class="bond-19 atom-19 atom-20" d="m182.2 157.3-12.3-14.5" fill="none" stroke="#00f" stroke-width="2px"/>
<path class="bond-20 atom-20 atom-21" d="m156.4 134.7-18.5-0.5" fill="none" stroke="#00f" stroke-width="2px"/>
<path class="bond-20 atom-20 atom-21" d="m137.9 134.2-18.4-0.5" fill="none" stroke="#191919" stroke-width="2px"/>
<path class="bond-21 atom-21 atom-22" d="m118.1 134.4 18.5 4.5" fill="none" stroke="#191919" stroke-width="2px"/>
<path class="bond-21 atom-21 atom-22" d="m136.6 138.9 18.5 4.4" fill="none" stroke="#00f" stroke-width="2px"/>
<path class="bond-22 atom-21 atom-23" d="m110.1 125.1-7-12.9" fill="none" stroke="#191919" stroke-width="2px"/>
<path class="bond-22 atom-21 atom-23" d="m103.1 112.2-7-12.8" fill="none" stroke="#00f" stroke-width="2px"/>
<path class="bond-23 atom-21 atom-24" d="m114.1 134.4-11.3 14.6" fill="none" stroke="#191919" stroke-width="2px"/>
<path class="bond-23 atom-21 atom-24" d="m102.8 149-11.2 14.7" fill="none" stroke="#00f" stroke-width="2px"/>
<path class="bond-24 atom-19 atom-0" d="m194.6 171.8 44.8-18.5" fill="none" stroke="#000" stroke-width="2px"/>
<path class="bond-25 atom-20 atom-2" d="m168.3 126.5 10.1-16.4" fill="none" stroke="#00f" stroke-width="2px"/>
<path class="bond-25 atom-20 atom-2" d="m178.4 110.1 10.1-16.5" fill="none" stroke="#000" stroke-width="2px"/>
<path class="bond-26 atom-23 atom-4" d="m96.7 82.6 10.1-16.5" fill="none" stroke="#00f" stroke-width="2px"/>
<path class="bond-26 atom-23 atom-4" d="m106.8 66.1 10.1-16.4" fill="none" stroke="#000" stroke-width="2px"/>
<path class="bond-27 atom-23 atom-7" d="m84.9 89.4-20.2-4.9" fill="none" stroke="#00f" stroke-width="2px"/>
<path class="bond-27 atom-23 atom-7" d="m64.7 84.5-20.2-4.9" fill="none" stroke="#000" stroke-width="2px"/>
<path class="bond-28 atom-24 atom-9" d="m78.4 171.1-20.6-2.7" fill="none" stroke="#00f" stroke-width="2px"/>
<path class="bond-28 atom-24 atom-9" d="m57.8 168.4-20.7-2.7" fill="none" stroke="#000" stroke-width="2px"/>
<path class="bond-29 atom-24 atom-12" d="m86.7 180.4 3.6 19.7" fill="none" stroke="#00f" stroke-width="2px"/>
<path class="bond-29 atom-24 atom-12" d="m90.3 200.1 3.7 19.6" fill="none" stroke="#000" stroke-width="2px"/>
<path class="bond-30 atom-22 atom-14" d="m164.3 153.3 5.6 19.1" fill="none" stroke="#00f" stroke-width="2px"/>
<path class="bond-30 atom-22 atom-14" d="m169.9 172.4 5.6 19" fill="none" stroke="#000" stroke-width="2px"/>
<path class="bond-31 atom-22 atom-17" d="m168.5 140.3 16.7-11.4" fill="none" stroke="#00f" stroke-width="2px"/>
<path class="bond-31 atom-22 atom-17" d="m185.2 128.9 16.6-11.4" fill="none" stroke="#000" stroke-width="2px"/>
<path d="m239.2 150.8 0.2 2.5-2.3 0.9" fill="none" stroke="#000" stroke-miterlimit="10" stroke-width="2px"/>
<path d="m235.8 107.4-0.2-2.5-2.3-0.5" fill="none" stroke="#000" stroke-miterlimit="10" stroke-width="2px"/>
<path d="m166.5 53.1-1.1-2.1-2.4-0.1" fill="none" stroke="#000" stroke-miterlimit="10" stroke-width="2px"/>
<path d="m87.1 14.6-1.6-1.8-2.3 0.9" fill="none" stroke="#000" stroke-miterlimit="10" stroke-width="2px"/>
<path d="m42.9 30.4-2.2 0.9 0.2 2.4" fill="none" stroke="#000" stroke-miterlimit="10" stroke-width="2px"/>
<path d="m19.9 118.8-1.3 2.1 0.9 2.2" fill="none" stroke="#000" stroke-miterlimit="10" stroke-width="2px"/>
<path d="m17.3 207.2-1.1 2.2 1.8 1.7" fill="none" stroke="#000" stroke-miterlimit="10" stroke-width="2px"/>
<path d="m49.6 241.1 1.7 1.7 2.2-1.2" fill="none" stroke="#000" stroke-miterlimit="10" stroke-width="2px"/>
<path d="m139.8 226.2 2.4 0.4 1.6-1.8" fill="none" stroke="#000" stroke-miterlimit="10" stroke-width="2px"/>
<path d="m188.9 153.8 0.7-1.9-0.1 0.2" fill="none" stroke="#000" stroke-miterlimit="10" stroke-width="2px"/>
<path d="m187.8 156.8-0.1 0.3 0.7-2" fill="none" stroke="#000" stroke-miterlimit="10" stroke-width="2px"/>
<path d="m223 132.6 1.1 0.7-1.4 2" fill="none" stroke="#000" stroke-miterlimit="10" stroke-width="2px"/>
<path class="atom-20" d="m160.1 128 4.5 7.3q0.5 0.7 1.2 2t0.7 1.4v-10.7h1.8v13.8h-1.8l-4.9-8q-0.5-0.9-1.1-2-0.6-1-0.8-1.4v11.4h-1.8v-13.8h2.2" fill="#00f"/>
<path class="atom-21" d="m112.1 132.1 2-2.1-2.7-0.5 0.4-1.4 2.5 1.2-0.3-2.7h1.4l-0.4 2.7 2.5-1.1 0.4 1.3-2.7 0.5 2 2-1.2 0.9-1.4-2.6-1.3 2.6-1.2-0.8" fill="#191919"/>
<path class="atom-22" d="m158.8 138.1 4.5 7.3q0.4 0.7 1.1 2 0.8 1.3 0.8 1.3v-10.6h1.8v13.7h-1.9l-4.8-7.9q-0.6-1-1.2-2-0.5-1.1-0.7-1.4v11.3h-1.8v-13.7h2.2" fill="#00f"/>
<path class="atom-23" d="m88.6 84.1 4.5 7.3q0.4 0.7 1.1 2t0.8 1.4v-10.7h1.8v13.8h-1.9l-4.8-8q-0.6-0.9-1.2-2t-0.7-1.4v11.4h-1.8v-13.8h2.2" fill="#00f"/>
<path class="atom-24" d="m82.1 165.2 4.5 7.2q0.5 0.8 1.2 2.1t0.7 1.3v-10.6h1.9v13.7h-1.9l-4.8-8q-0.6-0.9-1.2-1.9-0.6-1.1-0.8-1.4v11.3h-1.7v-13.7h2.1" fill="#00f"/>
</svg>
