<?xml version="1.0" encoding="UTF-8"?>
<svg width="256px" height="256px" baseProfile="full" version="1.1" viewBox="0 0 256 256" xml:space="preserve" xmlns="http://www.w3.org/2000/svg">

 <!-- END OF HEADER -->
<rect width="256" height="256" fill="#fff"> </rect>
<path class="bond-0 atom-0 atom-1" d="m29.1 188.4 37.2-21.6" fill="none" stroke="#191919" stroke-width="2px"/>
<path class="bond-0 atom-0 atom-1" d="m66.3 166.8 37.3-21.5" fill="none" stroke="#000" stroke-width="2px"/>
<path class="bond-1 atom-1 atom-2" d="m103.6 145.3v-39.9" fill="none" stroke="#000" stroke-width="2px"/>
<path class="bond-1 atom-1 atom-2" d="m103.6 105.4v-39.8" fill="none" stroke="#f00" stroke-width="2px"/>
<path class="bond-2 atom-1 atom-3" d="m103.6 145.3 35.3 20.4" fill="none" stroke="#000" stroke-width="2px"/>
<path class="bond-2 atom-1 atom-3" d="m138.9 165.7 35.3 20.4" fill="none" stroke="#00f" stroke-width="2px"/>
<path class="atom-0" d="m14.1 190.9 4.1-4.1-5.4-1.1 0.8-2.8 5 2.5-0.7-5.4h2.9l-0.8 5.4 5-2.4 0.8 2.7-5.4 1 3.9 4.2-2.4 1.7-2.7-5.2-2.7 5.2-2.4-1.7" fill="#191919"/>
<path class="atom-2" d="m91 48.1q0-6.7 3.2-10.4 3.3-3.7 9.4-3.7t9.4 3.7 3.3 10.4-3.3 10.5-9.4 3.8-9.4-3.8q-3.2-3.8-3.2-10.5m12.6 11.1q4.2 0 6.5-2.8t2.3-8.3q0-5.4-2.3-8.2-2.3-2.7-6.5-2.7t-6.5 2.7q-2.2 2.7-2.2 8.2t2.2 8.3q2.3 2.8 6.5 2.8" fill="#f00"/>
<path class="atom-2" d="m120.6 34.4h3.7v11.7h14.1v-11.7h3.7v27.5h-3.7v-12.7h-14.1v12.7h-3.7v-27.5" fill="#f00"/>
<path class="atom-3" d="m181.8 180.2 9 14.6q0.9 1.4 2.4 4.1 1.4 2.6 1.5 2.7v-21.4h3.7v27.6h-3.8l-9.7-16q-1.1-1.9-2.3-4t-1.6-2.8v22.8h-3.5v-27.6h4.3" fill="#00f"/>
<path class="atom-3" d="m203.6 180.2h3.8v11.7h14.1v-11.7h3.7v27.6h-3.7v-12.8h-14.1v12.8h-3.8v-27.6" fill="#00f"/>
<path class="atom-3" d="m230.6 206.8q0.7-1.7 2.3-2.7 1.5-0.9 3.8-0.9 2.7 0 4.2 1.4 1.6 1.5 1.6 4.2t-2 5.2-6.1 5.5h8.4v2.1h-12.3v-1.8q3.4-2.4 5.4-4.2 2.1-1.8 3-3.4 1-1.6 1-3.3t-0.9-2.7q-0.8-1-2.3-1t-2.5 0.6-1.7 1.9l-1.9-0.9" fill="#00f"/>
</svg>
