<?xml version="1.0" encoding="UTF-8"?>
<svg width="256px" height="256px" baseProfile="full" version="1.1" viewBox="0 0 256 256" xml:space="preserve" xmlns="http://www.w3.org/2000/svg">

 <!-- END OF HEADER -->
<rect width="256" height="256" fill="#fff"> </rect>
<path class="bond-0 atom-0 atom-1" d="m21.4 64.5 35.9 20.8" fill="none" stroke="#191919" stroke-width="2px"/>
<path class="bond-0 atom-0 atom-1" d="m57.3 85.3 36 20.8" fill="none" stroke="#000" stroke-width="2px"/>
<path class="bond-1 atom-1 atom-2" d="m93.3 106.1v35.5" fill="none" stroke="#000" stroke-width="2px"/>
<path class="bond-1 atom-1 atom-2" d="m93.3 141.6v35.6" fill="none" stroke="#f00" stroke-width="2px"/>
<path class="bond-2 atom-1 atom-3" d="m93.3 106.1 30.4-17.5" fill="none" stroke="#000" stroke-width="2px"/>
<path class="bond-2 atom-1 atom-3" d="m123.7 88.6 30.3-17.6" fill="none" stroke="#f00" stroke-width="2px"/>
<path class="bond-3 atom-3 atom-4" d="m182.1 71 30.4 17.6" fill="none" stroke="#f00" stroke-width="2px"/>
<path class="bond-3 atom-3 atom-4" d="m212.5 88.6 30.3 17.5" fill="none" stroke="#000" stroke-width="2px"/>
<path class="atom-0" d="m14 60.2 3.6-3.7-4.8-0.9 0.7-2.5 4.4 2.2-0.6-4.8h2.6l-0.7 4.8 4.4-2.1 0.8 2.4-4.9 0.9 3.5 3.7-2.1 1.5-2.4-4.6-2.4 4.6-2.1-1.5" fill="#191919"/>
<path class="atom-2" d="m82.1 192.4q0-5.8 2.9-9.1t8.3-3.3 8.3 3.3 2.9 9.1q0 6-2.9 9.4-2.9 3.3-8.3 3.3t-8.3-3.3q-2.9-3.4-2.9-9.4m11.2 9.9q3.7 0 5.8-2.4 2-2.6 2-7.5 0-4.8-2-7.2-2.1-2.4-5.8-2.4t-5.7 2.4-2 7.2q0 5 2 7.5 2 2.4 5.7 2.4" fill="#f00"/>
<path class="atom-2" d="m108.3 180.3h3.4v10.4h12.5v-10.4h3.3v24.4h-3.3v-11.3h-12.5v11.3h-3.4v-24.4" fill="#f00"/>
<path class="atom-3" d="m156.8 63q0-5.9 2.9-9.2 2.9-3.2 8.4-3.2 5.4 0 8.3 3.2 2.9 3.3 2.9 9.2t-3 9.3q-2.9 3.4-8.2 3.4-5.4 0-8.4-3.4-2.9-3.3-2.9-9.3m11.3 9.9q3.7 0 5.7-2.5t2-7.4q0-4.8-2-7.2-2-2.5-5.7-2.5-3.8 0-5.8 2.4-2 2.5-2 7.3 0 4.9 2 7.4t5.8 2.5" fill="#f00"/>
</svg>
