<?xml version="1.0" encoding="UTF-8"?>
<svg width="256px" height="256px" baseProfile="full" version="1.1" viewBox="0 0 256 256" xml:space="preserve" xmlns="http://www.w3.org/2000/svg">

 <!-- END OF HEADER -->
<rect width="256" height="256" fill="#fff"> </rect>
<path class="bond-0 atom-0 atom-1" d="m25.3 123.3 22.7-13.1" fill="none" stroke="#191919" stroke-width="2px"/>
<path class="bond-0 atom-0 atom-1" d="m48 110.2 22.7-13.1" fill="none" stroke="#f00" stroke-width="2px"/>
<path class="bond-1 atom-1 atom-2" d="m95.2 97.1 21.7 12.6" fill="none" stroke="#f00" stroke-width="2px"/>
<path class="bond-1 atom-1 atom-2" d="m116.9 109.7 21.8 12.6" fill="none" stroke="#FF7F00" stroke-width="2px"/>
<path class="bond-2 atom-2 atom-3" d="m158.8 108.9 9.5-16.4" fill="none" stroke="#FF7F00" stroke-width="2px"/>
<path class="bond-2 atom-2 atom-3" d="m168.3 92.5 9.4-16.4" fill="none" stroke="#f00" stroke-width="2px"/>
<path class="bond-3 atom-2 atom-4" d="m140.4 140.8-11.2 19.3" fill="none" stroke="#FF7F00" stroke-width="2px"/>
<path class="bond-3 atom-2 atom-4" d="m129.2 160.1-11.1 19.4" fill="none" stroke="#f00" stroke-width="2px"/>
<path class="bond-4 atom-2 atom-5" d="m157.3 133 21.7 12.6" fill="none" stroke="#FF7F00" stroke-width="2px"/>
<path class="bond-4 atom-2 atom-5" d="m179 145.6 21.8 12.5" fill="none" stroke="#f00" stroke-width="2px"/>
<path class="atom-0" d="m13.8 125.3 3.1-3.2-4.1-0.9 0.6-2.1 3.8 1.9-0.5-4.2h2.3l-0.7 4.2 3.9-1.8 0.7 2-4.2 0.8 3 3.2-1.9 1.4-2-4-2.1 4-1.9-1.3" fill="#191919"/>
<path class="atom-1" d="m73.1 90.1q0-5.1 2.6-7.9 2.5-2.9 7.2-2.9t7.3 2.9q2.5 2.8 2.5 7.9 0 5.2-2.6 8.1-2.5 3-7.2 3t-7.2-3q-2.6-2.9-2.6-8.1m9.8 8.6q3.3 0 5-2.1 1.8-2.2 1.8-6.5 0-4.2-1.8-6.3-1.7-2.1-5-2.1-3.2 0-5 2.1t-1.8 6.3q0 4.3 1.8 6.5 1.8 2.1 5 2.1" fill="#f00"/>
<path class="atom-2" d="m147.5 117q3.6 0 5.4 1.6 1.9 1.7 1.9 4.6 0 3-1.9 4.7-1.9 1.6-5.4 1.6h-3.4v8.8h-2.9v-21.3h6.3m0 10.1q2.1 0 3.2-1t1.1-2.9q0-1.8-1.1-2.8t-3.2-1h-3.4v7.7h3.4" fill="#FF7F00"/>
<path class="atom-2" d="m139.7 93.6h2.8v9h10.9v-9h2.9v21.3h-2.9v-9.9h-10.9v9.9h-2.8v-21.3" fill="#FF7F00"/>
<path class="atom-3" d="m175.8 62.6q0-5.1 2.5-7.9 2.5-2.9 7.3-2.9 4.7 0 7.2 2.9 2.5 2.8 2.5 7.9 0 5.2-2.5 8.1-2.6 2.9-7.2 2.9-4.7 0-7.3-2.9-2.5-2.9-2.5-8.1m9.8 8.6q3.2 0 5-2.1 1.7-2.2 1.7-6.5 0-4.2-1.7-6.3-1.8-2.1-5-2.1-3.3 0-5.1 2.1-1.7 2.1-1.7 6.3 0 4.3 1.7 6.5 1.8 2.1 5.1 2.1" fill="#f00"/>
<path class="atom-3" d="m198.6 52h2.9v9.1h10.9v-9.1h2.9v21.3h-2.9v-9.8h-10.9v9.8h-2.9v-21.3" fill="#f00"/>
<path class="atom-4" d="m79.6 182.2h2.9v9h10.9v-9h2.9v21.3h-2.9v-9.9h-10.9v9.9h-2.9v-21.3" fill="#f00"/>
<path class="atom-4" d="m100.6 192.8q0-5.1 2.6-8 2.5-2.8 7.2-2.8t7.3 2.8q2.5 2.9 2.5 8t-2.6 8.1q-2.5 2.9-7.2 2.9t-7.2-2.9q-2.6-2.9-2.6-8.1m9.8 8.6q3.3 0 5-2.2 1.8-2.2 1.8-6.4t-1.8-6.3q-1.7-2.1-5-2.1-3.2 0-5 2.1-1.7 2.1-1.7 6.3 0 4.3 1.7 6.4 1.8 2.2 5 2.2" fill="#f00"/>
<path class="atom-5" d="m203.3 165.3q0-5.1 2.5-8t7.3-2.9q4.7 0 7.2 2.9t2.5 8-2.5 8.1q-2.6 2.9-7.2 2.9-4.7 0-7.3-2.9-2.5-2.9-2.5-8.1m9.8 8.6q3.2 0 5-2.2 1.7-2.2 1.7-6.4t-1.7-6.3q-1.8-2.1-5-2.1-3.3 0-5.1 2.1-1.7 2.1-1.7 6.3 0 4.3 1.7 6.4 1.8 2.2 5.1 2.2" fill="#f00"/>
<path class="atom-5" d="m226.1 154.7h2.9v9h10.9v-9h2.9v21.3h-2.9v-9.9h-10.9v9.9h-2.9v-21.3" fill="#f00"/>
</svg>
