<?xml version="1.0" encoding="UTF-8" standalone="no"?>
<!-- Created with Inkscape (http://www.inkscape.org/) -->

<svg
   version="1.1"
   id="svg53"
   xml:space="preserve"
   width="1108"
   height="361.33334"
   viewBox="0 0 1108 361.33334"
   xmlns="http://www.w3.org/2000/svg"
   xmlns:svg="http://www.w3.org/2000/svg"><defs
     id="defs57"><clipPath
       clipPathUnits="userSpaceOnUse"
       id="clipPath69"><path
         d="M 0,0 H 831 V 271 H 0 Z"
         id="path67" /></clipPath></defs><g
     id="g59"
     transform="matrix(1.3333333,0,0,-1.3333333,0,361.33333)"><g
       id="g61" /><g
       id="g63"><g
         id="g65"
         clip-path="url(#clipPath69)"><path
           d="m 203.6116,57.74321 c 1.0191,-3.05559 1.6582,-5.47496 1.9115,-7.25577 0.2545,-1.7855 -0.0856,-3.11891 -1.0191,-4.01723 -0.937,-0.88777 -2.5917,-1.43837 -4.9671,-1.65005 C 197.1603,44.61024 193.8883,44.5 189.731,44.5 c -4.3292,0 -7.7032,0.06333 -10.1243,0.19292 -2.4176,0.12724 -4.2682,0.37997 -5.5395,0.76287 -1.2783,0.37879 -2.1666,0.90946 -2.6762,1.59317 -0.5095,0.67491 -0.9347,1.5703 -1.2724,2.66975 L 159.0403,82.83112 H 97.14756 L 86.70428,50.6141 c -0.34069,-1.19151 -0.78692,-2.186 -1.33459,-2.99167 -0.55588,-0.81095 -1.44951,-1.44482 -2.67913,-1.9145 -1.23138,-0.46031 -2.97173,-0.78105 -5.21929,-0.94934 -2.25109,-0.17239 -5.20405,-0.258 -8.85187,-0.258 -3.90231,0 -6.962,0.12783 -9.16851,0.38348 -2.21121,0.25038 -3.73871,0.86783 -4.58426,1.84356 -0.84848,0.97924 -1.14518,2.35721 -0.89187,4.14213 0.25507,1.78315 0.89187,4.15268 1.90981,7.13028 L 106.6984,204.196 c 0.5095,1.4466 1.1024,2.6152 1.7837,3.5048 0.6773,0.8948 1.7586,1.5673 3.2462,2.0399 1.4812,0.4639 3.5446,0.7629 6.1739,0.8919 2.631,0.1273 6.1135,0.1894 10.4462,0.1894 5.0047,0 8.9961,-0.0621 11.9702,-0.1894 2.9706,-0.129 5.2855,-0.4286 6.9403,-0.8919 1.6559,-0.4732 2.8451,-1.1739 3.5675,-2.1021 0.7195,-0.94 1.3351,-2.2059 1.8447,-3.8214 z M 127.9661,178.6015 h -0.1296 L 104.5317,108.557 h 46.738 z"
           style="fill:#000000;fill-opacity:1;fill-rule:nonzero;stroke:none"
           id="path71" /><path
           d="m 0.5,269.9136 h 0.5863718 v 0.58637 H 0.5 Z"
           style="fill:#0094cc;fill-opacity:1;fill-rule:nonzero;stroke:none"
           id="path73" /><path
           d="m 146.676,108.557 c 1.191,1.015 2.3831,2.033 3.5722,3.0691 l -4.5168,13.5774 c -0.4374,-0.3952 -0.8673,-0.7898 -1.3076,-1.185 -6.0379,-5.4158 -12.0593,-10.5811 -17.9911,-15.4621 h 20.2433 z"
           style="fill:#00bdeb;fill-opacity:1;fill-rule:nonzero;stroke:none"
           id="path75" /><path
           d="m 55.88457,58.00004 2.11505,6.08478 c -7.46569,-2.71784 -12.92774,-3.16876 -15.62153,-0.89129 -9.72908,8.22739 20.17998,48.79257 66.80831,90.61027 46.623,41.8159 92.3095,69.0523 102.0398,60.822 7.6815,-6.4923 -9.3462,-33.137 -39.7842,-64.6369 l 4.8376,-13.8683 c 40.0809,40.856 61.0378,78.9409 47.794,90.133 C 208.703,239.2499 153.0792,211.07 99.84252,163.3194 46.60114,115.5718 15.90047,66.33179 31.27162,53.33838 c 4.51741,-3.81845 12.52783,-4.05769 22.91189,-1.31464 0.32602,1.61486 0.88542,3.59152 1.70106,5.9763 z"
           style="fill:#00bdeb;fill-opacity:1;fill-rule:nonzero;stroke:none"
           id="path77" /><path
           d="M 113.4458,82.83054 H 97.14756 L 92.83831,69.53808 c 6.62659,3.91285 13.53349,8.36987 20.60749,13.29246 z"
           style="fill:#00bdeb;fill-opacity:1;fill-rule:nonzero;stroke:none"
           id="path79" /><path
           d="m 54.56231,53.65209 c -4.86806,-1.35745 -9.24533,-2.07927 -13.00573,-2.07927 -4.33094,0 -7.67561,0.9722 -9.94428,2.88964 -2.29682,1.94089 -3.48833,4.87802 -3.54579,8.73107 -0.29612,20.21282 29.37078,61.11987 72.14189,99.47857 43.1945,38.7433 89.5578,65.8015 112.7458,65.8015 4.3304,0 7.6756,-0.9722 9.9431,-2.8897 2.2974,-1.942 3.4919,-4.8798 3.547,-8.7346 0.2463,-16.6371 -19.8164,-47.2914 -50.7669,-79.0054 l 0.8579,-2.4627 c 31.8241,32.4779 52.5137,64.176 52.2592,81.5021 -0.0686,4.5644 -1.5416,8.0949 -4.3808,10.4937 -2.7026,2.2857 -6.558,3.4444 -11.4595,3.4444 -23.717,0 -70.7252,-27.305 -114.31491,-66.4007 C 55.39964,125.6421 25.41259,84.00152 25.71868,63.15894 c 0.06684,-4.56256 1.53864,-8.09252 4.37726,-10.49078 2.70494,-2.28451 6.55974,-3.44435 11.46064,-3.44435 0.0018,0 0.0018,0 0.0018,0 3.63668,0 7.82396,0.64853 12.45805,1.87522 0.11728,0.75114 0.30081,1.60314 0.54592,2.55306 z"
           style="fill:#0094cc;fill-opacity:1;fill-rule:nonzero;stroke:none"
           id="path81" /><path
           d="m 127.5697,108.557 c 5.706,4.708 11.4688,9.657 17.2206,14.8141 0.4022,0.3606 0.7939,0.7195 1.1932,1.0789 l -0.8109,2.4346 c -0.6503,-0.5881 -1.293,-1.1762 -1.9491,-1.7643 -6.4706,-5.8028 -12.9506,-11.3434 -19.338,-16.5633 z"
           style="fill:#0094cc;fill-opacity:1;fill-rule:nonzero;stroke:none"
           id="path83" /><path
           d="m 144.1769,108.557 h 3.6314 c 0.8966,0.7676 1.7914,1.5474 2.6868,2.3261 l -0.8016,2.4106 c -1.8353,-1.6031 -3.676,-3.1781 -5.5166,-4.7367 z"
           style="fill:#0094cc;fill-opacity:1;fill-rule:nonzero;stroke:none"
           id="path85" /><path
           d="m 211.5675,215.7493 c -1.3686,1.1575 -3.3101,1.7444 -5.7699,1.7444 -16.2396,0 -57.3777,-26.3222 -97.8127,-62.5881 C 67.12649,118.2621 38.73848,82.48868 38.95192,67.91031 c 0.03518,-2.33963 0.7916,-4.1521 2.25049,-5.38641 1.36801,-1.1575 3.30831,-1.74387 5.76755,-1.74387 2.84332,0 6.46417,0.82326 10.69777,2.34959 l 0.96986,2.79523 c -4.68452,-1.81951 -8.6396,-2.79582 -11.66763,-2.79582 -1.88929,0 -3.31945,0.39991 -4.25119,1.18799 -0.92999,0.78691 -1.39322,1.97373 -1.41902,3.6273 -0.19937,13.72755 28.50588,49.56368 68.25255,85.21158 40.0468,35.9188 80.5252,61.9888 96.2447,61.9888 1.8898,0 3.32,-0.3999 4.2535,-1.1891 0.93,-0.7869 1.395,-1.9726 1.419,-3.6261 0.1501,-10.2727 -15.8883,-32.9283 -40.6267,-58.6196 l 0.8701,-2.4986 c 25.8555,26.6864 42.2669,50.0592 42.1045,61.1528 -0.0329,2.3402 -0.7911,4.1515 -2.2499,5.3852 z"
           style="fill:#0094cc;fill-opacity:1;fill-rule:nonzero;stroke:none"
           id="path87" /><path
           d="m 114.7211,82.83054 h -4.0858 C 104.8179,78.82738 99.10956,75.14203 93.57714,71.81496 l -1.07658,-3.31887 c 7.15725,4.20546 14.60884,9.00491 22.22054,14.33445 z"
           style="fill:#0094cc;fill-opacity:1;fill-rule:nonzero;stroke:none"
           id="path89" /><path
           d="m 109.3277,108.9399 c 0.1595,-0.1307 0.3172,-0.2539 0.4749,-0.3823 h 21.5257 c -4.6235,3.5305 -9.3133,7.2282 -14.0412,11.0859 -2.4082,1.9656 -4.7707,3.934 -7.1039,5.9013 l -4.5157,-13.5745 c 1.2138,-1.0121 2.4276,-2.0242 3.6602,-3.0304 z"
           style="fill:#00bdeb;fill-opacity:1;fill-rule:nonzero;stroke:none"
           id="path91" /><path
           d="m 159.0403,82.83054 h -14.2917 c 6.1716,-4.06063 12.1854,-7.74539 17.9899,-11.0537 z"
           style="fill:#00bdeb;fill-opacity:1;fill-rule:nonzero;stroke:none"
           id="path93" /><path
           d="M 147.1252,171.1886 C 91.71541,216.4019 38.31805,239.1191 27.86128,221.9168 19.82212,208.704 39.49548,175.774 74.16765,140.7177 l 8.97911,9.148 c -29.22419,28.3898 -46.73442,53.0679 -41.813,61.1586 6.62307,10.8872 51.32512,-12.3906 99.85034,-51.9848 48.5281,-39.6 82.5007,-80.52055 75.8777,-91.40655 -2.1063,-3.46194 -8.0744,-3.45724 -16.7802,-0.58285 l 3.2537,-9.33269 c 0.4891,-1.463 0.8843,-2.77178 1.1968,-3.94335 11.7826,-2.64337 20.248,-1.40788 23.7856,4.4101 10.4615,17.19828 -25.9851,67.79224 -81.3925,113.00444 z"
           style="fill:#00bdeb;fill-opacity:1;fill-rule:nonzero;stroke:none"
           id="path95" /><path
           d="m 129.8935,108.557 h 3.8642 c -5.1044,3.8701 -10.2768,7.933 -15.4714,12.1707 -2.5977,2.1198 -5.1208,4.2249 -7.6024,6.3194 l -0.7962,-2.3936 c 2.2921,-1.9344 4.5971,-3.8548 6.9145,-5.7459 4.3848,-3.5774 8.7574,-7.0288 13.0913,-10.3506 z"
           style="fill:#0094cc;fill-opacity:1;fill-rule:nonzero;stroke:none"
           id="path97" /><path
           d="m 163.1894,70.42819 -1.1604,3.46721 c -4.739,2.74071 -9.6018,5.72592 -14.5496,8.93514 h -4.3808 c 6.8887,-4.58015 13.6132,-8.73108 20.0908,-12.40235 z"
           style="fill:#0094cc;fill-opacity:1;fill-rule:nonzero;stroke:none"
           id="path99" /><path
           d="m 108.4153,108.557 h 3.7287 c -0.6063,0.489 -1.2114,0.9722 -1.8177,1.4659 -1.4015,1.1441 -2.7841,2.2939 -4.1603,3.4438 l -0.7963,-2.3889 c 1.0115,-0.8408 2.0212,-1.6823 3.0456,-2.5208 z"
           style="fill:#0094cc;fill-opacity:1;fill-rule:nonzero;stroke:none"
           id="path101" /><path
           d="m 148.2006,172.298 c -42.2416,34.4687 -84.14435,56.7408 -106.7525,56.7408 -6.9145,0 -11.71219,-2.1244 -14.25763,-6.3123 -8.42792,-13.8507 11.032,-46.9736 46.40957,-82.6379 l 1.65591,1.687 c -34.26991,34.5807 -53.84007,66.9431 -46.05891,79.7307 2.08982,3.4396 6.21202,5.1829 12.25106,5.1829 21.76026,0 64.0629,-22.5888 105.2678,-56.2107 54.8868,-44.7859 91.2817,-94.79818 81.1298,-111.48456 -2.091,-3.43673 -6.2097,-5.1806 -12.244,-5.1806 -0.001,0 -0.004,0 -0.004,0 -3.2937,5.9e-4 -7.0676,0.52598 -11.2279,1.52222 0.2815,-0.94581 0.5084,-1.79605 0.6966,-2.5859 3.8472,-0.83675 7.3836,-1.28415 10.5319,-1.28415 0,0 0.002,0 0.004,0 6.9104,0 11.7045,2.12208 14.2517,6.30936 10.9189,17.94767 -24.9471,68.25253 -81.6534,114.52313 z"
           style="fill:#0094cc;fill-opacity:1;fill-rule:nonzero;stroke:none"
           id="path103" /><path
           d="m 142.2589,160.1501 c -39.6352,32.3408 -78.40084,54.9284 -94.27217,54.9284 -3.55048,0 -6.01441,-1.0918 -7.32378,-3.2438 -5.69133,-9.355 14.05885,-35.3694 41.98363,-62.5313 l 1.59142,1.6201 c -30.2263,29.3579 -45.74111,52.8298 -41.5679,59.6909 0.85376,1.4032 2.64278,2.1145 5.31663,2.1145 15.3776,0 53.53337,-22.3695 92.78807,-54.3983 52.0851,-42.5037 81.1497,-80.79207 75.6167,-89.88669 -0.8543,-1.40378 -2.6433,-2.11446 -5.3184,-2.11446 -2.9688,0 -6.7913,0.84144 -11.2993,2.41526 l 0.9563,-2.74011 c 4.0671,-1.31758 7.5631,-2.02474 10.343,-2.02474 3.5517,0 6.0162,1.09123 7.325,3.24381 7.8369,12.87965 -32.5589,57.36243 -76.1392,92.92643 z"
           style="fill:#0094cc;fill-opacity:1;fill-rule:nonzero;stroke:none"
           id="path105" /><path
           d="m 37.76862,162.2652 c -5.07798,10.1389 -0.97807,22.4738 9.15913,27.5536 10.13895,5.0815 22.47563,0.978 27.55536,-9.1574 5.07916,-10.139 0.97925,-22.4756 -9.15736,-27.5548 -10.13954,-5.0803 -22.47739,-0.9786 -27.55713,9.1586 z"
           style="fill:#00bdeb;fill-opacity:1;fill-rule:nonzero;stroke:none"
           id="path107" /><path
           d="m 194.0209,193.5293 c -10.628,-7.5853 -25.387,-5.1178 -32.97,5.5096 -7.5853,10.6227 -5.1161,25.384 5.509,32.9676 10.6251,7.5835 25.387,5.1143 32.9688,-5.5114 7.5823,-10.6244 5.1143,-25.3858 -5.5078,-32.9658 z"
           style="fill:#00bdeb;fill-opacity:1;fill-rule:nonzero;stroke:none"
           id="path109" /><path
           d="m 190.624,200.2714 h -19.2447 v 3.7628 l 8.8824,10.0463 c 1.3263,1.5627 2.2675,2.8861 2.8263,3.9697 0.5599,1.083 0.8385,2.0769 0.8385,2.9835 0,1.1821 -0.2944,2.1279 -0.8878,2.8368 -0.5887,0.709 -1.4765,1.0637 -2.658,1.0637 -1.2472,0 -2.2124,-0.4538 -2.8961,-1.3604 -0.6825,-0.9047 -1.0238,-2.0546 -1.0238,-3.4467 h -5.5946 l -0.0387,0.1197 c -0.0651,2.5472 0.7752,4.7038 2.5208,6.4706 1.7468,1.7661 4.0911,2.6492 7.033,2.6492 2.9418,0 5.2257,-0.7517 6.8541,-2.2558 1.6272,-1.5034 2.4428,-3.5217 2.4428,-6.056 0,-1.7222 -0.4568,-3.2907 -1.3698,-4.7086 -0.9129,-1.4178 -2.485,-3.3816 -4.7185,-5.8901 l -4.7279,-5.672 0.0422,-0.0985 h 11.7192 v -4.4142 z"
           style="fill:#ffffff;fill-opacity:1;fill-rule:nonzero;stroke:none"
           id="path111" /><path
           d="m 56.1373,190.8467 c 7.38125,0 14.01898,-4.0958 17.32435,-10.6896 3.34936,-6.6852 2.43814,-14.3995 -1.68054,-20.0686 l 1.85704,-1.6963 c 4.86161,6.3891 5.75466,15.1682 1.92272,22.818 -3.7047,7.393 -11.14693,11.9855 -19.42357,11.9855 -3.32883,0 -6.5357,-0.757 -9.53968,-2.2323 l 1.18681,-2.0406 c 2.63633,1.266 5.44095,1.9239 8.35287,1.9239 z"
           style="fill:#0094cc;fill-opacity:1;fill-rule:nonzero;stroke:none"
           id="path113" /><path
           d="m 64.00465,153.7534 c -2.43227,-1.0561 -5.17532,-1.6301 -7.83041,-1.6301 -0.0018,0 -0.0018,0 -0.0018,0 -7.383,0 -14.02191,4.0969 -17.32552,10.6895 -3.40213,6.7949 -2.44811,14.6558 1.84296,20.3483 l -1.37621,1.9878 c -5.22458,-6.4231 -6.50873,-15.5166 -2.56597,-23.388 3.7047,-7.3924 11.14693,-11.9861 19.42474,-11.9861 0,0 0,0 0.0018,0 3.24792,0 6.37973,0.7324 9.32038,2.138 z"
           style="fill:#0094cc;fill-opacity:1;fill-rule:nonzero;stroke:none"
           id="path115" /><path
           d="m 203.7945,217.3917 -2.115,-0.3565 c 0.5025,-2.6006 0.5969,-5.4122 0.1477,-8.1037 -0.9898,-5.9176 -4.2224,-11.0947 -9.1046,-14.5795 -3.8342,-2.736 -8.3388,-4.1814 -13.0297,-4.1814 -6.4237,0 -12.7478,2.8152 -16.9819,7.5466 l -1.8096,-1.198 c 4.6886,-5.4796 11.5076,-8.697 18.7915,-8.697 5.1835,0 10.1606,1.5967 14.3936,4.6182 5.3929,3.8484 8.9639,9.5673 10.0563,16.1036 0.4996,2.9869 0.2152,5.9622 -0.3483,8.8477 z"
           style="fill:#0094cc;fill-opacity:1;fill-rule:nonzero;stroke:none"
           id="path117" /><path
           d="m 157.4928,216.2847 c 0.9898,5.9176 4.2225,11.0959 9.1058,14.5818 3.8308,2.7343 8.3365,4.1797 13.0274,4.1797 7.1649,0 13.9193,-3.4449 18.1389,-9.2131 l 2.4199,0.6269 c -0.1179,0.1753 -0.2175,0.36 -0.3424,0.533 -4.6476,6.514 -12.2042,10.4022 -20.2164,10.4022 -5.1835,0 -10.1595,-1.5961 -14.3901,-4.6171 -5.3952,-3.8501 -8.9662,-9.5702 -10.0586,-16.1064 -0.6503,-3.8924 -0.3542,-7.79 0.7869,-11.4501 l 2.0787,1.2736 c -0.889,3.1459 -1.1042,6.4694 -0.5501,9.7895 z"
           style="fill:#0094cc;fill-opacity:1;fill-rule:nonzero;stroke:none"
           id="path119" /><g
           id="g121"
           transform="matrix(1,0,0,-1,152,381)"><text
             transform="translate(68,336)"
             style="font-variant:normal;font-weight:bold;font-size:160px;font-family:'Helvetica Neue';-inkscape-font-specification:HelveticaNeue-Bold;writing-mode:lr-tb;fill:#000000;fill-opacity:1;fill-rule:nonzero;stroke:none"
             id="text125"><tspan
               x="0"
               y="0"
               id="tspan123">v</tspan></text></g><g
           id="g127"
           transform="matrix(1,0,0,-1,152,381)"><text
             transform="translate(143.2,336)"
             style="font-variant:normal;font-weight:bold;font-size:160px;font-family:'Helvetica Neue';-inkscape-font-specification:HelveticaNeue-Bold;writing-mode:lr-tb;fill:#000000;fill-opacity:1;fill-rule:nonzero;stroke:none"
             id="text131"><tspan
               x="0"
               y="0"
               id="tspan129">o</tspan></text></g><g
           id="g133"
           transform="matrix(1,0,0,-1,152,381)"><text
             transform="translate(237.96,336)"
             style="font-variant:normal;font-weight:bold;font-size:160px;font-family:'Helvetica Neue';-inkscape-font-specification:HelveticaNeue-Bold;writing-mode:lr-tb;fill:#000000;fill-opacity:1;fill-rule:nonzero;stroke:none"
             id="text137"><tspan
               x="0"
               y="0"
               id="tspan135">g</tspan></text></g><g
           id="g139"
           transform="matrix(1,0,0,-1,152,381)"><text
             transform="translate(333.72,336)"
             style="font-variant:normal;font-weight:bold;font-size:160px;font-family:'Helvetica Neue';-inkscape-font-specification:HelveticaNeue-Bold;writing-mode:lr-tb;fill:#000000;fill-opacity:1;fill-rule:nonzero;stroke:none"
             id="text143"><tspan
               x="0"
               y="0"
               id="tspan141">a</tspan></text></g><g
           id="g145"
           transform="matrix(1,0,0,-1,152,381)"><text
             transform="translate(422.56,336)"
             style="font-variant:normal;font-weight:bold;font-size:160px;font-family:'Helvetica Neue';-inkscape-font-specification:HelveticaNeue-Bold;writing-mode:lr-tb;fill:#000000;fill-opacity:1;fill-rule:nonzero;stroke:none"
             id="text149"><tspan
               x="0"
               y="0"
               id="tspan147">d</tspan></text></g><g
           id="g151"
           transform="matrix(1,0,0,-1,152,381)"><text
             transform="translate(518.32,336)"
             style="font-variant:normal;font-weight:bold;font-size:160px;font-family:'Helvetica Neue';-inkscape-font-specification:HelveticaNeue-Bold;writing-mode:lr-tb;fill:#000000;fill-opacity:1;fill-rule:nonzero;stroke:none"
             id="text155"><tspan
               x="0 58.368"
               y="0"
               id="tspan153">ro</tspan></text></g></g></g></g></svg>
