<svg height="128" viewBox="0 0 33.867 33.867" width="128" xmlns="http://www.w3.org/2000/svg"><g stroke="#000"><path d="m12.631 25.429c1.426.19 2.864.285 4.303.282 9.452 0 16.857-3.856 16.857-8.778s-7.405-8.778-16.857-8.778c-2.235-.009-4.464.219-6.65.683 1.349-4.678 3.822-7.826 6.65-7.826 1.513 0 2.992.94 4.256 2.68l-.843.607c-.128.091-.201.241-.195.398s.09.3.224.382l2.845 1.74c.037.021.083.021.119-.001.037-.022.059-.062.058-.105l-.211-3.792c-.009-.127-.085-.24-.201-.295-.115-.055-.251-.044-.355.03l-.683.493c-1.45-1.994-3.19-3.073-5.015-3.073-3.371 0-6.271 3.616-7.699 9.018-5.478 1.433-9.158 4.37-9.158 7.838.044 1.493.674 2.908 1.753 3.94l-.56.371c-.154.102-.233.286-.202.468s.167.329.346.375l4.214 1.071c.046.012.094-.006.122-.043.028-.038.032-.088.009-.129l-1.795-3.072c-.049-.087-.134-.15-.232-.172s-.201-.001-.282.058l-.843.552c-.968-.88-1.542-2.111-1.593-3.418 0-2.899 3.211-5.432 7.969-6.789-.483 2.231-.721 4.507-.712 6.789 0 9.452 3.793 16.857 8.664 16.857 2.668 0 5.141-2.301 6.781-6.321.097-.243-.022-.519-.266-.615-.243-.097-.519.022-.615.265-1.488 3.645-3.641 5.736-5.9 5.736-4.26 0-7.725-7.164-7.725-15.921-.009-2.378.261-4.748.805-7.063 2.269-.527 4.591-.788 6.92-.78 8.778 0 15.921 3.519 15.921 7.843s-7.143 7.843-15.921 7.843c-1.396.006-2.791-.079-4.176-.257-.256-.035-.492.144-.527.4s.144.492.4.527z" stroke-width=".048"/><g stroke-linecap="round" stroke-linejoin="round" stroke-width=".265"><path d="m25.863 4.961-4.673-2.594 4.583-2.75z" transform="matrix(1.009 .054 -.106 1.164 -2.27 .271)"/><path d="m2.249 18.785 2.617-2.569.917 3.551z" transform="matrix(-1.79 -1.004 -.646 .973 23.593 8.354)"/></g></g></svg>
