<?xml version="1.0" encoding="UTF-8" standalone="no"?>
<!-- Created with Inkscape (http://www.inkscape.org/) -->

<svg
   width="128"
   height="128"
   viewBox="0 0 33.866666 33.866666"
   version="1.1"
   id="svg1"
   xml:space="preserve"
   inkscape:version="1.3.2 (091e20ef0f, 2023-11-25)"
   sodipodi:docname="navigation_light.svg"
   xmlns:inkscape="http://www.inkscape.org/namespaces/inkscape"
   xmlns:sodipodi="http://sodipodi.sourceforge.net/DTD/sodipodi-0.dtd"
   xmlns="http://www.w3.org/2000/svg"
   xmlns:svg="http://www.w3.org/2000/svg"><sodipodi:namedview
     id="namedview1"
     pagecolor="#505050"
     bordercolor="#eeeeee"
     borderopacity="1"
     inkscape:showpageshadow="0"
     inkscape:pageopacity="0"
     inkscape:pagecheckerboard="0"
     inkscape:deskcolor="#505050"
     inkscape:document-units="px"
     inkscape:zoom="2.8284271"
     inkscape:cx="67.528698"
     inkscape:cy="62.225397"
     inkscape:window-width="1920"
     inkscape:window-height="978"
     inkscape:window-x="0"
     inkscape:window-y="0"
     inkscape:window-maximized="1"
     inkscape:current-layer="layer5" /><defs
     id="defs1"><inkscape:path-effect
       effect="spiro"
       id="path-effect63"
       is_visible="true"
       lpeversion="1" /><inkscape:path-effect
       effect="skeletal"
       id="path-effect62"
       is_visible="true"
       lpeversion="1"
       pattern="M 0,4.9921383 C 0,2.2364779 2.2364779,0 4.9921383,0 c 2.7556603,0 4.9921382,2.2364779 4.9921382,4.9921383 0,2.7556603 -2.2364779,4.9921382 -4.9921382,4.9921382 C 2.2364779,9.9842765 0,7.7477986 0,4.9921383 Z"
       copytype="single_stretched"
       prop_scale="1"
       scale_y_rel="false"
       spacing="0"
       normal_offset="0"
       tang_offset="0"
       prop_units="false"
       vertical_pattern="false"
       hide_knot="false"
       fuse_tolerance="0" /><inkscape:path-effect
       effect="spiro"
       id="path-effect61"
       is_visible="true"
       lpeversion="1" /><inkscape:path-effect
       effect="spiro"
       id="path-effect60"
       is_visible="true"
       lpeversion="1" /><inkscape:path-effect
       effect="spiro"
       id="path-effect59"
       is_visible="true"
       lpeversion="1" /><linearGradient
       id="linearGradient10"><stop
         style="stop-color:#c2c2c2;stop-opacity:1;"
         offset="0"
         id="stop9" /><stop
         style="stop-color:#000000;stop-opacity:1;"
         offset="1"
         id="stop10" /></linearGradient><linearGradient
       id="linearGradient1"><stop
         style="stop-color:#ece69f;stop-opacity:1;"
         offset="0"
         id="stop7" /><stop
         style="stop-color:#ffca00;stop-opacity:1;"
         offset="1"
         id="stop8" /></linearGradient><linearGradient
       id="linearGradient1-1"><stop
         style="stop-color:#c2c2c2;stop-opacity:1;"
         offset="0"
         id="stop4" /><stop
         style="stop-color:#7b7b7b;stop-opacity:1;"
         offset="1"
         id="stop5" /></linearGradient></defs><g
     inkscape:groupmode="layer"
     id="layer5"
     inkscape:label="Layer 4"
     style="display:inline"><path
       d="m 12.630587,25.428957 c 1.426235,0.190385 2.863789,0.284828 4.302643,0.282387 9.452366,0 16.856871,-3.855991 16.856871,-8.778089 0,-4.922111 -7.404505,-8.7781013 -16.856871,-8.7781013 -2.234642,-0.009 -4.46389,0.219179 -6.649793,0.682754 1.348548,-4.6777808 3.822318,-7.8259178 6.649793,-7.8259178 1.512976,0 2.992094,0.9397441 4.256358,2.6801445 l -0.842843,0.6069383 c -0.127552,0.09146 -0.20074,0.240817 -0.194721,0.3977187 0.006,0.1569017 0.09012,0.3002655 0.224254,0.38192 l 2.844573,1.7404393 c 0.03687,0.02144 0.08259,0.02106 0.119284,-7.49e-4 0.03687,-0.02183 0.05889,-0.06188 0.05776,-0.104636 L 23.187179,2.9210087 C 23.178479,2.7936374 23.101589,2.680941 22.986438,2.6260137 22.8713,2.5708547 22.73528,2.5822217 22.630864,2.6555957 L 21.948108,3.1486879 C 20.498322,1.1551855 18.757923,0.07644396 16.933432,0.07644396 c -3.371374,0 -6.270754,3.61575494 -7.6992532,9.01842774 -5.478483,1.4328363 -9.157614,4.3701653 -9.157614,7.8384353 0.04418,1.492659 0.673893,2.908198 1.753022,3.94028 l -0.560473,0.370811 c -0.153892,0.10231 -0.233092,0.285771 -0.202244,0.468083 0.031,0.182105 0.1665,0.329047 0.345608,0.374763 l 4.214215,1.0705 c 0.04572,0.01163 0.09369,-0.0064 0.122101,-0.0434 0.02841,-0.03759 0.03161,-0.08836 0.0085,-0.129438 l -1.79516,-3.072054 c -0.04948,-0.08745 -0.133766,-0.149746 -0.231774,-0.171577 -0.09805,-0.02157 -0.200746,-8.14e-4 -0.2824,0.05775 l -0.842847,0.551991 c -0.967776,-0.879546 -1.541773,-2.110875 -1.592916,-3.417658 0,-2.899336 3.21128,-5.432254 7.968954,-6.788991 -0.482732,2.230509 -0.721475,4.506954 -0.712082,6.788991 0,9.452369 3.7927942,16.856864 8.6644302,16.856864 2.667574,0 5.141342,-2.300861 6.780793,-6.321322 0.09651,-0.243259 -0.02239,-0.518709 -0.265644,-0.61518 -0.243072,-0.09676 -0.518711,0.02221 -0.61518,0.265452 -1.487593,3.645323 -3.64118,5.735671 -5.899904,5.735671 -4.260499,0 -7.7247782,-7.164167 -7.7247782,-15.921071 -0.0094,-2.377825 0.260756,-4.748338 0.8048442,-7.06302 2.268693,-0.5266143 4.590847,-0.7880873 6.919982,-0.7796653 8.778094,0 15.921068,3.5188573 15.921068,7.8427883 0,4.323932 -7.142974,7.842776 -15.921068,7.842776 -1.396326,0.0064 -2.791352,-0.07919 -4.176215,-0.25699 -0.256051,-0.03501 -0.491979,0.144294 -0.526801,0.400354 -0.035,0.256047 0.1443,0.491774 0.400351,0.526795 z"
       id="path1"
       style="fill:#000000;fill-opacity:1;stroke-width:0.0481625;stroke:#000000;stroke-opacity:1" /><path
       sodipodi:type="star"
       style="fill:#000000;fill-opacity:1;stroke:#000000;stroke-width:0.264583;stroke-linecap:round;stroke-linejoin:round;stroke-dasharray:none;stroke-opacity:1;paint-order:fill markers stroke"
       id="path2"
       inkscape:flatsided="true"
       sodipodi:sides="3"
       sodipodi:cx="24.27552"
       sodipodi:cy="2.315104"
       sodipodi:r1="3.0855455"
       sodipodi:r2="1.5427727"
       sodipodi:arg1="1.0303768"
       sodipodi:arg2="2.0775744"
       inkscape:rounded="0"
       inkscape:randomized="0"
       d="M 25.86302,4.9609374 21.190411,2.3670028 25.773129,-0.38262817 Z"
       inkscape:transform-center-x="0.50679057"
       inkscape:transform-center-y="0.062804818"
       transform="matrix(1.0094734,0.05369733,-0.10634633,1.1644076,-2.2702731,0.2706414)" /><path
       sodipodi:type="star"
       style="fill:#000000;fill-opacity:1;stroke:#000000;stroke-width:0.264541;stroke-linecap:round;stroke-linejoin:round;stroke-dasharray:none;stroke-opacity:1;paint-order:fill markers stroke"
       id="path3"
       inkscape:flatsided="true"
       sodipodi:sides="3"
       sodipodi:cx="4.299479"
       sodipodi:cy="18.25625"
       sodipodi:r1="2.1176999"
       sodipodi:r2="1.1947519"
       sodipodi:arg1="2.8890383"
       sodipodi:arg2="3.9362359"
       inkscape:rounded="0"
       inkscape:randomized="0"
       d="M 2.2489583,18.785417 4.8664675,16.215864 5.7830113,19.76747 Z"
       inkscape:transform-center-x="-0.1442533"
       inkscape:transform-center-y="0.39639956"
       transform="matrix(-1.7903414,-1.0042211,-0.64634443,0.97289323,23.593101,8.3543066)" /></g></svg>
