<?xml version="1.0" standalone="no" ?>
<!DOCTYPE svg PUBLIC "-//W3C//DTD SVG 1.1//EN" "http://www.w3.org/Graphics/SVG/1.1/DTD/svg11.dtd">
<svg width="34px" height="19px" viewBox="0 0 34 19" style="background-color: #ffffff00" xmlns="http://www.w3.org/2000/svg" xmlns:xlink="http://www.w3.org/1999/xlink" version="1.1" >
<path stroke="none" fill="#000000" transform="matrix(0.05 0 0 0.05 -181 -148)" d="M 3962,3156 L 3962,3144 L 4250,3144 L 4250,3156 L 3962,3156 Z " />
<path stroke="none" fill="#000000" transform="matrix(0.05 0 0 0.05 -181 -148)" d="M 3674,3156 L 3674,3144 L 3962,3144 L 3962,3156 L 3674,3156 Z " />
<path stroke="none" fill="#107f80" transform="matrix(0.05 0 0 0.05 -181 -148)" d="M 3832.4,3150 A 129.6,129.6 0 1 0 4091.6,3150A 129.6,129.6 0 1 0 3832.4,3150Z " />
<path stroke="none" fill="#1e8687" transform="matrix(0.05 0 0 0.05 -181 -148)" d="M 3833.9,3147.98 A 126.073,126.073 0 1 0 4086.05,3147.98A 126.073,126.073 0 1 0 3833.9,3147.98Z " />
<path stroke="none" fill="#2c8e8f" transform="matrix(0.05 0 0 0.05 -181 -148)" d="M 3835.4,3145.95 A 122.545,122.545 0 1 0 4080.5,3145.95A 122.545,122.545 0 1 0 3835.4,3145.95Z " />
<path stroke="none" fill="#3a9596" transform="matrix(0.05 0 0 0.05 -181 -148)" d="M 3836.91,3143.93 A 119.018,119.018 0 1 0 4074.94,3143.93A 119.018,119.018 0 1 0 3836.91,3143.93Z " />
<path stroke="none" fill="#489d9d" transform="matrix(0.05 0 0 0.05 -181 -148)" d="M 3838.41,3141.9 A 115.491,115.491 0 1 0 4069.39,3141.9A 115.491,115.491 0 1 0 3838.41,3141.9Z " />
<path stroke="none" fill="#54a3a4" transform="matrix(0.05 0 0 0.05 -181 -148)" d="M 3839.91,3139.88 A 111.963,111.963 0 1 0 4063.84,3139.88A 111.963,111.963 0 1 0 3839.91,3139.88Z " />
<path stroke="none" fill="#61aaab" transform="matrix(0.05 0 0 0.05 -181 -148)" d="M 3841.41,3137.85 A 108.436,108.436 0 1 0 4058.29,3137.85A 108.436,108.436 0 1 0 3841.41,3137.85Z " />
<path stroke="none" fill="#6db0b1" transform="matrix(0.05 0 0 0.05 -181 -148)" d="M 3842.92,3135.83 A 104.909,104.909 0 1 0 4052.73,3135.83A 104.909,104.909 0 1 0 3842.92,3135.83Z " />
<path stroke="none" fill="#78b7b7" transform="matrix(0.05 0 0 0.05 -181 -148)" d="M 3844.42,3133.8 A 101.381,101.381 0 1 0 4047.18,3133.8A 101.381,101.381 0 1 0 3844.42,3133.8Z " />
<path stroke="none" fill="#83bcbd" transform="matrix(0.05 0 0 0.05 -181 -148)" d="M 3845.92,3131.78 A 97.8538,97.8538 0 1 0 4041.63,3131.78A 97.8538,97.8538 0 1 0 3845.92,3131.78Z " />
<path stroke="none" fill="#8ec2c2" transform="matrix(0.05 0 0 0.05 -181 -148)" d="M 3847.42,3129.75 A 94.3265,94.3265 0 1 0 4036.08,3129.75A 94.3265,94.3265 0 1 0 3847.42,3129.75Z " />
<path stroke="none" fill="#98c7c8" transform="matrix(0.05 0 0 0.05 -181 -148)" d="M 3848.93,3127.73 A 90.7991,90.7991 0 1 0 4030.52,3127.73A 90.7991,90.7991 0 1 0 3848.93,3127.73Z " />
<path stroke="none" fill="#a1cdcd" transform="matrix(0.05 0 0 0.05 -181 -148)" d="M 3850.43,3125.7 A 87.2718,87.2718 0 1 0 4024.97,3125.7A 87.2718,87.2718 0 1 0 3850.43,3125.7Z " />
<path stroke="none" fill="#aad1d2" transform="matrix(0.05 0 0 0.05 -181 -148)" d="M 3851.93,3123.68 A 83.7444,83.7444 0 1 0 4019.42,3123.68A 83.7444,83.7444 0 1 0 3851.93,3123.68Z " />
<path stroke="none" fill="#b3d6d6" transform="matrix(0.05 0 0 0.05 -181 -148)" d="M 3853.43,3121.65 A 80.2171,80.2171 0 1 0 4013.87,3121.65A 80.2171,80.2171 0 1 0 3853.43,3121.65Z " />
<path stroke="none" fill="#bbdadb" transform="matrix(0.05 0 0 0.05 -181 -148)" d="M 3854.94,3119.63 A 76.6898,76.6898 0 1 0 4008.31,3119.63A 76.6898,76.6898 0 1 0 3854.94,3119.63Z " />
<path stroke="none" fill="#c3dfdf" transform="matrix(0.05 0 0 0.05 -181 -148)" d="M 3856.44,3117.6 A 73.1624,73.1624 0 1 0 4002.76,3117.6A 73.1624,73.1624 0 1 0 3856.44,3117.6Z " />
<path stroke="none" fill="#cae2e3" transform="matrix(0.05 0 0 0.05 -181 -148)" d="M 3857.94,3115.58 A 69.6351,69.6351 0 1 0 3997.21,3115.58A 69.6351,69.6351 0 1 0 3857.94,3115.58Z " />
<path stroke="none" fill="#d1e6e6" transform="matrix(0.05 0 0 0.05 -181 -148)" d="M 3859.44,3113.55 A 66.1077,66.1077 0 1 0 3991.66,3113.55A 66.1077,66.1077 0 1 0 3859.44,3113.55Z " />
<path stroke="none" fill="#d7e9ea" transform="matrix(0.05 0 0 0.05 -181 -148)" d="M 3860.94,3111.53 A 62.5804,62.5804 0 1 0 3986.11,3111.53A 62.5804,62.5804 0 1 0 3860.94,3111.53Z " />
<path stroke="none" fill="#ddeded" transform="matrix(0.05 0 0 0.05 -181 -148)" d="M 3862.45,3109.5 A 59.053,59.053 0 1 0 3980.55,3109.5A 59.053,59.053 0 1 0 3862.45,3109.5Z " />
<path stroke="none" fill="#e2efef" transform="matrix(0.05 0 0 0.05 -181 -148)" d="M 3863.95,3107.48 A 55.5257,55.5257 0 1 0 3975,3107.48A 55.5257,55.5257 0 1 0 3863.95,3107.48Z " />
<path stroke="none" fill="#e7f2f2" transform="matrix(0.05 0 0 0.05 -181 -148)" d="M 3865.45,3105.45 A 51.9984,51.9984 0 1 0 3969.45,3105.45A 51.9984,51.9984 0 1 0 3865.45,3105.45Z " />
<path stroke="none" fill="#ecf4f4" transform="matrix(0.05 0 0 0.05 -181 -148)" d="M 3866.95,3103.43 A 48.471,48.471 0 1 0 3963.9,3103.43A 48.471,48.471 0 1 0 3866.95,3103.43Z " />
<path stroke="none" fill="#f0f7f7" transform="matrix(0.05 0 0 0.05 -181 -148)" d="M 3868.46,3101.4 A 44.9437,44.9437 0 1 0 3958.34,3101.4A 44.9437,44.9437 0 1 0 3868.46,3101.4Z " />
<path stroke="none" fill="#f3f8f8" transform="matrix(0.05 0 0 0.05 -181 -148)" d="M 3869.96,3099.38 A 41.4163,41.4163 0 1 0 3952.79,3099.38A 41.4163,41.4163 0 1 0 3869.96,3099.38Z " />
<path stroke="none" fill="#f6fafa" transform="matrix(0.05 0 0 0.05 -181 -148)" d="M 3871.46,3097.35 A 37.889,37.889 0 1 0 3947.24,3097.35A 37.889,37.889 0 1 0 3871.46,3097.35Z " />
<path stroke="none" fill="#f9fbfb" transform="matrix(0.05 0 0 0.05 -181 -148)" d="M 3872.96,3095.33 A 34.3616,34.3616 0 1 0 3941.69,3095.33A 34.3616,34.3616 0 1 0 3872.96,3095.33Z " />
<path stroke="none" fill="#fbfdfd" transform="matrix(0.05 0 0 0.05 -181 -148)" d="M 3874.47,3093.3 A 30.8343,30.8343 0 1 0 3936.13,3093.3A 30.8343,30.8343 0 1 0 3874.47,3093.3Z " />
<path stroke="none" fill="#fcfdfd" transform="matrix(0.05 0 0 0.05 -181 -148)" d="M 3875.97,3091.28 A 27.3069,27.3069 0 1 0 3930.58,3091.28A 27.3069,27.3069 0 1 0 3875.97,3091.28Z " />
<path stroke="none" fill="#fefefe" transform="matrix(0.05 0 0 0.05 -181 -148)" d="M 3877.47,3089.25 A 23.7796,23.7796 0 1 0 3925.03,3089.25A 23.7796,23.7796 0 1 0 3877.47,3089.25Z " />
<path stroke="none" fill="#fefefe" transform="matrix(0.05 0 0 0.05 -181 -148)" d="M 3878.97,3087.23 A 20.2523,20.2523 0 1 0 3919.48,3087.23A 20.2523,20.2523 0 1 0 3878.97,3087.23Z " />
<path stroke="#107f80" stroke-width="12" fill="none" transform="matrix(0.05 0 0 0.05 -181 -148)" d="M 3832.4,3150 A 129.6,129.6 0 1 0 4091.6,3150A 129.6,129.6 0 1 0 3832.4,3150Z " />
</svg>
