<svg height="20" viewBox="0 0 33 20" width="33" xmlns="http://www.w3.org/2000/svg"><g transform="matrix(.05 0 0 .05 -191 -110)"><path d="m4151.61 2371.12-3.15 12.04h-286.12v-12.04z"/><path d="m4414.59 2495.15-30.01 51.95-236.12-163.94 3.15-12.04z"/><path d="m4420.98 2273.32 15.57 57.95-11.93 1.95-14.95-55.61z"/><path d="m4367.83 2293.5 12.62 46.95-11.93 1.95-11.99-44.6z"/><path d="m4314.69 2313.68 9.66 35.95-11.93 1.96-9.04-33.61z"/><path d="m4261.54 2333.86 6.71 24.96-11.93 1.95-6.08-22.61z"/><path d="m4208.4 2354.04 3.75 13.96-11.93 1.96-3.13-11.62z"/><path d="m4020.73 2377.14a129.586 129.586 0 1 0 259.17 0 129.586 129.586 0 1 0 -259.17 0z" fill="#108080"/><path d="m4022.23 2375.12a126.059 126.059 0 1 0 252.12 0 126.059 126.059 0 1 0 -252.12 0z" fill="#1e8787"/><path d="m4023.73 2373.09a122.531 122.531 0 1 0 245.06 0 122.531 122.531 0 1 0 -245.06 0z" fill="#2c8f8f"/><path d="m4025.23 2371.07a119.004 119.004 0 1 0 238.01 0 119.004 119.004 0 1 0 -238.01 0z" fill="#3a9696"/><path d="m4026.74 2369.04a115.477 115.477 0 1 0 230.95 0 115.477 115.477 0 1 0 -230.95 0z" fill="#489d9d"/><path d="m4028.24 2367.02a111.949 111.949 0 1 0 223.9 0 111.949 111.949 0 1 0 -223.9 0z" fill="#54a4a4"/><path d="m4029.74 2364.99a108.422 108.422 0 1 0 216.84 0 108.422 108.422 0 1 0 -216.84 0z" fill="#61abab"/><path d="m4031.24 2362.97a104.895 104.895 0 1 0 209.79 0 104.895 104.895 0 1 0 -209.79 0z" fill="#6db1b1"/><path d="m4032.75 2360.94a101.367 101.367 0 1 0 202.73 0 101.367 101.367 0 1 0 -202.73 0z" fill="#78b7b7"/><path d="m4034.25 2358.92a97.84 97.84 0 1 0 195.68 0 97.84 97.84 0 1 0 -195.68 0z" fill="#83bdbd"/><path d="m4035.75 2356.89a94.313 94.313 0 1 0 188.63 0 94.313 94.313 0 1 0 -188.63 0z" fill="#8ec2c2"/><path d="m4037.25 2354.87a90.785 90.785 0 1 0 181.57 0 90.785 90.785 0 1 0 -181.57 0z" fill="#98c8c8"/><path d="m4038.76 2352.84a87.258 87.258 0 1 0 174.51 0 87.258 87.258 0 1 0 -174.51 0z" fill="#a1cdcd"/><path d="m4040.26 2350.82a83.731 83.731 0 1 0 167.46 0 83.731 83.731 0 1 0 -167.46 0z" fill="#aad2d2"/><path d="m4041.76 2348.79a80.203 80.203 0 1 0 160.41 0 80.203 80.203 0 1 0 -160.41 0z" fill="#b3d6d6"/><path d="m4043.26 2346.77a76.676 76.676 0 1 0 153.36 0 76.676 76.676 0 1 0 -153.36 0z" fill="#bbdbdb"/><path d="m4044.77 2344.74a73.148 73.148 0 1 0 146.29 0 73.148 73.148 0 1 0 -146.29 0z" fill="#c3dfdf"/><path d="m4046.27 2342.72a69.621 69.621 0 1 0 139.24 0 69.621 69.621 0 1 0 -139.24 0z" fill="#cae3e3"/><path d="m4047.77 2340.69a66.094 66.094 0 1 0 132.19 0 66.094 66.094 0 1 0 -132.19 0z" fill="#d1e6e6"/><path d="m4049.27 2338.67a62.566 62.566 0 1 0 125.14 0 62.566 62.566 0 1 0 -125.14 0z" fill="#d7eaea"/><path d="m4050.78 2336.64a59.039 59.039 0 1 0 118.08 0 59.039 59.039 0 1 0 -118.08 0z" fill="#ddeded"/><path d="m4052.28 2334.62a55.512 55.512 0 1 0 111.02 0 55.512 55.512 0 1 0 -111.02 0z" fill="#e2efef"/><path d="m4053.78 2332.6a51.984 51.984 0 1 0 103.97 0 51.984 51.984 0 1 0 -103.97 0z" fill="#e7f2f2"/><path d="m4055.28 2330.57a48.457 48.457 0 1 0 96.92 0 48.457 48.457 0 1 0 -96.92 0z" fill="#ecf4f4"/><path d="m4056.79 2328.55a44.93 44.93 0 1 0 89.86 0 44.93 44.93 0 1 0 -89.86 0z" fill="#f0f7f7"/><path d="m4058.29 2326.52a41.402 41.402 0 1 0 82.8 0 41.402 41.402 0 1 0 -82.8 0z" fill="#f3f8f8"/><path d="m4059.79 2324.5a37.875 37.875 0 1 0 75.75 0 37.875 37.875 0 1 0 -75.75 0z" fill="#f6fafa"/><path d="m4061.29 2322.47a34.348 34.348 0 1 0 68.7 0 34.348 34.348 0 1 0 -68.7 0z" fill="#f9fbfb"/><path d="m4062.8 2320.45a30.82 30.82 0 1 0 61.64 0 30.82 30.82 0 1 0 -61.64 0z" fill="#fbfdfd"/><path d="m4064.3 2318.42a27.293 27.293 0 1 0 54.59 0 27.293 27.293 0 1 0 -54.59 0z" fill="#fcfdfd"/><path d="m4065.8 2316.4a23.766 23.766 0 1 0 47.53 0 23.766 23.766 0 1 0 -47.53 0z" fill="#fefefe"/><path d="m4067.31 2314.37a20.238 20.238 0 1 0 40.47 0 20.238 20.238 0 1 0 -40.47 0z" fill="#fefefe"/><path d="m4020.73 2377.14a129.586 129.586 0 1 0 259.17 0 129.586 129.586 0 1 0 -259.17 0z" fill="none" stroke="#108080" stroke-width="12"/></g></svg>
