<?xml version="1.0" standalone="no" ?>
<!DOCTYPE svg PUBLIC "-//W3C//DTD SVG 1.1//EN" "http://www.w3.org/Graphics/SVG/1.1/DTD/svg11.dtd">
<svg width="33px" height="20px" viewBox="0 0 33 20" style="background-color: #ffffff00" xmlns="http://www.w3.org/2000/svg" xmlns:xlink="http://www.w3.org/1999/xlink" version="1.1" >
<path stroke="none" fill="#000000" transform="matrix(0.05 0 0 0.05 -191 -110)" d="M 4151.61,2371.12 L 4148.46,2383.16 L 3862.34,2383.16 L 3862.34,2371.12 L 4151.61,2371.12 Z " />
<path stroke="none" fill="#000000" transform="matrix(0.05 0 0 0.05 -191 -110)" d="M 4414.59,2495.15 L 4384.58,2547.1 L 4148.46,2383.16 L 4151.61,2371.12 L 4414.59,2495.15 Z " />
<path stroke="none" fill="#000000" transform="matrix(0.05 0 0 0.05 -191 -110)" d="M 4420.98,2273.32 L 4436.55,2331.27 L 4424.62,2333.22 L 4409.67,2277.61 L 4420.98,2273.32 Z " />
<path stroke="none" fill="#000000" transform="matrix(0.05 0 0 0.05 -191 -110)" d="M 4367.83,2293.5 L 4380.45,2340.45 L 4368.52,2342.4 L 4356.53,2297.8 L 4367.83,2293.5 Z " />
<path stroke="none" fill="#000000" transform="matrix(0.05 0 0 0.05 -191 -110)" d="M 4314.69,2313.68 L 4324.35,2349.63 L 4312.42,2351.59 L 4303.38,2317.98 L 4314.69,2313.68 Z " />
<path stroke="none" fill="#000000" transform="matrix(0.05 0 0 0.05 -191 -110)" d="M 4261.54,2333.86 L 4268.25,2358.82 L 4256.32,2360.77 L 4250.24,2338.16 L 4261.54,2333.86 Z " />
<path stroke="none" fill="#000000" transform="matrix(0.05 0 0 0.05 -191 -110)" d="M 4208.4,2354.04 L 4212.15,2368 L 4200.22,2369.96 L 4197.09,2358.34 L 4208.4,2354.04 Z " />
<path stroke="none" fill="#108080" transform="matrix(0.05 0 0 0.05 -191 -110)" d="M 4020.73,2377.14 A 129.586,129.586 0 1 0 4279.9,2377.14A 129.586,129.586 0 1 0 4020.73,2377.14Z " />
<path stroke="none" fill="#1e8787" transform="matrix(0.05 0 0 0.05 -191 -110)" d="M 4022.23,2375.12 A 126.059,126.059 0 1 0 4274.35,2375.12A 126.059,126.059 0 1 0 4022.23,2375.12Z " />
<path stroke="none" fill="#2c8f8f" transform="matrix(0.05 0 0 0.05 -191 -110)" d="M 4023.73,2373.09 A 122.531,122.531 0 1 0 4268.79,2373.09A 122.531,122.531 0 1 0 4023.73,2373.09Z " />
<path stroke="none" fill="#3a9696" transform="matrix(0.05 0 0 0.05 -191 -110)" d="M 4025.23,2371.07 A 119.004,119.004 0 1 0 4263.24,2371.07A 119.004,119.004 0 1 0 4025.23,2371.07Z " />
<path stroke="none" fill="#489d9d" transform="matrix(0.05 0 0 0.05 -191 -110)" d="M 4026.74,2369.04 A 115.477,115.477 0 1 0 4257.69,2369.04A 115.477,115.477 0 1 0 4026.74,2369.04Z " />
<path stroke="none" fill="#54a4a4" transform="matrix(0.05 0 0 0.05 -191 -110)" d="M 4028.24,2367.02 A 111.949,111.949 0 1 0 4252.14,2367.02A 111.949,111.949 0 1 0 4028.24,2367.02Z " />
<path stroke="none" fill="#61abab" transform="matrix(0.05 0 0 0.05 -191 -110)" d="M 4029.74,2364.99 A 108.422,108.422 0 1 0 4246.58,2364.99A 108.422,108.422 0 1 0 4029.74,2364.99Z " />
<path stroke="none" fill="#6db1b1" transform="matrix(0.05 0 0 0.05 -191 -110)" d="M 4031.24,2362.97 A 104.895,104.895 0 1 0 4241.03,2362.97A 104.895,104.895 0 1 0 4031.24,2362.97Z " />
<path stroke="none" fill="#78b7b7" transform="matrix(0.05 0 0 0.05 -191 -110)" d="M 4032.75,2360.94 A 101.367,101.367 0 1 0 4235.48,2360.94A 101.367,101.367 0 1 0 4032.75,2360.94Z " />
<path stroke="none" fill="#83bdbd" transform="matrix(0.05 0 0 0.05 -191 -110)" d="M 4034.25,2358.92 A 97.8398,97.8398 0 1 0 4229.93,2358.92A 97.8398,97.8398 0 1 0 4034.25,2358.92Z " />
<path stroke="none" fill="#8ec2c2" transform="matrix(0.05 0 0 0.05 -191 -110)" d="M 4035.75,2356.89 A 94.3125,94.3125 0 1 0 4224.38,2356.89A 94.3125,94.3125 0 1 0 4035.75,2356.89Z " />
<path stroke="none" fill="#98c8c8" transform="matrix(0.05 0 0 0.05 -191 -110)" d="M 4037.25,2354.87 A 90.7852,90.7852 0 1 0 4218.82,2354.87A 90.7852,90.7852 0 1 0 4037.25,2354.87Z " />
<path stroke="none" fill="#a1cdcd" transform="matrix(0.05 0 0 0.05 -191 -110)" d="M 4038.76,2352.84 A 87.2578,87.2578 0 1 0 4213.27,2352.84A 87.2578,87.2578 0 1 0 4038.76,2352.84Z " />
<path stroke="none" fill="#aad2d2" transform="matrix(0.05 0 0 0.05 -191 -110)" d="M 4040.26,2350.82 A 83.7305,83.7305 0 1 0 4207.72,2350.82A 83.7305,83.7305 0 1 0 4040.26,2350.82Z " />
<path stroke="none" fill="#b3d6d6" transform="matrix(0.05 0 0 0.05 -191 -110)" d="M 4041.76,2348.79 A 80.2031,80.2031 0 1 0 4202.17,2348.79A 80.2031,80.2031 0 1 0 4041.76,2348.79Z " />
<path stroke="none" fill="#bbdbdb" transform="matrix(0.05 0 0 0.05 -191 -110)" d="M 4043.26,2346.77 A 76.6758,76.6758 0 1 0 4196.62,2346.77A 76.6758,76.6758 0 1 0 4043.26,2346.77Z " />
<path stroke="none" fill="#c3dfdf" transform="matrix(0.05 0 0 0.05 -191 -110)" d="M 4044.77,2344.74 A 73.1484,73.1484 0 1 0 4191.06,2344.74A 73.1484,73.1484 0 1 0 4044.77,2344.74Z " />
<path stroke="none" fill="#cae3e3" transform="matrix(0.05 0 0 0.05 -191 -110)" d="M 4046.27,2342.72 A 69.6211,69.6211 0 1 0 4185.51,2342.72A 69.6211,69.6211 0 1 0 4046.27,2342.72Z " />
<path stroke="none" fill="#d1e6e6" transform="matrix(0.05 0 0 0.05 -191 -110)" d="M 4047.77,2340.69 A 66.0938,66.0938 0 1 0 4179.96,2340.69A 66.0938,66.0938 0 1 0 4047.77,2340.69Z " />
<path stroke="none" fill="#d7eaea" transform="matrix(0.05 0 0 0.05 -191 -110)" d="M 4049.27,2338.67 A 62.5664,62.5664 0 1 0 4174.41,2338.67A 62.5664,62.5664 0 1 0 4049.27,2338.67Z " />
<path stroke="none" fill="#ddeded" transform="matrix(0.05 0 0 0.05 -191 -110)" d="M 4050.78,2336.64 A 59.0391,59.0391 0 1 0 4168.86,2336.64A 59.0391,59.0391 0 1 0 4050.78,2336.64Z " />
<path stroke="none" fill="#e2efef" transform="matrix(0.05 0 0 0.05 -191 -110)" d="M 4052.28,2334.62 A 55.5117,55.5117 0 1 0 4163.3,2334.62A 55.5117,55.5117 0 1 0 4052.28,2334.62Z " />
<path stroke="none" fill="#e7f2f2" transform="matrix(0.05 0 0 0.05 -191 -110)" d="M 4053.78,2332.6 A 51.9844,51.9844 0 1 0 4157.75,2332.6A 51.9844,51.9844 0 1 0 4053.78,2332.6Z " />
<path stroke="none" fill="#ecf4f4" transform="matrix(0.05 0 0 0.05 -191 -110)" d="M 4055.28,2330.57 A 48.457,48.457 0 1 0 4152.2,2330.57A 48.457,48.457 0 1 0 4055.28,2330.57Z " />
<path stroke="none" fill="#f0f7f7" transform="matrix(0.05 0 0 0.05 -191 -110)" d="M 4056.79,2328.55 A 44.9297,44.9297 0 1 0 4146.65,2328.55A 44.9297,44.9297 0 1 0 4056.79,2328.55Z " />
<path stroke="none" fill="#f3f8f8" transform="matrix(0.05 0 0 0.05 -191 -110)" d="M 4058.29,2326.52 A 41.4023,41.4023 0 1 0 4141.09,2326.52A 41.4023,41.4023 0 1 0 4058.29,2326.52Z " />
<path stroke="none" fill="#f6fafa" transform="matrix(0.05 0 0 0.05 -191 -110)" d="M 4059.79,2324.5 A 37.875,37.875 0 1 0 4135.54,2324.5A 37.875,37.875 0 1 0 4059.79,2324.5Z " />
<path stroke="none" fill="#f9fbfb" transform="matrix(0.05 0 0 0.05 -191 -110)" d="M 4061.29,2322.47 A 34.3477,34.3477 0 1 0 4129.99,2322.47A 34.3477,34.3477 0 1 0 4061.29,2322.47Z " />
<path stroke="none" fill="#fbfdfd" transform="matrix(0.05 0 0 0.05 -191 -110)" d="M 4062.8,2320.45 A 30.8203,30.8203 0 1 0 4124.44,2320.45A 30.8203,30.8203 0 1 0 4062.8,2320.45Z " />
<path stroke="none" fill="#fcfdfd" transform="matrix(0.05 0 0 0.05 -191 -110)" d="M 4064.3,2318.42 A 27.293,27.293 0 1 0 4118.89,2318.42A 27.293,27.293 0 1 0 4064.3,2318.42Z " />
<path stroke="none" fill="#fefefe" transform="matrix(0.05 0 0 0.05 -191 -110)" d="M 4065.8,2316.4 A 23.7656,23.7656 0 1 0 4113.33,2316.4A 23.7656,23.7656 0 1 0 4065.8,2316.4Z " />
<path stroke="none" fill="#fefefe" transform="matrix(0.05 0 0 0.05 -191 -110)" d="M 4067.31,2314.37 A 20.2383,20.2383 0 1 0 4107.78,2314.37A 20.2383,20.2383 0 1 0 4067.31,2314.37Z " />
<path stroke="#108080" stroke-width="12" fill="none" transform="matrix(0.05 0 0 0.05 -191 -110)" d="M 4020.73,2377.14 A 129.586,129.586 0 1 0 4279.9,2377.14A 129.586,129.586 0 1 0 4020.73,2377.14Z " />
</svg>
