<?xml version="1.0" standalone="no" ?>
<!DOCTYPE svg PUBLIC "-//W3C//DTD SVG 1.1//EN" "http://www.w3.org/Graphics/SVG/1.1/DTD/svg11.dtd">
<svg width="33px" height="19px" viewBox="0 0 33 19" style="background-color: #ffffff00" xmlns="http://www.w3.org/2000/svg" xmlns:xlink="http://www.w3.org/1999/xlink" version="1.1" >
<path stroke="none" fill="#000000" transform="matrix(0.05 0 0 0.05 -194 -126)" d="M 3956.84,2849.93 L 3931.84,2795.38 L 4215.46,2692.01 L 4215.36,2705.32 L 3956.84,2849.93 Z " />
<path stroke="none" fill="#000000" transform="matrix(0.05 0 0 0.05 -194 -126)" d="M 3956.22,2625.68 L 3978.77,2570.08 L 3989.42,2575.83 L 3967.87,2628.98 L 3956.22,2625.68 Z " />
<path stroke="none" fill="#000000" transform="matrix(0.05 0 0 0.05 -194 -126)" d="M 4005.94,2639.73 L 4024.23,2594.63 L 4034.88,2600.38 L 4017.59,2643.02 L 4005.94,2639.73 Z " />
<path stroke="none" fill="#000000" transform="matrix(0.05 0 0 0.05 -194 -126)" d="M 4055.65,2653.78 L 4069.69,2619.17 L 4080.34,2624.92 L 4067.3,2657.07 L 4055.65,2653.78 Z " />
<path stroke="none" fill="#000000" transform="matrix(0.05 0 0 0.05 -194 -126)" d="M 4105.37,2667.82 L 4115.14,2643.71 L 4125.8,2649.47 L 4117.02,2671.11 L 4105.37,2667.82 Z " />
<path stroke="none" fill="#000000" transform="matrix(0.05 0 0 0.05 -194 -126)" d="M 4155.08,2681.87 L 4160.6,2668.26 L 4171.25,2674.01 L 4166.73,2685.16 L 4155.08,2681.87 Z " />
<path stroke="none" fill="#000000" transform="matrix(0.05 0 0 0.05 -194 -126)" d="M 4452.08,2570.08 L 4474.62,2625.68 L 4462.97,2628.98 L 4441.43,2575.83 L 4452.08,2570.08 Z " />
<path stroke="none" fill="#000000" transform="matrix(0.05 0 0 0.05 -194 -126)" d="M 4406.62,2594.63 L 4424.91,2639.73 L 4413.26,2643.02 L 4395.97,2600.38 L 4406.62,2594.63 Z " />
<path stroke="none" fill="#000000" transform="matrix(0.05 0 0 0.05 -194 -126)" d="M 4361.16,2619.17 L 4375.19,2653.78 L 4363.54,2657.07 L 4350.51,2624.92 L 4361.16,2619.17 Z " />
<path stroke="none" fill="#000000" transform="matrix(0.05 0 0 0.05 -194 -126)" d="M 4315.7,2643.71 L 4325.47,2667.82 L 4313.83,2671.11 L 4305.05,2649.47 L 4315.7,2643.71 Z " />
<path stroke="none" fill="#000000" transform="matrix(0.05 0 0 0.05 -194 -126)" d="M 4270.24,2668.26 L 4275.76,2681.87 L 4264.11,2685.16 L 4259.59,2674.01 L 4270.24,2668.26 Z " />
<path stroke="none" fill="#000000" transform="matrix(0.05 0 0 0.05 -194 -126)" d="M 4488.15,2795.59 L 4462.26,2849.72 L 4215.36,2705.32 L 4215.46,2692.01 L 4488.15,2795.59 Z " />
<path stroke="none" fill="#108080" transform="matrix(0.05 0 0 0.05 -194 -126)" d="M 4085.84,2698.41 A 129.586,129.586 0 1 0 4345.01,2698.41A 129.586,129.586 0 1 0 4085.84,2698.41Z " />
<path stroke="none" fill="#1e8787" transform="matrix(0.05 0 0 0.05 -194 -126)" d="M 4087.34,2696.38 A 126.059,126.059 0 1 0 4339.46,2696.38A 126.059,126.059 0 1 0 4087.34,2696.38Z " />
<path stroke="none" fill="#2c8f8f" transform="matrix(0.05 0 0 0.05 -194 -126)" d="M 4088.84,2694.36 A 122.531,122.531 0 1 0 4333.9,2694.36A 122.531,122.531 0 1 0 4088.84,2694.36Z " />
<path stroke="none" fill="#3a9696" transform="matrix(0.05 0 0 0.05 -194 -126)" d="M 4090.34,2692.34 A 119.004,119.004 0 1 0 4328.35,2692.34A 119.004,119.004 0 1 0 4090.34,2692.34Z " />
<path stroke="none" fill="#489d9d" transform="matrix(0.05 0 0 0.05 -194 -126)" d="M 4091.85,2690.31 A 115.477,115.477 0 1 0 4322.8,2690.31A 115.477,115.477 0 1 0 4091.85,2690.31Z " />
<path stroke="none" fill="#54a4a4" transform="matrix(0.05 0 0 0.05 -194 -126)" d="M 4093.35,2688.29 A 111.949,111.949 0 1 0 4317.25,2688.29A 111.949,111.949 0 1 0 4093.35,2688.29Z " />
<path stroke="none" fill="#61abab" transform="matrix(0.05 0 0 0.05 -194 -126)" d="M 4094.85,2686.26 A 108.422,108.422 0 1 0 4311.7,2686.26A 108.422,108.422 0 1 0 4094.85,2686.26Z " />
<path stroke="none" fill="#6db1b1" transform="matrix(0.05 0 0 0.05 -194 -126)" d="M 4096.35,2684.24 A 104.895,104.895 0 1 0 4306.14,2684.24A 104.895,104.895 0 1 0 4096.35,2684.24Z " />
<path stroke="none" fill="#78b7b7" transform="matrix(0.05 0 0 0.05 -194 -126)" d="M 4097.86,2682.21 A 101.367,101.367 0 1 0 4300.59,2682.21A 101.367,101.367 0 1 0 4097.86,2682.21Z " />
<path stroke="none" fill="#83bdbd" transform="matrix(0.05 0 0 0.05 -194 -126)" d="M 4099.36,2680.19 A 97.8398,97.8398 0 1 0 4295.04,2680.19A 97.8398,97.8398 0 1 0 4099.36,2680.19Z " />
<path stroke="none" fill="#8ec2c2" transform="matrix(0.05 0 0 0.05 -194 -126)" d="M 4100.86,2678.16 A 94.3125,94.3125 0 1 0 4289.49,2678.16A 94.3125,94.3125 0 1 0 4100.86,2678.16Z " />
<path stroke="none" fill="#98c8c8" transform="matrix(0.05 0 0 0.05 -194 -126)" d="M 4102.36,2676.14 A 90.7852,90.7852 0 1 0 4283.93,2676.14A 90.7852,90.7852 0 1 0 4102.36,2676.14Z " />
<path stroke="none" fill="#a1cdcd" transform="matrix(0.05 0 0 0.05 -194 -126)" d="M 4103.87,2674.11 A 87.2578,87.2578 0 1 0 4278.38,2674.11A 87.2578,87.2578 0 1 0 4103.87,2674.11Z " />
<path stroke="none" fill="#aad2d2" transform="matrix(0.05 0 0 0.05 -194 -126)" d="M 4105.37,2672.09 A 83.7305,83.7305 0 1 0 4272.83,2672.09A 83.7305,83.7305 0 1 0 4105.37,2672.09Z " />
<path stroke="none" fill="#b3d6d6" transform="matrix(0.05 0 0 0.05 -194 -126)" d="M 4106.87,2670.06 A 80.2031,80.2031 0 1 0 4267.28,2670.06A 80.2031,80.2031 0 1 0 4106.87,2670.06Z " />
<path stroke="none" fill="#bbdbdb" transform="matrix(0.05 0 0 0.05 -194 -126)" d="M 4108.37,2668.04 A 76.6758,76.6758 0 1 0 4261.73,2668.04A 76.6758,76.6758 0 1 0 4108.37,2668.04Z " />
<path stroke="none" fill="#c3dfdf" transform="matrix(0.05 0 0 0.05 -194 -126)" d="M 4109.88,2666.01 A 73.1484,73.1484 0 1 0 4256.17,2666.01A 73.1484,73.1484 0 1 0 4109.88,2666.01Z " />
<path stroke="none" fill="#cae3e3" transform="matrix(0.05 0 0 0.05 -194 -126)" d="M 4111.38,2663.99 A 69.6211,69.6211 0 1 0 4250.62,2663.99A 69.6211,69.6211 0 1 0 4111.38,2663.99Z " />
<path stroke="none" fill="#d1e6e6" transform="matrix(0.05 0 0 0.05 -194 -126)" d="M 4112.88,2661.96 A 66.0938,66.0938 0 1 0 4245.07,2661.96A 66.0938,66.0938 0 1 0 4112.88,2661.96Z " />
<path stroke="none" fill="#d7eaea" transform="matrix(0.05 0 0 0.05 -194 -126)" d="M 4114.38,2659.94 A 62.5664,62.5664 0 1 0 4239.52,2659.94A 62.5664,62.5664 0 1 0 4114.38,2659.94Z " />
<path stroke="none" fill="#ddeded" transform="matrix(0.05 0 0 0.05 -194 -126)" d="M 4115.89,2657.91 A 59.0391,59.0391 0 1 0 4233.97,2657.91A 59.0391,59.0391 0 1 0 4115.89,2657.91Z " />
<path stroke="none" fill="#e2efef" transform="matrix(0.05 0 0 0.05 -194 -126)" d="M 4117.39,2655.89 A 55.5117,55.5117 0 1 0 4228.41,2655.89A 55.5117,55.5117 0 1 0 4117.39,2655.89Z " />
<path stroke="none" fill="#e7f2f2" transform="matrix(0.05 0 0 0.05 -194 -126)" d="M 4118.89,2653.86 A 51.9844,51.9844 0 1 0 4222.86,2653.86A 51.9844,51.9844 0 1 0 4118.89,2653.86Z " />
<path stroke="none" fill="#ecf4f4" transform="matrix(0.05 0 0 0.05 -194 -126)" d="M 4120.39,2651.84 A 48.457,48.457 0 1 0 4217.31,2651.84A 48.457,48.457 0 1 0 4120.39,2651.84Z " />
<path stroke="none" fill="#f0f7f7" transform="matrix(0.05 0 0 0.05 -194 -126)" d="M 4121.9,2649.81 A 44.9297,44.9297 0 1 0 4211.76,2649.81A 44.9297,44.9297 0 1 0 4121.9,2649.81Z " />
<path stroke="none" fill="#f3f8f8" transform="matrix(0.05 0 0 0.05 -194 -126)" d="M 4123.4,2647.79 A 41.4023,41.4023 0 1 0 4206.2,2647.79A 41.4023,41.4023 0 1 0 4123.4,2647.79Z " />
<path stroke="none" fill="#f6fafa" transform="matrix(0.05 0 0 0.05 -194 -126)" d="M 4124.9,2645.77 A 37.875,37.875 0 1 0 4200.65,2645.77A 37.875,37.875 0 1 0 4124.9,2645.77Z " />
<path stroke="none" fill="#f9fbfb" transform="matrix(0.05 0 0 0.05 -194 -126)" d="M 4126.41,2643.74 A 34.3477,34.3477 0 1 0 4195.1,2643.74A 34.3477,34.3477 0 1 0 4126.41,2643.74Z " />
<path stroke="none" fill="#fbfdfd" transform="matrix(0.05 0 0 0.05 -194 -126)" d="M 4127.91,2641.72 A 30.8203,30.8203 0 1 0 4189.55,2641.72A 30.8203,30.8203 0 1 0 4127.91,2641.72Z " />
<path stroke="none" fill="#fcfdfd" transform="matrix(0.05 0 0 0.05 -194 -126)" d="M 4129.41,2639.69 A 27.293,27.293 0 1 0 4184,2639.69A 27.293,27.293 0 1 0 4129.41,2639.69Z " />
<path stroke="none" fill="#fefefe" transform="matrix(0.05 0 0 0.05 -194 -126)" d="M 4130.91,2637.67 A 23.7656,23.7656 0 1 0 4178.44,2637.67A 23.7656,23.7656 0 1 0 4130.91,2637.67Z " />
<path stroke="none" fill="#fefefe" transform="matrix(0.05 0 0 0.05 -194 -126)" d="M 4132.42,2635.64 A 20.2383,20.2383 0 1 0 4172.89,2635.64A 20.2383,20.2383 0 1 0 4132.42,2635.64Z " />
<path stroke="#108080" stroke-width="12" fill="none" transform="matrix(0.05 0 0 0.05 -194 -126)" d="M 4085.84,2698.41 A 129.586,129.586 0 1 0 4345.01,2698.41A 129.586,129.586 0 1 0 4085.84,2698.41Z " />
</svg>
