<svg height="19" viewBox="0 0 33 19" width="33" xmlns="http://www.w3.org/2000/svg"><g transform="matrix(.05 0 0 .05 -194 -126)"><path d="m3956.84 2849.93-25-54.55 283.62-103.37-.1 13.31z"/><path d="m3956.22 2625.68 22.55-55.6 10.65 5.75-21.55 53.15z"/><path d="m4005.94 2639.73 18.29-45.1 10.65 5.75-17.29 42.64z"/><path d="m4055.65 2653.78 14.04-34.61 10.65 5.75-13.04 32.15z"/><path d="m4105.37 2667.82 9.77-24.11 10.66 5.76-8.78 21.64z"/><path d="m4155.08 2681.87 5.52-13.61 10.65 5.75-4.52 11.15z"/><path d="m4452.08 2570.08 22.54 55.6-11.65 3.3-21.54-53.15z"/><path d="m4406.62 2594.63 18.29 45.1-11.65 3.29-17.29-42.64z"/><path d="m4361.16 2619.17 14.03 34.61-11.65 3.29-13.03-32.15z"/><path d="m4315.7 2643.71 9.77 24.11-11.64 3.29-8.78-21.64z"/><path d="m4270.24 2668.26 5.52 13.61-11.65 3.29-4.52-11.15z"/><path d="m4488.15 2795.59-25.89 54.13-246.9-144.4.1-13.31z"/><path d="m4085.84 2698.41a129.586 129.586 0 1 0 259.17 0 129.586 129.586 0 1 0 -259.17 0z" fill="#108080"/><path d="m4087.34 2696.38a126.059 126.059 0 1 0 252.12 0 126.059 126.059 0 1 0 -252.12 0z" fill="#1e8787"/><path d="m4088.84 2694.36a122.531 122.531 0 1 0 245.06 0 122.531 122.531 0 1 0 -245.06 0z" fill="#2c8f8f"/><path d="m4090.34 2692.34a119.004 119.004 0 1 0 238.01 0 119.004 119.004 0 1 0 -238.01 0z" fill="#3a9696"/><path d="m4091.85 2690.31a115.477 115.477 0 1 0 230.95 0 115.477 115.477 0 1 0 -230.95 0z" fill="#489d9d"/><path d="m4093.35 2688.29a111.949 111.949 0 1 0 223.9 0 111.949 111.949 0 1 0 -223.9 0z" fill="#54a4a4"/><path d="m4094.85 2686.26a108.422 108.422 0 1 0 216.85 0 108.422 108.422 0 1 0 -216.85 0z" fill="#61abab"/><path d="m4096.35 2684.24a104.895 104.895 0 1 0 209.79 0 104.895 104.895 0 1 0 -209.79 0z" fill="#6db1b1"/><path d="m4097.86 2682.21a101.367 101.367 0 1 0 202.73 0 101.367 101.367 0 1 0 -202.73 0z" fill="#78b7b7"/><path d="m4099.36 2680.19a97.84 97.84 0 1 0 195.68 0 97.84 97.84 0 1 0 -195.68 0z" fill="#83bdbd"/><path d="m4100.86 2678.16a94.313 94.313 0 1 0 188.63 0 94.313 94.313 0 1 0 -188.63 0z" fill="#8ec2c2"/><path d="m4102.36 2676.14a90.785 90.785 0 1 0 181.57 0 90.785 90.785 0 1 0 -181.57 0z" fill="#98c8c8"/><path d="m4103.87 2674.11a87.258 87.258 0 1 0 174.51 0 87.258 87.258 0 1 0 -174.51 0z" fill="#a1cdcd"/><path d="m4105.37 2672.09a83.731 83.731 0 1 0 167.46 0 83.731 83.731 0 1 0 -167.46 0z" fill="#aad2d2"/><path d="m4106.87 2670.06a80.203 80.203 0 1 0 160.41 0 80.203 80.203 0 1 0 -160.41 0z" fill="#b3d6d6"/><path d="m4108.37 2668.04a76.676 76.676 0 1 0 153.36 0 76.676 76.676 0 1 0 -153.36 0z" fill="#bbdbdb"/><path d="m4109.88 2666.01a73.148 73.148 0 1 0 146.29 0 73.148 73.148 0 1 0 -146.29 0z" fill="#c3dfdf"/><path d="m4111.38 2663.99a69.621 69.621 0 1 0 139.24 0 69.621 69.621 0 1 0 -139.24 0z" fill="#cae3e3"/><path d="m4112.88 2661.96a66.094 66.094 0 1 0 132.19 0 66.094 66.094 0 1 0 -132.19 0z" fill="#d1e6e6"/><path d="m4114.38 2659.94a62.566 62.566 0 1 0 125.14 0 62.566 62.566 0 1 0 -125.14 0z" fill="#d7eaea"/><path d="m4115.89 2657.91a59.039 59.039 0 1 0 118.08 0 59.039 59.039 0 1 0 -118.08 0z" fill="#ddeded"/><path d="m4117.39 2655.89a55.512 55.512 0 1 0 111.02 0 55.512 55.512 0 1 0 -111.02 0z" fill="#e2efef"/><path d="m4118.89 2653.86a51.984 51.984 0 1 0 103.97 0 51.984 51.984 0 1 0 -103.97 0z" fill="#e7f2f2"/><path d="m4120.39 2651.84a48.457 48.457 0 1 0 96.92 0 48.457 48.457 0 1 0 -96.92 0z" fill="#ecf4f4"/><path d="m4121.9 2649.81a44.93 44.93 0 1 0 89.86 0 44.93 44.93 0 1 0 -89.86 0z" fill="#f0f7f7"/><path d="m4123.4 2647.79a41.402 41.402 0 1 0 82.8 0 41.402 41.402 0 1 0 -82.8 0z" fill="#f3f8f8"/><path d="m4124.9 2645.77a37.875 37.875 0 1 0 75.75 0 37.875 37.875 0 1 0 -75.75 0z" fill="#f6fafa"/><path d="m4126.41 2643.74a34.348 34.348 0 1 0 68.69 0 34.348 34.348 0 1 0 -68.69 0z" fill="#f9fbfb"/><path d="m4127.91 2641.72a30.82 30.82 0 1 0 61.64 0 30.82 30.82 0 1 0 -61.64 0z" fill="#fbfdfd"/><path d="m4129.41 2639.69a27.293 27.293 0 1 0 54.59 0 27.293 27.293 0 1 0 -54.59 0z" fill="#fcfdfd"/><path d="m4130.91 2637.67a23.766 23.766 0 1 0 47.53 0 23.766 23.766 0 1 0 -47.53 0z" fill="#fefefe"/><path d="m4132.42 2635.64a20.238 20.238 0 1 0 40.47 0 20.238 20.238 0 1 0 -40.47 0z" fill="#fefefe"/><path d="m4085.84 2698.41a129.586 129.586 0 1 0 259.17 0 129.586 129.586 0 1 0 -259.17 0z" fill="none" stroke="#108080" stroke-width="12"/></g></svg>
