<svg height="31" viewBox="0 0 31 31" width="31" xmlns="http://www.w3.org/2000/svg"><g transform="matrix(.05 0 0 .05 -180 -122)"><path d="m3898.41 2777.31-6.02 2.76-6.01-3.47v-284.5h12.03z"/><path d="m3646.13 2929.26-6.02-10.41 246.27-142.25 6.01 3.47-1.32 7.71z"/><path d="m4117.21 2962.47-42.42 42.42-183.72-217.11 1.32-7.71 6.02-2.76z"/><path d="m4178.64 2825.95-15.58 57.94-11.3-4.29 14.94-55.61z"/><path d="m4122.53 2816.76-12.61 46.95-11.31-4.29 11.99-44.61z"/><path d="m4066.43 2807.58-9.66 35.95-11.3-4.29 9.03-33.62z"/><path d="m4010.33 2798.39-6.71 24.96-11.3-4.3 6.08-22.61z"/><path d="m3954.23 2789.21-3.75 13.96-11.31-4.3 3.13-11.61z"/><path d="m3762.81 2780.07a129.586 129.586 0 1 0 259.17 0 129.586 129.586 0 1 0 -259.17 0z" fill="#108080"/><path d="m3764.31 2778.05a126.059 126.059 0 1 0 252.12 0 126.059 126.059 0 1 0 -252.12 0z" fill="#1e8787"/><path d="m3765.81 2776.02a122.531 122.531 0 1 0 245.07 0 122.531 122.531 0 1 0 -245.07 0z" fill="#2c8f8f"/><path d="m3767.32 2774a119.004 119.004 0 1 0 238 0 119.004 119.004 0 1 0 -238 0z" fill="#3a9696"/><path d="m3768.82 2771.97a115.477 115.477 0 1 0 230.95 0 115.477 115.477 0 1 0 -230.95 0z" fill="#489d9d"/><path d="m3770.32 2769.95a111.949 111.949 0 1 0 223.9 0 111.949 111.949 0 1 0 -223.9 0z" fill="#54a4a4"/><path d="m3771.82 2767.92a108.422 108.422 0 1 0 216.85 0 108.422 108.422 0 1 0 -216.85 0z" fill="#61abab"/><path d="m3773.33 2765.9a104.895 104.895 0 1 0 209.78 0 104.895 104.895 0 1 0 -209.78 0z" fill="#6db1b1"/><path d="m3774.83 2763.87a101.367 101.367 0 1 0 202.73 0 101.367 101.367 0 1 0 -202.73 0z" fill="#78b7b7"/><path d="m3776.33 2761.85a97.84 97.84 0 1 0 195.68 0 97.84 97.84 0 1 0 -195.68 0z" fill="#83bdbd"/><path d="m3777.83 2759.82a94.313 94.313 0 1 0 188.63 0 94.313 94.313 0 1 0 -188.63 0z" fill="#8ec2c2"/><path d="m3779.34 2757.8a90.785 90.785 0 1 0 181.57 0 90.785 90.785 0 1 0 -181.57 0z" fill="#98c8c8"/><path d="m3780.84 2755.77a87.258 87.258 0 1 0 174.51 0 87.258 87.258 0 1 0 -174.51 0z" fill="#a1cdcd"/><path d="m3782.34 2753.75a83.731 83.731 0 1 0 167.46 0 83.731 83.731 0 1 0 -167.46 0z" fill="#aad2d2"/><path d="m3783.84 2751.72a80.203 80.203 0 1 0 160.41 0 80.203 80.203 0 1 0 -160.41 0z" fill="#b3d6d6"/><path d="m3785.35 2749.7a76.676 76.676 0 1 0 153.35 0 76.676 76.676 0 1 0 -153.35 0z" fill="#bbdbdb"/><path d="m3786.85 2747.67a73.148 73.148 0 1 0 146.3 0 73.148 73.148 0 1 0 -146.3 0z" fill="#c3dfdf"/><path d="m3788.35 2745.65a69.621 69.621 0 1 0 139.24 0 69.621 69.621 0 1 0 -139.24 0z" fill="#cae3e3"/><path d="m3789.85 2743.62a66.094 66.094 0 1 0 132.19 0 66.094 66.094 0 1 0 -132.19 0z" fill="#d1e6e6"/><path d="m3791.36 2741.6a62.566 62.566 0 1 0 125.13 0 62.566 62.566 0 1 0 -125.13 0z" fill="#d7eaea"/><path d="m3792.86 2739.58a59.039 59.039 0 1 0 118.08 0 59.039 59.039 0 1 0 -118.08 0z" fill="#ddeded"/><path d="m3794.36 2737.55a55.512 55.512 0 1 0 111.02 0 55.512 55.512 0 1 0 -111.02 0z" fill="#e2efef"/><path d="m3795.86 2735.53a51.984 51.984 0 1 0 103.97 0 51.984 51.984 0 1 0 -103.97 0z" fill="#e7f2f2"/><path d="m3797.37 2733.5a48.457 48.457 0 1 0 96.91 0 48.457 48.457 0 1 0 -96.91 0z" fill="#ecf4f4"/><path d="m3798.87 2731.48a44.93 44.93 0 1 0 89.86 0 44.93 44.93 0 1 0 -89.86 0z" fill="#f0f7f7"/><path d="m3800.37 2729.45a41.402 41.402 0 1 0 82.81 0 41.402 41.402 0 1 0 -82.81 0z" fill="#f3f8f8"/><path d="m3801.87 2727.43a37.875 37.875 0 1 0 75.75 0 37.875 37.875 0 1 0 -75.75 0z" fill="#f6fafa"/><path d="m3803.38 2725.4a34.348 34.348 0 1 0 68.69 0 34.348 34.348 0 1 0 -68.69 0z" fill="#f9fbfb"/><path d="m3804.88 2723.38a30.82 30.82 0 1 0 61.64 0 30.82 30.82 0 1 0 -61.64 0z" fill="#fbfdfd"/><path d="m3806.38 2721.35a27.293 27.293 0 1 0 54.59 0 27.293 27.293 0 1 0 -54.59 0z" fill="#fcfdfd"/><path d="m3807.88 2719.33a23.766 23.766 0 1 0 47.54 0 23.766 23.766 0 1 0 -47.54 0z" fill="#fefefe"/><path d="m3809.39 2717.3a20.238 20.238 0 1 0 40.47 0 20.238 20.238 0 1 0 -40.47 0z" fill="#fefefe"/><path d="m3762.81 2780.07a129.586 129.586 0 1 0 259.17 0 129.586 129.586 0 1 0 -259.17 0z" fill="none" stroke="#108080" stroke-width="12"/></g></svg>
