<?xml version="1.0" standalone="no" ?>
<!DOCTYPE svg PUBLIC "-//W3C//DTD SVG 1.1//EN" "http://www.w3.org/Graphics/SVG/1.1/DTD/svg11.dtd">
<svg width="31px" height="31px" viewBox="0 0 31 31" style="background-color: #ffffff00" xmlns="http://www.w3.org/2000/svg" xmlns:xlink="http://www.w3.org/1999/xlink" version="1.1" >
<path stroke="none" fill="#000000" transform="matrix(0.05 0 0 0.05 -180 -122)" d="M 3898.41,2777.31 L 3892.39,2780.07 L 3886.38,2776.6 L 3886.38,2492.1 L 3898.41,2492.1 L 3898.41,2777.31 Z " />
<path stroke="none" fill="#000000" transform="matrix(0.05 0 0 0.05 -180 -122)" d="M 3646.13,2929.26 L 3640.11,2918.85 L 3886.38,2776.6 L 3892.39,2780.07 L 3891.07,2787.78 L 3646.13,2929.26 Z " />
<path stroke="none" fill="#000000" transform="matrix(0.05 0 0 0.05 -180 -122)" d="M 4117.21,2962.47 L 4074.79,3004.89 L 3891.07,2787.78 L 3892.39,2780.07 L 3898.41,2777.31 L 4117.21,2962.47 Z " />
<path stroke="none" fill="#000000" transform="matrix(0.05 0 0 0.05 -180 -122)" d="M 4178.64,2825.95 L 4163.06,2883.89 L 4151.76,2879.6 L 4166.7,2823.99 L 4178.64,2825.95 Z " />
<path stroke="none" fill="#000000" transform="matrix(0.05 0 0 0.05 -180 -122)" d="M 4122.53,2816.76 L 4109.92,2863.71 L 4098.61,2859.42 L 4110.6,2814.81 L 4122.53,2816.76 Z " />
<path stroke="none" fill="#000000" transform="matrix(0.05 0 0 0.05 -180 -122)" d="M 4066.43,2807.58 L 4056.77,2843.53 L 4045.47,2839.24 L 4054.5,2805.62 L 4066.43,2807.58 Z " />
<path stroke="none" fill="#000000" transform="matrix(0.05 0 0 0.05 -180 -122)" d="M 4010.33,2798.39 L 4003.62,2823.35 L 3992.32,2819.05 L 3998.4,2796.44 L 4010.33,2798.39 Z " />
<path stroke="none" fill="#000000" transform="matrix(0.05 0 0 0.05 -180 -122)" d="M 3954.23,2789.21 L 3950.48,2803.17 L 3939.17,2798.87 L 3942.3,2787.26 L 3954.23,2789.21 Z " />
<path stroke="none" fill="#108080" transform="matrix(0.05 0 0 0.05 -180 -122)" d="M 3762.81,2780.07 A 129.586,129.586 0 1 0 4021.98,2780.07A 129.586,129.586 0 1 0 3762.81,2780.07Z " />
<path stroke="none" fill="#1e8787" transform="matrix(0.05 0 0 0.05 -180 -122)" d="M 3764.31,2778.05 A 126.059,126.059 0 1 0 4016.43,2778.05A 126.059,126.059 0 1 0 3764.31,2778.05Z " />
<path stroke="none" fill="#2c8f8f" transform="matrix(0.05 0 0 0.05 -180 -122)" d="M 3765.81,2776.02 A 122.531,122.531 0 1 0 4010.88,2776.02A 122.531,122.531 0 1 0 3765.81,2776.02Z " />
<path stroke="none" fill="#3a9696" transform="matrix(0.05 0 0 0.05 -180 -122)" d="M 3767.32,2774 A 119.004,119.004 0 1 0 4005.32,2774A 119.004,119.004 0 1 0 3767.32,2774Z " />
<path stroke="none" fill="#489d9d" transform="matrix(0.05 0 0 0.05 -180 -122)" d="M 3768.82,2771.97 A 115.477,115.477 0 1 0 3999.77,2771.97A 115.477,115.477 0 1 0 3768.82,2771.97Z " />
<path stroke="none" fill="#54a4a4" transform="matrix(0.05 0 0 0.05 -180 -122)" d="M 3770.32,2769.95 A 111.949,111.949 0 1 0 3994.22,2769.95A 111.949,111.949 0 1 0 3770.32,2769.95Z " />
<path stroke="none" fill="#61abab" transform="matrix(0.05 0 0 0.05 -180 -122)" d="M 3771.82,2767.92 A 108.422,108.422 0 1 0 3988.67,2767.92A 108.422,108.422 0 1 0 3771.82,2767.92Z " />
<path stroke="none" fill="#6db1b1" transform="matrix(0.05 0 0 0.05 -180 -122)" d="M 3773.33,2765.9 A 104.895,104.895 0 1 0 3983.11,2765.9A 104.895,104.895 0 1 0 3773.33,2765.9Z " />
<path stroke="none" fill="#78b7b7" transform="matrix(0.05 0 0 0.05 -180 -122)" d="M 3774.83,2763.87 A 101.367,101.367 0 1 0 3977.56,2763.87A 101.367,101.367 0 1 0 3774.83,2763.87Z " />
<path stroke="none" fill="#83bdbd" transform="matrix(0.05 0 0 0.05 -180 -122)" d="M 3776.33,2761.85 A 97.8398,97.8398 0 1 0 3972.01,2761.85A 97.8398,97.8398 0 1 0 3776.33,2761.85Z " />
<path stroke="none" fill="#8ec2c2" transform="matrix(0.05 0 0 0.05 -180 -122)" d="M 3777.83,2759.82 A 94.3125,94.3125 0 1 0 3966.46,2759.82A 94.3125,94.3125 0 1 0 3777.83,2759.82Z " />
<path stroke="none" fill="#98c8c8" transform="matrix(0.05 0 0 0.05 -180 -122)" d="M 3779.34,2757.8 A 90.7852,90.7852 0 1 0 3960.91,2757.8A 90.7852,90.7852 0 1 0 3779.34,2757.8Z " />
<path stroke="none" fill="#a1cdcd" transform="matrix(0.05 0 0 0.05 -180 -122)" d="M 3780.84,2755.77 A 87.2578,87.2578 0 1 0 3955.35,2755.77A 87.2578,87.2578 0 1 0 3780.84,2755.77Z " />
<path stroke="none" fill="#aad2d2" transform="matrix(0.05 0 0 0.05 -180 -122)" d="M 3782.34,2753.75 A 83.7305,83.7305 0 1 0 3949.8,2753.75A 83.7305,83.7305 0 1 0 3782.34,2753.75Z " />
<path stroke="none" fill="#b3d6d6" transform="matrix(0.05 0 0 0.05 -180 -122)" d="M 3783.84,2751.72 A 80.2031,80.2031 0 1 0 3944.25,2751.72A 80.2031,80.2031 0 1 0 3783.84,2751.72Z " />
<path stroke="none" fill="#bbdbdb" transform="matrix(0.05 0 0 0.05 -180 -122)" d="M 3785.35,2749.7 A 76.6758,76.6758 0 1 0 3938.7,2749.7A 76.6758,76.6758 0 1 0 3785.35,2749.7Z " />
<path stroke="none" fill="#c3dfdf" transform="matrix(0.05 0 0 0.05 -180 -122)" d="M 3786.85,2747.67 A 73.1484,73.1484 0 1 0 3933.15,2747.67A 73.1484,73.1484 0 1 0 3786.85,2747.67Z " />
<path stroke="none" fill="#cae3e3" transform="matrix(0.05 0 0 0.05 -180 -122)" d="M 3788.35,2745.65 A 69.6211,69.6211 0 1 0 3927.59,2745.65A 69.6211,69.6211 0 1 0 3788.35,2745.65Z " />
<path stroke="none" fill="#d1e6e6" transform="matrix(0.05 0 0 0.05 -180 -122)" d="M 3789.85,2743.62 A 66.0938,66.0938 0 1 0 3922.04,2743.62A 66.0938,66.0938 0 1 0 3789.85,2743.62Z " />
<path stroke="none" fill="#d7eaea" transform="matrix(0.05 0 0 0.05 -180 -122)" d="M 3791.36,2741.6 A 62.5664,62.5664 0 1 0 3916.49,2741.6A 62.5664,62.5664 0 1 0 3791.36,2741.6Z " />
<path stroke="none" fill="#ddeded" transform="matrix(0.05 0 0 0.05 -180 -122)" d="M 3792.86,2739.58 A 59.0391,59.0391 0 1 0 3910.94,2739.58A 59.0391,59.0391 0 1 0 3792.86,2739.58Z " />
<path stroke="none" fill="#e2efef" transform="matrix(0.05 0 0 0.05 -180 -122)" d="M 3794.36,2737.55 A 55.5117,55.5117 0 1 0 3905.38,2737.55A 55.5117,55.5117 0 1 0 3794.36,2737.55Z " />
<path stroke="none" fill="#e7f2f2" transform="matrix(0.05 0 0 0.05 -180 -122)" d="M 3795.86,2735.53 A 51.9844,51.9844 0 1 0 3899.83,2735.53A 51.9844,51.9844 0 1 0 3795.86,2735.53Z " />
<path stroke="none" fill="#ecf4f4" transform="matrix(0.05 0 0 0.05 -180 -122)" d="M 3797.37,2733.5 A 48.457,48.457 0 1 0 3894.28,2733.5A 48.457,48.457 0 1 0 3797.37,2733.5Z " />
<path stroke="none" fill="#f0f7f7" transform="matrix(0.05 0 0 0.05 -180 -122)" d="M 3798.87,2731.48 A 44.9297,44.9297 0 1 0 3888.73,2731.48A 44.9297,44.9297 0 1 0 3798.87,2731.48Z " />
<path stroke="none" fill="#f3f8f8" transform="matrix(0.05 0 0 0.05 -180 -122)" d="M 3800.37,2729.45 A 41.4023,41.4023 0 1 0 3883.18,2729.45A 41.4023,41.4023 0 1 0 3800.37,2729.45Z " />
<path stroke="none" fill="#f6fafa" transform="matrix(0.05 0 0 0.05 -180 -122)" d="M 3801.87,2727.43 A 37.875,37.875 0 1 0 3877.62,2727.43A 37.875,37.875 0 1 0 3801.87,2727.43Z " />
<path stroke="none" fill="#f9fbfb" transform="matrix(0.05 0 0 0.05 -180 -122)" d="M 3803.38,2725.4 A 34.3477,34.3477 0 1 0 3872.07,2725.4A 34.3477,34.3477 0 1 0 3803.38,2725.4Z " />
<path stroke="none" fill="#fbfdfd" transform="matrix(0.05 0 0 0.05 -180 -122)" d="M 3804.88,2723.38 A 30.8203,30.8203 0 1 0 3866.52,2723.38A 30.8203,30.8203 0 1 0 3804.88,2723.38Z " />
<path stroke="none" fill="#fcfdfd" transform="matrix(0.05 0 0 0.05 -180 -122)" d="M 3806.38,2721.35 A 27.293,27.293 0 1 0 3860.97,2721.35A 27.293,27.293 0 1 0 3806.38,2721.35Z " />
<path stroke="none" fill="#fefefe" transform="matrix(0.05 0 0 0.05 -180 -122)" d="M 3807.88,2719.33 A 23.7656,23.7656 0 1 0 3855.42,2719.33A 23.7656,23.7656 0 1 0 3807.88,2719.33Z " />
<path stroke="none" fill="#fefefe" transform="matrix(0.05 0 0 0.05 -180 -122)" d="M 3809.39,2717.3 A 20.2383,20.2383 0 1 0 3849.86,2717.3A 20.2383,20.2383 0 1 0 3809.39,2717.3Z " />
<path stroke="#108080" stroke-width="12" fill="none" transform="matrix(0.05 0 0 0.05 -180 -122)" d="M 3762.81,2780.07 A 129.586,129.586 0 1 0 4021.98,2780.07A 129.586,129.586 0 1 0 3762.81,2780.07Z " />
</svg>
