<svg height="29" viewBox="0 0 36 29" width="36" xmlns="http://www.w3.org/2000/svg"><g transform="matrix(.05 0 0 .05 -174 -118)"><path d="m3557.11 2893.63-30.24-51.83 313.17-155.18 6.02 3.72-.08 7.3z"/><path d="m3560.17 2644.56 15.58-57.94 11.3 4.29-14.94 55.6z"/><path d="m3616.16 2653.71 12.62-46.94 11.3 4.29-11.99 44.6z"/><path d="m3672.15 2662.87 9.66-35.96 11.3 4.3-9.03 33.61z"/><path d="m3728.13 2672.02 6.71-24.96 11.3 4.3-6.08 22.61z"/><path d="m3784.12 2681.17 3.75-13.96 11.3 4.3-3.12 11.62z"/><path d="m4116.37 2586.62 15.57 57.94-11.93 1.95-14.94-55.6z"/><path d="m4063.34 2606.77 12.62 46.94-11.93 1.95-11.99-44.6z"/><path d="m4010.31 2626.91 9.66 35.96-11.93 1.95-9.03-33.61z"/><path d="m3957.28 2647.06 6.71 24.96-11.93 1.95-6.08-22.61z"/><path d="m3904.25 2667.21 3.75 13.96-11.93 1.96-3.12-11.62z"/><path d="m4153.06 2842.09-31.2 51.25-275.88-195.7.08-7.3 6.02-3.65z"/><path d="m3840.04 2402.74h12.04v283.95l-6.02 3.65-6.02-3.72z"/><path d="m3716.47 2690.34a129.586 129.586 0 1 0 259.18 0 129.586 129.586 0 1 0 -259.18 0z" fill="#108080"/><path d="m3717.98 2688.31a126.059 126.059 0 1 0 252.11 0 126.059 126.059 0 1 0 -252.11 0z" fill="#1e8787"/><path d="m3719.48 2686.29a122.531 122.531 0 1 0 245.06 0 122.531 122.531 0 1 0 -245.06 0z" fill="#2c8f8f"/><path d="m3720.98 2684.26a119.004 119.004 0 1 0 238.01 0 119.004 119.004 0 1 0 -238.01 0z" fill="#3a9696"/><path d="m3722.48 2682.24a115.477 115.477 0 1 0 230.96 0 115.477 115.477 0 1 0 -230.96 0z" fill="#489d9d"/><path d="m3723.99 2680.21a111.949 111.949 0 1 0 223.9 0 111.949 111.949 0 1 0 -223.9 0z" fill="#54a4a4"/><path d="m3725.49 2678.19a108.422 108.422 0 1 0 216.84 0 108.422 108.422 0 1 0 -216.84 0z" fill="#61abab"/><path d="m3726.99 2676.17a104.895 104.895 0 1 0 209.79 0 104.895 104.895 0 1 0 -209.79 0z" fill="#6db1b1"/><path d="m3728.49 2674.14a101.367 101.367 0 1 0 202.74 0 101.367 101.367 0 1 0 -202.74 0z" fill="#78b7b7"/><path d="m3730 2672.12a97.84 97.84 0 1 0 195.68 0 97.84 97.84 0 1 0 -195.68 0z" fill="#83bdbd"/><path d="m3731.5 2670.09a94.313 94.313 0 1 0 188.62 0 94.313 94.313 0 1 0 -188.62 0z" fill="#8ec2c2"/><path d="m3733 2668.07a90.785 90.785 0 1 0 181.57 0 90.785 90.785 0 1 0 -181.57 0z" fill="#98c8c8"/><path d="m3734.5 2666.04a87.258 87.258 0 1 0 174.52 0 87.258 87.258 0 1 0 -174.52 0z" fill="#a1cdcd"/><path d="m3736.01 2664.02a83.731 83.731 0 1 0 167.46 0 83.731 83.731 0 1 0 -167.46 0z" fill="#aad2d2"/><path d="m3737.51 2661.99a80.203 80.203 0 1 0 160.41 0 80.203 80.203 0 1 0 -160.41 0z" fill="#b3d6d6"/><path d="m3739.01 2659.97a76.676 76.676 0 1 0 153.35 0 76.676 76.676 0 1 0 -153.35 0z" fill="#bbdbdb"/><path d="m3740.51 2657.94a73.148 73.148 0 1 0 146.3 0 73.148 73.148 0 1 0 -146.3 0z" fill="#c3dfdf"/><path d="m3742.02 2655.92a69.621 69.621 0 1 0 139.24 0 69.621 69.621 0 1 0 -139.24 0z" fill="#cae3e3"/><path d="m3743.52 2653.89a66.094 66.094 0 1 0 132.19 0 66.094 66.094 0 1 0 -132.19 0z" fill="#d1e6e6"/><path d="m3745.02 2651.87a62.566 62.566 0 1 0 125.14 0 62.566 62.566 0 1 0 -125.14 0z" fill="#d7eaea"/><path d="m3746.53 2649.84a59.039 59.039 0 1 0 118.07 0 59.039 59.039 0 1 0 -118.07 0z" fill="#ddeded"/><path d="m3748.03 2647.82a55.512 55.512 0 1 0 111.02 0 55.512 55.512 0 1 0 -111.02 0z" fill="#e2efef"/><path d="m3749.53 2645.79a51.984 51.984 0 1 0 103.97 0 51.984 51.984 0 1 0 -103.97 0z" fill="#e7f2f2"/><path d="m3751.03 2643.77a48.457 48.457 0 1 0 96.92 0 48.457 48.457 0 1 0 -96.92 0z" fill="#ecf4f4"/><path d="m3752.54 2641.74a44.93 44.93 0 1 0 89.85 0 44.93 44.93 0 1 0 -89.85 0z" fill="#f0f7f7"/><path d="m3754.04 2639.72a41.402 41.402 0 1 0 82.8 0 41.402 41.402 0 1 0 -82.8 0z" fill="#f3f8f8"/><path d="m3755.54 2637.69a37.875 37.875 0 1 0 75.75 0 37.875 37.875 0 1 0 -75.75 0z" fill="#f6fafa"/><path d="m3757.04 2635.67a34.348 34.348 0 1 0 68.7 0 34.348 34.348 0 1 0 -68.7 0z" fill="#f9fbfb"/><path d="m3758.55 2633.64a30.82 30.82 0 1 0 61.64 0 30.82 30.82 0 1 0 -61.64 0z" fill="#fbfdfd"/><path d="m3760.05 2631.62a27.293 27.293 0 1 0 54.58 0 27.293 27.293 0 1 0 -54.58 0z" fill="#fcfdfd"/><path d="m3761.55 2629.6a23.766 23.766 0 1 0 47.53 0 23.766 23.766 0 1 0 -47.53 0z" fill="#fefefe"/><path d="m3763.05 2627.57a20.238 20.238 0 1 0 40.48 0 20.238 20.238 0 1 0 -40.48 0z" fill="#fefefe"/><path d="m3716.47 2690.34a129.586 129.586 0 1 0 259.18 0 129.586 129.586 0 1 0 -259.18 0z" fill="none" stroke="#108080" stroke-width="12"/></g></svg>
