<?xml version="1.0" standalone="no" ?>
<!DOCTYPE svg PUBLIC "-//W3C//DTD SVG 1.1//EN" "http://www.w3.org/Graphics/SVG/1.1/DTD/svg11.dtd">
<svg width="36px" height="29px" viewBox="0 0 36 29" style="background-color: #ffffff00" xmlns="http://www.w3.org/2000/svg" xmlns:xlink="http://www.w3.org/1999/xlink" version="1.1" >
<path stroke="none" fill="#000000" transform="matrix(0.05 0 0 0.05 -174 -118)" d="M 3557.11,2893.63 L 3526.87,2841.8 L 3840.04,2686.62 L 3846.06,2690.34 L 3845.98,2697.64 L 3557.11,2893.63 Z " />
<path stroke="none" fill="#000000" transform="matrix(0.05 0 0 0.05 -174 -118)" d="M 3560.17,2644.56 L 3575.75,2586.62 L 3587.05,2590.91 L 3572.11,2646.51 L 3560.17,2644.56 Z " />
<path stroke="none" fill="#000000" transform="matrix(0.05 0 0 0.05 -174 -118)" d="M 3616.16,2653.71 L 3628.78,2606.77 L 3640.08,2611.06 L 3628.09,2655.66 L 3616.16,2653.71 Z " />
<path stroke="none" fill="#000000" transform="matrix(0.05 0 0 0.05 -174 -118)" d="M 3672.15,2662.87 L 3681.81,2626.91 L 3693.11,2631.21 L 3684.08,2664.82 L 3672.15,2662.87 Z " />
<path stroke="none" fill="#000000" transform="matrix(0.05 0 0 0.05 -174 -118)" d="M 3728.13,2672.02 L 3734.84,2647.06 L 3746.14,2651.36 L 3740.06,2673.97 L 3728.13,2672.02 Z " />
<path stroke="none" fill="#000000" transform="matrix(0.05 0 0 0.05 -174 -118)" d="M 3784.12,2681.17 L 3787.87,2667.21 L 3799.17,2671.51 L 3796.05,2683.13 L 3784.12,2681.17 Z " />
<path stroke="none" fill="#000000" transform="matrix(0.05 0 0 0.05 -174 -118)" d="M 4116.37,2586.62 L 4131.94,2644.56 L 4120.01,2646.51 L 4105.07,2590.91 L 4116.37,2586.62 Z " />
<path stroke="none" fill="#000000" transform="matrix(0.05 0 0 0.05 -174 -118)" d="M 4063.34,2606.77 L 4075.96,2653.71 L 4064.03,2655.66 L 4052.04,2611.06 L 4063.34,2606.77 Z " />
<path stroke="none" fill="#000000" transform="matrix(0.05 0 0 0.05 -174 -118)" d="M 4010.31,2626.91 L 4019.97,2662.87 L 4008.04,2664.82 L 3999.01,2631.21 L 4010.31,2626.91 Z " />
<path stroke="none" fill="#000000" transform="matrix(0.05 0 0 0.05 -174 -118)" d="M 3957.28,2647.06 L 3963.99,2672.02 L 3952.06,2673.97 L 3945.98,2651.36 L 3957.28,2647.06 Z " />
<path stroke="none" fill="#000000" transform="matrix(0.05 0 0 0.05 -174 -118)" d="M 3904.25,2667.21 L 3908,2681.17 L 3896.07,2683.13 L 3892.95,2671.51 L 3904.25,2667.21 Z " />
<path stroke="none" fill="#000000" transform="matrix(0.05 0 0 0.05 -174 -118)" d="M 4153.06,2842.09 L 4121.86,2893.34 L 3845.98,2697.64 L 3846.06,2690.34 L 3852.08,2686.69 L 4153.06,2842.09 Z " />
<path stroke="none" fill="#000000" transform="matrix(0.05 0 0 0.05 -174 -118)" d="M 3840.04,2402.74 L 3852.08,2402.74 L 3852.08,2686.69 L 3846.06,2690.34 L 3840.04,2686.62 L 3840.04,2402.74 Z " />
<path stroke="none" fill="#108080" transform="matrix(0.05 0 0 0.05 -174 -118)" d="M 3716.47,2690.34 A 129.586,129.586 0 1 0 3975.65,2690.34A 129.586,129.586 0 1 0 3716.47,2690.34Z " />
<path stroke="none" fill="#1e8787" transform="matrix(0.05 0 0 0.05 -174 -118)" d="M 3717.98,2688.31 A 126.059,126.059 0 1 0 3970.09,2688.31A 126.059,126.059 0 1 0 3717.98,2688.31Z " />
<path stroke="none" fill="#2c8f8f" transform="matrix(0.05 0 0 0.05 -174 -118)" d="M 3719.48,2686.29 A 122.531,122.531 0 1 0 3964.54,2686.29A 122.531,122.531 0 1 0 3719.48,2686.29Z " />
<path stroke="none" fill="#3a9696" transform="matrix(0.05 0 0 0.05 -174 -118)" d="M 3720.98,2684.26 A 119.004,119.004 0 1 0 3958.99,2684.26A 119.004,119.004 0 1 0 3720.98,2684.26Z " />
<path stroke="none" fill="#489d9d" transform="matrix(0.05 0 0 0.05 -174 -118)" d="M 3722.48,2682.24 A 115.477,115.477 0 1 0 3953.44,2682.24A 115.477,115.477 0 1 0 3722.48,2682.24Z " />
<path stroke="none" fill="#54a4a4" transform="matrix(0.05 0 0 0.05 -174 -118)" d="M 3723.99,2680.21 A 111.949,111.949 0 1 0 3947.89,2680.21A 111.949,111.949 0 1 0 3723.99,2680.21Z " />
<path stroke="none" fill="#61abab" transform="matrix(0.05 0 0 0.05 -174 -118)" d="M 3725.49,2678.19 A 108.422,108.422 0 1 0 3942.33,2678.19A 108.422,108.422 0 1 0 3725.49,2678.19Z " />
<path stroke="none" fill="#6db1b1" transform="matrix(0.05 0 0 0.05 -174 -118)" d="M 3726.99,2676.17 A 104.895,104.895 0 1 0 3936.78,2676.17A 104.895,104.895 0 1 0 3726.99,2676.17Z " />
<path stroke="none" fill="#78b7b7" transform="matrix(0.05 0 0 0.05 -174 -118)" d="M 3728.49,2674.14 A 101.367,101.367 0 1 0 3931.23,2674.14A 101.367,101.367 0 1 0 3728.49,2674.14Z " />
<path stroke="none" fill="#83bdbd" transform="matrix(0.05 0 0 0.05 -174 -118)" d="M 3730,2672.12 A 97.8398,97.8398 0 1 0 3925.68,2672.12A 97.8398,97.8398 0 1 0 3730,2672.12Z " />
<path stroke="none" fill="#8ec2c2" transform="matrix(0.05 0 0 0.05 -174 -118)" d="M 3731.5,2670.09 A 94.3125,94.3125 0 1 0 3920.12,2670.09A 94.3125,94.3125 0 1 0 3731.5,2670.09Z " />
<path stroke="none" fill="#98c8c8" transform="matrix(0.05 0 0 0.05 -174 -118)" d="M 3733,2668.07 A 90.7852,90.7852 0 1 0 3914.57,2668.07A 90.7852,90.7852 0 1 0 3733,2668.07Z " />
<path stroke="none" fill="#a1cdcd" transform="matrix(0.05 0 0 0.05 -174 -118)" d="M 3734.5,2666.04 A 87.2578,87.2578 0 1 0 3909.02,2666.04A 87.2578,87.2578 0 1 0 3734.5,2666.04Z " />
<path stroke="none" fill="#aad2d2" transform="matrix(0.05 0 0 0.05 -174 -118)" d="M 3736.01,2664.02 A 83.7305,83.7305 0 1 0 3903.47,2664.02A 83.7305,83.7305 0 1 0 3736.01,2664.02Z " />
<path stroke="none" fill="#b3d6d6" transform="matrix(0.05 0 0 0.05 -174 -118)" d="M 3737.51,2661.99 A 80.2031,80.2031 0 1 0 3897.92,2661.99A 80.2031,80.2031 0 1 0 3737.51,2661.99Z " />
<path stroke="none" fill="#bbdbdb" transform="matrix(0.05 0 0 0.05 -174 -118)" d="M 3739.01,2659.97 A 76.6758,76.6758 0 1 0 3892.36,2659.97A 76.6758,76.6758 0 1 0 3739.01,2659.97Z " />
<path stroke="none" fill="#c3dfdf" transform="matrix(0.05 0 0 0.05 -174 -118)" d="M 3740.51,2657.94 A 73.1484,73.1484 0 1 0 3886.81,2657.94A 73.1484,73.1484 0 1 0 3740.51,2657.94Z " />
<path stroke="none" fill="#cae3e3" transform="matrix(0.05 0 0 0.05 -174 -118)" d="M 3742.02,2655.92 A 69.6211,69.6211 0 1 0 3881.26,2655.92A 69.6211,69.6211 0 1 0 3742.02,2655.92Z " />
<path stroke="none" fill="#d1e6e6" transform="matrix(0.05 0 0 0.05 -174 -118)" d="M 3743.52,2653.89 A 66.0938,66.0938 0 1 0 3875.71,2653.89A 66.0938,66.0938 0 1 0 3743.52,2653.89Z " />
<path stroke="none" fill="#d7eaea" transform="matrix(0.05 0 0 0.05 -174 -118)" d="M 3745.02,2651.87 A 62.5664,62.5664 0 1 0 3870.16,2651.87A 62.5664,62.5664 0 1 0 3745.02,2651.87Z " />
<path stroke="none" fill="#ddeded" transform="matrix(0.05 0 0 0.05 -174 -118)" d="M 3746.53,2649.84 A 59.0391,59.0391 0 1 0 3864.6,2649.84A 59.0391,59.0391 0 1 0 3746.53,2649.84Z " />
<path stroke="none" fill="#e2efef" transform="matrix(0.05 0 0 0.05 -174 -118)" d="M 3748.03,2647.82 A 55.5117,55.5117 0 1 0 3859.05,2647.82A 55.5117,55.5117 0 1 0 3748.03,2647.82Z " />
<path stroke="none" fill="#e7f2f2" transform="matrix(0.05 0 0 0.05 -174 -118)" d="M 3749.53,2645.79 A 51.9844,51.9844 0 1 0 3853.5,2645.79A 51.9844,51.9844 0 1 0 3749.53,2645.79Z " />
<path stroke="none" fill="#ecf4f4" transform="matrix(0.05 0 0 0.05 -174 -118)" d="M 3751.03,2643.77 A 48.457,48.457 0 1 0 3847.95,2643.77A 48.457,48.457 0 1 0 3751.03,2643.77Z " />
<path stroke="none" fill="#f0f7f7" transform="matrix(0.05 0 0 0.05 -174 -118)" d="M 3752.54,2641.74 A 44.9297,44.9297 0 1 0 3842.39,2641.74A 44.9297,44.9297 0 1 0 3752.54,2641.74Z " />
<path stroke="none" fill="#f3f8f8" transform="matrix(0.05 0 0 0.05 -174 -118)" d="M 3754.04,2639.72 A 41.4023,41.4023 0 1 0 3836.84,2639.72A 41.4023,41.4023 0 1 0 3754.04,2639.72Z " />
<path stroke="none" fill="#f6fafa" transform="matrix(0.05 0 0 0.05 -174 -118)" d="M 3755.54,2637.69 A 37.875,37.875 0 1 0 3831.29,2637.69A 37.875,37.875 0 1 0 3755.54,2637.69Z " />
<path stroke="none" fill="#f9fbfb" transform="matrix(0.05 0 0 0.05 -174 -118)" d="M 3757.04,2635.67 A 34.3477,34.3477 0 1 0 3825.74,2635.67A 34.3477,34.3477 0 1 0 3757.04,2635.67Z " />
<path stroke="none" fill="#fbfdfd" transform="matrix(0.05 0 0 0.05 -174 -118)" d="M 3758.55,2633.64 A 30.8203,30.8203 0 1 0 3820.19,2633.64A 30.8203,30.8203 0 1 0 3758.55,2633.64Z " />
<path stroke="none" fill="#fcfdfd" transform="matrix(0.05 0 0 0.05 -174 -118)" d="M 3760.05,2631.62 A 27.293,27.293 0 1 0 3814.63,2631.62A 27.293,27.293 0 1 0 3760.05,2631.62Z " />
<path stroke="none" fill="#fefefe" transform="matrix(0.05 0 0 0.05 -174 -118)" d="M 3761.55,2629.6 A 23.7656,23.7656 0 1 0 3809.08,2629.6A 23.7656,23.7656 0 1 0 3761.55,2629.6Z " />
<path stroke="none" fill="#fefefe" transform="matrix(0.05 0 0 0.05 -174 -118)" d="M 3763.05,2627.57 A 20.2383,20.2383 0 1 0 3803.53,2627.57A 20.2383,20.2383 0 1 0 3763.05,2627.57Z " />
<path stroke="#108080" stroke-width="12" fill="none" transform="matrix(0.05 0 0 0.05 -174 -118)" d="M 3716.47,2690.34 A 129.586,129.586 0 1 0 3975.65,2690.34A 129.586,129.586 0 1 0 3716.47,2690.34Z " />
</svg>
