<?xml version="1.0" standalone="no" ?>
<!DOCTYPE svg PUBLIC "-//W3C//DTD SVG 1.1//EN" "http://www.w3.org/Graphics/SVG/1.1/DTD/svg11.dtd">
<svg width="34px" height="33px" viewBox="0 0 34 33" style="background-color: #ffffff00" xmlns="http://www.w3.org/2000/svg" xmlns:xlink="http://www.w3.org/1999/xlink" version="1.1" >
<path stroke="none" fill="#000000" transform="matrix(0.05 0 0 0.05 -192 -125)" d="M 4174.3,2823.98 L 4180.31,2830 L 4174.3,2836.02 L 3892.34,2836.02 L 3892.34,2823.98 L 4174.3,2823.98 Z " />
<path stroke="none" fill="#000000" transform="matrix(0.05 0 0 0.05 -192 -125)" d="M 4444.59,2948.01 L 4414.58,2999.96 L 4186.33,2841.48 L 4180.31,2830 L 4186.33,2826.21 L 4444.59,2948.01 Z " />
<path stroke="none" fill="#000000" transform="matrix(0.05 0 0 0.05 -192 -125)" d="M 4450.98,2726.18 L 4466.55,2784.13 L 4454.62,2786.08 L 4439.67,2730.47 L 4450.98,2726.18 Z " />
<path stroke="none" fill="#000000" transform="matrix(0.05 0 0 0.05 -192 -125)" d="M 4397.83,2746.36 L 4410.45,2793.31 L 4398.52,2795.26 L 4386.53,2750.65 L 4397.83,2746.36 Z " />
<path stroke="none" fill="#000000" transform="matrix(0.05 0 0 0.05 -192 -125)" d="M 4344.69,2766.54 L 4354.35,2802.49 L 4342.42,2804.45 L 4333.38,2770.84 L 4344.69,2766.54 Z " />
<path stroke="none" fill="#000000" transform="matrix(0.05 0 0 0.05 -192 -125)" d="M 4291.54,2786.72 L 4298.25,2811.68 L 4286.32,2813.63 L 4280.24,2791.02 L 4291.54,2786.72 Z " />
<path stroke="none" fill="#000000" transform="matrix(0.05 0 0 0.05 -192 -125)" d="M 4238.4,2806.9 L 4242.15,2820.86 L 4230.22,2822.82 L 4227.09,2811.2 L 4238.4,2806.9 Z " />
<path stroke="none" fill="#000000" transform="matrix(0.05 0 0 0.05 -192 -125)" d="M 4174.3,2542.03 L 4186.33,2542.03 L 4186.33,2826.21 L 4180.31,2830 L 4174.3,2823.98 L 4174.3,2542.03 Z " />
<path stroke="none" fill="#000000" transform="matrix(0.05 0 0 0.05 -192 -125)" d="M 4186.33,3117.97 L 4174.3,3117.97 L 4174.3,2836.02 L 4180.31,2830 L 4186.33,2841.48 L 4186.33,3117.97 Z " />
<path stroke="none" fill="#108080" transform="matrix(0.05 0 0 0.05 -192 -125)" d="M 4050.73,2830 A 129.586,129.586 0 1 0 4309.9,2830A 129.586,129.586 0 1 0 4050.73,2830Z " />
<path stroke="none" fill="#1e8787" transform="matrix(0.05 0 0 0.05 -192 -125)" d="M 4052.23,2827.98 A 126.059,126.059 0 1 0 4304.35,2827.98A 126.059,126.059 0 1 0 4052.23,2827.98Z " />
<path stroke="none" fill="#2c8f8f" transform="matrix(0.05 0 0 0.05 -192 -125)" d="M 4053.73,2825.95 A 122.531,122.531 0 1 0 4298.79,2825.95A 122.531,122.531 0 1 0 4053.73,2825.95Z " />
<path stroke="none" fill="#3a9696" transform="matrix(0.05 0 0 0.05 -192 -125)" d="M 4055.23,2823.93 A 119.004,119.004 0 1 0 4293.24,2823.93A 119.004,119.004 0 1 0 4055.23,2823.93Z " />
<path stroke="none" fill="#489d9d" transform="matrix(0.05 0 0 0.05 -192 -125)" d="M 4056.74,2821.9 A 115.477,115.477 0 1 0 4287.69,2821.9A 115.477,115.477 0 1 0 4056.74,2821.9Z " />
<path stroke="none" fill="#54a4a4" transform="matrix(0.05 0 0 0.05 -192 -125)" d="M 4058.24,2819.88 A 111.949,111.949 0 1 0 4282.14,2819.88A 111.949,111.949 0 1 0 4058.24,2819.88Z " />
<path stroke="none" fill="#61abab" transform="matrix(0.05 0 0 0.05 -192 -125)" d="M 4059.74,2817.85 A 108.422,108.422 0 1 0 4276.58,2817.85A 108.422,108.422 0 1 0 4059.74,2817.85Z " />
<path stroke="none" fill="#6db1b1" transform="matrix(0.05 0 0 0.05 -192 -125)" d="M 4061.24,2815.83 A 104.895,104.895 0 1 0 4271.03,2815.83A 104.895,104.895 0 1 0 4061.24,2815.83Z " />
<path stroke="none" fill="#78b7b7" transform="matrix(0.05 0 0 0.05 -192 -125)" d="M 4062.75,2813.8 A 101.367,101.367 0 1 0 4265.48,2813.8A 101.367,101.367 0 1 0 4062.75,2813.8Z " />
<path stroke="none" fill="#83bdbd" transform="matrix(0.05 0 0 0.05 -192 -125)" d="M 4064.25,2811.78 A 97.8398,97.8398 0 1 0 4259.93,2811.78A 97.8398,97.8398 0 1 0 4064.25,2811.78Z " />
<path stroke="none" fill="#8ec2c2" transform="matrix(0.05 0 0 0.05 -192 -125)" d="M 4065.75,2809.75 A 94.3125,94.3125 0 1 0 4254.38,2809.75A 94.3125,94.3125 0 1 0 4065.75,2809.75Z " />
<path stroke="none" fill="#98c8c8" transform="matrix(0.05 0 0 0.05 -192 -125)" d="M 4067.25,2807.73 A 90.7852,90.7852 0 1 0 4248.82,2807.73A 90.7852,90.7852 0 1 0 4067.25,2807.73Z " />
<path stroke="none" fill="#a1cdcd" transform="matrix(0.05 0 0 0.05 -192 -125)" d="M 4068.76,2805.7 A 87.2578,87.2578 0 1 0 4243.27,2805.7A 87.2578,87.2578 0 1 0 4068.76,2805.7Z " />
<path stroke="none" fill="#aad2d2" transform="matrix(0.05 0 0 0.05 -192 -125)" d="M 4070.26,2803.68 A 83.7305,83.7305 0 1 0 4237.72,2803.68A 83.7305,83.7305 0 1 0 4070.26,2803.68Z " />
<path stroke="none" fill="#b3d6d6" transform="matrix(0.05 0 0 0.05 -192 -125)" d="M 4071.76,2801.65 A 80.2031,80.2031 0 1 0 4232.17,2801.65A 80.2031,80.2031 0 1 0 4071.76,2801.65Z " />
<path stroke="none" fill="#bbdbdb" transform="matrix(0.05 0 0 0.05 -192 -125)" d="M 4073.26,2799.63 A 76.6758,76.6758 0 1 0 4226.62,2799.63A 76.6758,76.6758 0 1 0 4073.26,2799.63Z " />
<path stroke="none" fill="#c3dfdf" transform="matrix(0.05 0 0 0.05 -192 -125)" d="M 4074.77,2797.6 A 73.1484,73.1484 0 1 0 4221.06,2797.6A 73.1484,73.1484 0 1 0 4074.77,2797.6Z " />
<path stroke="none" fill="#cae3e3" transform="matrix(0.05 0 0 0.05 -192 -125)" d="M 4076.27,2795.58 A 69.6211,69.6211 0 1 0 4215.51,2795.58A 69.6211,69.6211 0 1 0 4076.27,2795.58Z " />
<path stroke="none" fill="#d1e6e6" transform="matrix(0.05 0 0 0.05 -192 -125)" d="M 4077.77,2793.55 A 66.0938,66.0938 0 1 0 4209.96,2793.55A 66.0938,66.0938 0 1 0 4077.77,2793.55Z " />
<path stroke="none" fill="#d7eaea" transform="matrix(0.05 0 0 0.05 -192 -125)" d="M 4079.27,2791.53 A 62.5664,62.5664 0 1 0 4204.41,2791.53A 62.5664,62.5664 0 1 0 4079.27,2791.53Z " />
<path stroke="none" fill="#ddeded" transform="matrix(0.05 0 0 0.05 -192 -125)" d="M 4080.78,2789.5 A 59.0391,59.0391 0 1 0 4198.86,2789.5A 59.0391,59.0391 0 1 0 4080.78,2789.5Z " />
<path stroke="none" fill="#e2efef" transform="matrix(0.05 0 0 0.05 -192 -125)" d="M 4082.28,2787.48 A 55.5117,55.5117 0 1 0 4193.3,2787.48A 55.5117,55.5117 0 1 0 4082.28,2787.48Z " />
<path stroke="none" fill="#e7f2f2" transform="matrix(0.05 0 0 0.05 -192 -125)" d="M 4083.78,2785.45 A 51.9844,51.9844 0 1 0 4187.75,2785.45A 51.9844,51.9844 0 1 0 4083.78,2785.45Z " />
<path stroke="none" fill="#ecf4f4" transform="matrix(0.05 0 0 0.05 -192 -125)" d="M 4085.28,2783.43 A 48.457,48.457 0 1 0 4182.2,2783.43A 48.457,48.457 0 1 0 4085.28,2783.43Z " />
<path stroke="none" fill="#f0f7f7" transform="matrix(0.05 0 0 0.05 -192 -125)" d="M 4086.79,2781.41 A 44.9297,44.9297 0 1 0 4176.65,2781.41A 44.9297,44.9297 0 1 0 4086.79,2781.41Z " />
<path stroke="none" fill="#f3f8f8" transform="matrix(0.05 0 0 0.05 -192 -125)" d="M 4088.29,2779.38 A 41.4023,41.4023 0 1 0 4171.09,2779.38A 41.4023,41.4023 0 1 0 4088.29,2779.38Z " />
<path stroke="none" fill="#f6fafa" transform="matrix(0.05 0 0 0.05 -192 -125)" d="M 4089.79,2777.36 A 37.875,37.875 0 1 0 4165.54,2777.36A 37.875,37.875 0 1 0 4089.79,2777.36Z " />
<path stroke="none" fill="#f9fbfb" transform="matrix(0.05 0 0 0.05 -192 -125)" d="M 4091.29,2775.33 A 34.3477,34.3477 0 1 0 4159.99,2775.33A 34.3477,34.3477 0 1 0 4091.29,2775.33Z " />
<path stroke="none" fill="#fbfdfd" transform="matrix(0.05 0 0 0.05 -192 -125)" d="M 4092.8,2773.31 A 30.8203,30.8203 0 1 0 4154.44,2773.31A 30.8203,30.8203 0 1 0 4092.8,2773.31Z " />
<path stroke="none" fill="#fcfdfd" transform="matrix(0.05 0 0 0.05 -192 -125)" d="M 4094.3,2771.28 A 27.293,27.293 0 1 0 4148.89,2771.28A 27.293,27.293 0 1 0 4094.3,2771.28Z " />
<path stroke="none" fill="#fefefe" transform="matrix(0.05 0 0 0.05 -192 -125)" d="M 4095.8,2769.26 A 23.7656,23.7656 0 1 0 4143.33,2769.26A 23.7656,23.7656 0 1 0 4095.8,2769.26Z " />
<path stroke="none" fill="#fefefe" transform="matrix(0.05 0 0 0.05 -192 -125)" d="M 4097.31,2767.23 A 20.2383,20.2383 0 1 0 4137.78,2767.23A 20.2383,20.2383 0 1 0 4097.31,2767.23Z " />
<path stroke="#108080" stroke-width="12" fill="none" transform="matrix(0.05 0 0 0.05 -192 -125)" d="M 4050.73,2830 A 129.586,129.586 0 1 0 4309.9,2830A 129.586,129.586 0 1 0 4050.73,2830Z " />
</svg>
