<svg height="33" viewBox="0 0 34 33" width="34" xmlns="http://www.w3.org/2000/svg"><g transform="matrix(.05 0 0 .05 -192 -125)"><path d="m4174.3 2823.98 6.01 6.02-6.01 6.02h-281.96v-12.04z"/><path d="m4444.59 2948.01-30.01 51.95-228.25-158.48-6.02-11.48 6.02-3.79z"/><path d="m4450.98 2726.18 15.57 57.95-11.93 1.95-14.95-55.61z"/><path d="m4397.83 2746.36 12.62 46.95-11.93 1.95-11.99-44.61z"/><path d="m4344.69 2766.54 9.66 35.95-11.93 1.96-9.04-33.61z"/><path d="m4291.54 2786.72 6.71 24.96-11.93 1.95-6.08-22.61z"/><path d="m4238.4 2806.9 3.75 13.96-11.93 1.96-3.13-11.62z"/><path d="m4174.3 2542.03h12.03v284.18l-6.02 3.79-6.01-6.02z"/><path d="m4186.33 3117.97h-12.03v-281.95l6.01-6.02 6.02 11.48z"/><path d="m4050.73 2830a129.586 129.586 0 1 0 259.17 0 129.586 129.586 0 1 0 -259.17 0z" fill="#108080"/><path d="m4052.23 2827.98a126.059 126.059 0 1 0 252.12 0 126.059 126.059 0 1 0 -252.12 0z" fill="#1e8787"/><path d="m4053.73 2825.95a122.531 122.531 0 1 0 245.06 0 122.531 122.531 0 1 0 -245.06 0z" fill="#2c8f8f"/><path d="m4055.23 2823.93a119.004 119.004 0 1 0 238.01 0 119.004 119.004 0 1 0 -238.01 0z" fill="#3a9696"/><path d="m4056.74 2821.9a115.477 115.477 0 1 0 230.95 0 115.477 115.477 0 1 0 -230.95 0z" fill="#489d9d"/><path d="m4058.24 2819.88a111.949 111.949 0 1 0 223.9 0 111.949 111.949 0 1 0 -223.9 0z" fill="#54a4a4"/><path d="m4059.74 2817.85a108.422 108.422 0 1 0 216.84 0 108.422 108.422 0 1 0 -216.84 0z" fill="#61abab"/><path d="m4061.24 2815.83a104.895 104.895 0 1 0 209.79 0 104.895 104.895 0 1 0 -209.79 0z" fill="#6db1b1"/><path d="m4062.75 2813.8a101.367 101.367 0 1 0 202.73 0 101.367 101.367 0 1 0 -202.73 0z" fill="#78b7b7"/><path d="m4064.25 2811.78a97.84 97.84 0 1 0 195.68 0 97.84 97.84 0 1 0 -195.68 0z" fill="#83bdbd"/><path d="m4065.75 2809.75a94.313 94.313 0 1 0 188.63 0 94.313 94.313 0 1 0 -188.63 0z" fill="#8ec2c2"/><path d="m4067.25 2807.73a90.785 90.785 0 1 0 181.57 0 90.785 90.785 0 1 0 -181.57 0z" fill="#98c8c8"/><path d="m4068.76 2805.7a87.258 87.258 0 1 0 174.51 0 87.258 87.258 0 1 0 -174.51 0z" fill="#a1cdcd"/><path d="m4070.26 2803.68a83.731 83.731 0 1 0 167.46 0 83.731 83.731 0 1 0 -167.46 0z" fill="#aad2d2"/><path d="m4071.76 2801.65a80.203 80.203 0 1 0 160.41 0 80.203 80.203 0 1 0 -160.41 0z" fill="#b3d6d6"/><path d="m4073.26 2799.63a76.676 76.676 0 1 0 153.36 0 76.676 76.676 0 1 0 -153.36 0z" fill="#bbdbdb"/><path d="m4074.77 2797.6a73.148 73.148 0 1 0 146.29 0 73.148 73.148 0 1 0 -146.29 0z" fill="#c3dfdf"/><path d="m4076.27 2795.58a69.621 69.621 0 1 0 139.24 0 69.621 69.621 0 1 0 -139.24 0z" fill="#cae3e3"/><path d="m4077.77 2793.55a66.094 66.094 0 1 0 132.19 0 66.094 66.094 0 1 0 -132.19 0z" fill="#d1e6e6"/><path d="m4079.27 2791.53a62.566 62.566 0 1 0 125.14 0 62.566 62.566 0 1 0 -125.14 0z" fill="#d7eaea"/><path d="m4080.78 2789.5a59.039 59.039 0 1 0 118.08 0 59.039 59.039 0 1 0 -118.08 0z" fill="#ddeded"/><path d="m4082.28 2787.48a55.512 55.512 0 1 0 111.02 0 55.512 55.512 0 1 0 -111.02 0z" fill="#e2efef"/><path d="m4083.78 2785.45a51.984 51.984 0 1 0 103.97 0 51.984 51.984 0 1 0 -103.97 0z" fill="#e7f2f2"/><path d="m4085.28 2783.43a48.457 48.457 0 1 0 96.92 0 48.457 48.457 0 1 0 -96.92 0z" fill="#ecf4f4"/><path d="m4086.79 2781.41a44.93 44.93 0 1 0 89.86 0 44.93 44.93 0 1 0 -89.86 0z" fill="#f0f7f7"/><path d="m4088.29 2779.38a41.402 41.402 0 1 0 82.8 0 41.402 41.402 0 1 0 -82.8 0z" fill="#f3f8f8"/><path d="m4089.79 2777.36a37.875 37.875 0 1 0 75.75 0 37.875 37.875 0 1 0 -75.75 0z" fill="#f6fafa"/><path d="m4091.29 2775.33a34.348 34.348 0 1 0 68.7 0 34.348 34.348 0 1 0 -68.7 0z" fill="#f9fbfb"/><path d="m4092.8 2773.31a30.82 30.82 0 1 0 61.64 0 30.82 30.82 0 1 0 -61.64 0z" fill="#fbfdfd"/><path d="m4094.3 2771.28a27.293 27.293 0 1 0 54.59 0 27.293 27.293 0 1 0 -54.59 0z" fill="#fcfdfd"/><path d="m4095.8 2769.26a23.766 23.766 0 1 0 47.53 0 23.766 23.766 0 1 0 -47.53 0z" fill="#fefefe"/><path d="m4097.31 2767.23a20.238 20.238 0 1 0 40.47 0 20.238 20.238 0 1 0 -40.47 0z" fill="#fefefe"/><path d="m4050.73 2830a129.586 129.586 0 1 0 259.17 0 129.586 129.586 0 1 0 -259.17 0z" fill="none" stroke="#108080" stroke-width="12"/></g></svg>
