<svg height="33" viewBox="0 0 35 33" width="35" xmlns="http://www.w3.org/2000/svg"><g transform="matrix(.05 0 0 .05 -179 -127)"><path d="m3656.55 3031.01-25-54.54 298.27-110.64 6.02 4.17-6.02 10.17z"/><path d="m3657.7 2789.6 22.54-55.61 10.7 5.65-21.64 53.35z"/><path d="m3712.14 2805.53 18.27-45.05 10.69 5.64-17.35 42.81z"/><path d="m3766.59 2821.46 13.99-34.5 10.69 5.65-13.08 32.25z"/><path d="m3821.03 2837.39 9.71-23.95 10.7 5.65-8.8 21.7z"/><path d="m3875.48 2853.33 5.43-13.4 10.69 5.64-4.52 11.15z"/><path d="m4191.43 2733.99 22.54 55.61-11.6 3.39-21.63-53.35z"/><path d="m4141.26 2760.48 18.27 45.05-11.61 3.4-17.35-42.81z"/><path d="m4091.1 2786.96 13.98 34.5-11.6 3.4-13.08-32.25z"/><path d="m4040.93 2813.44 9.71 23.95-11.61 3.4-8.8-21.7z"/><path d="m3990.76 2839.93 5.43 13.4-11.6 3.39-4.52-11.15z"/><path d="m4228.41 2976.67-25.89 54.13-260.67-150.4-6.01-10.4 6.01-4.1z"/><path d="m3929.82 2594.02h12.03v271.88l-6.01 4.1-6.02-4.17z"/><path d="m3941.85 3145.98h-12.03v-265.81l6.02-10.17 6.01 10.4z"/><path d="m3806.25 2870a129.586 129.586 0 1 0 259.17 0 129.586 129.586 0 1 0 -259.17 0z" fill="#108080"/><path d="m3807.75 2867.98a126.059 126.059 0 1 0 252.12 0 126.059 126.059 0 1 0 -252.12 0z" fill="#1e8787"/><path d="m3809.26 2865.95a122.531 122.531 0 1 0 245.06 0 122.531 122.531 0 1 0 -245.06 0z" fill="#2c8f8f"/><path d="m3810.76 2863.93a119.004 119.004 0 1 0 238.01 0 119.004 119.004 0 1 0 -238.01 0z" fill="#3a9696"/><path d="m3812.26 2861.9a115.477 115.477 0 1 0 230.95 0 115.477 115.477 0 1 0 -230.95 0z" fill="#489d9d"/><path d="m3813.76 2859.88a111.949 111.949 0 1 0 223.9 0 111.949 111.949 0 1 0 -223.9 0z" fill="#54a4a4"/><path d="m3815.27 2857.85a108.422 108.422 0 1 0 216.84 0 108.422 108.422 0 1 0 -216.84 0z" fill="#61abab"/><path d="m3816.77 2855.83a104.895 104.895 0 1 0 209.79 0 104.895 104.895 0 1 0 -209.79 0z" fill="#6db1b1"/><path d="m3818.27 2853.8a101.367 101.367 0 1 0 202.73 0 101.367 101.367 0 1 0 -202.73 0z" fill="#78b7b7"/><path d="m3819.77 2851.78a97.84 97.84 0 1 0 195.68 0 97.84 97.84 0 1 0 -195.68 0z" fill="#83bdbd"/><path d="m3821.28 2849.75a94.313 94.313 0 1 0 188.62 0 94.313 94.313 0 1 0 -188.62 0z" fill="#8ec2c2"/><path d="m3822.78 2847.73a90.785 90.785 0 1 0 181.57 0 90.785 90.785 0 1 0 -181.57 0z" fill="#98c8c8"/><path d="m3824.28 2845.7a87.258 87.258 0 1 0 174.52 0 87.258 87.258 0 1 0 -174.52 0z" fill="#a1cdcd"/><path d="m3825.78 2843.68a83.731 83.731 0 1 0 167.46 0 83.731 83.731 0 1 0 -167.46 0z" fill="#aad2d2"/><path d="m3827.29 2841.65a80.203 80.203 0 1 0 160.4 0 80.203 80.203 0 1 0 -160.4 0z" fill="#b3d6d6"/><path d="m3828.79 2839.63a76.676 76.676 0 1 0 153.35 0 76.676 76.676 0 1 0 -153.35 0z" fill="#bbdbdb"/><path d="m3830.29 2837.6a73.148 73.148 0 1 0 146.3 0 73.148 73.148 0 1 0 -146.3 0z" fill="#c3dfdf"/><path d="m3831.79 2835.58a69.621 69.621 0 1 0 139.25 0 69.621 69.621 0 1 0 -139.25 0z" fill="#cae3e3"/><path d="m3833.3 2833.55a66.094 66.094 0 1 0 132.18 0 66.094 66.094 0 1 0 -132.18 0z" fill="#d1e6e6"/><path d="m3834.8 2831.53a62.566 62.566 0 1 0 125.13 0 62.566 62.566 0 1 0 -125.13 0z" fill="#d7eaea"/><path d="m3836.3 2829.5a59.039 59.039 0 1 0 118.08 0 59.039 59.039 0 1 0 -118.08 0z" fill="#ddeded"/><path d="m3837.8 2827.48a55.512 55.512 0 1 0 111.03 0 55.512 55.512 0 1 0 -111.03 0z" fill="#e2efef"/><path d="m3839.31 2825.45a51.984 51.984 0 1 0 103.97 0 51.984 51.984 0 1 0 -103.97 0z" fill="#e7f2f2"/><path d="m3840.81 2823.43a48.457 48.457 0 1 0 96.91 0 48.457 48.457 0 1 0 -96.91 0z" fill="#ecf4f4"/><path d="m3842.31 2821.41a44.93 44.93 0 1 0 89.86 0 44.93 44.93 0 1 0 -89.86 0z" fill="#f0f7f7"/><path d="m3843.81 2819.38a41.402 41.402 0 1 0 82.81 0 41.402 41.402 0 1 0 -82.81 0z" fill="#f3f8f8"/><path d="m3845.32 2817.36a37.875 37.875 0 1 0 75.75 0 37.875 37.875 0 1 0 -75.75 0z" fill="#f6fafa"/><path d="m3846.82 2815.33a34.348 34.348 0 1 0 68.69 0 34.348 34.348 0 1 0 -68.69 0z" fill="#f9fbfb"/><path d="m3848.32 2813.31a30.82 30.82 0 1 0 61.64 0 30.82 30.82 0 1 0 -61.64 0z" fill="#fbfdfd"/><path d="m3849.82 2811.28a27.293 27.293 0 1 0 54.59 0 27.293 27.293 0 1 0 -54.59 0z" fill="#fcfdfd"/><path d="m3851.33 2809.26a23.766 23.766 0 1 0 47.53 0 23.766 23.766 0 1 0 -47.53 0z" fill="#fefefe"/><path d="m3852.83 2807.23a20.238 20.238 0 1 0 40.48 0 20.238 20.238 0 1 0 -40.48 0z" fill="#fefefe"/><path d="m3806.25 2870a129.586 129.586 0 1 0 259.17 0 129.586 129.586 0 1 0 -259.17 0z" fill="none" stroke="#108080" stroke-width="12"/></g></svg>
