<?xml version="1.0" standalone="no" ?>
<!DOCTYPE svg PUBLIC "-//W3C//DTD SVG 1.1//EN" "http://www.w3.org/Graphics/SVG/1.1/DTD/svg11.dtd">
<svg width="35px" height="33px" viewBox="0 0 35 33" style="background-color: #ffffff00" xmlns="http://www.w3.org/2000/svg" xmlns:xlink="http://www.w3.org/1999/xlink" version="1.1" >
<path stroke="none" fill="#000000" transform="matrix(0.05 0 0 0.05 -179 -127)" d="M 3656.55,3031.01 L 3631.55,2976.47 L 3929.82,2865.83 L 3935.84,2870 L 3929.82,2880.17 L 3656.55,3031.01 Z " />
<path stroke="none" fill="#000000" transform="matrix(0.05 0 0 0.05 -179 -127)" d="M 3657.7,2789.6 L 3680.24,2733.99 L 3690.94,2739.64 L 3669.3,2792.99 L 3657.7,2789.6 Z " />
<path stroke="none" fill="#000000" transform="matrix(0.05 0 0 0.05 -179 -127)" d="M 3712.14,2805.53 L 3730.41,2760.48 L 3741.1,2766.12 L 3723.75,2808.93 L 3712.14,2805.53 Z " />
<path stroke="none" fill="#000000" transform="matrix(0.05 0 0 0.05 -179 -127)" d="M 3766.59,2821.46 L 3780.58,2786.96 L 3791.27,2792.61 L 3778.19,2824.86 L 3766.59,2821.46 Z " />
<path stroke="none" fill="#000000" transform="matrix(0.05 0 0 0.05 -179 -127)" d="M 3821.03,2837.39 L 3830.74,2813.44 L 3841.44,2819.09 L 3832.64,2840.79 L 3821.03,2837.39 Z " />
<path stroke="none" fill="#000000" transform="matrix(0.05 0 0 0.05 -179 -127)" d="M 3875.48,2853.33 L 3880.91,2839.93 L 3891.6,2845.57 L 3887.08,2856.72 L 3875.48,2853.33 Z " />
<path stroke="none" fill="#000000" transform="matrix(0.05 0 0 0.05 -179 -127)" d="M 4191.43,2733.99 L 4213.97,2789.6 L 4202.37,2792.99 L 4180.74,2739.64 L 4191.43,2733.99 Z " />
<path stroke="none" fill="#000000" transform="matrix(0.05 0 0 0.05 -179 -127)" d="M 4141.26,2760.48 L 4159.53,2805.53 L 4147.92,2808.93 L 4130.57,2766.12 L 4141.26,2760.48 Z " />
<path stroke="none" fill="#000000" transform="matrix(0.05 0 0 0.05 -179 -127)" d="M 4091.1,2786.96 L 4105.08,2821.46 L 4093.48,2824.86 L 4080.4,2792.61 L 4091.1,2786.96 Z " />
<path stroke="none" fill="#000000" transform="matrix(0.05 0 0 0.05 -179 -127)" d="M 4040.93,2813.44 L 4050.64,2837.39 L 4039.03,2840.79 L 4030.23,2819.09 L 4040.93,2813.44 Z " />
<path stroke="none" fill="#000000" transform="matrix(0.05 0 0 0.05 -179 -127)" d="M 3990.76,2839.93 L 3996.19,2853.33 L 3984.59,2856.72 L 3980.07,2845.57 L 3990.76,2839.93 Z " />
<path stroke="none" fill="#000000" transform="matrix(0.05 0 0 0.05 -179 -127)" d="M 4228.41,2976.67 L 4202.52,3030.8 L 3941.85,2880.4 L 3935.84,2870 L 3941.85,2865.9 L 4228.41,2976.67 Z " />
<path stroke="none" fill="#000000" transform="matrix(0.05 0 0 0.05 -179 -127)" d="M 3929.82,2594.02 L 3941.85,2594.02 L 3941.85,2865.9 L 3935.84,2870 L 3929.82,2865.83 L 3929.82,2594.02 Z " />
<path stroke="none" fill="#000000" transform="matrix(0.05 0 0 0.05 -179 -127)" d="M 3941.85,3145.98 L 3929.82,3145.98 L 3929.82,2880.17 L 3935.84,2870 L 3941.85,2880.4 L 3941.85,3145.98 Z " />
<path stroke="none" fill="#108080" transform="matrix(0.05 0 0 0.05 -179 -127)" d="M 3806.25,2870 A 129.586,129.586 0 1 0 4065.42,2870A 129.586,129.586 0 1 0 3806.25,2870Z " />
<path stroke="none" fill="#1e8787" transform="matrix(0.05 0 0 0.05 -179 -127)" d="M 3807.75,2867.98 A 126.059,126.059 0 1 0 4059.87,2867.98A 126.059,126.059 0 1 0 3807.75,2867.98Z " />
<path stroke="none" fill="#2c8f8f" transform="matrix(0.05 0 0 0.05 -179 -127)" d="M 3809.26,2865.95 A 122.531,122.531 0 1 0 4054.32,2865.95A 122.531,122.531 0 1 0 3809.26,2865.95Z " />
<path stroke="none" fill="#3a9696" transform="matrix(0.05 0 0 0.05 -179 -127)" d="M 3810.76,2863.93 A 119.004,119.004 0 1 0 4048.77,2863.93A 119.004,119.004 0 1 0 3810.76,2863.93Z " />
<path stroke="none" fill="#489d9d" transform="matrix(0.05 0 0 0.05 -179 -127)" d="M 3812.26,2861.9 A 115.477,115.477 0 1 0 4043.21,2861.9A 115.477,115.477 0 1 0 3812.26,2861.9Z " />
<path stroke="none" fill="#54a4a4" transform="matrix(0.05 0 0 0.05 -179 -127)" d="M 3813.76,2859.88 A 111.949,111.949 0 1 0 4037.66,2859.88A 111.949,111.949 0 1 0 3813.76,2859.88Z " />
<path stroke="none" fill="#61abab" transform="matrix(0.05 0 0 0.05 -179 -127)" d="M 3815.27,2857.85 A 108.422,108.422 0 1 0 4032.11,2857.85A 108.422,108.422 0 1 0 3815.27,2857.85Z " />
<path stroke="none" fill="#6db1b1" transform="matrix(0.05 0 0 0.05 -179 -127)" d="M 3816.77,2855.83 A 104.895,104.895 0 1 0 4026.56,2855.83A 104.895,104.895 0 1 0 3816.77,2855.83Z " />
<path stroke="none" fill="#78b7b7" transform="matrix(0.05 0 0 0.05 -179 -127)" d="M 3818.27,2853.8 A 101.367,101.367 0 1 0 4021,2853.8A 101.367,101.367 0 1 0 3818.27,2853.8Z " />
<path stroke="none" fill="#83bdbd" transform="matrix(0.05 0 0 0.05 -179 -127)" d="M 3819.77,2851.78 A 97.8398,97.8398 0 1 0 4015.45,2851.78A 97.8398,97.8398 0 1 0 3819.77,2851.78Z " />
<path stroke="none" fill="#8ec2c2" transform="matrix(0.05 0 0 0.05 -179 -127)" d="M 3821.28,2849.75 A 94.3125,94.3125 0 1 0 4009.9,2849.75A 94.3125,94.3125 0 1 0 3821.28,2849.75Z " />
<path stroke="none" fill="#98c8c8" transform="matrix(0.05 0 0 0.05 -179 -127)" d="M 3822.78,2847.73 A 90.7852,90.7852 0 1 0 4004.35,2847.73A 90.7852,90.7852 0 1 0 3822.78,2847.73Z " />
<path stroke="none" fill="#a1cdcd" transform="matrix(0.05 0 0 0.05 -179 -127)" d="M 3824.28,2845.7 A 87.2578,87.2578 0 1 0 3998.8,2845.7A 87.2578,87.2578 0 1 0 3824.28,2845.7Z " />
<path stroke="none" fill="#aad2d2" transform="matrix(0.05 0 0 0.05 -179 -127)" d="M 3825.78,2843.68 A 83.7305,83.7305 0 1 0 3993.24,2843.68A 83.7305,83.7305 0 1 0 3825.78,2843.68Z " />
<path stroke="none" fill="#b3d6d6" transform="matrix(0.05 0 0 0.05 -179 -127)" d="M 3827.29,2841.65 A 80.2031,80.2031 0 1 0 3987.69,2841.65A 80.2031,80.2031 0 1 0 3827.29,2841.65Z " />
<path stroke="none" fill="#bbdbdb" transform="matrix(0.05 0 0 0.05 -179 -127)" d="M 3828.79,2839.63 A 76.6758,76.6758 0 1 0 3982.14,2839.63A 76.6758,76.6758 0 1 0 3828.79,2839.63Z " />
<path stroke="none" fill="#c3dfdf" transform="matrix(0.05 0 0 0.05 -179 -127)" d="M 3830.29,2837.6 A 73.1484,73.1484 0 1 0 3976.59,2837.6A 73.1484,73.1484 0 1 0 3830.29,2837.6Z " />
<path stroke="none" fill="#cae3e3" transform="matrix(0.05 0 0 0.05 -179 -127)" d="M 3831.79,2835.58 A 69.6211,69.6211 0 1 0 3971.04,2835.58A 69.6211,69.6211 0 1 0 3831.79,2835.58Z " />
<path stroke="none" fill="#d1e6e6" transform="matrix(0.05 0 0 0.05 -179 -127)" d="M 3833.3,2833.55 A 66.0938,66.0938 0 1 0 3965.48,2833.55A 66.0938,66.0938 0 1 0 3833.3,2833.55Z " />
<path stroke="none" fill="#d7eaea" transform="matrix(0.05 0 0 0.05 -179 -127)" d="M 3834.8,2831.53 A 62.5664,62.5664 0 1 0 3959.93,2831.53A 62.5664,62.5664 0 1 0 3834.8,2831.53Z " />
<path stroke="none" fill="#ddeded" transform="matrix(0.05 0 0 0.05 -179 -127)" d="M 3836.3,2829.5 A 59.0391,59.0391 0 1 0 3954.38,2829.5A 59.0391,59.0391 0 1 0 3836.3,2829.5Z " />
<path stroke="none" fill="#e2efef" transform="matrix(0.05 0 0 0.05 -179 -127)" d="M 3837.8,2827.48 A 55.5117,55.5117 0 1 0 3948.83,2827.48A 55.5117,55.5117 0 1 0 3837.8,2827.48Z " />
<path stroke="none" fill="#e7f2f2" transform="matrix(0.05 0 0 0.05 -179 -127)" d="M 3839.31,2825.45 A 51.9844,51.9844 0 1 0 3943.28,2825.45A 51.9844,51.9844 0 1 0 3839.31,2825.45Z " />
<path stroke="none" fill="#ecf4f4" transform="matrix(0.05 0 0 0.05 -179 -127)" d="M 3840.81,2823.43 A 48.457,48.457 0 1 0 3937.72,2823.43A 48.457,48.457 0 1 0 3840.81,2823.43Z " />
<path stroke="none" fill="#f0f7f7" transform="matrix(0.05 0 0 0.05 -179 -127)" d="M 3842.31,2821.41 A 44.9297,44.9297 0 1 0 3932.17,2821.41A 44.9297,44.9297 0 1 0 3842.31,2821.41Z " />
<path stroke="none" fill="#f3f8f8" transform="matrix(0.05 0 0 0.05 -179 -127)" d="M 3843.81,2819.38 A 41.4023,41.4023 0 1 0 3926.62,2819.38A 41.4023,41.4023 0 1 0 3843.81,2819.38Z " />
<path stroke="none" fill="#f6fafa" transform="matrix(0.05 0 0 0.05 -179 -127)" d="M 3845.32,2817.36 A 37.875,37.875 0 1 0 3921.07,2817.36A 37.875,37.875 0 1 0 3845.32,2817.36Z " />
<path stroke="none" fill="#f9fbfb" transform="matrix(0.05 0 0 0.05 -179 -127)" d="M 3846.82,2815.33 A 34.3477,34.3477 0 1 0 3915.51,2815.33A 34.3477,34.3477 0 1 0 3846.82,2815.33Z " />
<path stroke="none" fill="#fbfdfd" transform="matrix(0.05 0 0 0.05 -179 -127)" d="M 3848.32,2813.31 A 30.8203,30.8203 0 1 0 3909.96,2813.31A 30.8203,30.8203 0 1 0 3848.32,2813.31Z " />
<path stroke="none" fill="#fcfdfd" transform="matrix(0.05 0 0 0.05 -179 -127)" d="M 3849.82,2811.28 A 27.293,27.293 0 1 0 3904.41,2811.28A 27.293,27.293 0 1 0 3849.82,2811.28Z " />
<path stroke="none" fill="#fefefe" transform="matrix(0.05 0 0 0.05 -179 -127)" d="M 3851.33,2809.26 A 23.7656,23.7656 0 1 0 3898.86,2809.26A 23.7656,23.7656 0 1 0 3851.33,2809.26Z " />
<path stroke="none" fill="#fefefe" transform="matrix(0.05 0 0 0.05 -179 -127)" d="M 3852.83,2807.23 A 20.2383,20.2383 0 1 0 3893.31,2807.23A 20.2383,20.2383 0 1 0 3852.83,2807.23Z " />
<path stroke="#108080" stroke-width="12" fill="none" transform="matrix(0.05 0 0 0.05 -179 -127)" d="M 3806.25,2870 A 129.586,129.586 0 1 0 4065.42,2870A 129.586,129.586 0 1 0 3806.25,2870Z " />
</svg>
