<?xml version="1.0" standalone="no" ?>
<!DOCTYPE svg PUBLIC "-//W3C//DTD SVG 1.1//EN" "http://www.w3.org/Graphics/SVG/1.1/DTD/svg11.dtd">
<svg width="34px" height="30px" viewBox="0 0 34 30" style="background-color: #ffffff00" xmlns="http://www.w3.org/2000/svg" xmlns:xlink="http://www.w3.org/1999/xlink" version="1.1" >
<path stroke="none" fill="#000000" transform="matrix(0.05 0 0 0.05 -178 -98)" d="M 3988.2,2018.98 L 3999.57,2022.9 L 3907.02,2291.16 L 3900,2293.07 L 3900,2274.63 L 3988.2,2018.98 Z " />
<path stroke="none" fill="#000000" transform="matrix(0.05 0 0 0.05 -178 -98)" d="M 4186.26,2338.96 L 4170.69,2396.9 L 4159.39,2392.61 L 4174.33,2337 L 4186.26,2338.96 Z " />
<path stroke="none" fill="#000000" transform="matrix(0.05 0 0 0.05 -178 -98)" d="M 4130.16,2329.77 L 4117.54,2376.72 L 4106.24,2372.42 L 4118.23,2327.82 L 4130.16,2329.77 Z " />
<path stroke="none" fill="#000000" transform="matrix(0.05 0 0 0.05 -178 -98)" d="M 4074.05,2320.59 L 4064.39,2356.54 L 4053.09,2352.24 L 4062.12,2318.63 L 4074.05,2320.59 Z " />
<path stroke="none" fill="#000000" transform="matrix(0.05 0 0 0.05 -178 -98)" d="M 4017.95,2311.4 L 4011.24,2336.35 L 3999.94,2332.06 L 4006.01,2309.45 L 4017.95,2311.4 Z " />
<path stroke="none" fill="#000000" transform="matrix(0.05 0 0 0.05 -178 -98)" d="M 3961.84,2302.21 L 3958.09,2316.17 L 3946.79,2311.88 L 3949.91,2300.26 L 3961.84,2302.21 Z " />
<path stroke="none" fill="#000000" transform="matrix(0.05 0 0 0.05 -178 -98)" d="M 4124.84,2475.49 L 4082.41,2517.91 L 3900,2302.36 L 3900,2293.07 L 3907.02,2291.16 L 4124.84,2475.49 Z " />
<path stroke="none" fill="#000000" transform="matrix(0.05 0 0 0.05 -178 -98)" d="M 3900,2274.63 L 3900,2293.07 L 3892.98,2291.16 L 3800.43,2022.9 L 3811.8,2018.98 L 3900,2274.63 Z " />
<path stroke="none" fill="#000000" transform="matrix(0.05 0 0 0.05 -178 -98)" d="M 3850.09,2300.26 L 3853.21,2311.88 L 3841.91,2316.17 L 3838.16,2302.21 L 3850.09,2300.26 Z " />
<path stroke="none" fill="#000000" transform="matrix(0.05 0 0 0.05 -178 -98)" d="M 3793.99,2309.45 L 3800.06,2332.06 L 3788.76,2336.35 L 3782.05,2311.4 L 3793.99,2309.45 Z " />
<path stroke="none" fill="#000000" transform="matrix(0.05 0 0 0.05 -178 -98)" d="M 3737.88,2318.63 L 3746.91,2352.24 L 3735.61,2356.54 L 3725.95,2320.59 L 3737.88,2318.63 Z " />
<path stroke="none" fill="#000000" transform="matrix(0.05 0 0 0.05 -178 -98)" d="M 3681.77,2327.82 L 3693.76,2372.42 L 3682.46,2376.72 L 3669.84,2329.77 L 3681.77,2327.82 Z " />
<path stroke="none" fill="#000000" transform="matrix(0.05 0 0 0.05 -178 -98)" d="M 3625.67,2337 L 3640.61,2392.61 L 3629.31,2396.9 L 3613.74,2338.96 L 3625.67,2337 Z " />
<path stroke="none" fill="#000000" transform="matrix(0.05 0 0 0.05 -178 -98)" d="M 3892.98,2291.16 L 3900,2293.07 L 3900,2302.36 L 3717.59,2517.91 L 3675.16,2475.49 L 3892.98,2291.16 Z " />
<path stroke="none" fill="#108080" transform="matrix(0.05 0 0 0.05 -178 -98)" d="M 3770.41,2293.07 A 129.586,129.586 0 1 0 4029.59,2293.07A 129.586,129.586 0 1 0 3770.41,2293.07Z " />
<path stroke="none" fill="#1e8787" transform="matrix(0.05 0 0 0.05 -178 -98)" d="M 3771.92,2291.05 A 126.059,126.059 0 1 0 4024.03,2291.05A 126.059,126.059 0 1 0 3771.92,2291.05Z " />
<path stroke="none" fill="#2c8f8f" transform="matrix(0.05 0 0 0.05 -178 -98)" d="M 3773.42,2289.03 A 122.531,122.531 0 1 0 4018.48,2289.03A 122.531,122.531 0 1 0 3773.42,2289.03Z " />
<path stroke="none" fill="#3a9696" transform="matrix(0.05 0 0 0.05 -178 -98)" d="M 3774.92,2287 A 119.004,119.004 0 1 0 4012.93,2287A 119.004,119.004 0 1 0 3774.92,2287Z " />
<path stroke="none" fill="#489d9d" transform="matrix(0.05 0 0 0.05 -178 -98)" d="M 3776.42,2284.98 A 115.477,115.477 0 1 0 4007.38,2284.98A 115.477,115.477 0 1 0 3776.42,2284.98Z " />
<path stroke="none" fill="#54a4a4" transform="matrix(0.05 0 0 0.05 -178 -98)" d="M 3777.93,2282.95 A 111.949,111.949 0 1 0 4001.83,2282.95A 111.949,111.949 0 1 0 3777.93,2282.95Z " />
<path stroke="none" fill="#61abab" transform="matrix(0.05 0 0 0.05 -178 -98)" d="M 3779.43,2280.93 A 108.422,108.422 0 1 0 3996.27,2280.93A 108.422,108.422 0 1 0 3779.43,2280.93Z " />
<path stroke="none" fill="#6db1b1" transform="matrix(0.05 0 0 0.05 -178 -98)" d="M 3780.93,2278.9 A 104.895,104.895 0 1 0 3990.72,2278.9A 104.895,104.895 0 1 0 3780.93,2278.9Z " />
<path stroke="none" fill="#78b7b7" transform="matrix(0.05 0 0 0.05 -178 -98)" d="M 3782.43,2276.88 A 101.367,101.367 0 1 0 3985.17,2276.88A 101.367,101.367 0 1 0 3782.43,2276.88Z " />
<path stroke="none" fill="#83bdbd" transform="matrix(0.05 0 0 0.05 -178 -98)" d="M 3783.94,2274.85 A 97.8398,97.8398 0 1 0 3979.62,2274.85A 97.8398,97.8398 0 1 0 3783.94,2274.85Z " />
<path stroke="none" fill="#8ec2c2" transform="matrix(0.05 0 0 0.05 -178 -98)" d="M 3785.44,2272.83 A 94.3125,94.3125 0 1 0 3974.06,2272.83A 94.3125,94.3125 0 1 0 3785.44,2272.83Z " />
<path stroke="none" fill="#98c8c8" transform="matrix(0.05 0 0 0.05 -178 -98)" d="M 3786.94,2270.8 A 90.7852,90.7852 0 1 0 3968.51,2270.8A 90.7852,90.7852 0 1 0 3786.94,2270.8Z " />
<path stroke="none" fill="#a1cdcd" transform="matrix(0.05 0 0 0.05 -178 -98)" d="M 3788.44,2268.78 A 87.2578,87.2578 0 1 0 3962.96,2268.78A 87.2578,87.2578 0 1 0 3788.44,2268.78Z " />
<path stroke="none" fill="#aad2d2" transform="matrix(0.05 0 0 0.05 -178 -98)" d="M 3789.95,2266.75 A 83.7305,83.7305 0 1 0 3957.41,2266.75A 83.7305,83.7305 0 1 0 3789.95,2266.75Z " />
<path stroke="none" fill="#b3d6d6" transform="matrix(0.05 0 0 0.05 -178 -98)" d="M 3791.45,2264.73 A 80.2031,80.2031 0 1 0 3951.86,2264.73A 80.2031,80.2031 0 1 0 3791.45,2264.73Z " />
<path stroke="none" fill="#bbdbdb" transform="matrix(0.05 0 0 0.05 -178 -98)" d="M 3792.95,2262.7 A 76.6758,76.6758 0 1 0 3946.3,2262.7A 76.6758,76.6758 0 1 0 3792.95,2262.7Z " />
<path stroke="none" fill="#c3dfdf" transform="matrix(0.05 0 0 0.05 -178 -98)" d="M 3794.45,2260.68 A 73.1484,73.1484 0 1 0 3940.75,2260.68A 73.1484,73.1484 0 1 0 3794.45,2260.68Z " />
<path stroke="none" fill="#cae3e3" transform="matrix(0.05 0 0 0.05 -178 -98)" d="M 3795.96,2258.65 A 69.6211,69.6211 0 1 0 3935.2,2258.65A 69.6211,69.6211 0 1 0 3795.96,2258.65Z " />
<path stroke="none" fill="#d1e6e6" transform="matrix(0.05 0 0 0.05 -178 -98)" d="M 3797.46,2256.63 A 66.0938,66.0938 0 1 0 3929.65,2256.63A 66.0938,66.0938 0 1 0 3797.46,2256.63Z " />
<path stroke="none" fill="#d7eaea" transform="matrix(0.05 0 0 0.05 -178 -98)" d="M 3798.96,2254.6 A 62.5664,62.5664 0 1 0 3924.1,2254.6A 62.5664,62.5664 0 1 0 3798.96,2254.6Z " />
<path stroke="none" fill="#ddeded" transform="matrix(0.05 0 0 0.05 -178 -98)" d="M 3800.47,2252.58 A 59.0391,59.0391 0 1 0 3918.54,2252.58A 59.0391,59.0391 0 1 0 3800.47,2252.58Z " />
<path stroke="none" fill="#e2efef" transform="matrix(0.05 0 0 0.05 -178 -98)" d="M 3801.97,2250.55 A 55.5117,55.5117 0 1 0 3912.99,2250.55A 55.5117,55.5117 0 1 0 3801.97,2250.55Z " />
<path stroke="none" fill="#e7f2f2" transform="matrix(0.05 0 0 0.05 -178 -98)" d="M 3803.47,2248.53 A 51.9844,51.9844 0 1 0 3907.44,2248.53A 51.9844,51.9844 0 1 0 3803.47,2248.53Z " />
<path stroke="none" fill="#ecf4f4" transform="matrix(0.05 0 0 0.05 -178 -98)" d="M 3804.97,2246.5 A 48.457,48.457 0 1 0 3901.89,2246.5A 48.457,48.457 0 1 0 3804.97,2246.5Z " />
<path stroke="none" fill="#f0f7f7" transform="matrix(0.05 0 0 0.05 -178 -98)" d="M 3806.48,2244.48 A 44.9297,44.9297 0 1 0 3896.33,2244.48A 44.9297,44.9297 0 1 0 3806.48,2244.48Z " />
<path stroke="none" fill="#f3f8f8" transform="matrix(0.05 0 0 0.05 -178 -98)" d="M 3807.98,2242.46 A 41.4023,41.4023 0 1 0 3890.78,2242.46A 41.4023,41.4023 0 1 0 3807.98,2242.46Z " />
<path stroke="none" fill="#f6fafa" transform="matrix(0.05 0 0 0.05 -178 -98)" d="M 3809.48,2240.43 A 37.875,37.875 0 1 0 3885.23,2240.43A 37.875,37.875 0 1 0 3809.48,2240.43Z " />
<path stroke="none" fill="#f9fbfb" transform="matrix(0.05 0 0 0.05 -178 -98)" d="M 3810.98,2238.41 A 34.3477,34.3477 0 1 0 3879.68,2238.41A 34.3477,34.3477 0 1 0 3810.98,2238.41Z " />
<path stroke="none" fill="#fbfdfd" transform="matrix(0.05 0 0 0.05 -178 -98)" d="M 3812.49,2236.38 A 30.8203,30.8203 0 1 0 3874.13,2236.38A 30.8203,30.8203 0 1 0 3812.49,2236.38Z " />
<path stroke="none" fill="#fcfdfd" transform="matrix(0.05 0 0 0.05 -178 -98)" d="M 3813.99,2234.36 A 27.293,27.293 0 1 0 3868.57,2234.36A 27.293,27.293 0 1 0 3813.99,2234.36Z " />
<path stroke="none" fill="#fefefe" transform="matrix(0.05 0 0 0.05 -178 -98)" d="M 3815.49,2232.33 A 23.7656,23.7656 0 1 0 3863.02,2232.33A 23.7656,23.7656 0 1 0 3815.49,2232.33Z " />
<path stroke="none" fill="#fefefe" transform="matrix(0.05 0 0 0.05 -178 -98)" d="M 3816.99,2230.31 A 20.2383,20.2383 0 1 0 3857.47,2230.31A 20.2383,20.2383 0 1 0 3816.99,2230.31Z " />
<path stroke="#108080" stroke-width="12" fill="none" transform="matrix(0.05 0 0 0.05 -178 -98)" d="M 3770.41,2293.07 A 129.586,129.586 0 1 0 4029.59,2293.07A 129.586,129.586 0 1 0 3770.41,2293.07Z " />
</svg>
