<svg height="30" viewBox="0 0 34 30" width="34" xmlns="http://www.w3.org/2000/svg"><g transform="matrix(.05 0 0 .05 -178 -98)"><path d="m3988.2 2018.98 11.37 3.92-92.55 268.26-7.02 1.91v-18.44z"/><path d="m4186.26 2338.96-15.57 57.94-11.3-4.29 14.94-55.61z"/><path d="m4130.16 2329.77-12.62 46.95-11.3-4.3 11.99-44.6z"/><path d="m4074.05 2320.59-9.66 35.95-11.3-4.3 9.03-33.61z"/><path d="m4017.95 2311.4-6.71 24.95-11.3-4.29 6.07-22.61z"/><path d="m3961.84 2302.21-3.75 13.96-11.3-4.29 3.12-11.62z"/><path d="m4124.84 2475.49-42.43 42.42-182.41-215.55v-9.29l7.02-1.91z"/><path d="m3900 2274.63v18.44l-7.02-1.91-92.55-268.26 11.37-3.92z"/><path d="m3850.09 2300.26 3.12 11.62-11.3 4.29-3.75-13.96z"/><path d="m3793.99 2309.45 6.07 22.61-11.3 4.29-6.71-24.95z"/><path d="m3737.88 2318.63 9.03 33.61-11.3 4.3-9.66-35.95z"/><path d="m3681.77 2327.82 11.99 44.6-11.3 4.3-12.62-46.95z"/><path d="m3625.67 2337 14.94 55.61-11.3 4.29-15.57-57.94z"/><path d="m3892.98 2291.16 7.02 1.91v9.29l-182.41 215.55-42.43-42.42z"/><path d="m3770.41 2293.07a129.586 129.586 0 1 0 259.18 0 129.586 129.586 0 1 0 -259.18 0z" fill="#108080"/><path d="m3771.92 2291.05a126.059 126.059 0 1 0 252.11 0 126.059 126.059 0 1 0 -252.11 0z" fill="#1e8787"/><path d="m3773.42 2289.03a122.531 122.531 0 1 0 245.06 0 122.531 122.531 0 1 0 -245.06 0z" fill="#2c8f8f"/><path d="m3774.92 2287a119.004 119.004 0 1 0 238.01 0 119.004 119.004 0 1 0 -238.01 0z" fill="#3a9696"/><path d="m3776.42 2284.98a115.477 115.477 0 1 0 230.96 0 115.477 115.477 0 1 0 -230.96 0z" fill="#489d9d"/><path d="m3777.93 2282.95a111.949 111.949 0 1 0 223.9 0 111.949 111.949 0 1 0 -223.9 0z" fill="#54a4a4"/><path d="m3779.43 2280.93a108.422 108.422 0 1 0 216.84 0 108.422 108.422 0 1 0 -216.84 0z" fill="#61abab"/><path d="m3780.93 2278.9a104.895 104.895 0 1 0 209.79 0 104.895 104.895 0 1 0 -209.79 0z" fill="#6db1b1"/><path d="m3782.43 2276.88a101.367 101.367 0 1 0 202.74 0 101.367 101.367 0 1 0 -202.74 0z" fill="#78b7b7"/><path d="m3783.94 2274.85a97.84 97.84 0 1 0 195.68 0 97.84 97.84 0 1 0 -195.68 0z" fill="#83bdbd"/><path d="m3785.44 2272.83a94.313 94.313 0 1 0 188.62 0 94.313 94.313 0 1 0 -188.62 0z" fill="#8ec2c2"/><path d="m3786.94 2270.8a90.785 90.785 0 1 0 181.57 0 90.785 90.785 0 1 0 -181.57 0z" fill="#98c8c8"/><path d="m3788.44 2268.78a87.258 87.258 0 1 0 174.52 0 87.258 87.258 0 1 0 -174.52 0z" fill="#a1cdcd"/><path d="m3789.95 2266.75a83.731 83.731 0 1 0 167.46 0 83.731 83.731 0 1 0 -167.46 0z" fill="#aad2d2"/><path d="m3791.45 2264.73a80.203 80.203 0 1 0 160.41 0 80.203 80.203 0 1 0 -160.41 0z" fill="#b3d6d6"/><path d="m3792.95 2262.7a76.676 76.676 0 1 0 153.35 0 76.676 76.676 0 1 0 -153.35 0z" fill="#bbdbdb"/><path d="m3794.45 2260.68a73.148 73.148 0 1 0 146.3 0 73.148 73.148 0 1 0 -146.3 0z" fill="#c3dfdf"/><path d="m3795.96 2258.65a69.621 69.621 0 1 0 139.24 0 69.621 69.621 0 1 0 -139.24 0z" fill="#cae3e3"/><path d="m3797.46 2256.63a66.094 66.094 0 1 0 132.19 0 66.094 66.094 0 1 0 -132.19 0z" fill="#d1e6e6"/><path d="m3798.96 2254.6a62.566 62.566 0 1 0 125.14 0 62.566 62.566 0 1 0 -125.14 0z" fill="#d7eaea"/><path d="m3800.47 2252.58a59.039 59.039 0 1 0 118.07 0 59.039 59.039 0 1 0 -118.07 0z" fill="#ddeded"/><path d="m3801.97 2250.55a55.512 55.512 0 1 0 111.02 0 55.512 55.512 0 1 0 -111.02 0z" fill="#e2efef"/><path d="m3803.47 2248.53a51.984 51.984 0 1 0 103.97 0 51.984 51.984 0 1 0 -103.97 0z" fill="#e7f2f2"/><path d="m3804.97 2246.5a48.457 48.457 0 1 0 96.92 0 48.457 48.457 0 1 0 -96.92 0z" fill="#ecf4f4"/><path d="m3806.48 2244.48a44.93 44.93 0 1 0 89.85 0 44.93 44.93 0 1 0 -89.85 0z" fill="#f0f7f7"/><path d="m3807.98 2242.46a41.402 41.402 0 1 0 82.8 0 41.402 41.402 0 1 0 -82.8 0z" fill="#f3f8f8"/><path d="m3809.48 2240.43a37.875 37.875 0 1 0 75.75 0 37.875 37.875 0 1 0 -75.75 0z" fill="#f6fafa"/><path d="m3810.98 2238.41a34.348 34.348 0 1 0 68.7 0 34.348 34.348 0 1 0 -68.7 0z" fill="#f9fbfb"/><path d="m3812.49 2236.38a30.82 30.82 0 1 0 61.64 0 30.82 30.82 0 1 0 -61.64 0z" fill="#fbfdfd"/><path d="m3813.99 2234.36a27.293 27.293 0 1 0 54.58 0 27.293 27.293 0 1 0 -54.58 0z" fill="#fcfdfd"/><path d="m3815.49 2232.33a23.766 23.766 0 1 0 47.53 0 23.766 23.766 0 1 0 -47.53 0z" fill="#fefefe"/><path d="m3816.99 2230.31a20.238 20.238 0 1 0 40.48 0 20.238 20.238 0 1 0 -40.48 0z" fill="#fefefe"/><path d="m3770.41 2293.07a129.586 129.586 0 1 0 259.18 0 129.586 129.586 0 1 0 -259.18 0z" fill="none" stroke="#108080" stroke-width="12"/></g></svg>
