<svg height="34" viewBox="0 0 35 34" width="35" xmlns="http://www.w3.org/2000/svg"><g transform="matrix(.05 0 0 .05 -239 -150)"><path d="m5132.95 3341.25 12.07-6.01-6.01 30.95-55.57 138.23-52.17-29.63z"/><path d="m5139.01 3329.22 6.01 6.02-12.07 6.01h-298.57v-12.03z"/><path d="m5151.04 3344.5-6.02-9.26 6.02-4.63 276 72.09-19.92 56.6z"/><path d="m5125.35 3288.65-10.45 5.96-7.93-9.33 14.38-8.2z"/><path d="m5106.14 3233.1-29.31 16.74-7.93-9.33 33.24-18.98z"/><path d="m5086.93 3177.56-48.17 27.51-7.93-9.33 52.1-29.75z"/><path d="m5194.34 3324.22-4-11.34 10.94-5.15 4.81 13.64z"/><path d="m5249.46 3310.82-7.79-22.08 10.95-5.15 8.59 24.38z"/><path d="m5304.58 3297.42-11.57-32.82 10.94-5.15 12.38 35.11z"/><path d="m5359.71 3284.02-15.36-43.56 10.94-5.14 16.17 45.84z"/><path d="m5414.83 3270.62-19.15-54.3 10.95-5.14 19.95 56.58z"/><path d="m5139.01 3054.6h12.03v276.01l-6.02 4.63-6.01-6.02z"/><path d="m5151.04 3625.4h-12.03v-259.21l6.01-30.95 6.02 9.26z"/><path d="m5041.36 3335.24a103.669 103.669 0 1 0 207.33 0 103.669 103.669 0 1 0 -207.33 0z" fill="#108080"/><path d="m5042.55 3333.62a100.852 100.852 0 1 0 201.71 0 100.852 100.852 0 1 0 -201.71 0z" fill="#1e8787"/><path d="m5043.75 3332a98.036 98.036 0 1 0 196.07 0 98.036 98.036 0 1 0 -196.07 0z" fill="#2c8f8f"/><path d="m5044.95 3330.38a95.22 95.22 0 1 0 190.44 0 95.22 95.22 0 1 0 -190.44 0z" fill="#3a9696"/><path d="m5046.14 3328.76a92.403 92.403 0 1 0 184.81 0 92.403 92.403 0 1 0 -184.81 0z" fill="#489d9d"/><path d="m5047.34 3327.14a89.587 89.587 0 1 0 179.17 0 89.587 89.587 0 1 0 -179.17 0z" fill="#54a4a4"/><path d="m5048.54 3325.52a86.77 86.77 0 1 0 173.54 0 86.77 86.77 0 1 0 -173.54 0z" fill="#61abab"/><path d="m5049.73 3323.9a83.954 83.954 0 1 0 167.91 0 83.954 83.954 0 1 0 -167.91 0z" fill="#6db1b1"/><path d="m5050.93 3322.28a81.138 81.138 0 1 0 162.27 0 81.138 81.138 0 1 0 -162.27 0z" fill="#78b7b7"/><path d="m5052.13 3320.66a78.321 78.321 0 1 0 156.64 0 78.321 78.321 0 1 0 -156.64 0z" fill="#83bdbd"/><path d="m5053.32 3319.04a75.505 75.505 0 1 0 151.01 0 75.505 75.505 0 1 0 -151.01 0z" fill="#8ec2c2"/><path d="m5054.52 3317.42a72.688 72.688 0 1 0 145.38 0 72.688 72.688 0 1 0 -145.38 0z" fill="#98c8c8"/><path d="m5055.72 3315.8a69.872 69.872 0 1 0 139.74 0 69.872 69.872 0 1 0 -139.74 0z" fill="#a1cdcd"/><path d="m5056.91 3314.18a67.056 67.056 0 1 0 134.11 0 67.056 67.056 0 1 0 -134.11 0z" fill="#aad2d2"/><path d="m5058.11 3312.56a64.239 64.239 0 1 0 128.48 0 64.239 64.239 0 1 0 -128.48 0z" fill="#b3d6d6"/><path d="m5059.3 3310.94a61.423 61.423 0 1 0 122.85 0 61.423 61.423 0 1 0 -122.85 0z" fill="#bbdbdb"/><path d="m5060.5 3309.32a58.606 58.606 0 1 0 117.21 0 58.606 58.606 0 1 0 -117.21 0z" fill="#c3dfdf"/><path d="m5061.7 3307.7a55.79 55.79 0 1 0 111.58 0 55.79 55.79 0 1 0 -111.58 0z" fill="#cae3e3"/><path d="m5062.89 3306.08a52.973 52.973 0 1 0 105.95 0 52.973 52.973 0 1 0 -105.95 0z" fill="#d1e6e6"/><path d="m5064.09 3304.46a50.157 50.157 0 1 0 100.32 0 50.157 50.157 0 1 0 -100.32 0z" fill="#d7eaea"/><path d="m5065.29 3302.84a47.341 47.341 0 1 0 94.68 0 47.341 47.341 0 1 0 -94.68 0z" fill="#ddeded"/><path d="m5066.48 3301.22a44.524 44.524 0 1 0 89.05 0 44.524 44.524 0 1 0 -89.05 0z" fill="#e2efef"/><path d="m5067.68 3299.6a41.708 41.708 0 1 0 83.42 0 41.708 41.708 0 1 0 -83.42 0z" fill="#e7f2f2"/><path d="m5068.88 3297.98a38.891 38.891 0 1 0 77.78 0 38.891 38.891 0 1 0 -77.78 0z" fill="#ecf4f4"/><path d="m5070.07 3296.36a36.075 36.075 0 1 0 72.15 0 36.075 36.075 0 1 0 -72.15 0z" fill="#f0f7f7"/><path d="m5071.27 3294.74a33.259 33.259 0 1 0 66.52 0 33.259 33.259 0 1 0 -66.52 0z" fill="#f3f8f8"/><path d="m5072.47 3293.12a30.442 30.442 0 1 0 60.88 0 30.442 30.442 0 1 0 -60.88 0z" fill="#f6fafa"/><path d="m5073.66 3291.5a27.626 27.626 0 1 0 55.26 0 27.626 27.626 0 1 0 -55.26 0z" fill="#f9fbfb"/><path d="m5074.86 3289.88a24.809 24.809 0 1 0 49.62 0 24.809 24.809 0 1 0 -49.62 0z" fill="#fbfdfd"/><path d="m5076.06 3288.26a21.993 21.993 0 1 0 43.98 0 21.993 21.993 0 1 0 -43.98 0z" fill="#fcfdfd"/><path d="m5077.25 3286.64a19.177 19.177 0 1 0 38.36 0 19.177 19.177 0 1 0 -38.36 0z" fill="#fefefe"/><path d="m5078.45 3285.02a16.36 16.36 0 1 0 32.72 0 16.36 16.36 0 1 0 -32.72 0z" fill="#fefefe"/><path d="m5041.36 3335.24a103.669 103.669 0 1 0 207.33 0 103.669 103.669 0 1 0 -207.33 0z" fill="none" stroke="#108080" stroke-width="12"/></g></svg>
