<svg xmlns="http://www.w3.org/2000/svg" xmlns:xlink="http://www.w3.org/1999/xlink" width="35" height="34" viewBox="0 0 35 34" style="background-color:#ffffff00" version="1.1"><path fill="#000" stroke="none" d="M 5132.95,3341.25 L 5145.02,3335.24 L 5139.01,3366.19 L 5083.44,3504.42 L 5031.27,3474.79 L 5132.95,3341.25 Z" transform="matrix(0.05 0 0 0.05 -239 -150)"/><path fill="#000" stroke="none" d="M 5139.01,3329.22 L 5145.02,3335.24 L 5132.95,3341.25 L 4834.38,3341.25 L 4834.38,3329.22 L 5139.01,3329.22 Z" transform="matrix(0.05 0 0 0.05 -239 -150)"/><path fill="#000" stroke="none" d="M 5151.04,3344.5 L 5145.02,3335.24 L 5151.04,3330.61 L 5427.04,3402.7 L 5407.12,3459.3 L 5151.04,3344.5 Z" transform="matrix(0.05 0 0 0.05 -239 -150)"/><path fill="#000" stroke="none" d="M 5125.35,3288.65 L 5114.9,3294.61 L 5106.97,3285.28 L 5121.35,3277.08 L 5125.35,3288.65 Z" transform="matrix(0.05 0 0 0.05 -239 -150)"/><path fill="#000" stroke="none" d="M 5106.14,3233.1 L 5076.83,3249.84 L 5068.9,3240.51 L 5102.14,3221.53 L 5106.14,3233.1 Z" transform="matrix(0.05 0 0 0.05 -239 -150)"/><path fill="#000" stroke="none" d="M 5086.93,3177.56 L 5038.76,3205.07 L 5030.83,3195.74 L 5082.93,3165.99 L 5086.93,3177.56 Z" transform="matrix(0.05 0 0 0.05 -239 -150)"/><path fill="#000" stroke="none" d="M 5194.34,3324.22 L 5190.34,3312.88 L 5201.28,3307.73 L 5206.09,3321.37 L 5194.34,3324.22 Z" transform="matrix(0.05 0 0 0.05 -239 -150)"/><path fill="#000" stroke="none" d="M 5249.46,3310.82 L 5241.67,3288.74 L 5252.62,3283.59 L 5261.21,3307.97 L 5249.46,3310.82 Z" transform="matrix(0.05 0 0 0.05 -239 -150)"/><path fill="#000" stroke="none" d="M 5304.58,3297.42 L 5293.01,3264.6 L 5303.95,3259.45 L 5316.33,3294.56 L 5304.58,3297.42 Z" transform="matrix(0.05 0 0 0.05 -239 -150)"/><path fill="#000" stroke="none" d="M 5359.71,3284.02 L 5344.35,3240.46 L 5355.29,3235.32 L 5371.46,3281.16 L 5359.71,3284.02 Z" transform="matrix(0.05 0 0 0.05 -239 -150)"/><path fill="#000" stroke="none" d="M 5414.83,3270.62 L 5395.68,3216.32 L 5406.63,3211.18 L 5426.58,3267.76 L 5414.83,3270.62 Z" transform="matrix(0.05 0 0 0.05 -239 -150)"/><path fill="#000" stroke="none" d="M 5139.01,3054.6 L 5151.04,3054.6 L 5151.04,3330.61 L 5145.02,3335.24 L 5139.01,3329.22 L 5139.01,3054.6 Z" transform="matrix(0.05 0 0 0.05 -239 -150)"/><path fill="#000" stroke="none" d="M 5151.04,3625.4 L 5139.01,3625.4 L 5139.01,3366.19 L 5145.02,3335.24 L 5151.04,3344.5 L 5151.04,3625.4 Z" transform="matrix(0.05 0 0 0.05 -239 -150)"/><path fill="#108080" stroke="none" d="M 5041.36,3335.24 A 103.669,103.669 0 1 0 5248.69,3335.24A 103.669,103.669 0 1 0 5041.36,3335.24Z" transform="matrix(0.05 0 0 0.05 -239 -150)"/><path fill="#1e8787" stroke="none" d="M 5042.55,3333.62 A 100.852,100.852 0 1 0 5244.26,3333.62A 100.852,100.852 0 1 0 5042.55,3333.62Z" transform="matrix(0.05 0 0 0.05 -239 -150)"/><path fill="#2c8f8f" stroke="none" d="M 5043.75,3332 A 98.0359,98.0359 0 1 0 5239.82,3332A 98.0359,98.0359 0 1 0 5043.75,3332Z" transform="matrix(0.05 0 0 0.05 -239 -150)"/><path fill="#3a9696" stroke="none" d="M 5044.95,3330.38 A 95.2195,95.2195 0 1 0 5235.39,3330.38A 95.2195,95.2195 0 1 0 5044.95,3330.38Z" transform="matrix(0.05 0 0 0.05 -239 -150)"/><path fill="#489d9d" stroke="none" d="M 5046.14,3328.76 A 92.4031,92.4031 0 1 0 5230.95,3328.76A 92.4031,92.4031 0 1 0 5046.14,3328.76Z" transform="matrix(0.05 0 0 0.05 -239 -150)"/><path fill="#54a4a4" stroke="none" d="M 5047.34,3327.14 A 89.5867,89.5867 0 1 0 5226.51,3327.14A 89.5867,89.5867 0 1 0 5047.34,3327.14Z" transform="matrix(0.05 0 0 0.05 -239 -150)"/><path fill="#61abab" stroke="none" d="M 5048.54,3325.52 A 86.7703,86.7703 0 1 0 5222.08,3325.52A 86.7703,86.7703 0 1 0 5048.54,3325.52Z" transform="matrix(0.05 0 0 0.05 -239 -150)"/><path fill="#6db1b1" stroke="none" d="M 5049.73,3323.9 A 83.9539,83.9539 0 1 0 5217.64,3323.9A 83.9539,83.9539 0 1 0 5049.73,3323.9Z" transform="matrix(0.05 0 0 0.05 -239 -150)"/><path fill="#78b7b7" stroke="none" d="M 5050.93,3322.28 A 81.1375,81.1375 0 1 0 5213.2,3322.28A 81.1375,81.1375 0 1 0 5050.93,3322.28Z" transform="matrix(0.05 0 0 0.05 -239 -150)"/><path fill="#83bdbd" stroke="none" d="M 5052.13,3320.66 A 78.3211,78.3211 0 1 0 5208.77,3320.66A 78.3211,78.3211 0 1 0 5052.13,3320.66Z" transform="matrix(0.05 0 0 0.05 -239 -150)"/><path fill="#8ec2c2" stroke="none" d="M 5053.32,3319.04 A 75.5047,75.5047 0 1 0 5204.33,3319.04A 75.5047,75.5047 0 1 0 5053.32,3319.04Z" transform="matrix(0.05 0 0 0.05 -239 -150)"/><path fill="#98c8c8" stroke="none" d="M 5054.52,3317.42 A 72.6883,72.6883 0 1 0 5199.9,3317.42A 72.6883,72.6883 0 1 0 5054.52,3317.42Z" transform="matrix(0.05 0 0 0.05 -239 -150)"/><path fill="#a1cdcd" stroke="none" d="M 5055.72,3315.8 A 69.8719,69.8719 0 1 0 5195.46,3315.8A 69.8719,69.8719 0 1 0 5055.72,3315.8Z" transform="matrix(0.05 0 0 0.05 -239 -150)"/><path fill="#aad2d2" stroke="none" d="M 5056.91,3314.18 A 67.0555,67.0555 0 1 0 5191.02,3314.18A 67.0555,67.0555 0 1 0 5056.91,3314.18Z" transform="matrix(0.05 0 0 0.05 -239 -150)"/><path fill="#b3d6d6" stroke="none" d="M 5058.11,3312.56 A 64.2391,64.2391 0 1 0 5186.59,3312.56A 64.2391,64.2391 0 1 0 5058.11,3312.56Z" transform="matrix(0.05 0 0 0.05 -239 -150)"/><path fill="#bbdbdb" stroke="none" d="M 5059.3,3310.94 A 61.4227,61.4227 0 1 0 5182.15,3310.94A 61.4227,61.4227 0 1 0 5059.3,3310.94Z" transform="matrix(0.05 0 0 0.05 -239 -150)"/><path fill="#c3dfdf" stroke="none" d="M 5060.5,3309.32 A 58.6063,58.6063 0 1 0 5177.71,3309.32A 58.6063,58.6063 0 1 0 5060.5,3309.32Z" transform="matrix(0.05 0 0 0.05 -239 -150)"/><path fill="#cae3e3" stroke="none" d="M 5061.7,3307.7 A 55.7898,55.7898 0 1 0 5173.28,3307.7A 55.7898,55.7898 0 1 0 5061.7,3307.7Z" transform="matrix(0.05 0 0 0.05 -239 -150)"/><path fill="#d1e6e6" stroke="none" d="M 5062.89,3306.08 A 52.9734,52.9734 0 1 0 5168.84,3306.08A 52.9734,52.9734 0 1 0 5062.89,3306.08Z" transform="matrix(0.05 0 0 0.05 -239 -150)"/><path fill="#d7eaea" stroke="none" d="M 5064.09,3304.46 A 50.157,50.157 0 1 0 5164.41,3304.46A 50.157,50.157 0 1 0 5064.09,3304.46Z" transform="matrix(0.05 0 0 0.05 -239 -150)"/><path fill="#ddeded" stroke="none" d="M 5065.29,3302.84 A 47.3406,47.3406 0 1 0 5159.97,3302.84A 47.3406,47.3406 0 1 0 5065.29,3302.84Z" transform="matrix(0.05 0 0 0.05 -239 -150)"/><path fill="#e2efef" stroke="none" d="M 5066.48,3301.22 A 44.5242,44.5242 0 1 0 5155.53,3301.22A 44.5242,44.5242 0 1 0 5066.48,3301.22Z" transform="matrix(0.05 0 0 0.05 -239 -150)"/><path fill="#e7f2f2" stroke="none" d="M 5067.68,3299.6 A 41.7078,41.7078 0 1 0 5151.1,3299.6A 41.7078,41.7078 0 1 0 5067.68,3299.6Z" transform="matrix(0.05 0 0 0.05 -239 -150)"/><path fill="#ecf4f4" stroke="none" d="M 5068.88,3297.98 A 38.8914,38.8914 0 1 0 5146.66,3297.98A 38.8914,38.8914 0 1 0 5068.88,3297.98Z" transform="matrix(0.05 0 0 0.05 -239 -150)"/><path fill="#f0f7f7" stroke="none" d="M 5070.07,3296.36 A 36.075,36.075 0 1 0 5142.22,3296.36A 36.075,36.075 0 1 0 5070.07,3296.36Z" transform="matrix(0.05 0 0 0.05 -239 -150)"/><path fill="#f3f8f8" stroke="none" d="M 5071.27,3294.74 A 33.2586,33.2586 0 1 0 5137.79,3294.74A 33.2586,33.2586 0 1 0 5071.27,3294.74Z" transform="matrix(0.05 0 0 0.05 -239 -150)"/><path fill="#f6fafa" stroke="none" d="M 5072.47,3293.12 A 30.4422,30.4422 0 1 0 5133.35,3293.12A 30.4422,30.4422 0 1 0 5072.47,3293.12Z" transform="matrix(0.05 0 0 0.05 -239 -150)"/><path fill="#f9fbfb" stroke="none" d="M 5073.66,3291.5 A 27.6258,27.6258 0 1 0 5128.92,3291.5A 27.6258,27.6258 0 1 0 5073.66,3291.5Z" transform="matrix(0.05 0 0 0.05 -239 -150)"/><path fill="#fbfdfd" stroke="none" d="M 5074.86,3289.88 A 24.8094,24.8094 0 1 0 5124.48,3289.88A 24.8094,24.8094 0 1 0 5074.86,3289.88Z" transform="matrix(0.05 0 0 0.05 -239 -150)"/><path fill="#fcfdfd" stroke="none" d="M 5076.06,3288.26 A 21.993,21.993 0 1 0 5120.04,3288.26A 21.993,21.993 0 1 0 5076.06,3288.26Z" transform="matrix(0.05 0 0 0.05 -239 -150)"/><path fill="#fefefe" stroke="none" d="M 5077.25,3286.64 A 19.1766,19.1766 0 1 0 5115.61,3286.64A 19.1766,19.1766 0 1 0 5077.25,3286.64Z" transform="matrix(0.05 0 0 0.05 -239 -150)"/><path fill="#fefefe" stroke="none" d="M 5078.45,3285.02 A 16.3602,16.3602 0 1 0 5111.17,3285.02A 16.3602,16.3602 0 1 0 5078.45,3285.02Z" transform="matrix(0.05 0 0 0.05 -239 -150)"/><path fill="none" stroke="#108080" stroke-width="12" d="M 5041.36,3335.24 A 103.669,103.669 0 1 0 5248.69,3335.24A 103.669,103.669 0 1 0 5041.36,3335.24Z" transform="matrix(0.05 0 0 0.05 -239 -150)"/></svg>