<svg height="28" viewBox="0 0 32 28" width="32" xmlns="http://www.w3.org/2000/svg"><g transform="matrix(.05 0 0 .05 -166 -113)"><path d="m3405.39 2357.81 42.42-42.42 7.63 9.34-40.71 40.71z"/><path d="m3449.28 2393.65 34.37-34.37 7.63 9.35-32.65 32.65z"/><path d="m3493.18 2429.5 26.32-26.32 7.62 9.35-24.59 24.59z"/><path d="m3537.08 2465.34 18.26-18.26 7.63 9.34-16.55 16.55z"/><path d="m3580.98 2501.18 10.2-10.2 7.63 9.34-8.49 8.49z"/><path d="m3447.81 2764.61-42.42-42.42 213.65-180.75 10.96-1.44.35 8.84z"/><path d="m3829.16 2332.36 8.48 8.48-195.32 195.32-12.32 3.84-.71-7.77z"/><path d="m3837.64 2739.16-8.48 8.48-198.81-198.8-.35-8.84 23.21 14.72z"/><path d="m3395.58 2709.98-30-51.96 11-4.95 28.79 49.86z"/><path d="m3441.63 2676.82-24.3-42.1 10.99-4.95 23.1 40z"/><path d="m3487.67 2643.66-18.6-32.23 11-4.95 17.39 30.13z"/><path d="m3533.72 2610.49-12.91-22.35 11-4.95 11.69 20.26z"/><path d="m3579.76 2577.33-7.21-12.49 11-4.95 6 10.39z"/><path d="m3915.79 2585.83-15.58 57.94-247-89.05-23.21-14.72 12.32-3.84z"/><path d="m3365.58 2421.98 30-51.96 233.71 162.21.71 7.77-10.96 1.44z"/><path d="m3900.21 2436.23 15.58 57.94-11.9 1.95-14.96-55.6z"/><path d="m3847.19 2456.39 12.63 46.94-11.9 1.95-12-44.6z"/><path d="m3794.18 2476.56 9.66 35.93-11.9 1.95-9.04-33.59z"/><path d="m3741.16 2496.72 6.71 24.93-11.9 1.95-6.08-22.59z"/><path d="m3688.15 2516.89 3.74 13.92-11.9 1.95-3.12-11.59z"/><path d="m3500.4 2540a129.6 129.6 0 1 0 259.2 0 129.6 129.6 0 1 0 -259.2 0z" fill="#107f80"/><path d="m3501.9 2537.98a126.073 126.073 0 1 0 252.15 0 126.073 126.073 0 1 0 -252.15 0z" fill="#1e8687"/><path d="m3503.4 2535.95a122.545 122.545 0 1 0 245.1 0 122.545 122.545 0 1 0 -245.1 0z" fill="#2c8e8f"/><path d="m3504.91 2533.93a119.018 119.018 0 1 0 238.03 0 119.018 119.018 0 1 0 -238.03 0z" fill="#3a9596"/><path d="m3506.41 2531.9a115.491 115.491 0 1 0 230.98 0 115.491 115.491 0 1 0 -230.98 0z" fill="#489d9d"/><path d="m3507.91 2529.88a111.963 111.963 0 1 0 223.93 0 111.963 111.963 0 1 0 -223.93 0z" fill="#54a3a4"/><path d="m3509.41 2527.85a108.436 108.436 0 1 0 216.88 0 108.436 108.436 0 1 0 -216.88 0z" fill="#61aaab"/><path d="m3510.92 2525.83a104.909 104.909 0 1 0 209.81 0 104.909 104.909 0 1 0 -209.81 0z" fill="#6db0b1"/><path d="m3512.42 2523.8a101.381 101.381 0 1 0 202.76 0 101.381 101.381 0 1 0 -202.76 0z" fill="#78b7b7"/><path d="m3513.92 2521.78a97.854 97.854 0 1 0 195.71 0 97.854 97.854 0 1 0 -195.71 0z" fill="#83bcbd"/><path d="m3515.42 2519.75a94.327 94.327 0 1 0 188.66 0 94.327 94.327 0 1 0 -188.66 0z" fill="#8ec2c2"/><path d="m3516.93 2517.73a90.799 90.799 0 1 0 181.59 0 90.799 90.799 0 1 0 -181.59 0z" fill="#98c7c8"/><path d="m3518.43 2515.7a87.272 87.272 0 1 0 174.54 0 87.272 87.272 0 1 0 -174.54 0z" fill="#a1cdcd"/><path d="m3519.93 2513.68a83.744 83.744 0 1 0 167.49 0 83.744 83.744 0 1 0 -167.49 0z" fill="#aad1d2"/><path d="m3521.43 2511.65a80.217 80.217 0 1 0 160.44 0 80.217 80.217 0 1 0 -160.44 0z" fill="#b3d6d6"/><path d="m3522.94 2509.63a76.69 76.69 0 1 0 153.37 0 76.69 76.69 0 1 0 -153.37 0z" fill="#bbdadb"/><path d="m3524.44 2507.6a73.162 73.162 0 1 0 146.32 0 73.162 73.162 0 1 0 -146.32 0z" fill="#c3dfdf"/><path d="m3525.94 2505.58a69.635 69.635 0 1 0 139.27 0 69.635 69.635 0 1 0 -139.27 0z" fill="#cae2e3"/><path d="m3527.44 2503.55a66.108 66.108 0 1 0 132.22 0 66.108 66.108 0 1 0 -132.22 0z" fill="#d1e6e6"/><path d="m3528.94 2501.53a62.58 62.58 0 1 0 125.17 0 62.58 62.58 0 1 0 -125.17 0z" fill="#d7e9ea"/><path d="m3530.45 2499.5a59.053 59.053 0 1 0 118.1 0 59.053 59.053 0 1 0 -118.1 0z" fill="#ddeded"/><path d="m3531.95 2497.48a55.526 55.526 0 1 0 111.05 0 55.526 55.526 0 1 0 -111.05 0z" fill="#e2efef"/><path d="m3533.45 2495.45a51.998 51.998 0 1 0 104 0 51.998 51.998 0 1 0 -104 0z" fill="#e7f2f2"/><path d="m3534.95 2493.43a48.471 48.471 0 1 0 96.95 0 48.471 48.471 0 1 0 -96.95 0z" fill="#ecf4f4"/><path d="m3536.46 2491.4a44.944 44.944 0 1 0 89.88 0 44.944 44.944 0 1 0 -89.88 0z" fill="#f0f7f7"/><path d="m3537.96 2489.38a41.416 41.416 0 1 0 82.83 0 41.416 41.416 0 1 0 -82.83 0z" fill="#f3f8f8"/><path d="m3539.46 2487.35a37.889 37.889 0 1 0 75.78 0 37.889 37.889 0 1 0 -75.78 0z" fill="#f6fafa"/><path d="m3540.96 2485.33a34.362 34.362 0 1 0 68.73 0 34.362 34.362 0 1 0 -68.73 0z" fill="#f9fbfb"/><path d="m3542.47 2483.3a30.834 30.834 0 1 0 61.66 0 30.834 30.834 0 1 0 -61.66 0z" fill="#fbfdfd"/><path d="m3543.97 2481.28a27.307 27.307 0 1 0 54.61 0 27.307 27.307 0 1 0 -54.61 0z" fill="#fcfdfd"/><path d="m3545.47 2479.25a23.78 23.78 0 1 0 47.56 0 23.78 23.78 0 1 0 -47.56 0z" fill="#fefefe"/><path d="m3546.97 2477.23a20.252 20.252 0 1 0 40.51 0 20.252 20.252 0 1 0 -40.51 0z" fill="#fefefe"/><path d="m3500.4 2540a129.6 129.6 0 1 0 259.2 0 129.6 129.6 0 1 0 -259.2 0z" fill="none" stroke="#107f80" stroke-width="12"/></g></svg>
