<svg xmlns="http://www.w3.org/2000/svg" xmlns:svg="http://www.w3.org/2000/svg" id="svg1" width="128" height="128" version="1.1" viewBox="0 0 33.867 33.867" xml:space="preserve"><defs id="defs1"><linearGradient id="linearGradient10"><stop style="stop-color:#c2c2c2;stop-opacity:1" id="stop9" offset="0"/><stop style="stop-color:#000;stop-opacity:1" id="stop10" offset="1"/></linearGradient><linearGradient id="linearGradient1"><stop style="stop-color:#ece69f;stop-opacity:1" id="stop7" offset="0"/><stop style="stop-color:#ffca00;stop-opacity:1" id="stop8" offset="1"/></linearGradient><linearGradient id="linearGradient1-1"><stop style="stop-color:#c2c2c2;stop-opacity:1" id="stop4" offset="0"/><stop style="stop-color:#7b7b7b;stop-opacity:1" id="stop5" offset="1"/></linearGradient><clipPath id="clipPath18" clipPathUnits="userSpaceOnUse"><path id="path18" d="M 0,0 H 209 V 195 H 0 Z"/></clipPath><clipPath id="clipPath20" clipPathUnits="userSpaceOnUse"><path id="path20" d="M 0,0 H 209 V 195 H 0 Z" transform="matrix(1,0,0,-1,195,485.00001)"/></clipPath><marker style="overflow:visible" id="ArrowWideRounded-3" markerHeight=".8" markerWidth=".8" orient="auto-start-reverse" preserveAspectRatio="xMidYMid" refX="0" refY="0" viewBox="0 0 1 1"><path style="fill:none;stroke:context-stroke;stroke-width:1;stroke-linecap:round" id="path2-7" d="M 3,-3 0,0 3,3" transform="rotate(180,0.125,0)"/></marker></defs><g id="layer3"><rect style="fill:#bababa;fill-opacity:1;stroke:#000;stroke-width:1.05833;stroke-linecap:square;stroke-dashoffset:.4" id="rect1" width="52.011" height="51.075" x="-95.415" y="-3.929"/><path style="fill:none;fill-opacity:1;stroke:#00bdeb;stroke-width:2.11667;stroke-linecap:round;stroke-linejoin:round;stroke-dasharray:none;stroke-opacity:1;paint-order:fill markers stroke" id="path6-5" d="M 47.269307,32.609754 V 48.094298"/><path style="fill:none;fill-opacity:1;stroke:#00bdeb;stroke-width:2.11667;stroke-linecap:round;stroke-linejoin:round;stroke-dasharray:none;stroke-opacity:1;paint-order:fill markers stroke" id="path6-0-2" d="M 76.787891,32.609754 V 48.094298"/><path style="fill:none;fill-opacity:1;stroke:#00bdeb;stroke-width:2.11667;stroke-linecap:round;stroke-linejoin:round;stroke-dasharray:none;stroke-opacity:1;marker-start:url(#ArrowWideRounded-3);marker-end:url(#ArrowWideRounded-3);paint-order:normal" id="path6-3-5" d="M 74.638144,40.352026 H 49.419858"/><text xml:space="preserve" style="font-style:normal;font-variant:normal;font-weight:400;font-stretch:normal;font-size:16.9333px;font-family:Inter;-inkscape-font-specification:'Inter, Normal';font-variant-ligatures:normal;font-variant-caps:normal;font-variant-numeric:normal;font-variant-east-asian:normal;fill:#00bdeb;fill-opacity:1;stroke:#00bdeb;stroke-width:.264583;stroke-linecap:round;stroke-linejoin:round;stroke-dasharray:none;stroke-opacity:1;paint-order:fill markers stroke" id="text6-4" x="56.187" y="34.307"><tspan id="tspan6-7" style="font-style:normal;font-variant:normal;font-weight:400;font-stretch:normal;font-size:16.9333px;font-family:Inter;-inkscape-font-specification:'Inter, Normal';font-variant-ligatures:normal;font-variant-caps:normal;font-variant-numeric:normal;font-variant-east-asian:normal;fill:#00bdeb;fill-opacity:1;stroke:#00bdeb;stroke-width:.264583;stroke-dasharray:none;stroke-opacity:1" x="56.187" y="34.307">Å</tspan></text><g id="g1" transform="translate(-0.0079484)"><path style="color:#000;fill:#00bdeb;stroke-linecap:round;stroke-linejoin:round;-inkscape-stroke:none;paint-order:fill markers stroke" id="path6-5-9" d="M 1.2402344,15.583984 A 1.08803,1.08803 0 0 0 0.15234375,16.671875 V 32.589844 A 1.08803,1.08803 0 0 0 1.2402344,33.679687 1.08803,1.08803 0 0 0 2.328125,32.589844 V 16.671875 A 1.08803,1.08803 0 0 0 1.2402344,15.583984 Z"/><path style="color:#000;fill:#00bdeb;stroke-linecap:round;stroke-linejoin:round;-inkscape-stroke:none;paint-order:fill markers stroke" id="path6-0-2-4" d="m 32.642578,15.583984 a 1.08803,1.08803 0 0 0 -1.087891,1.087891 v 15.917969 a 1.08803,1.08803 0 0 0 1.087891,1.089843 1.08803,1.08803 0 0 0 1.087891,-1.089843 V 16.671875 a 1.08803,1.08803 0 0 0 -1.087891,-1.087891 z"/><g id="path6-3-5-7"><path style="color:#000;fill:#00bdeb;stroke-linecap:round;stroke-linejoin:round;-inkscape-stroke:none" id="path5" d="M 3.9785156,23.542969 A 1.08803,1.08803 0 0 0 2.890625,24.630859 1.08803,1.08803 0 0 0 3.9785156,25.71875 H 29.904297 a 1.08803,1.08803 0 0 0 1.08789,-1.087891 1.08803,1.08803 0 0 0 -1.08789,-1.08789 z"/><g id="g3"><path style="color:#000;fill:#00bdeb;stroke-linecap:round;-inkscape-stroke:none" id="path4" d="M 8.1503906,18.792969 2.3125,24.630859 8.1503906,30.46875 a 0.87042499,0.87042499 0 0 0 1.2304688,0 0.87042499,0.87042499 0 0 0 0,-1.230469 L 4.7734375,24.630859 9.3808594,20.023437 a 0.87042499,0.87042499 0 0 0 0,-1.230468 0.87042499,0.87042499 0 0 0 -1.2304688,0 z"/><path style="color:#000;fill:#00bdeb;stroke-linecap:round;-inkscape-stroke:none" id="path3" d="m 25.117187,18.539062 a 0.87042499,0.87042499 0 0 0 -0.615234,0.253907 0.87042499,0.87042499 0 0 0 0,1.230468 l 4.607422,4.607422 -4.607422,4.607422 a 0.87042499,0.87042499 0 0 0 0,1.230469 0.87042499,0.87042499 0 0 0 1.230469,0 l 5.83789,-5.837891 -5.83789,-5.83789 a 0.87042499,0.87042499 0 0 0 -0.615235,-0.253907 z"/></g></g></g><g id="text6-4-8"><path style="color:#000;-inkscape-font-specification:'Inter, Normal';fill:#00bdeb;stroke-linecap:round;stroke-linejoin:round;-inkscape-stroke:none;paint-order:fill markers stroke" id="path6" d="M 11.108507,18.482096 15.923221,5.2216053 h 1.957925 l 4.877013,13.2604907 h -1.779932 l -1.326049,-3.702258 h -5.46439 l -1.281551,3.702258 z m 3.595461,-5.179601 h 4.42313 L 18.165935,10.614798 Q 17.925645,9.9473237 17.623056,8.9861606 17.320468,8.0160979 16.893284,6.5743533 16.475,8.0427969 16.163512,9.0217593 15.852024,10.000722 15.638432,10.614798 Z m 2.224915,-8.5347722 q -0.649675,0 -1.183655,-0.3025884 Q 15.220149,4.162546 14.899761,3.6552655 14.588273,3.147985 14.588273,2.5339086 q 0,-0.6229761 0.311488,-1.1213569 0.320388,-0.50728051 0.845467,-0.80096922 0.53398,-0.30258837 1.183655,-0.30258837 0.649675,0 1.174755,0.30258837 0.533979,0.29368871 0.845467,0.80096922 0.320388,0.4983808 0.320388,1.1213569 0,0.6140764 -0.320388,1.1213569 -0.311488,0.5072805 -0.845467,0.8098689 -0.52508,0.3025884 -1.174755,0.3025884 z m 0,-1.1213569 q 0.462782,0 0.78317,-0.3203877 0.329287,-0.3292874 0.329287,-0.7920696 0,-0.4627822 -0.320388,-0.7831699 -0.320387,-0.3292873 -0.792069,-0.3292873 -0.462782,0 -0.79207,0.3292873 -0.320387,0.3203877 -0.320387,0.7831699 0,0.4627822 0.320387,0.7920696 0.329288,0.3203877 0.79207,0.3203877 z"/><path style="color:#000;-inkscape-font-specification:'Inter, Normal';fill:#00bdeb;stroke-linecap:round;stroke-linejoin:round;-inkscape-stroke:none;paint-order:fill markers stroke" id="path7" d="m 16.929687,0.16601562 c -0.455223,0 -0.876369,0.1083282 -1.253906,0.32226563 -0.369768,0.20681962 -0.670763,0.49026507 -0.896484,0.84765625 a 0.14240874,0.14240874 0 0 0 0,0.00195 c -0.221791,0.354866 -0.333984,0.7562632 -0.333984,1.1953125 0,0.4334602 0.112919,0.8372457 0.333984,1.1972657 0.22552,0.3570732 0.525508,0.6447643 0.894531,0.8574218 a 0.14240874,0.14240874 0 0 0 0.002,0.00195 c 0.377537,0.2139375 0.798683,0.3203125 1.253906,0.3203125 0.455224,10e-8 0.872076,-0.107855 1.244141,-0.3222656 v 0.00195 c 0.375348,-0.2126975 0.676447,-0.5010275 0.896484,-0.8593749 0.227445,-0.3601197 0.341797,-0.7631176 0.341797,-1.1972657 0,-0.4397274 -0.115564,-0.8423103 -0.34375,-1.1972656 C 18.848747,0.97919766 18.547896,0.69455035 18.173828,0.48828125 17.801763,0.2738707 17.384911,0.16601562 16.929687,0.16601562 Z m 0,0.28515626 c 0.41101,0 0.775476,0.0941629 1.103516,0.28320312 a 0.14240874,0.14240874 0 0 0 0.002,0.001953 c 0.335896,0.18474301 0.597884,0.43229048 0.792969,0.74999998 a 0.14240874,0.14240874 0 0 0 0.002,0.00391 c 0.198998,0.3095517 0.296875,0.6520622 0.296875,1.0429687 0,0.3846196 -0.09909,0.7306213 -0.298828,1.046875 C 18.632846,3.898104 18.369826,4.1510437 18.033203,4.3417969 17.705163,4.5308371 17.340697,4.625 16.929687,4.625 16.518678,4.625 16.150842,4.5313102 15.816406,4.3417969 15.485748,4.151248 15.223047,3.8987982 15.021484,3.5800781 14.827232,3.2637248 14.730469,2.9185106 14.730469,2.5332031 c 0,-0.3915846 0.09749,-0.7352807 0.291015,-1.0449219 0.201361,-0.3183872 0.463061,-0.56742772 0.792969,-0.75195308 a 0.14240874,0.14240874 0 0 0 0.002,0 c 0.334436,-0.18951333 0.702272,-0.28515624 1.113281,-0.28515624 z m 0,0.82812502 c -0.342294,0 -0.651421,0.1279846 -0.894531,0.3710937 -0.237831,0.2378313 -0.361328,0.5414312 -0.361328,0.8828125 0,0.3413813 0.124487,0.649157 0.361328,0.8925782 a 0.14240874,0.14240874 0 0 0 0.002,0.00195 c 0.243422,0.2368421 0.551197,0.3613281 0.892578,0.3613281 0.341382,0 0.644982,-0.12545 0.882813,-0.3632812 0.243109,-0.2431094 0.371094,-0.550284 0.371094,-0.8925782 0,-0.3407345 -0.124377,-0.6432261 -0.361328,-0.8808594 C 17.584318,1.4077865 17.277278,1.2792969 16.929687,1.2792969 Z m 0,0.2851562 c 0.281319,0 0.500219,0.090664 0.689454,0.2851563 a 0.14240874,0.14240874 0 0 0 0.002,0.00195 c 0.189352,0.1893519 0.277343,0.4059797 0.277343,0.6816406 0,0.2747482 -0.09117,0.4954662 -0.287109,0.6914063 -0.189352,0.1893519 -0.40598,0.2792968 -0.681641,0.2792969 -0.274723,0 -0.496267,-0.088332 -0.691406,-0.2773438 l -0.002,-0.00195 C 16.047317,3.0294707 15.958984,2.8079269 15.958984,2.5332031 c 0,-0.275661 0.08995,-0.4922887 0.279297,-0.6816406 0.195941,-0.1959402 0.416659,-0.2871094 0.691406,-0.2871094 z m -1.005859,3.515625 a 0.14240874,0.14240874 0 0 0 -0.134765,0.09375 L 10.974609,18.433594 A 0.14240874,0.14240874 0 0 0 11.109375,18.625 h 1.796875 a 0.14240874,0.14240874 0 0 0 0.134766,-0.0957 l 1.248047,-3.607422 h 5.263671 l 1.291016,3.607422 a 0.14240874,0.14240874 0 0 0 0.134766,0.0957 h 1.779296 a 0.14240874,0.14240874 0 0 0 0.134766,-0.191406 L 18.015625,5.171875 a 0.14240874,0.14240874 0 0 0 -0.134766,-0.091797 z m 0.09961,0.2832031 h 1.757813 l 4.773437,12.9765628 h -1.476562 l -1.291016,-3.607422 a 0.14240874,0.14240874 0 0 0 -0.134765,-0.0957 H 14.1875 a 0.14240874,0.14240874 0 0 0 -0.134766,0.0957 l -1.248046,3.607422 H 11.3125 Z m 0.869141,1.0683594 a 0.14240874,0.14240874 0 0 0 -0.136719,0.1035156 c -0.278588,0.9780232 -0.52151,1.7927721 -0.728515,2.4433594 -0.207416,0.6518774 -0.381701,1.1823504 -0.523438,1.5898434 l -0.933593,2.6875 a 0.14240874,0.14240874 0 0 0 0.132812,0.189454 h 4.423828 a 0.14240874,0.14240874 0 0 0 0.134766,-0.191407 l -0.960938,-2.6875 C 18.141514,10.123996 17.961085,9.5828416 17.759766,8.9433594 17.55834,8.2976108 17.313956,7.4939253 17.029297,6.5332031 A 0.14240874,0.14240874 0 0 0 16.892578,6.4316406 Z m 0,0.6386719 c 0.218553,0.7323985 0.429787,1.4333368 0.59375,1.9589844 0.202133,0.6420672 0.383803,1.1852581 0.544922,1.6328121 l 0.892578,2.498047 h -4.019531 l 0.869141,-2.498047 c 0.143051,-0.411273 0.317489,-0.944251 0.52539,-1.5976559 0.169459,-0.532586 0.377462,-1.2464257 0.59375,-1.9941406 z"/></g></g></svg>