<svg height="128" viewBox="0 0 33.867 33.867" width="128" xmlns="http://www.w3.org/2000/svg"><g fill="#00bdeb" stroke-linecap="round"><g transform="translate(-.008)"><g stroke-linejoin="round"><path d="m1.24 15.584a1.088 1.088 0 0 0 -1.088 1.088v15.918a1.088 1.088 0 0 0 1.088 1.09 1.088 1.088 0 0 0 1.088-1.09v-15.918a1.088 1.088 0 0 0 -1.088-1.088z"/><path d="m32.643 15.584a1.088 1.088 0 0 0 -1.088 1.088v15.918a1.088 1.088 0 0 0 1.088 1.09 1.088 1.088 0 0 0 1.088-1.09v-15.918a1.088 1.088 0 0 0 -1.088-1.088z"/><path d="m3.979 23.543a1.088 1.088 0 0 0 -1.088 1.088 1.088 1.088 0 0 0 1.088 1.088h25.926a1.088 1.088 0 0 0 1.088-1.088 1.088 1.088 0 0 0 -1.088-1.088z"/></g><path d="m8.15 18.793-5.838 5.838 5.838 5.838a.87.87 0 0 0 1.231 0 .87.87 0 0 0 0-1.231l-4.607-4.607 4.607-4.607a.87.87 0 0 0 0-1.231.87.87 0 0 0 -1.231 0z"/><path d="m25.117 18.539a.87.87 0 0 0 -.615.254.87.87 0 0 0 0 1.231l4.607 4.607-4.607 4.607a.87.87 0 0 0 0 1.231.87.87 0 0 0 1.231 0l5.838-5.838-5.838-5.838a.87.87 0 0 0 -.615-.254z"/></g><g stroke-linejoin="round"><path d="m11.109 18.482 4.815-13.26h1.958l4.877 13.26h-1.78l-1.326-3.702h-5.464l-1.282 3.702zm3.596-5.18h4.423l-.961-2.688q-.24-.667-.543-1.629-.303-.97-.73-2.412-.418 1.468-.73 2.447-.311.979-.525 1.593zm2.225-8.535q-.65 0-1.184-.303-.525-.303-.845-.81-.311-.507-.311-1.121 0-.623.311-1.121.32-.507.845-.801.534-.303 1.184-.303t1.175.303q.534.294.845.801.32.498.32 1.121 0 .614-.32 1.121-.311.507-.845.81-.525.303-1.175.303zm0-1.121q.463 0 .783-.32.329-.329.329-.792t-.32-.783q-.32-.329-.792-.329-.463 0-.792.329-.32.32-.32.783t.32.792q.329.32.792.32z"/><path d="m16.93.166c-.455 0-.876.108-1.254.322-.37.207-.671.49-.896.848a.142.142 0 0 0 0 .002c-.222.355-.334.756-.334 1.195 0 .433.113.837.334 1.197.226.357.526.645.895.857a.142.142 0 0 0 .002.002c.378.214.799.32 1.254.32s.872-.108 1.244-.322v.002c.375-.213.676-.501.896-.859.227-.36.342-.763.342-1.197 0-.44-.116-.842-.344-1.197-.22-.357-.521-.641-.895-.848-.372-.214-.789-.322-1.244-.322zm0 .285c.411 0 .775.094 1.104.283a.142.142 0 0 0 .002.002c.336.185.598.432.793.75a.142.142 0 0 0 .002.004c.199.31.297.652.297 1.043 0 .385-.099.731-.299 1.047-.195.318-.458.571-.795.762-.328.189-.693.283-1.104.283s-.779-.094-1.113-.283c-.331-.191-.593-.443-.795-.762-.194-.316-.291-.662-.291-1.047 0-.392.097-.735.291-1.045.201-.318.463-.567.793-.752a.142.142 0 0 0 .002 0c.334-.19.702-.285 1.113-.285zm0 .828c-.342 0-.651.128-.895.371-.238.238-.361.541-.361.883s.124.649.361.893a.142.142 0 0 0 .002.002c.243.237.551.361.893.361.341 0 .645-.125.883-.363.243-.243.371-.55.371-.893 0-.341-.124-.643-.361-.881-.238-.245-.545-.373-.893-.373zm0 .285c.281 0 .5.091.689.285a.142.142 0 0 0 .002.002c.189.189.277.406.277.682 0 .275-.091.495-.287.691-.189.189-.406.279-.682.279-.275 0-.496-.088-.691-.277l-.002-.002c-.189-.195-.277-.417-.277-.691 0-.276.09-.492.279-.682.196-.196.417-.287.691-.287zm-1.006 3.516a.142.142 0 0 0 -.135.094l-4.815 13.26a.142.142 0 0 0 .135.191h1.797a.142.142 0 0 0 .135-.096l1.248-3.607h5.264l1.291 3.607a.142.142 0 0 0 .135.096h1.779a.142.142 0 0 0 .135-.191l-4.877-13.262a.142.142 0 0 0 -.135-.092zm.1.283h1.758l4.773 12.977h-1.477l-1.291-3.607a.142.142 0 0 0 -.135-.096h-5.465a.142.142 0 0 0 -.135.096l-1.248 3.607h-1.492zm.869 1.068a.142.142 0 0 0 -.137.104c-.279.978-.522 1.793-.729 2.443-.207.652-.382 1.182-.523 1.59l-.934 2.688a.142.142 0 0 0 .133.189h4.424a.142.142 0 0 0 .135-.191l-.961-2.688c-.159-.442-.34-.984-.541-1.623-.201-.646-.446-1.449-.73-2.41a.142.142 0 0 0 -.137-.102zm0 .639c.219.732.43 1.433.594 1.959.202.642.384 1.185.545 1.633l.893 2.498h-4.02l.869-2.498c.143-.411.317-.944.525-1.598.169-.533.377-1.246.594-1.994z"/></g></g></svg>
